<svg width="75" height="13" viewBox="0 0 75 13" fill="none" xmlns="http://www.w3.org/2000/svg">
<path d="M4.49645 0.545454V10H3.06534V1.97656H3.00994L0.747869 3.45384V2.08736L3.10689 0.545454H4.49645ZM10.8005 10.1293C10.1665 10.1293 9.60024 10.02 9.10166 9.80149C8.60616 9.58298 8.21376 9.27983 7.92446 8.89205C7.63824 8.50118 7.48436 8.04877 7.46281 7.5348H8.91239C8.93085 7.81487 9.02472 8.058 9.19399 8.2642C9.36634 8.46733 9.59101 8.62429 9.868 8.73509C10.145 8.84588 10.4528 8.90128 10.7913 8.90128C11.1637 8.90128 11.493 8.83665 11.7792 8.70739C12.0685 8.57812 12.2947 8.39808 12.4578 8.16726C12.621 7.93336 12.7025 7.66406 12.7025 7.35938C12.7025 7.04238 12.621 6.76385 12.4578 6.52379C12.2978 6.28066 12.0624 6.08984 11.7515 5.95135C11.4438 5.81286 11.0714 5.74361 10.6343 5.74361H9.83568V4.58026H10.6343C10.9852 4.58026 11.2929 4.51716 11.5576 4.39098C11.8254 4.2648 12.0347 4.08937 12.1855 3.8647C12.3363 3.63696 12.4117 3.37074 12.4117 3.06605C12.4117 2.77367 12.3455 2.51977 12.2132 2.30433C12.0839 2.08582 11.8992 1.91501 11.6592 1.7919C11.4222 1.6688 11.1421 1.60724 10.819 1.60724C10.5112 1.60724 10.2235 1.66418 9.95571 1.77805C9.69103 1.88885 9.4756 2.04889 9.3094 2.25817C9.14321 2.46437 9.05396 2.71212 9.04165 3.00142H7.66132C7.67671 2.49053 7.82751 2.04119 8.11374 1.65341C8.40303 1.26562 8.78466 0.962476 9.25862 0.743963C9.73258 0.525449 10.2589 0.416193 10.8375 0.416193C11.4438 0.416193 11.967 0.534682 12.4071 0.771662C12.8502 1.00556 13.1919 1.31794 13.4319 1.70881C13.6751 2.09967 13.7951 2.52746 13.792 2.99219C13.7951 3.52154 13.6474 3.97088 13.3488 4.3402C13.0534 4.70952 12.6594 4.95727 12.167 5.08345V5.15732C12.7948 5.25272 13.2811 5.50201 13.6258 5.90518C13.9736 6.30836 14.1459 6.80848 14.1429 7.40554C14.1459 7.92566 14.0013 8.39193 13.7089 8.80433C13.4196 9.21674 13.0241 9.54143 12.5225 9.77841C12.0208 10.0123 11.4468 10.1293 10.8005 10.1293ZM19.6344 10.1293C19.0004 10.1293 18.4341 10.02 17.9356 9.80149C17.4401 9.58298 17.0477 9.27983 16.7584 8.89205C16.4721 8.50118 16.3183 8.04877 16.2967 7.5348H17.7463C17.7648 7.81487 17.8586 8.058 18.0279 8.2642C18.2002 8.46733 18.4249 8.62429 18.7019 8.73509C18.9789 8.84588 19.2867 8.90128 19.6252 8.90128C19.9976 8.90128 20.3269 8.83665 20.6131 8.70739C20.9024 8.57812 21.1286 8.39808 21.2917 8.16726C21.4549 7.93336 21.5364 7.66406 21.5364 7.35938C21.5364 7.04238 21.4549 6.76385 21.2917 6.52379C21.1317 6.28066 20.8963 6.08984 20.5854 5.95135C20.2777 5.81286 19.9053 5.74361 19.4682 5.74361H18.6696V4.58026H19.4682C19.8191 4.58026 20.1269 4.51716 20.3915 4.39098C20.6593 4.2648 20.8686 4.08937 21.0194 3.8647C21.1702 3.63696 21.2456 3.37074 21.2456 3.06605C21.2456 2.77367 21.1794 2.51977 21.0471 2.30433C20.9178 2.08582 20.7332 1.91501 20.4931 1.7919C20.2561 1.6688 19.9761 1.60724 19.6529 1.60724C19.3451 1.60724 19.0574 1.66418 18.7896 1.77805C18.5249 1.88885 18.3095 2.04889 18.1433 2.25817C17.9771 2.46437 17.8879 2.71212 17.8756 3.00142H16.4952C16.5106 2.49053 16.6614 2.04119 16.9476 1.65341C17.2369 1.26562 17.6186 0.962476 18.0925 0.743963C18.5665 0.525449 19.0928 0.416193 19.6714 0.416193C20.2777 0.416193 20.8009 0.534682 21.241 0.771662C21.6841 1.00556 22.0258 1.31794 22.2658 1.70881C22.509 2.09967 22.629 2.52746 22.6259 2.99219C22.629 3.52154 22.4813 3.97088 22.1827 4.3402C21.8873 4.70952 21.4933 4.95727 21.0009 5.08345V5.15732C21.6288 5.25272 22.115 5.50201 22.4597 5.90518C22.8075 6.30836 22.9798 6.80848 22.9768 7.40554C22.9798 7.92566 22.8352 8.39193 22.5428 8.80433C22.2535 9.21674 21.858 9.54143 21.3564 9.77841C20.8547 10.0123 20.2807 10.1293 19.6344 10.1293ZM26.7118 8.70739L26.6425 9.21058C26.5964 9.5799 26.5179 9.96461 26.4071 10.3647C26.2994 10.7679 26.187 11.1418 26.0701 11.4865C25.9562 11.8312 25.8623 12.1051 25.7885 12.3082H24.8098C24.8498 12.1174 24.9052 11.8589 24.976 11.5327C25.0468 11.2095 25.116 10.8479 25.1837 10.4478C25.2514 10.0477 25.3022 9.63991 25.3361 9.22443L25.3822 8.70739H26.7118ZM32.0464 10.1293C31.4124 10.1293 30.8461 10.02 30.3475 9.80149C29.852 9.58298 29.4596 9.27983 29.1703 8.89205C28.8841 8.50118 28.7302 8.04877 28.7087 7.5348H30.1582C30.1767 7.81487 30.2706 8.058 30.4399 8.2642C30.6122 8.46733 30.8369 8.62429 31.1139 8.73509C31.3908 8.84588 31.6986 8.90128 32.0372 8.90128C32.4095 8.90128 32.7389 8.83665 33.0251 8.70739C33.3144 8.57812 33.5406 8.39808 33.7037 8.16726C33.8668 7.93336 33.9484 7.66406 33.9484 7.35938C33.9484 7.04238 33.8668 6.76385 33.7037 6.52379C33.5437 6.28066 33.3082 6.08984 32.9974 5.95135C32.6896 5.81286 32.3172 5.74361 31.8802 5.74361H31.0815V4.58026H31.8802C32.231 4.58026 32.5388 4.51716 32.8035 4.39098C33.0712 4.2648 33.2805 4.08937 33.4313 3.8647C33.5821 3.63696 33.6575 3.37074 33.6575 3.06605C33.6575 2.77367 33.5914 2.51977 33.459 2.30433C33.3298 2.08582 33.1451 1.91501 32.905 1.7919C32.6681 1.6688 32.388 1.60724 32.0649 1.60724C31.7571 1.60724 31.4693 1.66418 31.2016 1.77805C30.9369 1.88885 30.7215 2.04889 30.5553 2.25817C30.3891 2.46437 30.2998 2.71212 30.2875 3.00142H28.9072C28.9226 2.49053 29.0734 2.04119 29.3596 1.65341C29.6489 1.26562 30.0305 0.962476 30.5045 0.743963C30.9784 0.525449 31.5047 0.416193 32.0833 0.416193C32.6896 0.416193 33.2128 0.534682 33.6529 0.771662C34.0961 1.00556 34.4377 1.31794 34.6778 1.70881C34.9209 2.09967 35.0409 2.52746 35.0379 2.99219C35.0409 3.52154 34.8932 3.97088 34.5947 4.3402C34.2992 4.70952 33.9053 4.95727 33.4129 5.08345V5.15732C34.0407 5.25272 34.527 5.50201 34.8717 5.90518C35.2194 6.30836 35.3918 6.80848 35.3887 7.40554C35.3918 7.92566 35.2471 8.39193 34.9548 8.80433C34.6655 9.21674 34.27 9.54143 33.7683 9.77841C33.2667 10.0123 32.6927 10.1293 32.0464 10.1293ZM40.8803 10.1293C40.2463 10.1293 39.68 10.02 39.1814 9.80149C38.6859 9.58298 38.2935 9.27983 38.0042 8.89205C37.718 8.50118 37.5641 8.04877 37.5426 7.5348H38.9922C39.0106 7.81487 39.1045 8.058 39.2738 8.2642C39.4461 8.46733 39.6708 8.62429 39.9478 8.73509C40.2248 8.84588 40.5325 8.90128 40.8711 8.90128C41.2435 8.90128 41.5728 8.83665 41.859 8.70739C42.1483 8.57812 42.3745 8.39808 42.5376 8.16726C42.7007 7.93336 42.7823 7.66406 42.7823 7.35938C42.7823 7.04238 42.7007 6.76385 42.5376 6.52379C42.3776 6.28066 42.1421 6.08984 41.8313 5.95135C41.5235 5.81286 41.1511 5.74361 40.7141 5.74361H39.9154V4.58026H40.7141C41.065 4.58026 41.3727 4.51716 41.6374 4.39098C41.9052 4.2648 42.1144 4.08937 42.2652 3.8647C42.416 3.63696 42.4914 3.37074 42.4914 3.06605C42.4914 2.77367 42.4253 2.51977 42.2929 2.30433C42.1637 2.08582 41.979 1.91501 41.739 1.7919C41.502 1.6688 41.2219 1.60724 40.8988 1.60724C40.591 1.60724 40.3032 1.66418 40.0355 1.77805C39.7708 1.88885 39.5554 2.04889 39.3892 2.25817C39.223 2.46437 39.1337 2.71212 39.1214 3.00142H37.7411C37.7565 2.49053 37.9073 2.04119 38.1935 1.65341C38.4828 1.26562 38.8644 0.962476 39.3384 0.743963C39.8123 0.525449 40.3386 0.416193 40.9172 0.416193C41.5235 0.416193 42.0467 0.534682 42.4868 0.771662C42.93 1.00556 43.2716 1.31794 43.5117 1.70881C43.7548 2.09967 43.8748 2.52746 43.8718 2.99219C43.8748 3.52154 43.7271 3.97088 43.4286 4.3402C43.1331 4.70952 42.7392 4.95727 42.2468 5.08345V5.15732C42.8746 5.25272 43.3609 5.50201 43.7056 5.90518C44.0534 6.30836 44.2257 6.80848 44.2226 7.40554C44.2257 7.92566 44.0811 8.39193 43.7887 8.80433C43.4994 9.21674 43.1039 9.54143 42.6022 9.77841C42.1006 10.0123 41.5266 10.1293 40.8803 10.1293ZM49.7142 10.1293C49.0802 10.1293 48.5139 10.02 48.0153 9.80149C47.5198 9.58298 47.1274 9.27983 46.8381 8.89205C46.5519 8.50118 46.398 8.04877 46.3765 7.5348H47.8261C47.8445 7.81487 47.9384 8.058 48.1077 8.2642C48.28 8.46733 48.5047 8.62429 48.7817 8.73509C49.0587 8.84588 49.3664 8.90128 49.705 8.90128C50.0774 8.90128 50.4067 8.83665 50.6929 8.70739C50.9822 8.57812 51.2084 8.39808 51.3715 8.16726C51.5346 7.93336 51.6162 7.66406 51.6162 7.35938C51.6162 7.04238 51.5346 6.76385 51.3715 6.52379C51.2115 6.28066 50.976 6.08984 50.6652 5.95135C50.3574 5.81286 49.985 5.74361 49.548 5.74361H48.7494V4.58026H49.548C49.8989 4.58026 50.2066 4.51716 50.4713 4.39098C50.7391 4.2648 50.9483 4.08937 51.0991 3.8647C51.2499 3.63696 51.3253 3.37074 51.3253 3.06605C51.3253 2.77367 51.2592 2.51977 51.1268 2.30433C50.9976 2.08582 50.8129 1.91501 50.5729 1.7919C50.3359 1.6688 50.0558 1.60724 49.7327 1.60724C49.4249 1.60724 49.1371 1.66418 48.8694 1.77805C48.6047 1.88885 48.3893 2.04889 48.2231 2.25817C48.0569 2.46437 47.9676 2.71212 47.9553 3.00142H46.575C46.5904 2.49053 46.7412 2.04119 47.0274 1.65341C47.3167 1.26562 47.6983 0.962476 48.1723 0.743963C48.6463 0.525449 49.1725 0.416193 49.7511 0.416193C50.3574 0.416193 50.8806 0.534682 51.3207 0.771662C51.7639 1.00556 52.1055 1.31794 52.3456 1.70881C52.5887 2.09967 52.7088 2.52746 52.7057 2.99219C52.7088 3.52154 52.561 3.97088 52.2625 4.3402C51.967 4.70952 51.5731 4.95727 51.0807 5.08345V5.15732C51.7085 5.25272 52.1948 5.50201 52.5395 5.90518C52.8873 6.30836 53.0596 6.80848 53.0565 7.40554C53.0596 7.92566 52.915 8.39193 52.6226 8.80433C52.3333 9.21674 51.9378 9.54143 51.4361 9.77841C50.9345 10.0123 50.3605 10.1293 49.7142 10.1293ZM55.9052 10.0877C55.6528 10.0877 55.4358 9.99846 55.2542 9.81996C55.0727 9.63838 54.9819 9.41986 54.9819 9.16442C54.9819 8.91205 55.0727 8.69661 55.2542 8.51811C55.4358 8.33653 55.6528 8.24574 55.9052 8.24574C56.1575 8.24574 56.3745 8.33653 56.5561 8.51811C56.7377 8.69661 56.8285 8.91205 56.8285 9.16442C56.8285 9.33369 56.7854 9.48911 56.6992 9.63068C56.6161 9.76918 56.5053 9.87997 56.3668 9.96307C56.2283 10.0462 56.0744 10.0877 55.9052 10.0877ZM62.0627 10.157C61.3333 10.1539 60.71 9.96153 60.193 9.5799C59.676 9.19827 59.2805 8.64276 59.0066 7.91335C58.7327 7.18395 58.5957 6.30528 58.5957 5.27734C58.5957 4.25249 58.7327 3.37689 59.0066 2.65057C59.2836 1.92424 59.6806 1.37026 60.1976 0.988636C60.7177 0.607007 61.3394 0.416193 62.0627 0.416193C62.7859 0.416193 63.4061 0.608546 63.9231 0.993252C64.4402 1.37488 64.8356 1.92886 65.1095 2.65518C65.3865 3.37843 65.525 4.25249 65.525 5.27734C65.525 6.30836 65.3881 7.18857 65.1142 7.91797C64.8403 8.64429 64.4448 9.19981 63.9277 9.58452C63.4107 9.96615 62.789 10.157 62.0627 10.157ZM62.0627 8.92436C62.7028 8.92436 63.2029 8.61198 63.563 7.98722C63.9262 7.36245 64.1078 6.45916 64.1078 5.27734C64.1078 4.49254 64.0247 3.82931 63.8585 3.28764C63.6954 2.7429 63.4599 2.33049 63.1522 2.05043C62.8475 1.76728 62.4843 1.62571 62.0627 1.62571C61.4256 1.62571 60.9255 1.93963 60.5623 2.56747C60.1992 3.19531 60.016 4.0986 60.013 5.27734C60.013 6.06522 60.0945 6.73153 60.2576 7.27628C60.4238 7.81795 60.6593 8.22881 60.964 8.50888C61.2686 8.78587 61.6349 8.92436 62.0627 8.92436ZM70.9093 10.157C70.1799 10.1539 69.5566 9.96153 69.0396 9.5799C68.5226 9.19827 68.1271 8.64276 67.8532 7.91335C67.5793 7.18395 67.4423 6.30528 67.4423 5.27734C67.4423 4.25249 67.5793 3.37689 67.8532 2.65057C68.1302 1.92424 68.5272 1.37026 69.0442 0.988636C69.5643 0.607007 70.186 0.416193 70.9093 0.416193C71.6325 0.416193 72.2527 0.608546 72.7697 0.993252C73.2868 1.37488 73.6822 1.92886 73.9562 2.65518C74.2331 3.37843 74.3716 4.25249 74.3716 5.27734C74.3716 6.30836 74.2347 7.18857 73.9608 7.91797C73.6869 8.64429 73.2914 9.19981 72.7743 9.58452C72.2573 9.96615 71.6356 10.157 70.9093 10.157ZM70.9093 8.92436C71.5494 8.92436 72.0495 8.61198 72.4096 7.98722C72.7728 7.36245 72.9544 6.45916 72.9544 5.27734C72.9544 4.49254 72.8713 3.82931 72.7051 3.28764C72.542 2.7429 72.3065 2.33049 71.9988 2.05043C71.6941 1.76728 71.3309 1.62571 70.9093 1.62571C70.2722 1.62571 69.7721 1.93963 69.4089 2.56747C69.0458 3.19531 68.8626 4.0986 68.8596 5.27734C68.8596 6.06522 68.9411 6.73153 69.1042 7.27628C69.2704 7.81795 69.5059 8.22881 69.8106 8.50888C70.1152 8.78587 70.4815 8.92436 70.9093 8.92436Z" fill="#6F7173"/>
</svg>
