<svg width="81" height="33" viewBox="0 0 81 33" fill="none" xmlns="http://www.w3.org/2000/svg">
<path d="M72.5 17C67.8129 17 64 13.1869 64 8.5C64 3.81315 67.8129 0 72.5 0C77.1871 0 81 3.81315 81 8.5C81 13.1869 77.1871 17 72.5 17Z" fill="white"/>
<path d="M81 8.5C81 3.81315 77.1871 0 72.5 0V17C77.1871 17 81 13.1869 81 8.5Z" fill="white"/>
<path d="M72.5 15.891C68.4243 15.891 65.1087 12.5752 65.1087 8.49971C65.1087 4.4242 68.4243 1.1084 72.5 1.1084C76.5757 1.1084 79.8913 4.42423 79.8913 8.49971C79.8913 12.5752 76.5757 15.891 72.5 15.891Z" fill="#88CC2A"/>
<path d="M79.8913 8.49971C79.8913 4.42423 76.5757 1.1084 72.5 1.1084V15.891C76.5757 15.891 79.8913 12.5752 79.8913 8.49971Z" fill="#7FB335"/>
<path d="M71.7608 11.8262C71.4772 11.8262 71.1935 11.7179 70.9769 11.5013L68.6924 9.21682C68.2593 8.78392 68.2593 8.08197 68.6924 7.64904C69.1255 7.21594 69.8271 7.21594 70.2602 7.64904L71.7608 9.14949L74.9245 5.98596C75.3576 5.55286 76.0592 5.55286 76.4923 5.98596C76.9254 6.41886 76.9254 7.12081 76.4923 7.55374L72.5447 11.5013C72.3282 11.7179 72.0445 11.8262 71.7608 11.8262Z" fill="white"/>
<path d="M74.9245 5.98596L72.5 8.41036V11.5378C72.5144 11.5248 72.5308 11.5152 72.5448 11.5013L76.4923 7.55371C76.9254 7.12081 76.9254 6.41887 76.4923 5.98593C76.0592 5.55286 75.3576 5.55286 74.9245 5.98596Z" fill="#EDF0F2"/>
<path d="M13.6513 28H12.245L14.8054 20.7273H16.4318L18.9957 28H17.5895L15.647 22.2188H15.5902L13.6513 28ZM13.6974 25.1484H17.5327V26.2067H13.6974V25.1484ZM22.4601 28.1065C21.9156 28.1065 21.448 27.987 21.0574 27.7479C20.6691 27.5088 20.3696 27.1785 20.1589 26.7571C19.9506 26.3333 19.8464 25.8456 19.8464 25.294C19.8464 24.7401 19.953 24.2512 20.1661 23.8274C20.3791 23.4013 20.6798 23.0698 21.068 22.8331C21.4587 22.594 21.9203 22.4744 22.453 22.4744C22.8957 22.4744 23.2875 22.5561 23.6284 22.7195C23.9717 22.8804 24.2451 23.1089 24.4487 23.4048C24.6523 23.6984 24.7683 24.0417 24.7967 24.4347H23.568C23.5183 24.1719 23.4 23.9529 23.2129 23.7777C23.0283 23.6001 22.7809 23.5114 22.4707 23.5114C22.208 23.5114 21.9771 23.5824 21.7783 23.7244C21.5794 23.8641 21.4243 24.0653 21.3131 24.3281C21.2042 24.5909 21.1497 24.9058 21.1497 25.2727C21.1497 25.6444 21.2042 25.964 21.3131 26.2315C21.422 26.4967 21.5747 26.7015 21.7712 26.8459C21.97 26.9879 22.2032 27.0589 22.4707 27.0589C22.6601 27.0589 22.8294 27.0234 22.9786 26.9524C23.1301 26.879 23.2567 26.7737 23.3585 26.6364C23.4603 26.4991 23.5302 26.3321 23.568 26.1357H24.7967C24.766 26.5215 24.6523 26.8636 24.4558 27.1619C24.2593 27.4579 23.9918 27.6899 23.6533 27.858C23.3147 28.0237 22.917 28.1065 22.4601 28.1065ZM28.926 22.5455V23.5398H25.7904V22.5455H28.926ZM26.5645 21.2386H27.85V26.3594C27.85 26.5322 27.8761 26.6648 27.9282 26.7571C27.9826 26.8471 28.0536 26.9086 28.1412 26.9418C28.2288 26.9749 28.3259 26.9915 28.4324 26.9915C28.5129 26.9915 28.5863 26.9856 28.6526 26.9737C28.7212 26.9619 28.7733 26.9512 28.8088 26.9418L29.0255 27.9467C28.9568 27.9704 28.8586 27.9964 28.7307 28.0249C28.6052 28.0533 28.4514 28.0698 28.2691 28.0746C27.9471 28.084 27.6571 28.0355 27.399 27.929C27.141 27.8201 26.9362 27.652 26.7847 27.4247C26.6355 27.1974 26.5622 26.9134 26.5645 26.5724V21.2386ZM33.8277 25.706V22.5455H35.1132V28H33.8668V27.0305H33.8099C33.6868 27.3359 33.4844 27.5857 33.2027 27.7798C32.9233 27.974 32.5789 28.071 32.1693 28.071C31.8118 28.071 31.4958 27.9917 31.2212 27.8331C30.9489 27.6721 30.7358 27.4389 30.582 27.1335C30.4281 26.8258 30.3511 26.4541 30.3511 26.0185V22.5455H31.6366V25.8196C31.6366 26.1652 31.7313 26.4399 31.9207 26.6435C32.1101 26.8471 32.3587 26.9489 32.6665 26.9489C32.8559 26.9489 33.0393 26.9027 33.2169 26.8104C33.3945 26.718 33.5401 26.5807 33.6537 26.3984C33.7697 26.2138 33.8277 25.983 33.8277 25.706ZM38.3547 28.1101C38.0091 28.1101 37.6978 28.0485 37.4208 27.9254C37.1462 27.8 36.9283 27.6153 36.7674 27.3714C36.6087 27.1276 36.5294 26.8269 36.5294 26.4695C36.5294 26.1617 36.5863 25.9072 36.6999 25.706C36.8135 25.5047 36.9686 25.3438 37.1651 25.223C37.3616 25.1023 37.5829 25.0111 37.8292 24.9496C38.0777 24.8857 38.3346 24.8395 38.5998 24.8111C38.9194 24.7779 39.1786 24.7483 39.3774 24.7223C39.5763 24.6939 39.7207 24.6513 39.8107 24.5945C39.903 24.5353 39.9492 24.4441 39.9492 24.321V24.2997C39.9492 24.0322 39.8699 23.825 39.7113 23.6783C39.5526 23.5315 39.3242 23.4581 39.0259 23.4581C38.711 23.4581 38.4613 23.5268 38.2766 23.6641C38.0943 23.8014 37.9712 23.9635 37.9073 24.1506L36.707 23.9801C36.8017 23.6487 36.9579 23.3717 37.1757 23.1491C37.3935 22.9242 37.6599 22.7562 37.9748 22.6449C38.2896 22.5312 38.6376 22.4744 39.0188 22.4744C39.2816 22.4744 39.5432 22.5052 39.8036 22.5668C40.064 22.6283 40.3019 22.7301 40.5174 22.8722C40.7328 23.0118 40.9056 23.2024 41.0358 23.4439C41.1684 23.6854 41.2347 23.9872 41.2347 24.3494V28H39.9989V27.2507H39.9563C39.8782 27.4022 39.7681 27.5443 39.626 27.6768C39.4864 27.8071 39.31 27.9124 39.0969 27.9929C38.8862 28.071 38.6388 28.1101 38.3547 28.1101ZM38.6885 27.1655C38.9466 27.1655 39.1703 27.1146 39.3597 27.0128C39.5491 26.9086 39.6947 26.7713 39.7965 26.6009C39.9007 26.4304 39.9527 26.2446 39.9527 26.0433V25.4006C39.9125 25.4337 39.8438 25.4645 39.7468 25.4929C39.6521 25.5213 39.5455 25.5462 39.4272 25.5675C39.3088 25.5888 39.1916 25.6077 39.0756 25.6243C38.9596 25.6409 38.859 25.6551 38.7738 25.6669C38.582 25.6929 38.4104 25.7356 38.2588 25.7947C38.1073 25.8539 37.9878 25.9368 37.9002 26.0433C37.8126 26.1475 37.7688 26.2824 37.7688 26.4482C37.7688 26.6849 37.8552 26.8636 38.028 26.9844C38.2008 27.1051 38.421 27.1655 38.6885 27.1655ZM44.1628 20.7273V28H42.8773V20.7273H44.1628ZM45.8347 28V22.5455H47.1202V28H45.8347ZM46.481 21.7713C46.2774 21.7713 46.1022 21.7038 45.9555 21.5689C45.8087 21.4316 45.7353 21.267 45.7353 21.0753C45.7353 20.8812 45.8087 20.7166 45.9555 20.5817C46.1022 20.4444 46.2774 20.3757 46.481 20.3757C46.687 20.3757 46.8622 20.4444 47.0066 20.5817C47.1534 20.7166 47.2268 20.8812 47.2268 21.0753C47.2268 21.267 47.1534 21.4316 47.0066 21.5689C46.8622 21.7038 46.687 21.7713 46.481 21.7713ZM48.7211 28V27.1832L51.5336 23.657V23.6108H48.8135V22.5455H53.1068V23.4226L50.4292 26.8885V26.9347H53.1991V28H48.7211ZM56.327 28.1101C55.9813 28.1101 55.67 28.0485 55.393 27.9254C55.1184 27.8 54.9006 27.6153 54.7396 27.3714C54.581 27.1276 54.5017 26.8269 54.5017 26.4695C54.5017 26.1617 54.5585 25.9072 54.6722 25.706C54.7858 25.5047 54.9409 25.3438 55.1374 25.223C55.3339 25.1023 55.5552 25.0111 55.8014 24.9496C56.05 24.8857 56.3069 24.8395 56.572 24.8111C56.8916 24.7779 57.1509 24.7483 57.3497 24.7223C57.5486 24.6939 57.693 24.6513 57.783 24.5945C57.8753 24.5353 57.9214 24.4441 57.9214 24.321V24.2997C57.9214 24.0322 57.8421 23.825 57.6835 23.6783C57.5249 23.5315 57.2964 23.4581 56.9982 23.4581C56.6833 23.4581 56.4335 23.5268 56.2489 23.6641C56.0666 23.8014 55.9435 23.9635 55.8795 24.1506L54.6793 23.9801C54.774 23.6487 54.9302 23.3717 55.148 23.1491C55.3658 22.9242 55.6321 22.7562 55.947 22.6449C56.2619 22.5312 56.6099 22.4744 56.9911 22.4744C57.2538 22.4744 57.5154 22.5052 57.7759 22.5668C58.0363 22.6283 58.2742 22.7301 58.4896 22.8722C58.7051 23.0118 58.8779 23.2024 59.0081 23.4439C59.1407 23.6854 59.207 23.9872 59.207 24.3494V28H57.9712V27.2507H57.9286C57.8504 27.4022 57.7403 27.5443 57.5983 27.6768C57.4586 27.8071 57.2822 27.9124 57.0692 27.9929C56.8585 28.071 56.6111 28.1101 56.327 28.1101ZM56.6608 27.1655C56.9188 27.1655 57.1426 27.1146 57.332 27.0128C57.5214 26.9086 57.667 26.7713 57.7687 26.6009C57.8729 26.4304 57.925 26.2446 57.925 26.0433V25.4006C57.8848 25.4337 57.8161 25.4645 57.719 25.4929C57.6243 25.5213 57.5178 25.5462 57.3994 25.5675C57.2811 25.5888 57.1639 25.6077 57.0479 25.6243C56.9319 25.6409 56.8312 25.6551 56.746 25.6669C56.5543 25.6929 56.3826 25.7356 56.2311 25.7947C56.0796 25.8539 55.96 25.9368 55.8724 26.0433C55.7848 26.1475 55.7411 26.2824 55.7411 26.4482C55.7411 26.6849 55.8275 26.8636 56.0003 26.9844C56.1731 27.1051 56.3933 27.1655 56.6608 27.1655ZM60.8496 28V22.5455H62.096V23.4545H62.1528C62.2523 23.1397 62.4227 22.897 62.6642 22.7266C62.9081 22.5537 63.1862 22.4673 63.4987 22.4673C63.5697 22.4673 63.6491 22.4709 63.7366 22.478C63.8266 22.4827 63.9012 22.491 63.9604 22.5028V23.6854C63.9059 23.6664 63.8195 23.6499 63.7011 23.6357C63.5851 23.6191 63.4727 23.6108 63.3638 23.6108C63.1294 23.6108 62.9187 23.6617 62.7317 23.7635C62.547 23.8629 62.4014 24.0014 62.2949 24.179C62.1884 24.3565 62.1351 24.5613 62.1351 24.7933V28H60.8496Z" fill="#56CCC4"/>
<path d="M4.63352 19.0684C4.63817 19.0675 4.63888 19.0674 4.64031 19.0671C4.64281 19.0666 4.64281 19.0666 4.64353 19.0665C4.64353 19.0665 4.64353 19.0665 4.64496 19.0662C4.64567 19.0661 4.64782 19.0657 4.64853 19.0655C4.64996 19.0653 4.64996 19.0653 4.64996 19.0653C4.64996 19.0653 4.64996 19.0653 4.65103 19.0651C4.65992 19.0612 4.6634 19.062 4.67019 19.0607C5.81529 18.8459 7.01343 19.0912 7.98517 19.7344L8.71902 18.6465C8.75437 18.5944 8.81906 18.5686 8.87743 18.582C8.9386 18.5946 8.98644 18.6426 8.99803 18.7044L9.55785 21.6881C9.57353 21.7717 9.51839 21.8523 9.4355 21.8679L6.48933 22.4206C6.48754 22.421 6.48469 22.4215 6.48254 22.4219C6.39822 22.4377 6.31838 22.3828 6.30263 22.2988C6.29197 22.242 6.31316 22.1874 6.35377 22.1535L7.07682 21.081C6.45133 20.6687 5.70728 20.5194 4.94948 20.6616C3.40319 20.9599 2.38139 22.4646 2.67621 24.0359C2.97849 25.58 4.48145 26.6003 6.05315 26.3054L6.34945 27.9023L6.32801 27.9064C3.90513 28.3602 1.551 26.7618 1.07564 24.313C0.621874 21.8945 2.21616 19.5437 4.63352 19.0684Z" fill="#56CCC4"/>
</svg>
