<svg width="121" height="17" viewBox="0 0 121 17" fill="none" xmlns="http://www.w3.org/2000/svg">
<rect width="121" height="15" rx="4" fill="#FBE5FF"/>
<path d="M15.6392 11V5.18182H17.7699C18.1828 5.18182 18.5246 5.25 18.7955 5.38636C19.0663 5.52083 19.2689 5.7036 19.4034 5.93466C19.5379 6.16383 19.6051 6.42235 19.6051 6.71023C19.6051 6.95265 19.5606 7.1572 19.4716 7.32386C19.3826 7.48864 19.2633 7.62121 19.1136 7.72159C18.9659 7.82008 18.803 7.89205 18.625 7.9375V7.99432C18.8182 8.00379 19.0066 8.06629 19.1903 8.18182C19.3759 8.29545 19.5294 8.45739 19.6506 8.66761C19.7718 8.87784 19.8324 9.13352 19.8324 9.43466C19.8324 9.73201 19.7623 9.99905 19.6222 10.2358C19.4839 10.4706 19.2699 10.6572 18.9801 10.7955C18.6903 10.9318 18.3201 11 17.8693 11H15.6392ZM16.517 10.2472H17.7841C18.2045 10.2472 18.5057 10.1657 18.6875 10.0028C18.8693 9.83996 18.9602 9.63636 18.9602 9.39205C18.9602 9.20833 18.9138 9.03977 18.821 8.88636C18.7282 8.73295 18.5956 8.6108 18.4233 8.51989C18.2528 8.42898 18.0502 8.38352 17.8153 8.38352H16.517V10.2472ZM16.517 7.69886H17.6932C17.8902 7.69886 18.0672 7.66098 18.2244 7.58523C18.3835 7.50947 18.5095 7.40341 18.6023 7.26705C18.697 7.12879 18.7443 6.96591 18.7443 6.77841C18.7443 6.53788 18.66 6.33617 18.4915 6.1733C18.3229 6.01042 18.0644 5.92898 17.7159 5.92898H16.517V7.69886ZM22.0753 11.0966C21.7988 11.0966 21.5488 11.0455 21.3253 10.9432C21.1018 10.839 20.9247 10.6884 20.794 10.4915C20.6652 10.2945 20.6009 10.053 20.6009 9.76705C20.6009 9.52083 20.6482 9.31818 20.7429 9.15909C20.8376 9 20.9654 8.87405 21.1264 8.78125C21.2874 8.68845 21.4673 8.61837 21.6662 8.57102C21.8651 8.52367 22.0677 8.48769 22.2741 8.46307C22.5355 8.43277 22.7476 8.40814 22.9105 8.3892C23.0734 8.36837 23.1918 8.33523 23.2656 8.28977C23.3395 8.24432 23.3764 8.17045 23.3764 8.06818V8.0483C23.3764 7.80019 23.3063 7.60795 23.1662 7.47159C23.0279 7.33523 22.8215 7.26705 22.5469 7.26705C22.2609 7.26705 22.0355 7.33049 21.8707 7.45739C21.7079 7.58239 21.5952 7.72159 21.5327 7.875L20.7344 7.69318C20.8291 7.42803 20.9673 7.21402 21.1491 7.05114C21.3329 6.88636 21.544 6.76705 21.7827 6.69318C22.0213 6.61742 22.2723 6.57955 22.5355 6.57955C22.7098 6.57955 22.8944 6.60038 23.0895 6.64205C23.2865 6.68182 23.4702 6.75568 23.6406 6.86364C23.813 6.97159 23.9541 7.12595 24.0639 7.3267C24.1738 7.52557 24.2287 7.78409 24.2287 8.10227V11H23.3991V10.4034H23.3651C23.3101 10.5133 23.2277 10.6212 23.1179 10.7273C23.008 10.8333 22.867 10.9214 22.6946 10.9915C22.5223 11.0616 22.3158 11.0966 22.0753 11.0966ZM22.2599 10.4148C22.4948 10.4148 22.6955 10.3684 22.8622 10.2756C23.0308 10.1828 23.1586 10.0616 23.2457 9.91193C23.3348 9.76042 23.3793 9.59848 23.3793 9.42614V8.86364C23.349 8.89394 23.2902 8.92235 23.2031 8.94886C23.1179 8.97348 23.0204 8.99527 22.9105 9.0142C22.8007 9.03125 22.6937 9.04735 22.5895 9.0625C22.4853 9.07576 22.3982 9.08712 22.3281 9.09659C22.1634 9.11742 22.0128 9.15246 21.8764 9.2017C21.742 9.25095 21.634 9.32197 21.5526 9.41477C21.473 9.50568 21.4332 9.62689 21.4332 9.77841C21.4332 9.98864 21.5109 10.1477 21.6662 10.2557C21.8215 10.3617 22.0194 10.4148 22.2599 10.4148ZM28.63 7.7017L27.8601 7.83807C27.8279 7.73958 27.7768 7.64583 27.7067 7.55682C27.6385 7.4678 27.5457 7.39489 27.4283 7.33807C27.3108 7.28125 27.1641 7.25284 26.9879 7.25284C26.7474 7.25284 26.5466 7.30682 26.3857 7.41477C26.2247 7.52083 26.1442 7.65814 26.1442 7.8267C26.1442 7.97254 26.1982 8.08996 26.3061 8.17898C26.4141 8.26799 26.5883 8.34091 26.8288 8.39773L27.522 8.55682C27.9235 8.64962 28.2228 8.79261 28.4197 8.9858C28.6167 9.17898 28.7152 9.42992 28.7152 9.73864C28.7152 10 28.6394 10.233 28.4879 10.4375C28.3383 10.6402 28.129 10.7992 27.8601 10.9148C27.593 11.0303 27.2834 11.0881 26.9311 11.0881C26.4425 11.0881 26.0438 10.9839 25.7351 10.7756C25.4264 10.5653 25.237 10.267 25.1669 9.88068L25.9879 9.75568C26.0391 9.9697 26.1442 10.1316 26.3033 10.2415C26.4624 10.3494 26.6697 10.4034 26.9254 10.4034C27.2038 10.4034 27.4264 10.3456 27.593 10.2301C27.7597 10.1127 27.843 9.9697 27.843 9.80114C27.843 9.66477 27.7919 9.55019 27.6896 9.45739C27.5893 9.36458 27.4349 9.29451 27.2266 9.24716L26.4879 9.08523C26.0807 8.99242 25.7796 8.8447 25.5845 8.64205C25.3913 8.43939 25.2947 8.18277 25.2947 7.87216C25.2947 7.61458 25.3667 7.3892 25.5107 7.19602C25.6546 7.00284 25.8535 6.85227 26.1072 6.74432C26.361 6.63447 26.6518 6.57955 26.9794 6.57955C27.451 6.57955 27.8222 6.68182 28.093 6.88636C28.3639 7.08902 28.5429 7.3608 28.63 7.7017ZM31.5298 11.0881C31.0999 11.0881 30.7296 10.9962 30.419 10.8125C30.1103 10.6269 29.8717 10.3665 29.7031 10.0312C29.5365 9.69413 29.4531 9.29924 29.4531 8.84659C29.4531 8.39962 29.5365 8.00568 29.7031 7.66477C29.8717 7.32386 30.1065 7.05777 30.4077 6.86648C30.7107 6.67519 31.0649 6.57955 31.4702 6.57955C31.7164 6.57955 31.955 6.62027 32.1861 6.7017C32.4171 6.78314 32.6245 6.91098 32.8082 7.08523C32.992 7.25947 33.1368 7.4858 33.2429 7.7642C33.349 8.04072 33.402 8.37689 33.402 8.77273V9.07386H29.9332V8.4375H32.5696C32.5696 8.21402 32.5241 8.0161 32.4332 7.84375C32.3423 7.66951 32.2145 7.5322 32.0497 7.43182C31.8868 7.33144 31.6955 7.28125 31.4759 7.28125C31.2372 7.28125 31.0289 7.33996 30.8509 7.45739C30.6747 7.57292 30.5384 7.72443 30.4418 7.91193C30.3471 8.09754 30.2997 8.29924 30.2997 8.51705V9.0142C30.2997 9.30587 30.3509 9.55398 30.4531 9.75852C30.5573 9.96307 30.7022 10.1193 30.8878 10.2273C31.0734 10.3333 31.2902 10.3864 31.5384 10.3864C31.6993 10.3864 31.8461 10.3636 31.9787 10.3182C32.1113 10.2708 32.2259 10.2008 32.3224 10.108C32.419 10.0152 32.4929 9.90057 32.544 9.7642L33.348 9.90909C33.2836 10.1458 33.1681 10.3532 33.0014 10.5312C32.8366 10.7074 32.6293 10.8447 32.3793 10.9432C32.1312 11.0398 31.848 11.0881 31.5298 11.0881ZM38.0952 11.0852C37.7429 11.0852 37.4285 10.9953 37.152 10.8153C36.8774 10.6335 36.6615 10.375 36.5043 10.0398C36.349 9.70265 36.2713 9.2983 36.2713 8.8267C36.2713 8.35511 36.3499 7.9517 36.5071 7.61648C36.6662 7.28125 36.884 7.02462 37.1605 6.84659C37.437 6.66856 37.7505 6.57955 38.1009 6.57955C38.3717 6.57955 38.5895 6.625 38.7543 6.71591C38.9209 6.80492 39.0497 6.90909 39.1406 7.02841C39.2334 7.14773 39.3054 7.25284 39.3565 7.34375H39.4077V5.18182H40.2571V11H39.4276V10.321H39.3565C39.3054 10.4138 39.2315 10.5199 39.1349 10.6392C39.0402 10.7585 38.9096 10.8627 38.7429 10.9517C38.5762 11.0407 38.3603 11.0852 38.0952 11.0852ZM38.2827 10.3608C38.527 10.3608 38.7334 10.2964 38.902 10.1676C39.0724 10.0369 39.2012 9.85606 39.2884 9.625C39.3774 9.39394 39.4219 9.125 39.4219 8.81818C39.4219 8.51515 39.3783 8.25 39.2912 8.02273C39.2041 7.79545 39.0762 7.61837 38.9077 7.49148C38.7391 7.36458 38.5308 7.30114 38.2827 7.30114C38.027 7.30114 37.8139 7.36742 37.6435 7.5C37.473 7.63258 37.3442 7.81345 37.2571 8.04261C37.1719 8.27178 37.1293 8.5303 37.1293 8.81818C37.1293 9.10985 37.1728 9.37216 37.2599 9.60511C37.3471 9.83807 37.4759 10.0227 37.6463 10.1591C37.8187 10.2936 38.0308 10.3608 38.2827 10.3608ZM41.4695 11V6.63636H42.3189V11H41.4695ZM41.8984 5.96307C41.7507 5.96307 41.6238 5.91383 41.5178 5.81534C41.4136 5.71496 41.3615 5.59564 41.3615 5.45739C41.3615 5.31723 41.4136 5.19792 41.5178 5.09943C41.6238 4.99905 41.7507 4.94886 41.8984 4.94886C42.0462 4.94886 42.1721 4.99905 42.2763 5.09943C42.3823 5.19792 42.4354 5.31723 42.4354 5.45739C42.4354 5.59564 42.3823 5.71496 42.2763 5.81534C42.1721 5.91383 42.0462 5.96307 41.8984 5.96307ZM44.7315 11.0966C44.455 11.0966 44.205 11.0455 43.9815 10.9432C43.758 10.839 43.581 10.6884 43.4503 10.4915C43.3215 10.2945 43.2571 10.053 43.2571 9.76705C43.2571 9.52083 43.3045 9.31818 43.3991 9.15909C43.4938 9 43.6217 8.87405 43.7827 8.78125C43.9437 8.68845 44.1236 8.61837 44.3224 8.57102C44.5213 8.52367 44.724 8.48769 44.9304 8.46307C45.1918 8.43277 45.4039 8.40814 45.5668 8.3892C45.7296 8.36837 45.848 8.33523 45.9219 8.28977C45.9957 8.24432 46.0327 8.17045 46.0327 8.06818V8.0483C46.0327 7.80019 45.9626 7.60795 45.8224 7.47159C45.6842 7.33523 45.4777 7.26705 45.2031 7.26705C44.9171 7.26705 44.6918 7.33049 44.527 7.45739C44.3641 7.58239 44.2514 7.72159 44.1889 7.875L43.3906 7.69318C43.4853 7.42803 43.6236 7.21402 43.8054 7.05114C43.9891 6.88636 44.2003 6.76705 44.4389 6.69318C44.6776 6.61742 44.9285 6.57955 45.1918 6.57955C45.366 6.57955 45.5507 6.60038 45.7457 6.64205C45.9427 6.68182 46.1264 6.75568 46.2969 6.86364C46.4692 6.97159 46.6103 7.12595 46.7202 7.3267C46.83 7.52557 46.8849 7.78409 46.8849 8.10227V11H46.0554V10.4034H46.0213C45.9664 10.5133 45.884 10.6212 45.7741 10.7273C45.6643 10.8333 45.5232 10.9214 45.3509 10.9915C45.1785 11.0616 44.9721 11.0966 44.7315 11.0966ZM44.9162 10.4148C45.151 10.4148 45.3518 10.3684 45.5185 10.2756C45.687 10.1828 45.8149 10.0616 45.902 9.91193C45.991 9.76042 46.0355 9.59848 46.0355 9.42614V8.86364C46.0052 8.89394 45.9465 8.92235 45.8594 8.94886C45.7741 8.97348 45.6766 8.99527 45.5668 9.0142C45.4569 9.03125 45.3499 9.04735 45.2457 9.0625C45.1416 9.07576 45.0545 9.08712 44.9844 9.09659C44.8196 9.11742 44.669 9.15246 44.5327 9.2017C44.3982 9.25095 44.2902 9.32197 44.2088 9.41477C44.1293 9.50568 44.0895 9.62689 44.0895 9.77841C44.0895 9.98864 44.1671 10.1477 44.3224 10.2557C44.4777 10.3617 44.6757 10.4148 44.9162 10.4148ZM48.0163 11V6.63636H48.8374V7.32955H48.8828C48.9624 7.0947 49.1025 6.91004 49.3033 6.77557C49.5059 6.6392 49.7351 6.57102 49.9908 6.57102C50.0438 6.57102 50.1063 6.57292 50.1783 6.5767C50.2521 6.58049 50.3099 6.58523 50.3516 6.59091V7.40341C50.3175 7.39394 50.2569 7.38352 50.1697 7.37216C50.0826 7.3589 49.9955 7.35227 49.9084 7.35227C49.7076 7.35227 49.5286 7.39489 49.3714 7.48011C49.2161 7.56345 49.093 7.67992 49.0021 7.82955C48.9112 7.97727 48.8658 8.14583 48.8658 8.33523V11H48.0163ZM51.0866 11V6.63636H51.9361V11H51.0866ZM51.5156 5.96307C51.3679 5.96307 51.241 5.91383 51.1349 5.81534C51.0308 5.71496 50.9787 5.59564 50.9787 5.45739C50.9787 5.31723 51.0308 5.19792 51.1349 5.09943C51.241 4.99905 51.3679 4.94886 51.5156 4.94886C51.6634 4.94886 51.7893 4.99905 51.8935 5.09943C51.9995 5.19792 52.0526 5.31723 52.0526 5.45739C52.0526 5.59564 51.9995 5.71496 51.8935 5.81534C51.7893 5.91383 51.6634 5.96307 51.5156 5.96307ZM54.3487 11.0966C54.0722 11.0966 53.8222 11.0455 53.5987 10.9432C53.3752 10.839 53.1982 10.6884 53.0675 10.4915C52.9387 10.2945 52.8743 10.053 52.8743 9.76705C52.8743 9.52083 52.9216 9.31818 53.0163 9.15909C53.111 9 53.2389 8.87405 53.3999 8.78125C53.5608 8.68845 53.7408 8.61837 53.9396 8.57102C54.1385 8.52367 54.3411 8.48769 54.5476 8.46307C54.8089 8.43277 55.0211 8.40814 55.1839 8.3892C55.3468 8.36837 55.4652 8.33523 55.5391 8.28977C55.6129 8.24432 55.6499 8.17045 55.6499 8.06818V8.0483C55.6499 7.80019 55.5798 7.60795 55.4396 7.47159C55.3014 7.33523 55.0949 7.26705 54.8203 7.26705C54.5343 7.26705 54.3089 7.33049 54.1442 7.45739C53.9813 7.58239 53.8686 7.72159 53.8061 7.875L53.0078 7.69318C53.1025 7.42803 53.2408 7.21402 53.4226 7.05114C53.6063 6.88636 53.8175 6.76705 54.0561 6.69318C54.2947 6.61742 54.5457 6.57955 54.8089 6.57955C54.9832 6.57955 55.1679 6.60038 55.3629 6.64205C55.5599 6.68182 55.7436 6.75568 55.9141 6.86364C56.0864 6.97159 56.2275 7.12595 56.3374 7.3267C56.4472 7.52557 56.5021 7.78409 56.5021 8.10227V11H55.6726V10.4034H55.6385C55.5836 10.5133 55.5012 10.6212 55.3913 10.7273C55.2815 10.8333 55.1404 10.9214 54.968 10.9915C54.7957 11.0616 54.5893 11.0966 54.3487 11.0966ZM54.5334 10.4148C54.7682 10.4148 54.969 10.3684 55.1357 10.2756C55.3042 10.1828 55.4321 10.0616 55.5192 9.91193C55.6082 9.76042 55.6527 9.59848 55.6527 9.42614V8.86364C55.6224 8.89394 55.5637 8.92235 55.4766 8.94886C55.3913 8.97348 55.2938 8.99527 55.1839 9.0142C55.0741 9.03125 54.9671 9.04735 54.8629 9.0625C54.7588 9.07576 54.6716 9.08712 54.6016 9.09659C54.4368 9.11742 54.2862 9.15246 54.1499 9.2017C54.0154 9.25095 53.9074 9.32197 53.826 9.41477C53.7464 9.50568 53.7067 9.62689 53.7067 9.77841C53.7067 9.98864 53.7843 10.1477 53.9396 10.2557C54.0949 10.3617 54.2929 10.4148 54.5334 10.4148ZM58.1932 11.054C58.0379 11.054 57.9044 10.9991 57.7926 10.8892C57.6809 10.7775 57.625 10.643 57.625 10.4858C57.625 10.3305 57.6809 10.1979 57.7926 10.0881C57.9044 9.97633 58.0379 9.92045 58.1932 9.92045C58.3485 9.92045 58.482 9.97633 58.5938 10.0881C58.7055 10.1979 58.7614 10.3305 58.7614 10.4858C58.7614 10.59 58.7348 10.6856 58.6818 10.7727C58.6307 10.858 58.5625 10.9261 58.4773 10.9773C58.392 11.0284 58.2973 11.054 58.1932 11.054ZM58.1932 7.87784C58.0379 7.87784 57.9044 7.82197 57.7926 7.71023C57.6809 7.59848 57.625 7.46496 57.625 7.30966C57.625 7.15436 57.6809 7.02178 57.7926 6.91193C57.9044 6.80019 58.0379 6.74432 58.1932 6.74432C58.3485 6.74432 58.482 6.80019 58.5938 6.91193C58.7055 7.02178 58.7614 7.15436 58.7614 7.30966C58.7614 7.41383 58.7348 7.50947 58.6818 7.59659C58.6307 7.68182 58.5625 7.75 58.4773 7.80114C58.392 7.85227 58.2973 7.87784 58.1932 7.87784ZM64.0362 11.0795C63.7768 11.0758 63.5211 11.0284 63.2692 10.9375C63.0192 10.8466 62.7919 10.6951 62.5874 10.483C62.3828 10.2708 62.219 9.9858 62.0959 9.62784C61.9747 9.26989 61.9141 8.82292 61.9141 8.28693C61.9141 7.77936 61.9643 7.3286 62.0646 6.93466C62.1669 6.54072 62.3137 6.20833 62.505 5.9375C62.6963 5.66477 62.9273 5.45739 63.1982 5.31534C63.469 5.1733 63.773 5.10227 64.1101 5.10227C64.4567 5.10227 64.7644 5.17045 65.0334 5.30682C65.3023 5.44318 65.5201 5.63163 65.6868 5.87216C65.8554 6.11269 65.9624 6.38636 66.0078 6.69318H65.1413C65.0826 6.45076 64.9661 6.25284 64.7919 6.09943C64.6177 5.94602 64.3904 5.86932 64.1101 5.86932C63.6839 5.86932 63.3516 6.05492 63.1129 6.42614C62.8762 6.79735 62.7569 7.31345 62.755 7.97443H62.7976C62.898 7.80966 63.0211 7.66951 63.1669 7.55398C63.3146 7.43655 63.4794 7.34659 63.6612 7.28409C63.8449 7.2197 64.0381 7.1875 64.2408 7.1875C64.5779 7.1875 64.8828 7.26989 65.1555 7.43466C65.4302 7.59754 65.6489 7.82292 65.8118 8.1108C65.9747 8.39867 66.0561 8.72822 66.0561 9.09943C66.0561 9.47064 65.9718 9.80682 65.8033 10.108C65.6366 10.4091 65.4018 10.6477 65.0987 10.8239C64.7957 10.9981 64.4415 11.0833 64.0362 11.0795ZM64.0334 10.3409C64.2569 10.3409 64.4567 10.286 64.6328 10.1761C64.8089 10.0663 64.9482 9.91856 65.0504 9.73295C65.1527 9.54735 65.2038 9.33996 65.2038 9.1108C65.2038 8.88731 65.1536 8.68371 65.0533 8.5C64.9548 8.31629 64.8184 8.17045 64.6442 8.0625C64.4718 7.95455 64.2749 7.90057 64.0533 7.90057C63.8847 7.90057 63.7285 7.93277 63.5845 7.99716C63.4425 8.06155 63.3175 8.15057 63.2095 8.2642C63.1016 8.37784 63.0163 8.50852 62.9538 8.65625C62.8932 8.80208 62.8629 8.95644 62.8629 9.11932C62.8629 9.33712 62.9131 9.53883 63.0135 9.72443C63.1158 9.91004 63.255 10.0597 63.4311 10.1733C63.6091 10.285 63.8099 10.3409 64.0334 10.3409ZM69.1222 11.0795C68.8627 11.0758 68.607 11.0284 68.3551 10.9375C68.1051 10.8466 67.8778 10.6951 67.6733 10.483C67.4688 10.2708 67.3049 9.9858 67.1818 9.62784C67.0606 9.26989 67 8.82292 67 8.28693C67 7.77936 67.0502 7.3286 67.1506 6.93466C67.2528 6.54072 67.3996 6.20833 67.5909 5.9375C67.7822 5.66477 68.0133 5.45739 68.2841 5.31534C68.5549 5.1733 68.8589 5.10227 69.196 5.10227C69.5426 5.10227 69.8504 5.17045 70.1193 5.30682C70.3883 5.44318 70.6061 5.63163 70.7727 5.87216C70.9413 6.11269 71.0483 6.38636 71.0938 6.69318H70.2273C70.1686 6.45076 70.0521 6.25284 69.8778 6.09943C69.7036 5.94602 69.4763 5.86932 69.196 5.86932C68.7699 5.86932 68.4375 6.05492 68.1989 6.42614C67.9621 6.79735 67.8428 7.31345 67.8409 7.97443H67.8835C67.9839 7.80966 68.107 7.66951 68.2528 7.55398C68.4006 7.43655 68.5653 7.34659 68.7472 7.28409C68.9309 7.2197 69.1241 7.1875 69.3267 7.1875C69.6638 7.1875 69.9688 7.26989 70.2415 7.43466C70.5161 7.59754 70.7348 7.82292 70.8977 8.1108C71.0606 8.39867 71.142 8.72822 71.142 9.09943C71.142 9.47064 71.0578 9.80682 70.8892 10.108C70.7225 10.4091 70.4877 10.6477 70.1847 10.8239C69.8816 10.9981 69.5275 11.0833 69.1222 11.0795ZM69.1193 10.3409C69.3428 10.3409 69.5426 10.286 69.7188 10.1761C69.8949 10.0663 70.0341 9.91856 70.1364 9.73295C70.2386 9.54735 70.2898 9.33996 70.2898 9.1108C70.2898 8.88731 70.2396 8.68371 70.1392 8.5C70.0407 8.31629 69.9044 8.17045 69.7301 8.0625C69.5578 7.95455 69.3608 7.90057 69.1392 7.90057C68.9706 7.90057 68.8144 7.93277 68.6705 7.99716C68.5284 8.06155 68.4034 8.15057 68.2955 8.2642C68.1875 8.37784 68.1023 8.50852 68.0398 8.65625C67.9792 8.80208 67.9489 8.95644 67.9489 9.11932C67.9489 9.33712 67.9991 9.53883 68.0994 9.72443C68.2017 9.91004 68.3409 10.0597 68.517 10.1733C68.6951 10.285 68.8958 10.3409 69.1193 10.3409ZM73.0277 10.2045L72.9851 10.5142C72.9567 10.7415 72.9084 10.9782 72.8402 11.2244C72.7739 11.4725 72.7048 11.7027 72.6328 11.9148C72.5627 12.1269 72.505 12.2955 72.4595 12.4205H71.8572C71.8819 12.303 71.916 12.1439 71.9595 11.9432C72.0031 11.7443 72.0457 11.5218 72.0874 11.2756C72.129 11.0294 72.1603 10.7784 72.1811 10.5227L72.2095 10.2045H73.0277ZM76.0362 11.0795C75.7768 11.0758 75.5211 11.0284 75.2692 10.9375C75.0192 10.8466 74.7919 10.6951 74.5874 10.483C74.3828 10.2708 74.219 9.9858 74.0959 9.62784C73.9747 9.26989 73.9141 8.82292 73.9141 8.28693C73.9141 7.77936 73.9643 7.3286 74.0646 6.93466C74.1669 6.54072 74.3137 6.20833 74.505 5.9375C74.6963 5.66477 74.9273 5.45739 75.1982 5.31534C75.469 5.1733 75.773 5.10227 76.1101 5.10227C76.4567 5.10227 76.7644 5.17045 77.0334 5.30682C77.3023 5.44318 77.5201 5.63163 77.6868 5.87216C77.8554 6.11269 77.9624 6.38636 78.0078 6.69318H77.1413C77.0826 6.45076 76.9661 6.25284 76.7919 6.09943C76.6177 5.94602 76.3904 5.86932 76.1101 5.86932C75.6839 5.86932 75.3516 6.05492 75.1129 6.42614C74.8762 6.79735 74.7569 7.31345 74.755 7.97443H74.7976C74.898 7.80966 75.0211 7.66951 75.1669 7.55398C75.3146 7.43655 75.4794 7.34659 75.6612 7.28409C75.8449 7.2197 76.0381 7.1875 76.2408 7.1875C76.5779 7.1875 76.8828 7.26989 77.1555 7.43466C77.4302 7.59754 77.6489 7.82292 77.8118 8.1108C77.9747 8.39867 78.0561 8.72822 78.0561 9.09943C78.0561 9.47064 77.9718 9.80682 77.8033 10.108C77.6366 10.4091 77.4018 10.6477 77.0987 10.8239C76.7957 10.9981 76.4415 11.0833 76.0362 11.0795ZM76.0334 10.3409C76.2569 10.3409 76.4567 10.286 76.6328 10.1761C76.8089 10.0663 76.9482 9.91856 77.0504 9.73295C77.1527 9.54735 77.2038 9.33996 77.2038 9.1108C77.2038 8.88731 77.1536 8.68371 77.0533 8.5C76.9548 8.31629 76.8184 8.17045 76.6442 8.0625C76.4718 7.95455 76.2749 7.90057 76.0533 7.90057C75.8847 7.90057 75.7285 7.93277 75.5845 7.99716C75.4425 8.06155 75.3175 8.15057 75.2095 8.2642C75.1016 8.37784 75.0163 8.50852 74.9538 8.65625C74.8932 8.80208 74.8629 8.95644 74.8629 9.11932C74.8629 9.33712 74.9131 9.53883 75.0135 9.72443C75.1158 9.91004 75.255 10.0597 75.4311 10.1733C75.6091 10.285 75.8099 10.3409 76.0334 10.3409ZM81.1222 11.0795C80.8627 11.0758 80.607 11.0284 80.3551 10.9375C80.1051 10.8466 79.8778 10.6951 79.6733 10.483C79.4688 10.2708 79.3049 9.9858 79.1818 9.62784C79.0606 9.26989 79 8.82292 79 8.28693C79 7.77936 79.0502 7.3286 79.1506 6.93466C79.2528 6.54072 79.3996 6.20833 79.5909 5.9375C79.7822 5.66477 80.0133 5.45739 80.2841 5.31534C80.5549 5.1733 80.8589 5.10227 81.196 5.10227C81.5426 5.10227 81.8504 5.17045 82.1193 5.30682C82.3883 5.44318 82.6061 5.63163 82.7727 5.87216C82.9413 6.11269 83.0483 6.38636 83.0938 6.69318H82.2273C82.1686 6.45076 82.0521 6.25284 81.8778 6.09943C81.7036 5.94602 81.4763 5.86932 81.196 5.86932C80.7699 5.86932 80.4375 6.05492 80.1989 6.42614C79.9621 6.79735 79.8428 7.31345 79.8409 7.97443H79.8835C79.9839 7.80966 80.107 7.66951 80.2528 7.55398C80.4006 7.43655 80.5653 7.34659 80.7472 7.28409C80.9309 7.2197 81.1241 7.1875 81.3267 7.1875C81.6638 7.1875 81.9688 7.26989 82.2415 7.43466C82.5161 7.59754 82.7348 7.82292 82.8977 8.1108C83.0606 8.39867 83.142 8.72822 83.142 9.09943C83.142 9.47064 83.0578 9.80682 82.8892 10.108C82.7225 10.4091 82.4877 10.6477 82.1847 10.8239C81.8816 10.9981 81.5275 11.0833 81.1222 11.0795ZM81.1193 10.3409C81.3428 10.3409 81.5426 10.286 81.7188 10.1761C81.8949 10.0663 82.0341 9.91856 82.1364 9.73295C82.2386 9.54735 82.2898 9.33996 82.2898 9.1108C82.2898 8.88731 82.2396 8.68371 82.1392 8.5C82.0407 8.31629 81.9044 8.17045 81.7301 8.0625C81.5578 7.95455 81.3608 7.90057 81.1392 7.90057C80.9706 7.90057 80.8144 7.93277 80.6705 7.99716C80.5284 8.06155 80.4034 8.15057 80.2955 8.2642C80.1875 8.37784 80.1023 8.50852 80.0398 8.65625C79.9792 8.80208 79.9489 8.95644 79.9489 9.11932C79.9489 9.33712 79.9991 9.53883 80.0994 9.72443C80.2017 9.91004 80.3409 10.0597 80.517 10.1733C80.6951 10.285 80.8958 10.3409 81.1193 10.3409ZM86.2081 11.0795C85.9486 11.0758 85.6929 11.0284 85.4411 10.9375C85.1911 10.8466 84.9638 10.6951 84.7592 10.483C84.5547 10.2708 84.3909 9.9858 84.2678 9.62784C84.1465 9.26989 84.0859 8.82292 84.0859 8.28693C84.0859 7.77936 84.1361 7.3286 84.2365 6.93466C84.3388 6.54072 84.4856 6.20833 84.6768 5.9375C84.8681 5.66477 85.0992 5.45739 85.37 5.31534C85.6409 5.1733 85.9448 5.10227 86.282 5.10227C86.6286 5.10227 86.9363 5.17045 87.2053 5.30682C87.4742 5.44318 87.692 5.63163 87.8587 5.87216C88.0272 6.11269 88.1342 6.38636 88.1797 6.69318H87.3132C87.2545 6.45076 87.138 6.25284 86.9638 6.09943C86.7895 5.94602 86.5623 5.86932 86.282 5.86932C85.8558 5.86932 85.5234 6.05492 85.2848 6.42614C85.0481 6.79735 84.9287 7.31345 84.9268 7.97443H84.9695C85.0698 7.80966 85.1929 7.66951 85.3388 7.55398C85.4865 7.43655 85.6513 7.34659 85.8331 7.28409C86.0168 7.2197 86.21 7.1875 86.4126 7.1875C86.7498 7.1875 87.0547 7.26989 87.3274 7.43466C87.602 7.59754 87.8208 7.82292 87.9837 8.1108C88.1465 8.39867 88.228 8.72822 88.228 9.09943C88.228 9.47064 88.1437 9.80682 87.9751 10.108C87.8085 10.4091 87.5736 10.6477 87.2706 10.8239C86.9676 10.9981 86.6134 11.0833 86.2081 11.0795ZM86.2053 10.3409C86.4287 10.3409 86.6286 10.286 86.8047 10.1761C86.9808 10.0663 87.12 9.91856 87.2223 9.73295C87.3246 9.54735 87.3757 9.33996 87.3757 9.1108C87.3757 8.88731 87.3255 8.68371 87.2251 8.5C87.1267 8.31629 86.9903 8.17045 86.8161 8.0625C86.6437 7.95455 86.4467 7.90057 86.2251 7.90057C86.0566 7.90057 85.9003 7.93277 85.7564 7.99716C85.6143 8.06155 85.4893 8.15057 85.3814 8.2642C85.2734 8.37784 85.1882 8.50852 85.1257 8.65625C85.0651 8.80208 85.0348 8.95644 85.0348 9.11932C85.0348 9.33712 85.085 9.53883 85.1854 9.72443C85.2876 9.91004 85.4268 10.0597 85.603 10.1733C85.781 10.285 85.9818 10.3409 86.2053 10.3409ZM89.5682 11.054C89.4129 11.054 89.2794 10.9991 89.1676 10.8892C89.0559 10.7775 89 10.643 89 10.4858C89 10.3305 89.0559 10.1979 89.1676 10.0881C89.2794 9.97633 89.4129 9.92045 89.5682 9.92045C89.7235 9.92045 89.857 9.97633 89.9688 10.0881C90.0805 10.1979 90.1364 10.3305 90.1364 10.4858C90.1364 10.59 90.1098 10.6856 90.0568 10.7727C90.0057 10.858 89.9375 10.9261 89.8523 10.9773C89.767 11.0284 89.6723 11.054 89.5682 11.054ZM93.0831 11.0795C92.8236 11.0758 92.5679 11.0284 92.3161 10.9375C92.0661 10.8466 91.8388 10.6951 91.6342 10.483C91.4297 10.2708 91.2659 9.9858 91.1428 9.62784C91.0215 9.26989 90.9609 8.82292 90.9609 8.28693C90.9609 7.77936 91.0111 7.3286 91.1115 6.93466C91.2138 6.54072 91.3606 6.20833 91.5518 5.9375C91.7431 5.66477 91.9742 5.45739 92.245 5.31534C92.5159 5.1733 92.8198 5.10227 93.157 5.10227C93.5036 5.10227 93.8113 5.17045 94.0803 5.30682C94.3492 5.44318 94.567 5.63163 94.7337 5.87216C94.9022 6.11269 95.0092 6.38636 95.0547 6.69318H94.1882C94.1295 6.45076 94.013 6.25284 93.8388 6.09943C93.6645 5.94602 93.4373 5.86932 93.157 5.86932C92.7308 5.86932 92.3984 6.05492 92.1598 6.42614C91.9231 6.79735 91.8037 7.31345 91.8018 7.97443H91.8445C91.9448 7.80966 92.0679 7.66951 92.2138 7.55398C92.3615 7.43655 92.5263 7.34659 92.7081 7.28409C92.8918 7.2197 93.085 7.1875 93.2876 7.1875C93.6248 7.1875 93.9297 7.26989 94.2024 7.43466C94.477 7.59754 94.6958 7.82292 94.8587 8.1108C95.0215 8.39867 95.103 8.72822 95.103 9.09943C95.103 9.47064 95.0187 9.80682 94.8501 10.108C94.6835 10.4091 94.4486 10.6477 94.1456 10.8239C93.8426 10.9981 93.4884 11.0833 93.0831 11.0795ZM93.0803 10.3409C93.3037 10.3409 93.5036 10.286 93.6797 10.1761C93.8558 10.0663 93.995 9.91856 94.0973 9.73295C94.1996 9.54735 94.2507 9.33996 94.2507 9.1108C94.2507 8.88731 94.2005 8.68371 94.1001 8.5C94.0017 8.31629 93.8653 8.17045 93.6911 8.0625C93.5187 7.95455 93.3217 7.90057 93.1001 7.90057C92.9316 7.90057 92.7753 7.93277 92.6314 7.99716C92.4893 8.06155 92.3643 8.15057 92.2564 8.2642C92.1484 8.37784 92.0632 8.50852 92.0007 8.65625C91.9401 8.80208 91.9098 8.95644 91.9098 9.11932C91.9098 9.33712 91.96 9.53883 92.0604 9.72443C92.1626 9.91004 92.3018 10.0597 92.478 10.1733C92.656 10.285 92.8568 10.3409 93.0803 10.3409ZM96.3338 11L98.8736 5.97727V5.93466H95.9361V5.18182H99.7827V5.96023L97.2514 11H96.3338Z" fill="#A57CAD"/>
</svg>
