<svg width="30" height="32" viewBox="0 0 30 32" fill="none" xmlns="http://www.w3.org/2000/svg">
<path d="M0 0.396851H24.7056C27.467 0.396851 29.7056 2.63543 29.7056 5.39685V26.2392C29.7056 29.0006 27.467 31.2392 24.7056 31.2392H0V0.396851Z" fill="#8ED243"/>
<path d="M19.6364 20.1034C21.7433 17.8814 21.9382 14.22 20.0716 11.9267C18.205 9.6333 14.983 9.57541 12.876 11.7974C11.0096 13.7658 10.6458 16.864 11.8844 19.1387L8.9639 21.9037C8.4655 22.3737 8.40178 23.2053 8.82177 23.7213L8.88263 23.7961C9.30262 24.3121 10.0359 24.3031 10.4856 23.7733L13.1301 20.6693C15.0303 22.2509 17.7699 22.0717 19.6364 20.1034ZM13.7508 18.5926C12.5253 17.0869 12.6533 14.682 14.0366 13.2233C15.4198 11.7645 17.5361 11.8025 18.7616 13.3082C19.9871 14.8138 19.8591 17.2187 18.4758 18.6775C17.0903 20.1387 14.9763 20.0982 13.7508 18.5926Z" fill="#FCFEFA"/>
</svg>
