<svg width="101" height="18" viewBox="0 0 101 18" fill="none" xmlns="http://www.w3.org/2000/svg">
<path d="M13.6548 5.14773L2.89062 5.14773L2.89062 4.07386L13.6548 4.07386L13.6548 5.14773ZM13.6548 8.68831L2.89062 8.68831L2.89062 7.61445L13.6548 7.61445L13.6548 8.68831ZM13.6548 12.2289L2.89062 12.2289L2.89062 11.155L13.6548 11.155L13.6548 12.2289Z" fill="#0A1D3A"/>
<path d="M26.7074 6.05966C26.6364 5.82955 26.5384 5.62358 26.4134 5.44176C26.2912 5.2571 26.1435 5.09943 25.9702 4.96875C25.7997 4.83807 25.6037 4.74006 25.3821 4.67472C25.1605 4.60653 24.919 4.57244 24.6577 4.57244C24.1889 4.57244 23.7713 4.69034 23.4048 4.92614C23.0384 5.16193 22.75 5.50852 22.5398 5.96591C22.3324 6.42045 22.2287 6.97443 22.2287 7.62784C22.2287 8.28693 22.3324 8.84517 22.5398 9.30256C22.7472 9.75994 23.0355 10.108 23.4048 10.3466C23.7741 10.5824 24.2031 10.7003 24.6918 10.7003C25.1349 10.7003 25.5185 10.6151 25.8423 10.4446C26.169 10.2741 26.4205 10.0327 26.5966 9.72017C26.7727 9.40483 26.8608 9.03551 26.8608 8.61222L27.2188 8.66761H24.8494V7.43182H28.3906V8.48011C28.3906 9.22727 28.2315 9.87358 27.9134 10.419C27.5952 10.9645 27.1577 11.3849 26.6009 11.6804C26.044 11.973 25.4048 12.1193 24.6832 12.1193C23.8793 12.1193 23.1733 11.9389 22.5653 11.5781C21.9602 11.2145 21.4872 10.6989 21.1463 10.0312C20.8082 9.3608 20.6392 8.56534 20.6392 7.64489C20.6392 6.94034 20.7386 6.31108 20.9375 5.7571C21.1392 5.20312 21.4205 4.73295 21.7812 4.34659C22.142 3.95739 22.5653 3.66193 23.0511 3.46023C23.5369 3.25568 24.0653 3.15341 24.6364 3.15341C25.1193 3.15341 25.5696 3.22443 25.9872 3.36648C26.4048 3.50568 26.7756 3.70455 27.0994 3.96307C27.4261 4.22159 27.6946 4.52841 27.9048 4.88352C28.1151 5.23864 28.2528 5.63068 28.3182 6.05966H26.7074ZM33.1689 12.1278C32.5127 12.1278 31.9459 11.9915 31.4687 11.7188C30.9942 11.4432 30.6292 11.054 30.3735 10.5511C30.1178 10.0455 29.99 9.45028 29.99 8.76562C29.99 8.09233 30.1178 7.50142 30.3735 6.9929C30.632 6.48153 30.9928 6.08381 31.4559 5.79972C31.9189 5.51278 32.463 5.36932 33.088 5.36932C33.4914 5.36932 33.8721 5.43466 34.23 5.56534C34.5908 5.69318 34.909 5.89205 35.1846 6.16193C35.463 6.43182 35.6817 6.77557 35.8408 7.19318C35.9999 7.60795 36.0794 8.10227 36.0794 8.67614V9.14915H30.7144V8.10938H34.6008C34.5979 7.81392 34.534 7.55114 34.409 7.32102C34.284 7.08807 34.1093 6.90483 33.8848 6.77131C33.6633 6.63778 33.4047 6.57102 33.1093 6.57102C32.7939 6.57102 32.5169 6.64773 32.2783 6.80114C32.0397 6.9517 31.8536 7.15057 31.7201 7.39773C31.5894 7.64205 31.5226 7.91051 31.5198 8.20312V9.1108C31.5198 9.49148 31.5894 9.81818 31.7286 10.0909C31.8678 10.3608 32.0624 10.5682 32.3124 10.7131C32.5624 10.8551 32.855 10.9261 33.1902 10.9261C33.4147 10.9261 33.6178 10.8949 33.7996 10.8324C33.9814 10.767 34.1391 10.6719 34.2726 10.5469C34.4062 10.4219 34.507 10.267 34.5752 10.0824L36.0155 10.2443C35.9246 10.625 35.7513 10.9574 35.4956 11.2415C35.2428 11.5227 34.9189 11.7415 34.524 11.8977C34.1292 12.0511 33.6775 12.1278 33.1689 12.1278ZM42.9778 7.18466L41.5715 7.33807C41.5318 7.19602 41.4622 7.0625 41.3627 6.9375C41.2661 6.8125 41.1355 6.71165 40.9707 6.63494C40.8059 6.55824 40.6042 6.51989 40.3656 6.51989C40.0445 6.51989 39.7747 6.58949 39.5559 6.72869C39.34 6.8679 39.2335 7.0483 39.2363 7.26989C39.2335 7.46023 39.3031 7.61506 39.4451 7.73438C39.59 7.85369 39.8286 7.9517 40.161 8.02841L41.2775 8.26705C41.8968 8.40057 42.357 8.61222 42.6582 8.90199C42.9622 9.19176 43.1156 9.57102 43.1184 10.0398C43.1156 10.4517 42.9948 10.8153 42.7562 11.1307C42.5204 11.4432 42.1923 11.6875 41.7718 11.8636C41.3514 12.0398 40.8684 12.1278 40.323 12.1278C39.5218 12.1278 38.8769 11.9602 38.3883 11.625C37.8997 11.2869 37.6085 10.8168 37.5147 10.2145L39.019 10.0696C39.0872 10.3651 39.232 10.5881 39.4536 10.7386C39.6752 10.8892 39.9636 10.9645 40.3187 10.9645C40.6852 10.9645 40.9792 10.8892 41.2008 10.7386C41.4252 10.5881 41.5374 10.402 41.5374 10.1804C41.5374 9.9929 41.465 9.83807 41.3201 9.71591C41.1781 9.59375 40.9565 9.5 40.6553 9.43466L39.5389 9.20028C38.911 9.0696 38.4465 8.84943 38.1454 8.53977C37.8443 8.22727 37.6951 7.83239 37.698 7.35511C37.6951 6.9517 37.8045 6.60227 38.0261 6.30682C38.2505 6.00852 38.5616 5.77841 38.9593 5.61648C39.3599 5.4517 39.8215 5.36932 40.3443 5.36932C41.1113 5.36932 41.715 5.53267 42.1553 5.85938C42.5985 6.18608 42.8727 6.62784 42.9778 7.18466ZM48.0789 5.45455V6.64773H44.3161V5.45455H48.0789ZM45.2451 3.88636H46.7877V10.0312C46.7877 10.2386 46.8189 10.3977 46.8814 10.5085C46.9468 10.6165 47.032 10.6903 47.1371 10.7301C47.2422 10.7699 47.3587 10.7898 47.4866 10.7898C47.5832 10.7898 47.6712 10.7827 47.7508 10.7685C47.8332 10.7543 47.8957 10.7415 47.9383 10.7301L48.1982 11.9361C48.1158 11.9645 47.9979 11.9957 47.8445 12.0298C47.6939 12.0639 47.5093 12.0838 47.2905 12.0895C46.9042 12.1009 46.5562 12.0426 46.2465 11.9148C45.9368 11.7841 45.6911 11.5824 45.5093 11.3097C45.3303 11.0369 45.2422 10.696 45.2451 10.2869V3.88636ZM49.789 12V5.45455H51.3316V12H49.789ZM50.5646 4.52557C50.3203 4.52557 50.11 4.4446 49.9339 4.28267C49.7578 4.1179 49.6697 3.92045 49.6697 3.69034C49.6697 3.45739 49.7578 3.25994 49.9339 3.09801C50.11 2.93324 50.3203 2.85085 50.5646 2.85085C50.8117 2.85085 51.022 2.93324 51.1953 3.09801C51.3714 3.25994 51.4595 3.45739 51.4595 3.69034C51.4595 3.92045 51.3714 4.1179 51.1953 4.28267C51.022 4.4446 50.8117 4.52557 50.5646 4.52557ZM56.193 12.1278C55.5538 12.1278 54.9999 11.9872 54.5311 11.706C54.0624 11.4247 53.6987 11.0312 53.4402 10.5256C53.1845 10.0199 53.0567 9.42898 53.0567 8.75284C53.0567 8.0767 53.1845 7.48437 53.4402 6.97585C53.6987 6.46733 54.0624 6.07244 54.5311 5.79119C54.9999 5.50994 55.5538 5.36932 56.193 5.36932C56.8322 5.36932 57.3862 5.50994 57.855 5.79119C58.3237 6.07244 58.6859 6.46733 58.9416 6.97585C59.2001 7.48437 59.3294 8.0767 59.3294 8.75284C59.3294 9.42898 59.2001 10.0199 58.9416 10.5256C58.6859 11.0312 58.3237 11.4247 57.855 11.706C57.3862 11.9872 56.8322 12.1278 56.193 12.1278ZM56.2016 10.892C56.5482 10.892 56.8379 10.7969 57.0709 10.6065C57.3038 10.4134 57.4771 10.1548 57.5908 9.83097C57.7072 9.5071 57.7655 9.14631 57.7655 8.74858C57.7655 8.34801 57.7072 7.9858 57.5908 7.66193C57.4771 7.33523 57.3038 7.07528 57.0709 6.8821C56.8379 6.68892 56.5482 6.59233 56.2016 6.59233C55.8464 6.59233 55.551 6.68892 55.3152 6.8821C55.0822 7.07528 54.9075 7.33523 54.791 7.66193C54.6774 7.9858 54.6206 8.34801 54.6206 8.74858C54.6206 9.14631 54.6774 9.5071 54.791 9.83097C54.9075 10.1548 55.0822 10.4134 55.3152 10.6065C55.551 10.7969 55.8464 10.892 56.2016 10.892ZM62.6013 8.16477V12H61.0587V5.45455H62.5331V6.56676H62.6098C62.7604 6.20028 63.0005 5.90909 63.33 5.69318C63.6624 5.47727 64.0729 5.36932 64.5615 5.36932C65.0133 5.36932 65.4067 5.46591 65.7419 5.65909C66.08 5.85227 66.3414 6.1321 66.526 6.49858C66.7135 6.86506 66.8059 7.30966 66.803 7.83239V12H65.2604V8.07102C65.2604 7.63352 65.1468 7.29119 64.9195 7.04403C64.6951 6.79687 64.384 6.6733 63.9863 6.6733C63.7164 6.6733 63.4763 6.73295 63.2661 6.85227C63.0587 6.96875 62.8954 7.13778 62.776 7.35938C62.6596 7.58097 62.6013 7.84943 62.6013 8.16477ZM70.6747 12.1321C70.26 12.1321 69.8864 12.0582 69.554 11.9105C69.2244 11.7599 68.9631 11.5384 68.7699 11.2457C68.5796 10.9531 68.4844 10.5923 68.4844 10.1634C68.4844 9.79403 68.5526 9.48864 68.6889 9.24716C68.8253 9.00568 69.0114 8.8125 69.2472 8.66761C69.483 8.52273 69.7486 8.41335 70.044 8.33949C70.3423 8.26278 70.6506 8.20739 70.9688 8.1733C71.3523 8.13352 71.6634 8.09801 71.902 8.06676C72.1406 8.03267 72.3139 7.98153 72.4219 7.91335C72.5327 7.84233 72.5881 7.73295 72.5881 7.58523V7.55966C72.5881 7.23864 72.4929 6.99006 72.3026 6.81392C72.1122 6.63778 71.8381 6.54972 71.4801 6.54972C71.1023 6.54972 70.8026 6.6321 70.581 6.79688C70.3622 6.96165 70.2145 7.15625 70.1378 7.38068L68.6975 7.17614C68.8111 6.77841 68.9986 6.44602 69.26 6.17898C69.5213 5.90909 69.8409 5.70739 70.2188 5.57386C70.5966 5.4375 71.0142 5.36932 71.4716 5.36932C71.7869 5.36932 72.1009 5.40625 72.4134 5.48011C72.7259 5.55398 73.0114 5.67614 73.2699 5.84659C73.5284 6.0142 73.7358 6.2429 73.8921 6.53267C74.0511 6.82244 74.1307 7.18466 74.1307 7.61932V12H72.6477V11.1009H72.5966C72.5029 11.2827 72.3708 11.4531 72.2003 11.6122C72.0327 11.7685 71.821 11.8949 71.5654 11.9915C71.3125 12.0852 71.0156 12.1321 70.6747 12.1321ZM71.0753 10.9986C71.385 10.9986 71.6534 10.9375 71.8807 10.8153C72.108 10.6903 72.2827 10.5256 72.4048 10.321C72.5298 10.1165 72.5923 9.89347 72.5923 9.65199V8.88068C72.544 8.92045 72.4617 8.95739 72.3452 8.99148C72.2315 9.02557 72.1037 9.0554 71.9617 9.08097C71.8196 9.10653 71.679 9.12926 71.5398 9.14915C71.4006 9.16903 71.2798 9.18608 71.1776 9.20028C70.9475 9.23153 70.7415 9.28267 70.5597 9.35369C70.3779 9.42472 70.2344 9.52415 70.1293 9.65199C70.0242 9.77699 69.9716 9.93892 69.9716 10.1378C69.9716 10.4219 70.0753 10.6364 70.2827 10.7812C70.4901 10.9261 70.7543 10.9986 71.0753 10.9986ZM76.1018 12V5.45455H77.5976V6.54545H77.6658C77.7851 6.16761 77.9896 5.87642 78.2794 5.67188C78.572 5.46449 78.9058 5.3608 79.2808 5.3608C79.366 5.3608 79.4612 5.36506 79.5663 5.37358C79.6743 5.37926 79.7638 5.3892 79.8348 5.40341V6.82244C79.7694 6.79972 79.6658 6.77983 79.5237 6.76278C79.3845 6.7429 79.2496 6.73295 79.1189 6.73295C78.8376 6.73295 78.5848 6.79403 78.3604 6.91619C78.1388 7.03551 77.964 7.2017 77.8362 7.41477C77.7084 7.62784 77.6444 7.87358 77.6444 8.15199V12H76.1018Z" fill="#0A1D3A"/>
</svg>
