<svg width="10" height="12" viewBox="0 0 10 12" fill="none" xmlns="http://www.w3.org/2000/svg">
<path d="M6.98201 2.21871C6.90108 2.12794 6.76984 2.12794 6.68891 2.21871L0.973427 8.62655C0.892496 8.71729 0.892472 8.86443 0.973427 8.95516L2.79806 10.8893C2.87899 10.9801 2.86033 11.0481 2.94129 10.9574L8.66662 4.35489C8.74755 4.26416 8.68889 4.29789 8.60796 4.20715L6.98201 2.21871Z" fill="#5E862C"/>
<path d="M0.47102 9.60047C0.440362 9.56476 0.395688 9.55279 0.355369 9.56944C0.315051 9.5861 0.285895 9.62855 0.279918 9.67941L0.0323611 11.7804C0.0272645 11.8237 0.0397154 11.8673 0.0658311 11.8977C0.0919469 11.9282 0.128588 11.9417 0.164356 11.9341L1.89972 11.5661C1.9417 11.5572 1.976 11.5207 1.98847 11.4716C2.00095 11.4225 1.9895 11.3692 1.95884 11.3335L0.47102 9.60047Z" fill="#5E862C"/>
<path d="M9.95875 2.9986L8.13863 0.830467C8.08357 0.764844 7.99425 0.764844 7.93916 0.830467L7.37467 1.5029C7.31961 1.56851 7.31961 1.67489 7.37467 1.74049L9.19477 3.90863C9.24986 3.97423 9.33918 3.97423 9.39424 3.90863L9.95875 3.23619C10.0138 3.17059 10.0138 3.0642 9.95875 2.9986Z" fill="#5E862C"/>
</svg>
