<svg width="225" height="57" viewBox="0 0 225 57" fill="none" xmlns="http://www.w3.org/2000/svg">
<path d="M1 56V1H55L68 16.5L55 30H18V56H1Z" fill="#447DA9" stroke="#447DA9"/>
<path d="M28.7188 37.5653C28.6733 37.1619 28.4858 36.8494 28.1562 36.6278C27.8267 36.4034 27.4119 36.2912 26.9119 36.2912C26.554 36.2912 26.2443 36.348 25.983 36.4616C25.7216 36.5724 25.5185 36.7259 25.3736 36.9219C25.2315 37.1151 25.1605 37.3352 25.1605 37.5824C25.1605 37.7898 25.2088 37.9687 25.3054 38.1193C25.4048 38.2699 25.5341 38.3963 25.6932 38.4986C25.8551 38.598 26.0284 38.6818 26.2131 38.75C26.3977 38.8153 26.5753 38.8693 26.7457 38.9119L27.598 39.1335C27.8764 39.2017 28.1619 39.294 28.4545 39.4105C28.7472 39.527 29.0185 39.6804 29.2685 39.8707C29.5185 40.0611 29.7202 40.2969 29.8736 40.5781C30.0298 40.8594 30.108 41.196 30.108 41.5881C30.108 42.0824 29.9801 42.5213 29.7244 42.9048C29.4716 43.2884 29.1037 43.5909 28.6207 43.8125C28.1406 44.0341 27.5597 44.1449 26.8778 44.1449C26.2244 44.1449 25.6591 44.0412 25.1818 43.8338C24.7045 43.6264 24.331 43.3324 24.0611 42.9517C23.7912 42.5682 23.642 42.1136 23.6136 41.5881H24.9347C24.9602 41.9034 25.0625 42.1662 25.2415 42.3764C25.4233 42.5838 25.6548 42.7386 25.9361 42.8409C26.2202 42.9403 26.5312 42.9901 26.8693 42.9901C27.2415 42.9901 27.5724 42.9318 27.8622 42.8153C28.1548 42.696 28.3849 42.5312 28.5526 42.321C28.7202 42.108 28.804 41.8594 28.804 41.5753C28.804 41.3168 28.7301 41.1051 28.5824 40.9403C28.4375 40.7756 28.2401 40.6392 27.9901 40.5312C27.7429 40.4233 27.4631 40.3281 27.1506 40.2457L26.1193 39.9645C25.4205 39.7741 24.8665 39.4943 24.4574 39.125C24.0511 38.7557 23.848 38.267 23.848 37.6591C23.848 37.1562 23.9844 36.7173 24.2571 36.3423C24.5298 35.9673 24.8991 35.6761 25.3651 35.4688C25.831 35.2585 26.3565 35.1534 26.9418 35.1534C27.5327 35.1534 28.054 35.2571 28.5057 35.4645C28.9602 35.6719 29.3182 35.9574 29.5795 36.321C29.8409 36.6818 29.9773 37.0966 29.9886 37.5653H28.7188ZM33.904 44.1449C33.4892 44.1449 33.1142 44.0682 32.779 43.9148C32.4438 43.7585 32.1782 43.5327 31.9821 43.2372C31.789 42.9418 31.6924 42.5795 31.6924 42.1506C31.6924 41.7812 31.7634 41.4773 31.9054 41.2386C32.0475 41 32.2392 40.8111 32.4807 40.6719C32.7222 40.5327 32.9921 40.4276 33.2904 40.3565C33.5887 40.2855 33.8927 40.2315 34.2023 40.1946C34.5944 40.1491 34.9125 40.1122 35.1569 40.0838C35.4012 40.0526 35.5787 40.0028 35.6895 39.9347C35.8003 39.8665 35.8557 39.7557 35.8557 39.6023V39.5724C35.8557 39.2003 35.7506 38.9119 35.5404 38.7074C35.333 38.5028 35.0233 38.4006 34.6114 38.4006C34.1824 38.4006 33.8444 38.4957 33.5972 38.6861C33.3529 38.8736 33.1838 39.0824 33.0901 39.3125L31.8927 39.0398C32.0347 38.642 32.2421 38.321 32.5148 38.0767C32.7904 37.8295 33.1071 37.6506 33.4651 37.5398C33.8231 37.4261 34.1995 37.3693 34.5944 37.3693C34.8557 37.3693 35.1327 37.4006 35.4253 37.4631C35.7208 37.5227 35.9963 37.6335 36.252 37.7955C36.5106 37.9574 36.7222 38.1889 36.887 38.4901C37.0517 38.7884 37.1341 39.1761 37.1341 39.6534V44H35.8898V43.1051H35.8387C35.7563 43.2699 35.6327 43.4318 35.4679 43.5909C35.3032 43.75 35.0915 43.8821 34.833 43.9872C34.5745 44.0923 34.2648 44.1449 33.904 44.1449ZM34.181 43.1222C34.5333 43.1222 34.8344 43.0526 35.0844 42.9134C35.3373 42.7741 35.529 42.5923 35.6597 42.3679C35.7932 42.1406 35.86 41.8977 35.86 41.6392V40.7955C35.8145 40.8409 35.7265 40.8835 35.5958 40.9233C35.4679 40.9602 35.3216 40.9929 35.1569 41.0213C34.9921 41.0469 34.8316 41.071 34.6753 41.0938C34.5191 41.1136 34.3884 41.1307 34.2833 41.1449C34.0361 41.1761 33.8103 41.2287 33.6057 41.3026C33.404 41.3764 33.2421 41.483 33.1199 41.6222C33.0006 41.7585 32.941 41.9403 32.941 42.1676C32.941 42.483 33.0574 42.7216 33.2904 42.8835C33.5233 43.0426 33.8202 43.1222 34.181 43.1222ZM40.5254 35.2727V44H39.2512V35.2727H40.5254ZM44.5643 44.1449C44.1496 44.1449 43.7746 44.0682 43.4393 43.9148C43.1041 43.7585 42.8385 43.5327 42.6425 43.2372C42.4493 42.9418 42.3527 42.5795 42.3527 42.1506C42.3527 41.7812 42.4237 41.4773 42.5658 41.2386C42.7078 41 42.8996 40.8111 43.141 40.6719C43.3825 40.5327 43.6524 40.4276 43.9507 40.3565C44.249 40.2855 44.553 40.2315 44.8626 40.1946C45.2547 40.1491 45.5729 40.1122 45.8172 40.0838C46.0615 40.0526 46.239 40.0028 46.3498 39.9347C46.4606 39.8665 46.516 39.7557 46.516 39.6023V39.5724C46.516 39.2003 46.4109 38.9119 46.2007 38.7074C45.9933 38.5028 45.6837 38.4006 45.2717 38.4006C44.8427 38.4006 44.5047 38.4957 44.2575 38.6861C44.0132 38.8736 43.8442 39.0824 43.7504 39.3125L42.553 39.0398C42.695 38.642 42.9024 38.321 43.1751 38.0767C43.4507 37.8295 43.7675 37.6506 44.1254 37.5398C44.4834 37.4261 44.8598 37.3693 45.2547 37.3693C45.516 37.3693 45.793 37.4006 46.0856 37.4631C46.3811 37.5227 46.6567 37.6335 46.9123 37.7955C47.1709 37.9574 47.3825 38.1889 47.5473 38.4901C47.7121 38.7884 47.7944 39.1761 47.7944 39.6534V44H46.5501V43.1051H46.499C46.4166 43.2699 46.293 43.4318 46.1283 43.5909C45.9635 43.75 45.7518 43.8821 45.4933 43.9872C45.2348 44.0923 44.9251 44.1449 44.5643 44.1449ZM44.8413 43.1222C45.1936 43.1222 45.4947 43.0526 45.7447 42.9134C45.9976 42.7741 46.1893 42.5923 46.32 42.3679C46.4535 42.1406 46.5203 41.8977 46.5203 41.6392V40.7955C46.4748 40.8409 46.3868 40.8835 46.2561 40.9233C46.1283 40.9602 45.9819 40.9929 45.8172 41.0213C45.6524 41.0469 45.4919 41.071 45.3356 41.0938C45.1794 41.1136 45.0487 41.1307 44.9436 41.1449C44.6964 41.1761 44.4706 41.2287 44.266 41.3026C44.0643 41.3764 43.9024 41.483 43.7802 41.6222C43.6609 41.7585 43.6013 41.9403 43.6013 42.1676C43.6013 42.483 43.7177 42.7216 43.9507 42.8835C44.1837 43.0426 44.4805 43.1222 44.8413 43.1222ZM49.9115 44V37.4545H51.1431V38.4943H51.2113C51.3306 38.142 51.5408 37.8651 51.8419 37.6634C52.1459 37.4588 52.4897 37.3565 52.8732 37.3565C52.9527 37.3565 53.0465 37.3594 53.1544 37.3651C53.2652 37.3707 53.3519 37.3778 53.4144 37.3864V38.6051C53.3632 38.5909 53.2723 38.5753 53.1416 38.5582C53.011 38.5384 52.8803 38.5284 52.7496 38.5284C52.4485 38.5284 52.18 38.5923 51.9442 38.7202C51.7113 38.8452 51.5266 39.0199 51.3902 39.2443C51.2539 39.4659 51.1857 39.7187 51.1857 40.0028V44H49.9115ZM54.937 44V37.4545H56.2112V44H54.937ZM55.5805 36.4446C55.3589 36.4446 55.1685 36.3707 55.0094 36.223C54.8532 36.0724 54.7751 35.8935 54.7751 35.6861C54.7751 35.4759 54.8532 35.2969 55.0094 35.1491C55.1685 34.9986 55.3589 34.9233 55.5805 34.9233C55.8021 34.9233 55.991 34.9986 56.1472 35.1491C56.3063 35.2969 56.3859 35.4759 56.3859 35.6861C56.3859 35.8935 56.3063 36.0724 56.1472 36.223C55.991 36.3707 55.8021 36.4446 55.5805 36.4446ZM61.1024 44.1321C60.4888 44.1321 59.9532 43.9915 59.4959 43.7102C59.0385 43.429 58.6834 43.0355 58.4305 42.5298C58.1777 42.0241 58.0513 41.4332 58.0513 40.7571C58.0513 40.0781 58.1777 39.4844 58.4305 38.9759C58.6834 38.4673 59.0385 38.0724 59.4959 37.7912C59.9532 37.5099 60.4888 37.3693 61.1024 37.3693C61.716 37.3693 62.2515 37.5099 62.7089 37.7912C63.1663 38.0724 63.5214 38.4673 63.7743 38.9759C64.0271 39.4844 64.1535 40.0781 64.1535 40.7571C64.1535 41.4332 64.0271 42.0241 63.7743 42.5298C63.5214 43.0355 63.1663 43.429 62.7089 43.7102C62.2515 43.9915 61.716 44.1321 61.1024 44.1321ZM61.1066 43.0625C61.5044 43.0625 61.8339 42.9574 62.0953 42.7472C62.3566 42.5369 62.5498 42.2571 62.6748 41.9077C62.8027 41.5582 62.8666 41.1733 62.8666 40.7528C62.8666 40.3352 62.8027 39.9517 62.6748 39.6023C62.5498 39.25 62.3566 38.9673 62.0953 38.7543C61.8339 38.5412 61.5044 38.4347 61.1066 38.4347C60.7061 38.4347 60.3737 38.5412 60.1095 38.7543C59.8481 38.9673 59.6535 39.25 59.5257 39.6023C59.4007 39.9517 59.3382 40.3352 59.3382 40.7528C59.3382 41.1733 59.4007 41.5582 59.5257 41.9077C59.6535 42.2571 59.8481 42.5369 60.1095 42.7472C60.3737 42.9574 60.7061 43.0625 61.1066 43.0625ZM69.6938 44V35.2727H72.8898C73.5091 35.2727 74.0219 35.375 74.4282 35.5795C74.8344 35.7812 75.1384 36.0554 75.3401 36.402C75.5418 36.7457 75.6427 37.1335 75.6427 37.5653C75.6427 37.929 75.5759 38.2358 75.4424 38.4858C75.3089 38.733 75.1299 38.9318 74.9055 39.0824C74.6839 39.2301 74.4395 39.3381 74.1725 39.4062V39.4915C74.4623 39.5057 74.7449 39.5994 75.0205 39.7727C75.2989 39.9432 75.529 40.1861 75.7109 40.5014C75.8927 40.8168 75.9836 41.2003 75.9836 41.652C75.9836 42.098 75.8785 42.4986 75.6682 42.8537C75.4609 43.206 75.1398 43.4858 74.7052 43.6932C74.2705 43.8977 73.7151 44 73.039 44H69.6938ZM71.0106 42.8707H72.9111C73.5418 42.8707 73.9935 42.7486 74.2663 42.5043C74.539 42.2599 74.6753 41.9545 74.6753 41.5881C74.6753 41.3125 74.6057 41.0597 74.4665 40.8295C74.3273 40.5994 74.1285 40.4162 73.8699 40.2798C73.6143 40.1435 73.3103 40.0753 72.958 40.0753H71.0106V42.8707ZM71.0106 39.0483H72.7748C73.0702 39.0483 73.3359 38.9915 73.5716 38.8778C73.8103 38.7642 73.9992 38.6051 74.1384 38.4006C74.2805 38.1932 74.3515 37.9489 74.3515 37.6676C74.3515 37.3068 74.2251 37.0043 73.9722 36.7599C73.7194 36.5156 73.3316 36.3935 72.8089 36.3935H71.0106V39.0483ZM79.7679 44.1449C79.3532 44.1449 78.9782 44.0682 78.6429 43.9148C78.3077 43.7585 78.0421 43.5327 77.846 43.2372C77.6529 42.9418 77.5563 42.5795 77.5563 42.1506C77.5563 41.7812 77.6273 41.4773 77.7693 41.2386C77.9114 41 78.1032 40.8111 78.3446 40.6719C78.5861 40.5327 78.856 40.4276 79.1543 40.3565C79.4526 40.2855 79.7566 40.2315 80.0662 40.1946C80.4583 40.1491 80.7764 40.1122 81.0208 40.0838C81.2651 40.0526 81.4426 40.0028 81.5534 39.9347C81.6642 39.8665 81.7196 39.7557 81.7196 39.6023V39.5724C81.7196 39.2003 81.6145 38.9119 81.4043 38.7074C81.1969 38.5028 80.8872 38.4006 80.4753 38.4006C80.0463 38.4006 79.7083 38.4957 79.4611 38.6861C79.2168 38.8736 79.0478 39.0824 78.954 39.3125L77.7566 39.0398C77.8986 38.642 78.106 38.321 78.3787 38.0767C78.6543 37.8295 78.9711 37.6506 79.329 37.5398C79.687 37.4261 80.0634 37.3693 80.4583 37.3693C80.7196 37.3693 80.9966 37.4006 81.2892 37.4631C81.5847 37.5227 81.8603 37.6335 82.1159 37.7955C82.3745 37.9574 82.5861 38.1889 82.7509 38.4901C82.9157 38.7884 82.998 39.1761 82.998 39.6534V44H81.7537V43.1051H81.7026C81.6202 43.2699 81.4966 43.4318 81.3318 43.5909C81.1671 43.75 80.9554 43.8821 80.6969 43.9872C80.4384 44.0923 80.1287 44.1449 79.7679 44.1449ZM80.0449 43.1222C80.3972 43.1222 80.6983 43.0526 80.9483 42.9134C81.2012 42.7741 81.3929 42.5923 81.5236 42.3679C81.6571 42.1406 81.7239 41.8977 81.7239 41.6392V40.7955C81.6784 40.8409 81.5904 40.8835 81.4597 40.9233C81.3318 40.9602 81.1855 40.9929 81.0208 41.0213C80.856 41.0469 80.6955 41.071 80.5392 41.0938C80.383 41.1136 80.2523 41.1307 80.1472 41.1449C79.9 41.1761 79.6742 41.2287 79.4696 41.3026C79.2679 41.3764 79.106 41.483 78.9838 41.6222C78.8645 41.7585 78.8049 41.9403 78.8049 42.1676C78.8049 42.483 78.9213 42.7216 79.1543 42.8835C79.3872 43.0426 79.6841 43.1222 80.0449 43.1222ZM79.998 36.581L80.9952 34.6165H82.3375L81.0165 36.581H79.998ZM90.02 39.0526L88.8651 39.2571C88.8168 39.1094 88.7401 38.9687 88.635 38.8352C88.5327 38.7017 88.3935 38.5923 88.2174 38.5071C88.0413 38.4219 87.8211 38.3793 87.5569 38.3793C87.1961 38.3793 86.895 38.4602 86.6535 38.6222C86.412 38.7812 86.2913 38.9872 86.2913 39.2401C86.2913 39.4588 86.3722 39.6349 86.5342 39.7685C86.6961 39.902 86.9575 40.0114 87.3183 40.0966L88.358 40.3352C88.9603 40.4744 89.4092 40.6889 89.7046 40.9787C90.0001 41.2685 90.1478 41.6449 90.1478 42.108C90.1478 42.5 90.0342 42.8494 89.8069 43.1562C89.5825 43.4602 89.2685 43.6989 88.8651 43.8722C88.4646 44.0455 88.0001 44.1321 87.4717 44.1321C86.7387 44.1321 86.1407 43.9759 85.6776 43.6634C85.2146 43.348 84.9305 42.9006 84.8254 42.321L86.0569 42.1335C86.1336 42.4545 86.2913 42.6974 86.5299 42.8622C86.7685 43.0241 87.0796 43.1051 87.4631 43.1051C87.8808 43.1051 88.2146 43.0185 88.4646 42.8452C88.7146 42.669 88.8396 42.4545 88.8396 42.2017C88.8396 41.9972 88.7629 41.8253 88.6094 41.6861C88.4589 41.5469 88.2273 41.4418 87.9148 41.3707L86.8069 41.1278C86.1961 40.9886 85.7444 40.767 85.4518 40.4631C85.162 40.1591 85.0171 39.7741 85.0171 39.3082C85.0171 38.9219 85.1251 38.5838 85.341 38.294C85.5569 38.0043 85.8552 37.7784 86.2359 37.6165C86.6165 37.4517 87.0526 37.3693 87.5441 37.3693C88.2515 37.3693 88.8083 37.5227 89.2146 37.8295C89.6208 38.1335 89.8893 38.5412 90.02 39.0526ZM91.9687 44V37.4545H93.2429V44H91.9687ZM92.6122 36.4446C92.3906 36.4446 92.2003 36.3707 92.0412 36.223C91.8849 36.0724 91.8068 35.8935 91.8068 35.6861C91.8068 35.4759 91.8849 35.2969 92.0412 35.1491C92.2003 34.9986 92.3906 34.9233 92.6122 34.9233C92.8338 34.9233 93.0227 34.9986 93.179 35.1491C93.338 35.2969 93.4176 35.4759 93.4176 35.6861C93.4176 35.8935 93.338 36.0724 93.179 36.223C93.0227 36.3707 92.8338 36.4446 92.6122 36.4446ZM98.1341 44.1321C97.5006 44.1321 96.9551 43.9886 96.4977 43.7017C96.0432 43.4119 95.6938 43.0128 95.4494 42.5043C95.2051 41.9957 95.083 41.4134 95.083 40.7571C95.083 40.0923 95.208 39.5057 95.458 38.9972C95.708 38.4858 96.0602 38.0866 96.5148 37.7997C96.9693 37.5128 97.5048 37.3693 98.1213 37.3693C98.6185 37.3693 99.0617 37.4616 99.4509 37.6463C99.8401 37.8281 100.154 38.0838 100.393 38.4134C100.634 38.7429 100.778 39.1278 100.823 39.5682H99.583C99.5148 39.2614 99.3585 38.9972 99.1142 38.7756C98.8727 38.554 98.5489 38.4432 98.1426 38.4432C97.7875 38.4432 97.4764 38.5369 97.2094 38.7244C96.9452 38.9091 96.7392 39.1733 96.5915 39.517C96.4438 39.858 96.3699 40.2614 96.3699 40.7273C96.3699 41.2045 96.4423 41.6165 96.5872 41.9631C96.7321 42.3097 96.9367 42.5781 97.2009 42.7685C97.4679 42.9588 97.7818 43.054 98.1426 43.054C98.3841 43.054 98.6029 43.0099 98.7989 42.9219C98.9977 42.831 99.1639 42.7017 99.2975 42.5341C99.4338 42.3665 99.529 42.1648 99.583 41.929H100.823C100.778 42.3523 100.64 42.7301 100.41 43.0625C100.18 43.3949 99.8713 43.6562 99.485 43.8466C99.1014 44.0369 98.6512 44.1321 98.1341 44.1321ZM105.363 44.1321C104.749 44.1321 104.214 43.9915 103.756 43.7102C103.299 43.429 102.944 43.0355 102.691 42.5298C102.438 42.0241 102.312 41.4332 102.312 40.7571C102.312 40.0781 102.438 39.4844 102.691 38.9759C102.944 38.4673 103.299 38.0724 103.756 37.7912C104.214 37.5099 104.749 37.3693 105.363 37.3693C105.976 37.3693 106.512 37.5099 106.969 37.7912C107.427 38.0724 107.782 38.4673 108.035 38.9759C108.287 39.4844 108.414 40.0781 108.414 40.7571C108.414 41.4332 108.287 42.0241 108.035 42.5298C107.782 43.0355 107.427 43.429 106.969 43.7102C106.512 43.9915 105.976 44.1321 105.363 44.1321ZM105.367 43.0625C105.765 43.0625 106.094 42.9574 106.356 42.7472C106.617 42.5369 106.81 42.2571 106.935 41.9077C107.063 41.5582 107.127 41.1733 107.127 40.7528C107.127 40.3352 107.063 39.9517 106.935 39.6023C106.81 39.25 106.617 38.9673 106.356 38.7543C106.094 38.5412 105.765 38.4347 105.367 38.4347C104.966 38.4347 104.634 38.5412 104.37 38.7543C104.108 38.9673 103.914 39.25 103.786 39.6023C103.661 39.9517 103.598 40.3352 103.598 40.7528C103.598 41.1733 103.661 41.5582 103.786 41.9077C103.914 42.2571 104.108 42.5369 104.37 42.7472C104.634 42.9574 104.966 43.0625 105.367 43.0625Z" fill="#818284"/>
<path d="M28.7188 37.5653C28.6733 37.1619 28.4858 36.8494 28.1562 36.6278C27.8267 36.4034 27.4119 36.2912 26.9119 36.2912C26.554 36.2912 26.2443 36.348 25.983 36.4616C25.7216 36.5724 25.5185 36.7259 25.3736 36.9219C25.2315 37.1151 25.1605 37.3352 25.1605 37.5824C25.1605 37.7898 25.2088 37.9687 25.3054 38.1193C25.4048 38.2699 25.5341 38.3963 25.6932 38.4986C25.8551 38.598 26.0284 38.6818 26.2131 38.75C26.3977 38.8153 26.5753 38.8693 26.7457 38.9119L27.598 39.1335C27.8764 39.2017 28.1619 39.294 28.4545 39.4105C28.7472 39.527 29.0185 39.6804 29.2685 39.8707C29.5185 40.0611 29.7202 40.2969 29.8736 40.5781C30.0298 40.8594 30.108 41.196 30.108 41.5881C30.108 42.0824 29.9801 42.5213 29.7244 42.9048C29.4716 43.2884 29.1037 43.5909 28.6207 43.8125C28.1406 44.0341 27.5597 44.1449 26.8778 44.1449C26.2244 44.1449 25.6591 44.0412 25.1818 43.8338C24.7045 43.6264 24.331 43.3324 24.0611 42.9517C23.7912 42.5682 23.642 42.1136 23.6136 41.5881H24.9347C24.9602 41.9034 25.0625 42.1662 25.2415 42.3764C25.4233 42.5838 25.6548 42.7386 25.9361 42.8409C26.2202 42.9403 26.5312 42.9901 26.8693 42.9901C27.2415 42.9901 27.5724 42.9318 27.8622 42.8153C28.1548 42.696 28.3849 42.5312 28.5526 42.321C28.7202 42.108 28.804 41.8594 28.804 41.5753C28.804 41.3168 28.7301 41.1051 28.5824 40.9403C28.4375 40.7756 28.2401 40.6392 27.9901 40.5312C27.7429 40.4233 27.4631 40.3281 27.1506 40.2457L26.1193 39.9645C25.4205 39.7741 24.8665 39.4943 24.4574 39.125C24.0511 38.7557 23.848 38.267 23.848 37.6591C23.848 37.1562 23.9844 36.7173 24.2571 36.3423C24.5298 35.9673 24.8991 35.6761 25.3651 35.4688C25.831 35.2585 26.3565 35.1534 26.9418 35.1534C27.5327 35.1534 28.054 35.2571 28.5057 35.4645C28.9602 35.6719 29.3182 35.9574 29.5795 36.321C29.8409 36.6818 29.9773 37.0966 29.9886 37.5653H28.7188ZM33.904 44.1449C33.4892 44.1449 33.1142 44.0682 32.779 43.9148C32.4438 43.7585 32.1782 43.5327 31.9821 43.2372C31.789 42.9418 31.6924 42.5795 31.6924 42.1506C31.6924 41.7812 31.7634 41.4773 31.9054 41.2386C32.0475 41 32.2392 40.8111 32.4807 40.6719C32.7222 40.5327 32.9921 40.4276 33.2904 40.3565C33.5887 40.2855 33.8927 40.2315 34.2023 40.1946C34.5944 40.1491 34.9125 40.1122 35.1569 40.0838C35.4012 40.0526 35.5787 40.0028 35.6895 39.9347C35.8003 39.8665 35.8557 39.7557 35.8557 39.6023V39.5724C35.8557 39.2003 35.7506 38.9119 35.5404 38.7074C35.333 38.5028 35.0233 38.4006 34.6114 38.4006C34.1824 38.4006 33.8444 38.4957 33.5972 38.6861C33.3529 38.8736 33.1838 39.0824 33.0901 39.3125L31.8927 39.0398C32.0347 38.642 32.2421 38.321 32.5148 38.0767C32.7904 37.8295 33.1071 37.6506 33.4651 37.5398C33.8231 37.4261 34.1995 37.3693 34.5944 37.3693C34.8557 37.3693 35.1327 37.4006 35.4253 37.4631C35.7208 37.5227 35.9963 37.6335 36.252 37.7955C36.5106 37.9574 36.7222 38.1889 36.887 38.4901C37.0517 38.7884 37.1341 39.1761 37.1341 39.6534V44H35.8898V43.1051H35.8387C35.7563 43.2699 35.6327 43.4318 35.4679 43.5909C35.3032 43.75 35.0915 43.8821 34.833 43.9872C34.5745 44.0923 34.2648 44.1449 33.904 44.1449ZM34.181 43.1222C34.5333 43.1222 34.8344 43.0526 35.0844 42.9134C35.3373 42.7741 35.529 42.5923 35.6597 42.3679C35.7932 42.1406 35.86 41.8977 35.86 41.6392V40.7955C35.8145 40.8409 35.7265 40.8835 35.5958 40.9233C35.4679 40.9602 35.3216 40.9929 35.1569 41.0213C34.9921 41.0469 34.8316 41.071 34.6753 41.0938C34.5191 41.1136 34.3884 41.1307 34.2833 41.1449C34.0361 41.1761 33.8103 41.2287 33.6057 41.3026C33.404 41.3764 33.2421 41.483 33.1199 41.6222C33.0006 41.7585 32.941 41.9403 32.941 42.1676C32.941 42.483 33.0574 42.7216 33.2904 42.8835C33.5233 43.0426 33.8202 43.1222 34.181 43.1222ZM40.5254 35.2727V44H39.2512V35.2727H40.5254ZM44.5643 44.1449C44.1496 44.1449 43.7746 44.0682 43.4393 43.9148C43.1041 43.7585 42.8385 43.5327 42.6425 43.2372C42.4493 42.9418 42.3527 42.5795 42.3527 42.1506C42.3527 41.7812 42.4237 41.4773 42.5658 41.2386C42.7078 41 42.8996 40.8111 43.141 40.6719C43.3825 40.5327 43.6524 40.4276 43.9507 40.3565C44.249 40.2855 44.553 40.2315 44.8626 40.1946C45.2547 40.1491 45.5729 40.1122 45.8172 40.0838C46.0615 40.0526 46.239 40.0028 46.3498 39.9347C46.4606 39.8665 46.516 39.7557 46.516 39.6023V39.5724C46.516 39.2003 46.4109 38.9119 46.2007 38.7074C45.9933 38.5028 45.6837 38.4006 45.2717 38.4006C44.8427 38.4006 44.5047 38.4957 44.2575 38.6861C44.0132 38.8736 43.8442 39.0824 43.7504 39.3125L42.553 39.0398C42.695 38.642 42.9024 38.321 43.1751 38.0767C43.4507 37.8295 43.7675 37.6506 44.1254 37.5398C44.4834 37.4261 44.8598 37.3693 45.2547 37.3693C45.516 37.3693 45.793 37.4006 46.0856 37.4631C46.3811 37.5227 46.6567 37.6335 46.9123 37.7955C47.1709 37.9574 47.3825 38.1889 47.5473 38.4901C47.7121 38.7884 47.7944 39.1761 47.7944 39.6534V44H46.5501V43.1051H46.499C46.4166 43.2699 46.293 43.4318 46.1283 43.5909C45.9635 43.75 45.7518 43.8821 45.4933 43.9872C45.2348 44.0923 44.9251 44.1449 44.5643 44.1449ZM44.8413 43.1222C45.1936 43.1222 45.4947 43.0526 45.7447 42.9134C45.9976 42.7741 46.1893 42.5923 46.32 42.3679C46.4535 42.1406 46.5203 41.8977 46.5203 41.6392V40.7955C46.4748 40.8409 46.3868 40.8835 46.2561 40.9233C46.1283 40.9602 45.9819 40.9929 45.8172 41.0213C45.6524 41.0469 45.4919 41.071 45.3356 41.0938C45.1794 41.1136 45.0487 41.1307 44.9436 41.1449C44.6964 41.1761 44.4706 41.2287 44.266 41.3026C44.0643 41.3764 43.9024 41.483 43.7802 41.6222C43.6609 41.7585 43.6013 41.9403 43.6013 42.1676C43.6013 42.483 43.7177 42.7216 43.9507 42.8835C44.1837 43.0426 44.4805 43.1222 44.8413 43.1222ZM49.9115 44V37.4545H51.1431V38.4943H51.2113C51.3306 38.142 51.5408 37.8651 51.8419 37.6634C52.1459 37.4588 52.4897 37.3565 52.8732 37.3565C52.9527 37.3565 53.0465 37.3594 53.1544 37.3651C53.2652 37.3707 53.3519 37.3778 53.4144 37.3864V38.6051C53.3632 38.5909 53.2723 38.5753 53.1416 38.5582C53.011 38.5384 52.8803 38.5284 52.7496 38.5284C52.4485 38.5284 52.18 38.5923 51.9442 38.7202C51.7113 38.8452 51.5266 39.0199 51.3902 39.2443C51.2539 39.4659 51.1857 39.7187 51.1857 40.0028V44H49.9115ZM54.937 44V37.4545H56.2112V44H54.937ZM55.5805 36.4446C55.3589 36.4446 55.1685 36.3707 55.0094 36.223C54.8532 36.0724 54.7751 35.8935 54.7751 35.6861C54.7751 35.4759 54.8532 35.2969 55.0094 35.1491C55.1685 34.9986 55.3589 34.9233 55.5805 34.9233C55.8021 34.9233 55.991 34.9986 56.1472 35.1491C56.3063 35.2969 56.3859 35.4759 56.3859 35.6861C56.3859 35.8935 56.3063 36.0724 56.1472 36.223C55.991 36.3707 55.8021 36.4446 55.5805 36.4446ZM61.1024 44.1321C60.4888 44.1321 59.9532 43.9915 59.4959 43.7102C59.0385 43.429 58.6834 43.0355 58.4305 42.5298C58.1777 42.0241 58.0513 41.4332 58.0513 40.7571C58.0513 40.0781 58.1777 39.4844 58.4305 38.9759C58.6834 38.4673 59.0385 38.0724 59.4959 37.7912C59.9532 37.5099 60.4888 37.3693 61.1024 37.3693C61.716 37.3693 62.2515 37.5099 62.7089 37.7912C63.1663 38.0724 63.5214 38.4673 63.7743 38.9759C64.0271 39.4844 64.1535 40.0781 64.1535 40.7571C64.1535 41.4332 64.0271 42.0241 63.7743 42.5298C63.5214 43.0355 63.1663 43.429 62.7089 43.7102C62.2515 43.9915 61.716 44.1321 61.1024 44.1321ZM61.1066 43.0625C61.5044 43.0625 61.8339 42.9574 62.0953 42.7472C62.3566 42.5369 62.5498 42.2571 62.6748 41.9077C62.8027 41.5582 62.8666 41.1733 62.8666 40.7528C62.8666 40.3352 62.8027 39.9517 62.6748 39.6023C62.5498 39.25 62.3566 38.9673 62.0953 38.7543C61.8339 38.5412 61.5044 38.4347 61.1066 38.4347C60.7061 38.4347 60.3737 38.5412 60.1095 38.7543C59.8481 38.9673 59.6535 39.25 59.5257 39.6023C59.4007 39.9517 59.3382 40.3352 59.3382 40.7528C59.3382 41.1733 59.4007 41.5582 59.5257 41.9077C59.6535 42.2571 59.8481 42.5369 60.1095 42.7472C60.3737 42.9574 60.7061 43.0625 61.1066 43.0625ZM69.6938 44V35.2727H72.8898C73.5091 35.2727 74.0219 35.375 74.4282 35.5795C74.8344 35.7812 75.1384 36.0554 75.3401 36.402C75.5418 36.7457 75.6427 37.1335 75.6427 37.5653C75.6427 37.929 75.5759 38.2358 75.4424 38.4858C75.3089 38.733 75.1299 38.9318 74.9055 39.0824C74.6839 39.2301 74.4395 39.3381 74.1725 39.4062V39.4915C74.4623 39.5057 74.7449 39.5994 75.0205 39.7727C75.2989 39.9432 75.529 40.1861 75.7109 40.5014C75.8927 40.8168 75.9836 41.2003 75.9836 41.652C75.9836 42.098 75.8785 42.4986 75.6682 42.8537C75.4609 43.206 75.1398 43.4858 74.7052 43.6932C74.2705 43.8977 73.7151 44 73.039 44H69.6938ZM71.0106 42.8707H72.9111C73.5418 42.8707 73.9935 42.7486 74.2663 42.5043C74.539 42.2599 74.6753 41.9545 74.6753 41.5881C74.6753 41.3125 74.6057 41.0597 74.4665 40.8295C74.3273 40.5994 74.1285 40.4162 73.8699 40.2798C73.6143 40.1435 73.3103 40.0753 72.958 40.0753H71.0106V42.8707ZM71.0106 39.0483H72.7748C73.0702 39.0483 73.3359 38.9915 73.5716 38.8778C73.8103 38.7642 73.9992 38.6051 74.1384 38.4006C74.2805 38.1932 74.3515 37.9489 74.3515 37.6676C74.3515 37.3068 74.2251 37.0043 73.9722 36.7599C73.7194 36.5156 73.3316 36.3935 72.8089 36.3935H71.0106V39.0483ZM79.7679 44.1449C79.3532 44.1449 78.9782 44.0682 78.6429 43.9148C78.3077 43.7585 78.0421 43.5327 77.846 43.2372C77.6529 42.9418 77.5563 42.5795 77.5563 42.1506C77.5563 41.7812 77.6273 41.4773 77.7693 41.2386C77.9114 41 78.1032 40.8111 78.3446 40.6719C78.5861 40.5327 78.856 40.4276 79.1543 40.3565C79.4526 40.2855 79.7566 40.2315 80.0662 40.1946C80.4583 40.1491 80.7764 40.1122 81.0208 40.0838C81.2651 40.0526 81.4426 40.0028 81.5534 39.9347C81.6642 39.8665 81.7196 39.7557 81.7196 39.6023V39.5724C81.7196 39.2003 81.6145 38.9119 81.4043 38.7074C81.1969 38.5028 80.8872 38.4006 80.4753 38.4006C80.0463 38.4006 79.7083 38.4957 79.4611 38.6861C79.2168 38.8736 79.0478 39.0824 78.954 39.3125L77.7566 39.0398C77.8986 38.642 78.106 38.321 78.3787 38.0767C78.6543 37.8295 78.9711 37.6506 79.329 37.5398C79.687 37.4261 80.0634 37.3693 80.4583 37.3693C80.7196 37.3693 80.9966 37.4006 81.2892 37.4631C81.5847 37.5227 81.8603 37.6335 82.1159 37.7955C82.3745 37.9574 82.5861 38.1889 82.7509 38.4901C82.9157 38.7884 82.998 39.1761 82.998 39.6534V44H81.7537V43.1051H81.7026C81.6202 43.2699 81.4966 43.4318 81.3318 43.5909C81.1671 43.75 80.9554 43.8821 80.6969 43.9872C80.4384 44.0923 80.1287 44.1449 79.7679 44.1449ZM80.0449 43.1222C80.3972 43.1222 80.6983 43.0526 80.9483 42.9134C81.2012 42.7741 81.3929 42.5923 81.5236 42.3679C81.6571 42.1406 81.7239 41.8977 81.7239 41.6392V40.7955C81.6784 40.8409 81.5904 40.8835 81.4597 40.9233C81.3318 40.9602 81.1855 40.9929 81.0208 41.0213C80.856 41.0469 80.6955 41.071 80.5392 41.0938C80.383 41.1136 80.2523 41.1307 80.1472 41.1449C79.9 41.1761 79.6742 41.2287 79.4696 41.3026C79.2679 41.3764 79.106 41.483 78.9838 41.6222C78.8645 41.7585 78.8049 41.9403 78.8049 42.1676C78.8049 42.483 78.9213 42.7216 79.1543 42.8835C79.3872 43.0426 79.6841 43.1222 80.0449 43.1222ZM79.998 36.581L80.9952 34.6165H82.3375L81.0165 36.581H79.998ZM90.02 39.0526L88.8651 39.2571C88.8168 39.1094 88.7401 38.9687 88.635 38.8352C88.5327 38.7017 88.3935 38.5923 88.2174 38.5071C88.0413 38.4219 87.8211 38.3793 87.5569 38.3793C87.1961 38.3793 86.895 38.4602 86.6535 38.6222C86.412 38.7812 86.2913 38.9872 86.2913 39.2401C86.2913 39.4588 86.3722 39.6349 86.5342 39.7685C86.6961 39.902 86.9575 40.0114 87.3183 40.0966L88.358 40.3352C88.9603 40.4744 89.4092 40.6889 89.7046 40.9787C90.0001 41.2685 90.1478 41.6449 90.1478 42.108C90.1478 42.5 90.0342 42.8494 89.8069 43.1562C89.5825 43.4602 89.2685 43.6989 88.8651 43.8722C88.4646 44.0455 88.0001 44.1321 87.4717 44.1321C86.7387 44.1321 86.1407 43.9759 85.6776 43.6634C85.2146 43.348 84.9305 42.9006 84.8254 42.321L86.0569 42.1335C86.1336 42.4545 86.2913 42.6974 86.5299 42.8622C86.7685 43.0241 87.0796 43.1051 87.4631 43.1051C87.8808 43.1051 88.2146 43.0185 88.4646 42.8452C88.7146 42.669 88.8396 42.4545 88.8396 42.2017C88.8396 41.9972 88.7629 41.8253 88.6094 41.6861C88.4589 41.5469 88.2273 41.4418 87.9148 41.3707L86.8069 41.1278C86.1961 40.9886 85.7444 40.767 85.4518 40.4631C85.162 40.1591 85.0171 39.7741 85.0171 39.3082C85.0171 38.9219 85.1251 38.5838 85.341 38.294C85.5569 38.0043 85.8552 37.7784 86.2359 37.6165C86.6165 37.4517 87.0526 37.3693 87.5441 37.3693C88.2515 37.3693 88.8083 37.5227 89.2146 37.8295C89.6208 38.1335 89.8893 38.5412 90.02 39.0526ZM91.9687 44V37.4545H93.2429V44H91.9687ZM92.6122 36.4446C92.3906 36.4446 92.2003 36.3707 92.0412 36.223C91.8849 36.0724 91.8068 35.8935 91.8068 35.6861C91.8068 35.4759 91.8849 35.2969 92.0412 35.1491C92.2003 34.9986 92.3906 34.9233 92.6122 34.9233C92.8338 34.9233 93.0227 34.9986 93.179 35.1491C93.338 35.2969 93.4176 35.4759 93.4176 35.6861C93.4176 35.8935 93.338 36.0724 93.179 36.223C93.0227 36.3707 92.8338 36.4446 92.6122 36.4446ZM98.1341 44.1321C97.5006 44.1321 96.9551 43.9886 96.4977 43.7017C96.0432 43.4119 95.6938 43.0128 95.4494 42.5043C95.2051 41.9957 95.083 41.4134 95.083 40.7571C95.083 40.0923 95.208 39.5057 95.458 38.9972C95.708 38.4858 96.0602 38.0866 96.5148 37.7997C96.9693 37.5128 97.5048 37.3693 98.1213 37.3693C98.6185 37.3693 99.0617 37.4616 99.4509 37.6463C99.8401 37.8281 100.154 38.0838 100.393 38.4134C100.634 38.7429 100.778 39.1278 100.823 39.5682H99.583C99.5148 39.2614 99.3585 38.9972 99.1142 38.7756C98.8727 38.554 98.5489 38.4432 98.1426 38.4432C97.7875 38.4432 97.4764 38.5369 97.2094 38.7244C96.9452 38.9091 96.7392 39.1733 96.5915 39.517C96.4438 39.858 96.3699 40.2614 96.3699 40.7273C96.3699 41.2045 96.4423 41.6165 96.5872 41.9631C96.7321 42.3097 96.9367 42.5781 97.2009 42.7685C97.4679 42.9588 97.7818 43.054 98.1426 43.054C98.3841 43.054 98.6029 43.0099 98.7989 42.9219C98.9977 42.831 99.1639 42.7017 99.2975 42.5341C99.4338 42.3665 99.529 42.1648 99.583 41.929H100.823C100.778 42.3523 100.64 42.7301 100.41 43.0625C100.18 43.3949 99.8713 43.6562 99.485 43.8466C99.1014 44.0369 98.6512 44.1321 98.1341 44.1321ZM105.363 44.1321C104.749 44.1321 104.214 43.9915 103.756 43.7102C103.299 43.429 102.944 43.0355 102.691 42.5298C102.438 42.0241 102.312 41.4332 102.312 40.7571C102.312 40.0781 102.438 39.4844 102.691 38.9759C102.944 38.4673 103.299 38.0724 103.756 37.7912C104.214 37.5099 104.749 37.3693 105.363 37.3693C105.976 37.3693 106.512 37.5099 106.969 37.7912C107.427 38.0724 107.782 38.4673 108.035 38.9759C108.287 39.4844 108.414 40.0781 108.414 40.7571C108.414 41.4332 108.287 42.0241 108.035 42.5298C107.782 43.0355 107.427 43.429 106.969 43.7102C106.512 43.9915 105.976 44.1321 105.363 44.1321ZM105.367 43.0625C105.765 43.0625 106.094 42.9574 106.356 42.7472C106.617 42.5369 106.81 42.2571 106.935 41.9077C107.063 41.5582 107.127 41.1733 107.127 40.7528C107.127 40.3352 107.063 39.9517 106.935 39.6023C106.81 39.25 106.617 38.9673 106.356 38.7543C106.094 38.5412 105.765 38.4347 105.367 38.4347C104.966 38.4347 104.634 38.5412 104.37 38.7543C104.108 38.9673 103.914 39.25 103.786 39.6023C103.661 39.9517 103.598 40.3352 103.598 40.7528C103.598 41.1733 103.661 41.5582 103.786 41.9077C103.914 42.2571 104.108 42.5369 104.37 42.7472C104.634 42.9574 104.966 43.0625 105.367 43.0625Z" fill="#818284"/>
<path d="M18.2869 12.8182C18.223 12.2784 17.9638 11.8594 17.5092 11.5611C17.0547 11.2628 16.4972 11.1136 15.8366 11.1136C15.3537 11.1136 14.9311 11.1918 14.5689 11.348C14.2102 11.5043 13.9297 11.7191 13.7273 11.9925C13.5284 12.266 13.429 12.5767 13.429 12.9247C13.429 13.2159 13.4982 13.4663 13.6367 13.6758C13.7788 13.8817 13.9599 14.054 14.18 14.1925C14.4002 14.3274 14.631 14.4393 14.8725 14.5281C15.114 14.6133 15.3359 14.6825 15.5384 14.7358L16.6463 15.0341C16.9304 15.1087 17.2464 15.2116 17.5945 15.343C17.946 15.4744 18.2816 15.6538 18.6012 15.881C18.9244 16.1048 19.1907 16.3924 19.4002 16.744C19.6097 17.0955 19.7145 17.527 19.7145 18.0384C19.7145 18.6278 19.56 19.1605 19.2511 19.6364C18.9457 20.1122 18.4982 20.4904 17.9087 20.771C17.3228 21.0515 16.6108 21.1918 15.7727 21.1918C14.9915 21.1918 14.315 21.0657 13.7433 20.8136C13.1751 20.5614 12.7276 20.2099 12.4009 19.7589C12.0778 19.3079 11.8949 18.7841 11.8523 18.1875H13.2159C13.2514 18.5994 13.3899 18.9403 13.6314 19.2102C13.8764 19.4766 14.1854 19.6754 14.5582 19.8068C14.9347 19.9347 15.3395 19.9986 15.7727 19.9986C16.277 19.9986 16.7298 19.9169 17.131 19.7536C17.5323 19.5866 17.8501 19.3558 18.0845 19.0611C18.3189 18.7628 18.4361 18.4148 18.4361 18.017C18.4361 17.6548 18.3349 17.3601 18.1325 17.1328C17.93 16.9055 17.6637 16.7209 17.3335 16.5788C17.0032 16.4368 16.6463 16.3125 16.2628 16.206L14.9205 15.8224C14.0682 15.5774 13.3935 15.2276 12.8963 14.7731C12.3991 14.3185 12.1506 13.7237 12.1506 12.9886C12.1506 12.3778 12.3157 11.8452 12.646 11.3906C12.9798 10.9325 13.4272 10.5774 13.9883 10.3253C14.5529 10.0696 15.1832 9.94176 15.8793 9.94176C16.5824 9.94176 17.2074 10.0678 17.7543 10.32C18.3011 10.5685 18.7344 10.9094 19.054 11.3427C19.3771 11.7759 19.5476 12.2678 19.5653 12.8182H18.2869ZM22.8589 21H21.474L25.4796 10.0909H26.8433L30.849 21H29.464L26.2041 11.8168H26.1188L22.8589 21ZM23.3703 16.7386H28.9526V17.9105H23.3703V16.7386ZM33.0732 21V10.0909H34.3942V19.8281H39.4652V21H33.0732ZM50.4229 10.0909V21H49.1019V11.4759H49.0379L46.3746 13.2443V11.902L49.1019 10.0909H50.4229Z" fill="white"/>
<path d="M74 16L61 1L210.5 1.5L224.5 17L210.5 31H60L74 16Z" fill="#EEEEEE"/>
<path d="M93.4964 11.5455V21H92.0653V12.9766H92.0099L89.7479 14.4538V13.0874L92.1069 11.5455H93.4964ZM97.7774 19.7074L97.7081 20.2106C97.6619 20.5799 97.5835 20.9646 97.4727 21.3647C97.3649 21.7679 97.2526 22.1418 97.1357 22.4865C97.0218 22.8312 96.9279 23.1051 96.8541 23.3082H95.8754C95.9154 23.1174 95.9708 22.8589 96.0416 22.5327C96.1123 22.2095 96.1816 21.8479 96.2493 21.4478C96.317 21.0477 96.3678 20.6399 96.4016 20.2244L96.4478 19.7074H97.7774ZM103.04 21.1293C102.379 21.1293 101.794 21.0154 101.286 20.7876C100.781 20.5599 100.386 20.246 100.1 19.8459C99.8135 19.4458 99.6719 18.9903 99.675 18.4794C99.6719 18.0793 99.7535 17.7115 99.9197 17.3761C100.089 17.0375 100.318 16.7559 100.608 16.5312C100.897 16.3035 101.22 16.1589 101.577 16.0973V16.0419C101.106 15.928 100.729 15.6757 100.446 15.2848C100.163 14.8939 100.023 14.4446 100.026 13.9368C100.023 13.4536 100.151 13.0227 100.409 12.6442C100.671 12.2625 101.029 11.9625 101.485 11.744C101.94 11.5254 102.459 11.4162 103.04 11.4162C103.616 11.4162 104.13 11.527 104.582 11.7486C105.038 11.9671 105.396 12.2672 105.658 12.6488C105.92 13.0273 106.052 13.4567 106.055 13.9368C106.052 14.4446 105.907 14.8939 105.621 15.2848C105.335 15.6757 104.962 15.928 104.504 16.0419V16.0973C104.858 16.1589 105.176 16.3035 105.459 16.5312C105.746 16.7559 105.973 17.0375 106.143 17.3761C106.315 17.7115 106.403 18.0793 106.406 18.4794C106.403 18.9903 106.258 19.4458 105.972 19.8459C105.686 20.246 105.289 20.5599 104.781 20.7876C104.276 21.0154 103.696 21.1293 103.04 21.1293ZM103.04 19.9613C103.431 19.9613 103.77 19.8967 104.056 19.7674C104.342 19.6351 104.564 19.4519 104.721 19.218C104.878 18.9811 104.958 18.7041 104.961 18.3871C104.958 18.0578 104.872 17.7669 104.702 17.5146C104.536 17.2622 104.31 17.0637 104.024 16.919C103.738 16.7744 103.41 16.7021 103.04 16.7021C102.668 16.7021 102.337 16.7744 102.048 16.919C101.759 17.0637 101.531 17.2622 101.365 17.5146C101.198 17.7669 101.117 18.0578 101.12 18.3871C101.117 18.7041 101.192 18.9811 101.346 19.218C101.503 19.4519 101.726 19.6351 102.016 19.7674C102.305 19.8967 102.646 19.9613 103.04 19.9613ZM103.04 15.5618C103.354 15.5618 103.633 15.4987 103.876 15.3725C104.119 15.2463 104.31 15.0709 104.448 14.8462C104.59 14.6216 104.662 14.3584 104.665 14.0568C104.662 13.7614 104.592 13.5028 104.453 13.2812C104.318 13.0597 104.128 12.8888 103.885 12.7688C103.642 12.6457 103.36 12.5842 103.04 12.5842C102.714 12.5842 102.428 12.6457 102.182 12.7688C101.939 12.8888 101.749 13.0597 101.614 13.2812C101.479 13.5028 101.412 13.7614 101.415 14.0568C101.412 14.3584 101.48 14.6216 101.619 14.8462C101.757 15.0709 101.948 15.2463 102.191 15.3725C102.437 15.4987 102.72 15.5618 103.04 15.5618ZM111.806 21.157C111.077 21.1539 110.454 20.9615 109.937 20.5799C109.42 20.1983 109.024 19.6428 108.75 18.9134C108.476 18.1839 108.339 17.3053 108.339 16.2773C108.339 15.2525 108.476 14.3769 108.75 13.6506C109.027 12.9242 109.424 12.3703 109.941 11.9886C110.461 11.607 111.083 11.4162 111.806 11.4162C112.529 11.4162 113.15 11.6085 113.667 11.9933C114.184 12.3749 114.579 12.9289 114.853 13.6552C115.13 14.3784 115.269 15.2525 115.269 16.2773C115.269 17.3084 115.132 18.1886 114.858 18.918C114.584 19.6443 114.188 20.1998 113.671 20.5845C113.154 20.9661 112.533 21.157 111.806 21.157ZM111.806 19.9244C112.446 19.9244 112.946 19.612 113.307 18.9872C113.67 18.3625 113.851 17.4592 113.851 16.2773C113.851 15.4925 113.768 14.8293 113.602 14.2876C113.439 13.7429 113.203 13.3305 112.896 13.0504C112.591 12.7673 112.228 12.6257 111.806 12.6257C111.169 12.6257 110.669 12.9396 110.306 13.5675C109.943 14.1953 109.76 15.0986 109.757 16.2773C109.757 17.0652 109.838 17.7315 110.001 18.2763C110.167 18.8179 110.403 19.2288 110.708 19.5089C111.012 19.7859 111.378 19.9244 111.806 19.9244ZM120.653 21.157C119.923 21.1539 119.3 20.9615 118.783 20.5799C118.266 20.1983 117.871 19.6428 117.597 18.9134C117.323 18.1839 117.186 17.3053 117.186 16.2773C117.186 15.2525 117.323 14.3769 117.597 13.6506C117.874 12.9242 118.271 12.3703 118.788 11.9886C119.308 11.607 119.93 11.4162 120.653 11.4162C121.376 11.4162 121.996 11.6085 122.513 11.9933C123.03 12.3749 123.426 12.9289 123.7 13.6552C123.977 14.3784 124.115 15.2525 124.115 16.2773C124.115 17.3084 123.978 18.1886 123.704 18.918C123.43 19.6443 123.035 20.1998 122.518 20.5845C122.001 20.9661 121.379 21.157 120.653 21.157ZM120.653 19.9244C121.293 19.9244 121.793 19.612 122.153 18.9872C122.516 18.3625 122.698 17.4592 122.698 16.2773C122.698 15.4925 122.615 14.8293 122.449 14.2876C122.286 13.7429 122.05 13.3305 121.742 13.0504C121.438 12.7673 121.074 12.6257 120.653 12.6257C120.016 12.6257 119.516 12.9396 119.152 13.5675C118.789 14.1953 118.606 15.0986 118.603 16.2773C118.603 17.0652 118.685 17.7315 118.848 18.2763C119.014 18.8179 119.249 19.2288 119.554 19.5089C119.859 19.7859 120.225 19.9244 120.653 19.9244ZM127.679 19.7074L127.61 20.2106C127.564 20.5799 127.485 20.9646 127.375 21.3647C127.267 21.7679 127.155 22.1418 127.038 22.4865C126.924 22.8312 126.83 23.1051 126.756 23.3082H125.777C125.817 23.1174 125.873 22.8589 125.944 22.5327C126.014 22.2095 126.084 21.8479 126.151 21.4478C126.219 21.0477 126.27 20.6399 126.304 20.2244L126.35 19.7074H127.679ZM133.014 21.157C132.285 21.1539 131.661 20.9615 131.144 20.5799C130.627 20.1983 130.232 19.6428 129.958 18.9134C129.684 18.1839 129.547 17.3053 129.547 16.2773C129.547 15.2525 129.684 14.3769 129.958 13.6506C130.235 12.9242 130.632 12.3703 131.149 11.9886C131.669 11.607 132.291 11.4162 133.014 11.4162C133.737 11.4162 134.357 11.6085 134.874 11.9933C135.391 12.3749 135.787 12.9289 136.061 13.6552C136.338 14.3784 136.476 15.2525 136.476 16.2773C136.476 17.3084 136.339 18.1886 136.065 18.918C135.792 19.6443 135.396 20.1998 134.879 20.5845C134.362 20.9661 133.74 21.157 133.014 21.157ZM133.014 19.9244C133.654 19.9244 134.154 19.612 134.514 18.9872C134.878 18.3625 135.059 17.4592 135.059 16.2773C135.059 15.4925 134.976 14.8293 134.81 14.2876C134.647 13.7429 134.411 13.3305 134.103 13.0504C133.799 12.7673 133.436 12.6257 133.014 12.6257C132.377 12.6257 131.877 12.9396 131.514 13.5675C131.15 14.1953 130.967 15.0986 130.964 16.2773C130.964 17.0652 131.046 17.7315 131.209 18.2763C131.375 18.8179 131.611 19.2288 131.915 19.5089C132.22 19.7859 132.586 19.9244 133.014 19.9244ZM141.861 21.157C141.131 21.1539 140.508 20.9615 139.991 20.5799C139.474 20.1983 139.078 19.6428 138.804 18.9134C138.531 18.1839 138.394 17.3053 138.394 16.2773C138.394 15.2525 138.531 14.3769 138.804 13.6506C139.081 12.9242 139.479 12.3703 139.996 11.9886C140.516 11.607 141.137 11.4162 141.861 11.4162C142.584 11.4162 143.204 11.6085 143.721 11.9933C144.238 12.3749 144.634 12.9289 144.907 13.6552C145.184 14.3784 145.323 15.2525 145.323 16.2773C145.323 17.3084 145.186 18.1886 144.912 18.918C144.638 19.6443 144.243 20.1998 143.726 20.5845C143.209 20.9661 142.587 21.157 141.861 21.157ZM141.861 19.9244C142.501 19.9244 143.001 19.612 143.361 18.9872C143.724 18.3625 143.906 17.4592 143.906 16.2773C143.906 15.4925 143.823 14.8293 143.656 14.2876C143.493 13.7429 143.258 13.3305 142.95 13.0504C142.645 12.7673 142.282 12.6257 141.861 12.6257C141.224 12.6257 140.723 12.9396 140.36 13.5675C139.997 14.1953 139.814 15.0986 139.811 16.2773C139.811 17.0652 139.892 17.7315 140.056 18.2763C140.222 18.8179 140.457 19.2288 140.762 19.5089C141.067 19.7859 141.433 19.9244 141.861 19.9244ZM150.707 21.157C149.978 21.1539 149.355 20.9615 148.838 20.5799C148.32 20.1983 147.925 19.6428 147.651 18.9134C147.377 18.1839 147.24 17.3053 147.24 16.2773C147.24 15.2525 147.377 14.3769 147.651 13.6506C147.928 12.9242 148.325 12.3703 148.842 11.9886C149.362 11.607 149.984 11.4162 150.707 11.4162C151.43 11.4162 152.051 11.6085 152.568 11.9933C153.085 12.3749 153.48 12.9289 153.754 13.6552C154.031 14.3784 154.17 15.2525 154.17 16.2773C154.17 17.3084 154.033 18.1886 153.759 18.918C153.485 19.6443 153.089 20.1998 152.572 20.5845C152.055 20.9661 151.434 21.157 150.707 21.157ZM150.707 19.9244C151.347 19.9244 151.847 19.612 152.208 18.9872C152.571 18.3625 152.752 17.4592 152.752 16.2773C152.752 15.4925 152.669 14.8293 152.503 14.2876C152.34 13.7429 152.104 13.3305 151.797 13.0504C151.492 12.7673 151.129 12.6257 150.707 12.6257C150.07 12.6257 149.57 12.9396 149.207 13.5675C148.844 14.1953 148.661 15.0986 148.657 16.2773C148.657 17.0652 148.739 17.7315 148.902 18.2763C149.068 18.8179 149.304 19.2288 149.608 19.5089C149.913 19.7859 150.279 19.9244 150.707 19.9244ZM156.847 21.0877C156.595 21.0877 156.378 20.9985 156.196 20.82C156.015 20.6384 155.924 20.4199 155.924 20.1644C155.924 19.9121 156.015 19.6966 156.196 19.5181C156.378 19.3365 156.595 19.2457 156.847 19.2457C157.1 19.2457 157.317 19.3365 157.498 19.5181C157.68 19.6966 157.771 19.9121 157.771 20.1644C157.771 20.3337 157.728 20.4891 157.641 20.6307C157.558 20.7692 157.448 20.88 157.309 20.9631C157.171 21.0462 157.017 21.0877 156.847 21.0877ZM163.005 21.157C162.276 21.1539 161.652 20.9615 161.135 20.5799C160.618 20.1983 160.223 19.6428 159.949 18.9134C159.675 18.1839 159.538 17.3053 159.538 16.2773C159.538 15.2525 159.675 14.3769 159.949 13.6506C160.226 12.9242 160.623 12.3703 161.14 11.9886C161.66 11.607 162.282 11.4162 163.005 11.4162C163.728 11.4162 164.348 11.6085 164.865 11.9933C165.382 12.3749 165.778 12.9289 166.052 13.6552C166.329 14.3784 166.467 15.2525 166.467 16.2773C166.467 17.3084 166.33 18.1886 166.056 18.918C165.782 19.6443 165.387 20.1998 164.87 20.5845C164.353 20.9661 163.731 21.157 163.005 21.157ZM163.005 19.9244C163.645 19.9244 164.145 19.612 164.505 18.9872C164.868 18.3625 165.05 17.4592 165.05 16.2773C165.05 15.4925 164.967 14.8293 164.801 14.2876C164.638 13.7429 164.402 13.3305 164.094 13.0504C163.79 12.7673 163.427 12.6257 163.005 12.6257C162.368 12.6257 161.868 12.9396 161.505 13.5675C161.141 14.1953 160.958 15.0986 160.955 16.2773C160.955 17.0652 161.037 17.7315 161.2 18.2763C161.366 18.8179 161.601 19.2288 161.906 19.5089C162.211 19.7859 162.577 19.9244 163.005 19.9244ZM171.851 21.157C171.122 21.1539 170.499 20.9615 169.982 20.5799C169.465 20.1983 169.069 19.6428 168.795 18.9134C168.521 18.1839 168.385 17.3053 168.385 16.2773C168.385 15.2525 168.521 14.3769 168.795 13.6506C169.072 12.9242 169.469 12.3703 169.986 11.9886C170.507 11.607 171.128 11.4162 171.851 11.4162C172.575 11.4162 173.195 11.6085 173.712 11.9933C174.229 12.3749 174.624 12.9289 174.898 13.6552C175.175 14.3784 175.314 15.2525 175.314 16.2773C175.314 17.3084 175.177 18.1886 174.903 18.918C174.629 19.6443 174.234 20.1998 173.717 20.5845C173.2 20.9661 172.578 21.157 171.851 21.157ZM171.851 19.9244C172.492 19.9244 172.992 19.612 173.352 18.9872C173.715 18.3625 173.897 17.4592 173.897 16.2773C173.897 15.4925 173.814 14.8293 173.647 14.2876C173.484 13.7429 173.249 13.3305 172.941 13.0504C172.636 12.7673 172.273 12.6257 171.851 12.6257C171.214 12.6257 170.714 12.9396 170.351 13.5675C169.988 14.1953 169.805 15.0986 169.802 16.2773C169.802 17.0652 169.883 17.7315 170.046 18.2763C170.213 18.8179 170.448 19.2288 170.753 19.5089C171.057 19.7859 171.424 19.9244 171.851 19.9244Z" fill="#6F7173"/>
</svg>
