<svg width="84" height="25" viewBox="0 0 84 25" fill="none" xmlns="http://www.w3.org/2000/svg">
<path d="M12.5795 4.38479V3.44729H19.125V4.38479H16.3807V12.1746H15.3239V4.38479H12.5795ZM20.36 12.1746V5.62911H21.3316V6.61774H21.3998C21.5191 6.29388 21.735 6.03109 22.0475 5.82939C22.36 5.62769 22.7123 5.52683 23.1043 5.52683C23.1782 5.52683 23.2705 5.52825 23.3813 5.53109C23.4921 5.53394 23.5759 5.5382 23.6327 5.54388V6.56661C23.5986 6.55808 23.5205 6.5453 23.3983 6.52825C23.279 6.50837 23.1526 6.49842 23.0191 6.49842C22.7009 6.49842 22.4168 6.56519 22.1668 6.69871C21.9196 6.82939 21.7236 7.01121 21.5787 7.24416C21.4367 7.47428 21.3657 7.73706 21.3657 8.03251V12.1746H20.36ZM27.171 12.328C26.7562 12.328 26.3798 12.2498 26.0417 12.0936C25.7036 11.9345 25.4352 11.7058 25.2363 11.4075C25.0374 11.1064 24.938 10.7427 24.938 10.3166C24.938 9.94161 25.0119 9.63763 25.1596 9.40467C25.3073 9.16888 25.5048 8.98422 25.7519 8.8507C25.9991 8.71717 26.2718 8.61774 26.5701 8.5524C26.8713 8.48422 27.1738 8.43024 27.4778 8.39047C27.8755 8.33933 28.198 8.30098 28.4451 8.27541C28.6951 8.247 28.8769 8.20013 28.9906 8.13479C29.107 8.06945 29.1653 7.95581 29.1653 7.79388V7.75979C29.1653 7.33933 29.0502 7.01263 28.8201 6.77967C28.5928 6.54672 28.2477 6.43024 27.7846 6.43024C27.3045 6.43024 26.9281 6.53536 26.6553 6.74558C26.3826 6.95581 26.1909 7.18024 26.0801 7.41888L25.1255 7.07797C25.296 6.68024 25.5232 6.37058 25.8073 6.14899C26.0943 5.92456 26.4068 5.76831 26.7448 5.68024C27.0857 5.58933 27.421 5.54388 27.7505 5.54388C27.9607 5.54388 28.2022 5.56945 28.4749 5.62058C28.7505 5.66888 29.0161 5.76973 29.2718 5.92314C29.5303 6.07655 29.7448 6.30808 29.9153 6.61774C30.0857 6.9274 30.171 7.34217 30.171 7.86206V12.1746H29.1653V11.2882H29.1141C29.046 11.4302 28.9323 11.5822 28.7732 11.7442C28.6141 11.9061 28.4025 12.0439 28.1383 12.1575C27.8741 12.2712 27.5516 12.328 27.171 12.328ZM27.3244 11.4246C27.7221 11.4246 28.0573 11.3464 28.3301 11.1902C28.6056 11.0339 28.813 10.8322 28.9522 10.5851C29.0943 10.3379 29.1653 10.078 29.1653 9.80524V8.88479C29.1227 8.93592 29.0289 8.9828 28.884 9.02541C28.742 9.06519 28.5772 9.1007 28.3897 9.13195C28.2051 9.16036 28.0247 9.18592 27.8485 9.20865C27.6752 9.22854 27.5346 9.24558 27.4266 9.25979C27.1653 9.29388 26.921 9.34928 26.6937 9.42598C26.4693 9.49984 26.2874 9.61206 26.1482 9.76263C26.0119 9.91036 25.9437 10.1121 25.9437 10.3677C25.9437 10.7172 26.073 10.9814 26.3315 11.1604C26.5928 11.3365 26.9238 11.4246 27.3244 11.4246ZM33.4322 8.23706V12.1746H32.4265V5.62911H33.3981V6.65183H33.4834C33.6368 6.31945 33.8697 6.0524 34.1822 5.8507C34.4947 5.64615 34.8981 5.54388 35.3925 5.54388C35.8356 5.54388 36.2234 5.63479 36.5558 5.81661C36.8882 5.99558 37.1467 6.26831 37.3314 6.63479C37.516 6.99842 37.6084 7.45865 37.6084 8.01547V12.1746H36.6027V8.08365C36.6027 7.56945 36.4692 7.16888 36.2021 6.88195C35.9351 6.59217 35.5686 6.44729 35.1027 6.44729C34.7817 6.44729 34.4947 6.51689 34.2419 6.65609C33.9919 6.7953 33.7944 6.99842 33.6496 7.26547C33.5047 7.53251 33.4322 7.85638 33.4322 8.23706ZM44.5024 7.09501L43.599 7.3507C43.5422 7.20013 43.4584 7.05382 43.3476 6.91178C43.2397 6.76689 43.0919 6.64757 42.9044 6.55382C42.7169 6.46007 42.4769 6.4132 42.1843 6.4132C41.7837 6.4132 41.4499 6.50553 41.1828 6.69019C40.9186 6.872 40.7865 7.10354 40.7865 7.38479C40.7865 7.63479 40.8774 7.83223 41.0593 7.97712C41.2411 8.122 41.5252 8.24274 41.9115 8.33933L42.8831 8.57797C43.4684 8.72001 43.9044 8.93734 44.1914 9.22996C44.4783 9.51973 44.6218 9.89331 44.6218 10.3507C44.6218 10.7257 44.5138 11.0609 44.2979 11.3564C44.0848 11.6518 43.7865 11.8848 43.403 12.0552C43.0195 12.2257 42.5735 12.3109 42.0649 12.3109C41.3973 12.3109 40.8448 12.166 40.4073 11.8763C39.9698 11.5865 39.6928 11.1632 39.5763 10.6064L40.5309 10.3677C40.6218 10.72 40.7936 10.9842 41.0465 11.1604C41.3022 11.3365 41.636 11.4246 42.0479 11.4246C42.5166 11.4246 42.8888 11.3251 43.1644 11.1263C43.4428 10.9246 43.582 10.6831 43.582 10.4018C43.582 10.1746 43.5024 9.98422 43.3434 9.83081C43.1843 9.67456 42.9399 9.55808 42.6104 9.48138L41.5195 9.2257C40.9201 9.08365 40.4797 8.86348 40.1985 8.56519C39.9201 8.26405 39.7809 7.88763 39.7809 7.43592C39.7809 7.06661 39.8845 6.7399 40.0919 6.45581C40.3022 6.17172 40.5877 5.94871 40.9485 5.78678C41.3121 5.62484 41.724 5.54388 42.1843 5.54388C42.832 5.54388 43.3405 5.68592 43.7098 5.97001C44.082 6.25411 44.3462 6.62911 44.5024 7.09501ZM47.5613 3.44729V12.1746H46.5556V3.44729H47.5613ZM51.7494 12.328C51.3346 12.328 50.9582 12.2498 50.6201 12.0936C50.2821 11.9345 50.0136 11.7058 49.8147 11.4075C49.6159 11.1064 49.5164 10.7427 49.5164 10.3166C49.5164 9.94161 49.5903 9.63763 49.738 9.40467C49.8858 9.16888 50.0832 8.98422 50.3304 8.8507C50.5775 8.71717 50.8503 8.61774 51.1486 8.5524C51.4497 8.48422 51.7522 8.43024 52.0562 8.39047C52.4539 8.33933 52.7764 8.30098 53.0236 8.27541C53.2736 8.247 53.4554 8.20013 53.569 8.13479C53.6855 8.06945 53.7437 7.95581 53.7437 7.79388V7.75979C53.7437 7.33933 53.6287 7.01263 53.3986 6.77967C53.1713 6.54672 52.8261 6.43024 52.363 6.43024C51.8829 6.43024 51.5065 6.53536 51.2338 6.74558C50.9611 6.95581 50.7693 7.18024 50.6585 7.41888L49.7039 7.07797C49.8744 6.68024 50.1017 6.37058 50.3858 6.14899C50.6727 5.92456 50.9852 5.76831 51.3233 5.68024C51.6642 5.58933 51.9994 5.54388 52.3289 5.54388C52.5392 5.54388 52.7807 5.56945 53.0534 5.62058C53.3289 5.66888 53.5946 5.76973 53.8503 5.92314C54.1088 6.07655 54.3233 6.30808 54.4937 6.61774C54.6642 6.9274 54.7494 7.34217 54.7494 7.86206V12.1746H53.7437V11.2882H53.6926C53.6244 11.4302 53.5108 11.5822 53.3517 11.7442C53.1926 11.9061 52.9809 12.0439 52.7167 12.1575C52.4525 12.2712 52.1301 12.328 51.7494 12.328ZM51.9028 11.4246C52.3005 11.4246 52.6358 11.3464 52.9085 11.1902C53.1841 11.0339 53.3914 10.8322 53.5307 10.5851C53.6727 10.3379 53.7437 10.078 53.7437 9.80524V8.88479C53.7011 8.93592 53.6074 8.9828 53.4625 9.02541C53.3204 9.06519 53.1557 9.1007 52.9682 9.13195C52.7835 9.16036 52.6031 9.18592 52.427 9.20865C52.2537 9.22854 52.113 9.24558 52.0051 9.25979C51.7437 9.29388 51.4994 9.34928 51.2721 9.42598C51.0477 9.49984 50.8659 9.61206 50.7267 9.76263C50.5903 9.91036 50.5221 10.1121 50.5221 10.3677C50.5221 10.7172 50.6514 10.9814 50.9099 11.1604C51.1713 11.3365 51.5022 11.4246 51.9028 11.4246ZM59.4766 12.3109C58.9311 12.3109 58.4496 12.1731 58.032 11.8976C57.6144 11.6192 57.2877 11.2271 57.0519 10.7214C56.8161 10.2129 56.6982 9.61206 56.6982 8.91888C56.6982 8.23138 56.8161 7.63479 57.0519 7.12911C57.2877 6.62342 57.6158 6.2328 58.0362 5.95723C58.4567 5.68166 58.9425 5.54388 59.4936 5.54388C59.9198 5.54388 60.2564 5.6149 60.5036 5.75695C60.7536 5.89615 60.9439 6.05524 61.0746 6.23422C61.2081 6.41036 61.3118 6.55524 61.3857 6.66888H61.4709V3.44729H62.4766V12.1746H61.505V11.1689H61.3857C61.3118 11.2882 61.2067 11.4388 61.0703 11.6206C60.934 11.7996 60.7394 11.9601 60.4865 12.1021C60.2337 12.2413 59.897 12.3109 59.4766 12.3109ZM59.6129 11.4075C60.0163 11.4075 60.3573 11.3024 60.6357 11.0922C60.9141 10.8791 61.1257 10.5851 61.2706 10.2101C61.4155 9.83223 61.4879 9.39615 61.4879 8.90183C61.4879 8.4132 61.4169 7.98564 61.2749 7.61916C61.1328 7.24984 60.9226 6.96291 60.6442 6.75837C60.3658 6.55098 60.022 6.44729 59.6129 6.44729C59.1868 6.44729 58.8317 6.55666 58.5476 6.77541C58.2663 6.99132 58.0547 7.28536 57.9127 7.65751C57.7735 8.02683 57.7038 8.44161 57.7038 8.90183C57.7038 9.36774 57.7749 9.79104 57.9169 10.1717C58.0618 10.5496 58.2749 10.8507 58.5561 11.0751C58.8402 11.2967 59.1925 11.4075 59.6129 11.4075ZM66.8042 12.328C66.3895 12.328 66.0131 12.2498 65.675 12.0936C65.3369 11.9345 65.0685 11.7058 64.8696 11.4075C64.6707 11.1064 64.5713 10.7427 64.5713 10.3166C64.5713 9.94161 64.6452 9.63763 64.7929 9.40467C64.9406 9.16888 65.1381 8.98422 65.3852 8.8507C65.6324 8.71717 65.9051 8.61774 66.2034 8.5524C66.5045 8.48422 66.8071 8.43024 67.1111 8.39047C67.5088 8.33933 67.8312 8.30098 68.0784 8.27541C68.3284 8.247 68.5102 8.20013 68.6239 8.13479C68.7403 8.06945 68.7986 7.95581 68.7986 7.79388V7.75979C68.7986 7.33933 68.6835 7.01263 68.4534 6.77967C68.2261 6.54672 67.881 6.43024 67.4179 6.43024C66.9378 6.43024 66.5614 6.53536 66.2886 6.74558C66.0159 6.95581 65.8241 7.18024 65.7133 7.41888L64.7588 7.07797C64.9292 6.68024 65.1565 6.37058 65.4406 6.14899C65.7275 5.92456 66.04 5.76831 66.3781 5.68024C66.719 5.58933 67.0542 5.54388 67.3838 5.54388C67.594 5.54388 67.8355 5.56945 68.1082 5.62058C68.3838 5.66888 68.6494 5.76973 68.9051 5.92314C69.1636 6.07655 69.3781 6.30808 69.5486 6.61774C69.719 6.9274 69.8042 7.34217 69.8042 7.86206V12.1746H68.7986V11.2882H68.7474C68.6792 11.4302 68.5656 11.5822 68.4065 11.7442C68.2474 11.9061 68.0358 12.0439 67.7716 12.1575C67.5074 12.2712 67.1849 12.328 66.8042 12.328ZM66.9577 11.4246C67.3554 11.4246 67.6906 11.3464 67.9633 11.1902C68.2389 11.0339 68.4463 10.8322 68.5855 10.5851C68.7275 10.3379 68.7986 10.078 68.7986 9.80524V8.88479C68.756 8.93592 68.6622 8.9828 68.5173 9.02541C68.3753 9.06519 68.2105 9.1007 68.023 9.13195C67.8383 9.16036 67.6579 9.18592 67.4818 9.20865C67.3085 9.22854 67.1679 9.24558 67.0599 9.25979C66.7986 9.29388 66.5542 9.34928 66.327 9.42598C66.1025 9.49984 65.9207 9.61206 65.7815 9.76263C65.6452 9.91036 65.577 10.1121 65.577 10.3677C65.577 10.7172 65.7062 10.9814 65.9648 11.1604C66.2261 11.3365 66.5571 11.4246 66.9577 11.4246ZM72.0598 12.1746V5.62911H73.0314V6.61774H73.0996C73.2189 6.29388 73.4348 6.03109 73.7473 5.82939C74.0598 5.62769 74.4121 5.52683 74.8041 5.52683C74.878 5.52683 74.9703 5.52825 75.0811 5.53109C75.1919 5.53394 75.2757 5.5382 75.3326 5.54388V6.56661C75.2985 6.55808 75.2203 6.5453 75.0982 6.52825C74.9789 6.50837 74.8524 6.49842 74.7189 6.49842C74.4007 6.49842 74.1166 6.56519 73.8666 6.69871C73.6195 6.82939 73.4235 7.01121 73.2786 7.24416C73.1365 7.47428 73.0655 7.73706 73.0655 8.03251V12.1746H72.0598Z" fill="#B1F463"/>
<path d="M6.98207 4.83136C6.90114 4.73916 6.7699 4.73916 6.68897 4.83136L0.973488 11.3409C0.892557 11.4331 0.892533 11.5826 0.973488 11.6747L2.79812 13.6396C2.87905 13.7318 2.86039 13.8009 2.94135 13.7087L8.66669 7.00145C8.74762 6.90928 8.68895 6.94354 8.60802 6.85137L6.98207 4.83136Z" fill="#8ED143"/>
<path d="M0.47102 12.3302C0.440362 12.2939 0.395688 12.2818 0.355369 12.2987C0.315051 12.3156 0.285895 12.3587 0.279918 12.4104L0.0323611 14.5447C0.0272645 14.5887 0.0397154 14.633 0.0658311 14.6639C0.0919469 14.6948 0.128588 14.7086 0.164356 14.7009L1.89972 14.327C1.9417 14.318 1.976 14.2809 1.98847 14.2311C2.00095 14.1812 1.9895 14.127 1.95884 14.0907L0.47102 12.3302Z" fill="#8ED143"/>
<path d="M9.95869 5.62364L8.13857 3.42109C8.08351 3.35443 7.99419 3.35443 7.9391 3.42109L7.3746 4.1042C7.31955 4.17085 7.31955 4.27892 7.3746 4.34556L9.19471 6.54811C9.2498 6.61476 9.33912 6.61476 9.39418 6.54811L9.95869 5.865C10.0137 5.79836 10.0137 5.69029 9.95869 5.62364Z" fill="#8ED143"/>
</svg>
