<svg width="319" height="57" viewBox="0 0 319 57" fill="none" xmlns="http://www.w3.org/2000/svg">
<path d="M1 56V1H55L68 16.5L55 30H18V56H1Z" fill="#F3B754" stroke="#F3B754"/>
<path d="M23.7216 33.2727L26.1506 40.3807H26.2486L28.6776 33.2727H30.1009L26.9602 42H25.4389L22.2983 33.2727H23.7216ZM32.9392 42.1449C32.5244 42.1449 32.1494 42.0682 31.8142 41.9148C31.4789 41.7585 31.2133 41.5327 31.0173 41.2372C30.8241 40.9418 30.7275 40.5795 30.7275 40.1506C30.7275 39.7812 30.7986 39.4773 30.9406 39.2386C31.0826 39 31.2744 38.8111 31.5159 38.6719C31.7574 38.5327 32.0272 38.4276 32.3255 38.3565C32.6238 38.2855 32.9278 38.2315 33.2375 38.1946C33.6295 38.1491 33.9477 38.1122 34.192 38.0838C34.4363 38.0526 34.6139 38.0028 34.7247 37.9347C34.8355 37.8665 34.8909 37.7557 34.8909 37.6023V37.5724C34.8909 37.2003 34.7858 36.9119 34.5755 36.7074C34.3682 36.5028 34.0585 36.4006 33.6466 36.4006C33.2176 36.4006 32.8795 36.4957 32.6324 36.6861C32.388 36.8736 32.219 37.0824 32.1253 37.3125L30.9278 37.0398C31.0699 36.642 31.2772 36.321 31.55 36.0767C31.8255 35.8295 32.1423 35.6506 32.5003 35.5398C32.8582 35.4261 33.2346 35.3693 33.6295 35.3693C33.8909 35.3693 34.1679 35.4006 34.4605 35.4631C34.7559 35.5227 35.0315 35.6335 35.2872 35.7955C35.5457 35.9574 35.7574 36.1889 35.9221 36.4901C36.0869 36.7884 36.1693 37.1761 36.1693 37.6534V42H34.925V41.1051H34.8738C34.7914 41.2699 34.6679 41.4318 34.5031 41.5909C34.3383 41.75 34.1267 41.8821 33.8682 41.9872C33.6096 42.0923 33.3 42.1449 32.9392 42.1449ZM33.2162 41.1222C33.5684 41.1222 33.8696 41.0526 34.1196 40.9134C34.3724 40.7741 34.5642 40.5923 34.6949 40.3679C34.8284 40.1406 34.8951 39.8977 34.8951 39.6392V38.7955C34.8497 38.8409 34.7616 38.8835 34.6309 38.9233C34.5031 38.9602 34.3568 38.9929 34.192 39.0213C34.0272 39.0469 33.8667 39.071 33.7105 39.0938C33.5542 39.1136 33.4236 39.1307 33.3184 39.1449C33.0713 39.1761 32.8454 39.2287 32.6409 39.3026C32.4392 39.3764 32.2772 39.483 32.1551 39.6222C32.0358 39.7585 31.9761 39.9403 31.9761 40.1676C31.9761 40.483 32.0926 40.7216 32.3255 40.8835C32.5585 41.0426 32.8554 41.1222 33.2162 41.1222ZM41.0435 42.1321C40.41 42.1321 39.8645 41.9886 39.4071 41.7017C38.9526 41.4119 38.6031 41.0128 38.3588 40.5043C38.1145 39.9957 37.9923 39.4134 37.9923 38.7571C37.9923 38.0923 38.1173 37.5057 38.3673 36.9972C38.6173 36.4858 38.9696 36.0866 39.4242 35.7997C39.8787 35.5128 40.4142 35.3693 41.0307 35.3693C41.5279 35.3693 41.971 35.4616 42.3602 35.6463C42.7494 35.8281 43.0634 36.0838 43.302 36.4134C43.5435 36.7429 43.6869 37.1278 43.7324 37.5682H42.4923C42.4242 37.2614 42.2679 36.9972 42.0236 36.7756C41.7821 36.554 41.4583 36.4432 41.052 36.4432C40.6969 36.4432 40.3858 36.5369 40.1188 36.7244C39.8546 36.9091 39.6486 37.1733 39.5009 37.517C39.3531 37.858 39.2793 38.2614 39.2793 38.7273C39.2793 39.2045 39.3517 39.6165 39.4966 39.9631C39.6415 40.3097 39.846 40.5781 40.1102 40.7685C40.3773 40.9588 40.6912 41.054 41.052 41.054C41.2935 41.054 41.5122 41.0099 41.7083 40.9219C41.9071 40.831 42.0733 40.7017 42.2068 40.5341C42.3432 40.3665 42.4384 40.1648 42.4923 39.929H43.7324C43.6869 40.3523 43.5492 40.7301 43.319 41.0625C43.0889 41.3949 42.7807 41.6562 42.3943 41.8466C42.0108 42.0369 41.5605 42.1321 41.0435 42.1321ZM47.4198 42.1449C47.005 42.1449 46.63 42.0682 46.2948 41.9148C45.9596 41.7585 45.6939 41.5327 45.4979 41.2372C45.3047 40.9418 45.2082 40.5795 45.2082 40.1506C45.2082 39.7812 45.2792 39.4773 45.4212 39.2386C45.5633 39 45.755 38.8111 45.9965 38.6719C46.238 38.5327 46.5079 38.4276 46.8062 38.3565C47.1045 38.2855 47.4084 38.2315 47.7181 38.1946C48.1101 38.1491 48.4283 38.1122 48.6726 38.0838C48.917 38.0526 49.0945 38.0028 49.2053 37.9347C49.3161 37.8665 49.3715 37.7557 49.3715 37.6023V37.5724C49.3715 37.2003 49.2664 36.9119 49.0562 36.7074C48.8488 36.5028 48.5391 36.4006 48.1272 36.4006C47.6982 36.4006 47.3601 36.4957 47.113 36.6861C46.8687 36.8736 46.6996 37.0824 46.6059 37.3125L45.4084 37.0398C45.5505 36.642 45.7579 36.321 46.0306 36.0767C46.3062 35.8295 46.6229 35.6506 46.9809 35.5398C47.3388 35.4261 47.7153 35.3693 48.1101 35.3693C48.3715 35.3693 48.6485 35.4006 48.9411 35.4631C49.2366 35.5227 49.5121 35.6335 49.7678 35.7955C50.0263 35.9574 50.238 36.1889 50.4028 36.4901C50.5675 36.7884 50.6499 37.1761 50.6499 37.6534V42H49.4056V41.1051H49.3545C49.2721 41.2699 49.1485 41.4318 48.9837 41.5909C48.8189 41.75 48.6073 41.8821 48.3488 41.9872C48.0903 42.0923 47.7806 42.1449 47.4198 42.1449ZM47.6968 41.1222C48.0491 41.1222 48.3502 41.0526 48.6002 40.9134C48.853 40.7741 49.0448 40.5923 49.1755 40.3679C49.309 40.1406 49.3758 39.8977 49.3758 39.6392V38.7955C49.3303 38.8409 49.2422 38.8835 49.1116 38.9233C48.9837 38.9602 48.8374 38.9929 48.6726 39.0213C48.5079 39.0469 48.3474 39.071 48.1911 39.0938C48.0349 39.1136 47.9042 39.1307 47.7991 39.1449C47.5519 39.1761 47.3261 39.2287 47.1215 39.3026C46.9198 39.3764 46.7579 39.483 46.6357 39.6222C46.5164 39.7585 46.4567 39.9403 46.4567 40.1676C46.4567 40.483 46.5732 40.7216 46.8062 40.8835C47.0391 41.0426 47.336 41.1222 47.6968 41.1222ZM55.5241 42.1321C54.8906 42.1321 54.3451 41.9886 53.8877 41.7017C53.4332 41.4119 53.0838 41.0128 52.8394 40.5043C52.5951 39.9957 52.473 39.4134 52.473 38.7571C52.473 38.0923 52.598 37.5057 52.848 36.9972C53.098 36.4858 53.4502 36.0866 53.9048 35.7997C54.3593 35.5128 54.8948 35.3693 55.5113 35.3693C56.0085 35.3693 56.4517 35.4616 56.8409 35.6463C57.2301 35.8281 57.544 36.0838 57.7826 36.4134C58.0241 36.7429 58.1676 37.1278 58.213 37.5682H56.973C56.9048 37.2614 56.7485 36.9972 56.5042 36.7756C56.2627 36.554 55.9389 36.4432 55.5326 36.4432C55.1775 36.4432 54.8664 36.5369 54.5994 36.7244C54.3352 36.9091 54.1292 37.1733 53.9815 37.517C53.8338 37.858 53.7599 38.2614 53.7599 38.7273C53.7599 39.2045 53.8323 39.6165 53.9772 39.9631C54.1221 40.3097 54.3267 40.5781 54.5909 40.7685C54.8579 40.9588 55.1718 41.054 55.5326 41.054C55.7741 41.054 55.9929 41.0099 56.1889 40.9219C56.3877 40.831 56.5539 40.7017 56.6875 40.5341C56.8238 40.3665 56.919 40.1648 56.973 39.929H58.213C58.1676 40.3523 58.0298 40.7301 57.7997 41.0625C57.5696 41.3949 57.2613 41.6562 56.875 41.8466C56.4914 42.0369 56.0412 42.1321 55.5241 42.1321ZM59.9956 42V35.4545H61.2697V42H59.9956ZM60.6391 34.4446C60.4175 34.4446 60.2271 34.3707 60.068 34.223C59.9118 34.0724 59.8337 33.8935 59.8337 33.6861C59.8337 33.4759 59.9118 33.2969 60.068 33.1491C60.2271 32.9986 60.4175 32.9233 60.6391 32.9233C60.8607 32.9233 61.0496 32.9986 61.2058 33.1491C61.3649 33.2969 61.4445 33.4759 61.4445 33.6861C61.4445 33.8935 61.3649 34.0724 61.2058 34.223C61.0496 34.3707 60.8607 34.4446 60.6391 34.4446ZM66.161 42.1321C65.5473 42.1321 65.0118 41.9915 64.5544 41.7102C64.0971 41.429 63.7419 41.0355 63.4891 40.5298C63.2363 40.0241 63.1098 39.4332 63.1098 38.7571C63.1098 38.0781 63.2363 37.4844 63.4891 36.9759C63.7419 36.4673 64.0971 36.0724 64.5544 35.7912C65.0118 35.5099 65.5473 35.3693 66.161 35.3693C66.7746 35.3693 67.3101 35.5099 67.7675 35.7912C68.2249 36.0724 68.58 36.4673 68.8329 36.9759C69.0857 37.4844 69.2121 38.0781 69.2121 38.7571C69.2121 39.4332 69.0857 40.0241 68.8329 40.5298C68.58 41.0355 68.2249 41.429 67.7675 41.7102C67.3101 41.9915 66.7746 42.1321 66.161 42.1321ZM66.1652 41.0625C66.563 41.0625 66.8925 40.9574 67.1539 40.7472C67.4152 40.5369 67.6084 40.2571 67.7334 39.9077C67.8613 39.5582 67.9252 39.1733 67.9252 38.7528C67.9252 38.3352 67.8613 37.9517 67.7334 37.6023C67.6084 37.25 67.4152 36.9673 67.1539 36.7543C66.8925 36.5412 66.563 36.4347 66.1652 36.4347C65.7647 36.4347 65.4323 36.5412 65.1681 36.7543C64.9067 36.9673 64.7121 37.25 64.5843 37.6023C64.4593 37.9517 64.3968 38.3352 64.3968 38.7528C64.3968 39.1733 64.4593 39.5582 64.5843 39.9077C64.7121 40.2571 64.9067 40.5369 65.1681 40.7472C65.4323 40.9574 65.7647 41.0625 66.1652 41.0625ZM72.3285 38.1136V42H71.0543V35.4545H72.2774V36.5199H72.3583C72.5089 36.1733 72.7447 35.8949 73.0657 35.6847C73.3896 35.4744 73.7972 35.3693 74.2887 35.3693C74.7347 35.3693 75.1254 35.4631 75.4606 35.6506C75.7958 35.8352 76.0558 36.1108 76.2404 36.4773C76.4251 36.8437 76.5174 37.2969 76.5174 37.8366V42H75.2433V37.9901C75.2433 37.5156 75.1197 37.1449 74.8725 36.8778C74.6254 36.608 74.2859 36.473 73.8541 36.473C73.5586 36.473 73.2958 36.5369 73.0657 36.6648C72.8384 36.7926 72.658 36.9801 72.5245 37.2273C72.3938 37.4716 72.3285 37.767 72.3285 38.1136ZM81.4672 42.1321C80.8224 42.1321 80.267 41.9943 79.8011 41.7188C79.338 41.4403 78.98 41.0497 78.7272 40.5469C78.4772 40.0412 78.3522 39.4489 78.3522 38.7699C78.3522 38.0994 78.4772 37.5085 78.7272 36.9972C78.98 36.4858 79.3323 36.0866 79.784 35.7997C80.2386 35.5128 80.7698 35.3693 81.3778 35.3693C81.7471 35.3693 82.105 35.4304 82.4516 35.5526C82.7982 35.6747 83.1093 35.8665 83.3849 36.1278C83.6604 36.3892 83.8778 36.7287 84.0368 37.1463C84.1959 37.5611 84.2755 38.0653 84.2755 38.6591V39.1108H79.0724V38.1562H83.0269C83.0269 37.821 82.9587 37.5241 82.8224 37.2656C82.686 37.0043 82.4942 36.7983 82.2471 36.6477C82.0028 36.4972 81.7158 36.4219 81.3863 36.4219C81.0283 36.4219 80.7158 36.5099 80.4488 36.6861C80.1846 36.8594 79.98 37.0866 79.8351 37.3679C79.6931 37.6463 79.6221 37.9489 79.6221 38.2756V39.0213C79.6221 39.4588 79.6988 39.831 79.8522 40.1378C80.0084 40.4446 80.2258 40.679 80.5042 40.8409C80.7826 41 81.1079 41.0795 81.48 41.0795C81.7215 41.0795 81.9417 41.0455 82.1405 40.9773C82.3394 40.9062 82.5113 40.8011 82.6562 40.6619C82.8011 40.5227 82.9118 40.3509 82.9886 40.1463L84.1945 40.3636C84.0979 40.7187 83.9246 41.0298 83.6746 41.2969C83.4275 41.5611 83.1164 41.767 82.7414 41.9148C82.3692 42.0597 81.9445 42.1321 81.4672 42.1321ZM91.014 37.0526L89.8592 37.2571C89.8109 37.1094 89.7342 36.9687 89.6291 36.8352C89.5268 36.7017 89.3876 36.5923 89.2115 36.5071C89.0353 36.4219 88.8152 36.3793 88.551 36.3793C88.1902 36.3793 87.889 36.4602 87.6475 36.6222C87.4061 36.7812 87.2853 36.9872 87.2853 37.2401C87.2853 37.4588 87.3663 37.6349 87.5282 37.7685C87.6902 37.902 87.9515 38.0114 88.3123 38.0966L89.3521 38.3352C89.9544 38.4744 90.4032 38.6889 90.6987 38.9787C90.9941 39.2685 91.1419 39.6449 91.1419 40.108C91.1419 40.5 91.0282 40.8494 90.801 41.1562C90.5765 41.4602 90.2626 41.6989 89.8592 41.8722C89.4586 42.0455 88.9941 42.1321 88.4657 42.1321C87.7328 42.1321 87.1348 41.9759 86.6717 41.6634C86.2086 41.348 85.9245 40.9006 85.8194 40.321L87.051 40.1335C87.1277 40.4545 87.2853 40.6974 87.524 40.8622C87.7626 41.0241 88.0737 41.1051 88.4572 41.1051C88.8748 41.1051 89.2086 41.0185 89.4586 40.8452C89.7086 40.669 89.8336 40.4545 89.8336 40.2017C89.8336 39.9972 89.7569 39.8253 89.6035 39.6861C89.4529 39.5469 89.2214 39.4418 88.9089 39.3707L87.801 39.1278C87.1902 38.9886 86.7385 38.767 86.4458 38.4631C86.1561 38.1591 86.0112 37.7741 86.0112 37.3082C86.0112 36.9219 86.1191 36.5838 86.335 36.294C86.551 36.0043 86.8492 35.7784 87.2299 35.6165C87.6106 35.4517 88.0467 35.3693 88.5382 35.3693C89.2456 35.3693 89.8024 35.5227 90.2086 35.8295C90.6149 36.1335 90.8833 36.5412 91.014 37.0526ZM99.4861 42H96.6608V33.2727H99.5756C100.431 33.2727 101.165 33.4474 101.779 33.7969C102.392 34.1435 102.863 34.642 103.189 35.2926C103.519 35.9403 103.684 36.7173 103.684 37.6236C103.684 38.5327 103.517 39.3139 103.185 39.9673C102.855 40.6207 102.378 41.1236 101.753 41.4759C101.128 41.8253 100.372 42 99.4861 42ZM97.9776 40.8494H99.4137C100.078 40.8494 100.631 40.7244 101.071 40.4744C101.512 40.2216 101.841 39.8565 102.06 39.3793C102.279 38.8991 102.388 38.3139 102.388 37.6236C102.388 36.9389 102.279 36.358 102.06 35.8807C101.844 35.4034 101.522 35.0412 101.093 34.794C100.664 34.5469 100.131 34.4233 99.4946 34.4233H97.9776V40.8494ZM105.639 42V35.4545H106.913V42H105.639ZM105.758 34.581L106.755 32.6165H108.098L106.777 34.581H105.758ZM110.952 42.1449C110.537 42.1449 110.162 42.0682 109.827 41.9148C109.492 41.7585 109.226 41.5327 109.03 41.2372C108.837 40.9418 108.74 40.5795 108.74 40.1506C108.74 39.7812 108.811 39.4773 108.953 39.2386C109.095 39 109.287 38.8111 109.529 38.6719C109.77 38.5327 110.04 38.4276 110.338 38.3565C110.636 38.2855 110.94 38.2315 111.25 38.1946C111.642 38.1491 111.96 38.1122 112.205 38.0838C112.449 38.0526 112.627 38.0028 112.737 37.9347C112.848 37.8665 112.904 37.7557 112.904 37.6023V37.5724C112.904 37.2003 112.798 36.9119 112.588 36.7074C112.381 36.5028 112.071 36.4006 111.659 36.4006C111.23 36.4006 110.892 36.4957 110.645 36.6861C110.401 36.8736 110.232 37.0824 110.138 37.3125L108.94 37.0398C109.083 36.642 109.29 36.321 109.563 36.0767C109.838 35.8295 110.155 35.6506 110.513 35.5398C110.871 35.4261 111.247 35.3693 111.642 35.3693C111.904 35.3693 112.181 35.4006 112.473 35.4631C112.769 35.5227 113.044 35.6335 113.3 35.7955C113.558 35.9574 113.77 36.1889 113.935 36.4901C114.1 36.7884 114.182 37.1761 114.182 37.6534V42H112.938V41.1051H112.886C112.804 41.2699 112.681 41.4318 112.516 41.5909C112.351 41.75 112.139 41.8821 111.881 41.9872C111.622 42.0923 111.313 42.1449 110.952 42.1449ZM111.229 41.1222C111.581 41.1222 111.882 41.0526 112.132 40.9134C112.385 40.7741 112.577 40.5923 112.708 40.3679C112.841 40.1406 112.908 39.8977 112.908 39.6392V38.7955C112.862 38.8409 112.774 38.8835 112.644 38.9233C112.516 38.9602 112.369 38.9929 112.205 39.0213C112.04 39.0469 111.879 39.071 111.723 39.0938C111.567 39.1136 111.436 39.1307 111.331 39.1449C111.084 39.1761 110.858 39.2287 110.654 39.3026C110.452 39.3764 110.29 39.483 110.168 39.6222C110.048 39.7585 109.989 39.9403 109.989 40.1676C109.989 40.483 110.105 40.7216 110.338 40.8835C110.571 41.0426 110.868 41.1222 111.229 41.1222ZM121.204 37.0526L120.049 37.2571C120.001 37.1094 119.924 36.9687 119.819 36.8352C119.717 36.7017 119.577 36.5923 119.401 36.5071C119.225 36.4219 119.005 36.3793 118.741 36.3793C118.38 36.3793 118.079 36.4602 117.837 36.6222C117.596 36.7812 117.475 36.9872 117.475 37.2401C117.475 37.4588 117.556 37.6349 117.718 37.7685C117.88 37.902 118.141 38.0114 118.502 38.0966L119.542 38.3352C120.144 38.4744 120.593 38.6889 120.889 38.9787C121.184 39.2685 121.332 39.6449 121.332 40.108C121.332 40.5 121.218 40.8494 120.991 41.1562C120.766 41.4602 120.452 41.6989 120.049 41.8722C119.648 42.0455 119.184 42.1321 118.656 42.1321C117.923 42.1321 117.325 41.9759 116.862 41.6634C116.398 41.348 116.114 40.9006 116.009 40.321L117.241 40.1335C117.317 40.4545 117.475 40.6974 117.714 40.8622C117.952 41.0241 118.264 41.1051 118.647 41.1051C119.065 41.1051 119.398 41.0185 119.648 40.8452C119.898 40.669 120.023 40.4545 120.023 40.2017C120.023 39.9972 119.947 39.8253 119.793 39.6861C119.643 39.5469 119.411 39.4418 119.099 39.3707L117.991 39.1278C117.38 38.9886 116.928 38.767 116.636 38.4631C116.346 38.1591 116.201 37.7741 116.201 37.3082C116.201 36.9219 116.309 36.5838 116.525 36.294C116.741 36.0043 117.039 35.7784 117.42 35.6165C117.8 35.4517 118.237 35.3693 118.728 35.3693C119.435 35.3693 119.992 35.5227 120.398 35.8295C120.805 36.1335 121.073 36.5412 121.204 37.0526ZM126.851 42V33.2727H128.167V37.0653H132.518V33.2727H133.839V42H132.518V38.1946H128.167V42H126.851ZM137.979 42.1449C137.565 42.1449 137.19 42.0682 136.854 41.9148C136.519 41.7585 136.254 41.5327 136.058 41.2372C135.864 40.9418 135.768 40.5795 135.768 40.1506C135.768 39.7812 135.839 39.4773 135.981 39.2386C136.123 39 136.315 38.8111 136.556 38.6719C136.798 38.5327 137.068 38.4276 137.366 38.3565C137.664 38.2855 137.968 38.2315 138.278 38.1946C138.67 38.1491 138.988 38.1122 139.232 38.0838C139.477 38.0526 139.654 38.0028 139.765 37.9347C139.876 37.8665 139.931 37.7557 139.931 37.6023V37.5724C139.931 37.2003 139.826 36.9119 139.616 36.7074C139.408 36.5028 139.099 36.4006 138.687 36.4006C138.258 36.4006 137.92 36.4957 137.673 36.6861C137.428 36.8736 137.259 37.0824 137.166 37.3125L135.968 37.0398C136.11 36.642 136.318 36.321 136.59 36.0767C136.866 35.8295 137.183 35.6506 137.541 35.5398C137.899 35.4261 138.275 35.3693 138.67 35.3693C138.931 35.3693 139.208 35.4006 139.501 35.4631C139.796 35.5227 140.072 35.6335 140.327 35.7955C140.586 35.9574 140.798 36.1889 140.962 36.4901C141.127 36.7884 141.21 37.1761 141.21 37.6534V42H139.965V41.1051H139.914C139.832 41.2699 139.708 41.4318 139.543 41.5909C139.379 41.75 139.167 41.8821 138.908 41.9872C138.65 42.0923 138.34 42.1449 137.979 42.1449ZM138.256 41.1222C138.609 41.1222 138.91 41.0526 139.16 40.9134C139.413 40.7741 139.604 40.5923 139.735 40.3679C139.869 40.1406 139.935 39.8977 139.935 39.6392V38.7955C139.89 38.8409 139.802 38.8835 139.671 38.9233C139.543 38.9602 139.397 38.9929 139.232 39.0213C139.068 39.0469 138.907 39.071 138.751 39.0938C138.595 39.1136 138.464 39.1307 138.359 39.1449C138.112 39.1761 137.886 39.2287 137.681 39.3026C137.479 39.3764 137.318 39.483 137.195 39.6222C137.076 39.7585 137.016 39.9403 137.016 40.1676C137.016 40.483 137.133 40.7216 137.366 40.8835C137.599 41.0426 137.896 41.1222 138.256 41.1222ZM138.21 34.581L139.207 32.6165H140.549L139.228 34.581H138.21ZM143.429 42V33.2727H144.703V36.5156H144.78C144.854 36.3793 144.96 36.2216 145.099 36.0426C145.239 35.8636 145.432 35.7074 145.679 35.5739C145.926 35.4375 146.253 35.3693 146.659 35.3693C147.187 35.3693 147.659 35.5028 148.074 35.7699C148.489 36.0369 148.814 36.4219 149.05 36.9247C149.288 37.4276 149.408 38.0327 149.408 38.7401C149.408 39.4474 149.29 40.054 149.054 40.5597C148.818 41.0625 148.494 41.4503 148.082 41.723C147.67 41.9929 147.2 42.1278 146.672 42.1278C146.274 42.1278 145.949 42.0611 145.696 41.9276C145.446 41.794 145.25 41.6378 145.108 41.4588C144.966 41.2798 144.857 41.1207 144.78 40.9815H144.673V42H143.429ZM144.678 38.7273C144.678 39.1875 144.744 39.5909 144.878 39.9375C145.011 40.2841 145.205 40.5554 145.457 40.7514C145.71 40.9446 146.02 41.0412 146.386 41.0412C146.767 41.0412 147.085 40.9403 147.341 40.7386C147.597 40.5341 147.79 40.2571 147.92 39.9077C148.054 39.5582 148.121 39.1648 148.121 38.7273C148.121 38.2955 148.055 37.9077 147.925 37.5639C147.797 37.2202 147.604 36.9489 147.345 36.75C147.089 36.5511 146.77 36.4517 146.386 36.4517C146.017 36.4517 145.705 36.5469 145.449 36.7372C145.196 36.9276 145.004 37.1932 144.874 37.5341C144.743 37.875 144.678 38.2727 144.678 38.7273ZM151.258 42V35.4545H152.533V42H151.258ZM151.902 34.4446C151.68 34.4446 151.49 34.3707 151.331 34.223C151.175 34.0724 151.096 33.8935 151.096 33.6861C151.096 33.4759 151.175 33.2969 151.331 33.1491C151.49 32.9986 151.68 32.9233 151.902 32.9233C152.123 32.9233 152.312 32.9986 152.469 33.1491C152.628 33.2969 152.707 33.4759 152.707 33.6861C152.707 33.8935 152.628 34.0724 152.469 34.223C152.312 34.3707 152.123 34.4446 151.902 34.4446ZM155.941 33.2727V42H154.667V33.2727H155.941ZM160.896 42.1321C160.251 42.1321 159.696 41.9943 159.23 41.7188C158.767 41.4403 158.409 41.0497 158.156 40.5469C157.906 40.0412 157.781 39.4489 157.781 38.7699C157.781 38.0994 157.906 37.5085 158.156 36.9972C158.409 36.4858 158.761 36.0866 159.213 35.7997C159.667 35.5128 160.199 35.3693 160.807 35.3693C161.176 35.3693 161.534 35.4304 161.88 35.5526C162.227 35.6747 162.538 35.8665 162.814 36.1278C163.089 36.3892 163.307 36.7287 163.466 37.1463C163.625 37.5611 163.704 38.0653 163.704 38.6591V39.1108H158.501V38.1562H162.456C162.456 37.821 162.387 37.5241 162.251 37.2656C162.115 37.0043 161.923 36.7983 161.676 36.6477C161.432 36.4972 161.145 36.4219 160.815 36.4219C160.457 36.4219 160.145 36.5099 159.878 36.6861C159.613 36.8594 159.409 37.0866 159.264 37.3679C159.122 37.6463 159.051 37.9489 159.051 38.2756V39.0213C159.051 39.4588 159.128 39.831 159.281 40.1378C159.437 40.4446 159.655 40.679 159.933 40.8409C160.211 41 160.537 41.0795 160.909 41.0795C161.15 41.0795 161.37 41.0455 161.569 40.9773C161.768 40.9062 161.94 40.8011 162.085 40.6619C162.23 40.5227 162.341 40.3509 162.417 40.1463L163.623 40.3636C163.527 40.7187 163.353 41.0298 163.103 41.2969C162.856 41.5611 162.545 41.767 162.17 41.9148C161.798 42.0597 161.373 42.1321 160.896 42.1321ZM170.443 37.0526L169.288 37.2571C169.24 37.1094 169.163 36.9687 169.058 36.8352C168.956 36.7017 168.816 36.5923 168.64 36.5071C168.464 36.4219 168.244 36.3793 167.98 36.3793C167.619 36.3793 167.318 36.4602 167.076 36.6222C166.835 36.7812 166.714 36.9872 166.714 37.2401C166.714 37.4588 166.795 37.6349 166.957 37.7685C167.119 37.902 167.38 38.0114 167.741 38.0966L168.781 38.3352C169.383 38.4744 169.832 38.6889 170.127 38.9787C170.423 39.2685 170.571 39.6449 170.571 40.108C170.571 40.5 170.457 40.8494 170.23 41.1562C170.005 41.4602 169.691 41.6989 169.288 41.8722C168.887 42.0455 168.423 42.1321 167.894 42.1321C167.162 42.1321 166.564 41.9759 166.1 41.6634C165.637 41.348 165.353 40.9006 165.248 40.321L166.48 40.1335C166.556 40.4545 166.714 40.6974 166.953 40.8622C167.191 41.0241 167.502 41.1051 167.886 41.1051C168.304 41.1051 168.637 41.0185 168.887 40.8452C169.137 40.669 169.262 40.4545 169.262 40.2017C169.262 39.9972 169.186 39.8253 169.032 39.6861C168.882 39.5469 168.65 39.4418 168.338 39.3707L167.23 39.1278C166.619 38.9886 166.167 38.767 165.875 38.4631C165.585 38.1591 165.44 37.7741 165.44 37.3082C165.44 36.9219 165.548 36.5838 165.764 36.294C165.98 36.0043 166.278 35.7784 166.659 35.6165C167.039 35.4517 167.475 35.3693 167.967 35.3693C168.674 35.3693 169.231 35.5227 169.637 35.8295C170.044 36.1335 170.312 36.5412 170.443 37.0526Z" fill="#818284"/>
<path d="M23.7216 33.2727L26.1506 40.3807H26.2486L28.6776 33.2727H30.1009L26.9602 42H25.4389L22.2983 33.2727H23.7216ZM32.9392 42.1449C32.5244 42.1449 32.1494 42.0682 31.8142 41.9148C31.4789 41.7585 31.2133 41.5327 31.0173 41.2372C30.8241 40.9418 30.7275 40.5795 30.7275 40.1506C30.7275 39.7812 30.7986 39.4773 30.9406 39.2386C31.0826 39 31.2744 38.8111 31.5159 38.6719C31.7574 38.5327 32.0272 38.4276 32.3255 38.3565C32.6238 38.2855 32.9278 38.2315 33.2375 38.1946C33.6295 38.1491 33.9477 38.1122 34.192 38.0838C34.4363 38.0526 34.6139 38.0028 34.7247 37.9347C34.8355 37.8665 34.8909 37.7557 34.8909 37.6023V37.5724C34.8909 37.2003 34.7858 36.9119 34.5755 36.7074C34.3682 36.5028 34.0585 36.4006 33.6466 36.4006C33.2176 36.4006 32.8795 36.4957 32.6324 36.6861C32.388 36.8736 32.219 37.0824 32.1253 37.3125L30.9278 37.0398C31.0699 36.642 31.2772 36.321 31.55 36.0767C31.8255 35.8295 32.1423 35.6506 32.5003 35.5398C32.8582 35.4261 33.2346 35.3693 33.6295 35.3693C33.8909 35.3693 34.1679 35.4006 34.4605 35.4631C34.7559 35.5227 35.0315 35.6335 35.2872 35.7955C35.5457 35.9574 35.7574 36.1889 35.9221 36.4901C36.0869 36.7884 36.1693 37.1761 36.1693 37.6534V42H34.925V41.1051H34.8738C34.7914 41.2699 34.6679 41.4318 34.5031 41.5909C34.3383 41.75 34.1267 41.8821 33.8682 41.9872C33.6096 42.0923 33.3 42.1449 32.9392 42.1449ZM33.2162 41.1222C33.5684 41.1222 33.8696 41.0526 34.1196 40.9134C34.3724 40.7741 34.5642 40.5923 34.6949 40.3679C34.8284 40.1406 34.8951 39.8977 34.8951 39.6392V38.7955C34.8497 38.8409 34.7616 38.8835 34.6309 38.9233C34.5031 38.9602 34.3568 38.9929 34.192 39.0213C34.0272 39.0469 33.8667 39.071 33.7105 39.0938C33.5542 39.1136 33.4236 39.1307 33.3184 39.1449C33.0713 39.1761 32.8454 39.2287 32.6409 39.3026C32.4392 39.3764 32.2772 39.483 32.1551 39.6222C32.0358 39.7585 31.9761 39.9403 31.9761 40.1676C31.9761 40.483 32.0926 40.7216 32.3255 40.8835C32.5585 41.0426 32.8554 41.1222 33.2162 41.1222ZM41.0435 42.1321C40.41 42.1321 39.8645 41.9886 39.4071 41.7017C38.9526 41.4119 38.6031 41.0128 38.3588 40.5043C38.1145 39.9957 37.9923 39.4134 37.9923 38.7571C37.9923 38.0923 38.1173 37.5057 38.3673 36.9972C38.6173 36.4858 38.9696 36.0866 39.4242 35.7997C39.8787 35.5128 40.4142 35.3693 41.0307 35.3693C41.5279 35.3693 41.971 35.4616 42.3602 35.6463C42.7494 35.8281 43.0634 36.0838 43.302 36.4134C43.5435 36.7429 43.6869 37.1278 43.7324 37.5682H42.4923C42.4242 37.2614 42.2679 36.9972 42.0236 36.7756C41.7821 36.554 41.4583 36.4432 41.052 36.4432C40.6969 36.4432 40.3858 36.5369 40.1188 36.7244C39.8546 36.9091 39.6486 37.1733 39.5009 37.517C39.3531 37.858 39.2793 38.2614 39.2793 38.7273C39.2793 39.2045 39.3517 39.6165 39.4966 39.9631C39.6415 40.3097 39.846 40.5781 40.1102 40.7685C40.3773 40.9588 40.6912 41.054 41.052 41.054C41.2935 41.054 41.5122 41.0099 41.7083 40.9219C41.9071 40.831 42.0733 40.7017 42.2068 40.5341C42.3432 40.3665 42.4384 40.1648 42.4923 39.929H43.7324C43.6869 40.3523 43.5492 40.7301 43.319 41.0625C43.0889 41.3949 42.7807 41.6562 42.3943 41.8466C42.0108 42.0369 41.5605 42.1321 41.0435 42.1321ZM47.4198 42.1449C47.005 42.1449 46.63 42.0682 46.2948 41.9148C45.9596 41.7585 45.6939 41.5327 45.4979 41.2372C45.3047 40.9418 45.2082 40.5795 45.2082 40.1506C45.2082 39.7812 45.2792 39.4773 45.4212 39.2386C45.5633 39 45.755 38.8111 45.9965 38.6719C46.238 38.5327 46.5079 38.4276 46.8062 38.3565C47.1045 38.2855 47.4084 38.2315 47.7181 38.1946C48.1101 38.1491 48.4283 38.1122 48.6726 38.0838C48.917 38.0526 49.0945 38.0028 49.2053 37.9347C49.3161 37.8665 49.3715 37.7557 49.3715 37.6023V37.5724C49.3715 37.2003 49.2664 36.9119 49.0562 36.7074C48.8488 36.5028 48.5391 36.4006 48.1272 36.4006C47.6982 36.4006 47.3601 36.4957 47.113 36.6861C46.8687 36.8736 46.6996 37.0824 46.6059 37.3125L45.4084 37.0398C45.5505 36.642 45.7579 36.321 46.0306 36.0767C46.3062 35.8295 46.6229 35.6506 46.9809 35.5398C47.3388 35.4261 47.7153 35.3693 48.1101 35.3693C48.3715 35.3693 48.6485 35.4006 48.9411 35.4631C49.2366 35.5227 49.5121 35.6335 49.7678 35.7955C50.0263 35.9574 50.238 36.1889 50.4028 36.4901C50.5675 36.7884 50.6499 37.1761 50.6499 37.6534V42H49.4056V41.1051H49.3545C49.2721 41.2699 49.1485 41.4318 48.9837 41.5909C48.8189 41.75 48.6073 41.8821 48.3488 41.9872C48.0903 42.0923 47.7806 42.1449 47.4198 42.1449ZM47.6968 41.1222C48.0491 41.1222 48.3502 41.0526 48.6002 40.9134C48.853 40.7741 49.0448 40.5923 49.1755 40.3679C49.309 40.1406 49.3758 39.8977 49.3758 39.6392V38.7955C49.3303 38.8409 49.2422 38.8835 49.1116 38.9233C48.9837 38.9602 48.8374 38.9929 48.6726 39.0213C48.5079 39.0469 48.3474 39.071 48.1911 39.0938C48.0349 39.1136 47.9042 39.1307 47.7991 39.1449C47.5519 39.1761 47.3261 39.2287 47.1215 39.3026C46.9198 39.3764 46.7579 39.483 46.6357 39.6222C46.5164 39.7585 46.4567 39.9403 46.4567 40.1676C46.4567 40.483 46.5732 40.7216 46.8062 40.8835C47.0391 41.0426 47.336 41.1222 47.6968 41.1222ZM55.5241 42.1321C54.8906 42.1321 54.3451 41.9886 53.8877 41.7017C53.4332 41.4119 53.0838 41.0128 52.8394 40.5043C52.5951 39.9957 52.473 39.4134 52.473 38.7571C52.473 38.0923 52.598 37.5057 52.848 36.9972C53.098 36.4858 53.4502 36.0866 53.9048 35.7997C54.3593 35.5128 54.8948 35.3693 55.5113 35.3693C56.0085 35.3693 56.4517 35.4616 56.8409 35.6463C57.2301 35.8281 57.544 36.0838 57.7826 36.4134C58.0241 36.7429 58.1676 37.1278 58.213 37.5682H56.973C56.9048 37.2614 56.7485 36.9972 56.5042 36.7756C56.2627 36.554 55.9389 36.4432 55.5326 36.4432C55.1775 36.4432 54.8664 36.5369 54.5994 36.7244C54.3352 36.9091 54.1292 37.1733 53.9815 37.517C53.8338 37.858 53.7599 38.2614 53.7599 38.7273C53.7599 39.2045 53.8323 39.6165 53.9772 39.9631C54.1221 40.3097 54.3267 40.5781 54.5909 40.7685C54.8579 40.9588 55.1718 41.054 55.5326 41.054C55.7741 41.054 55.9929 41.0099 56.1889 40.9219C56.3877 40.831 56.5539 40.7017 56.6875 40.5341C56.8238 40.3665 56.919 40.1648 56.973 39.929H58.213C58.1676 40.3523 58.0298 40.7301 57.7997 41.0625C57.5696 41.3949 57.2613 41.6562 56.875 41.8466C56.4914 42.0369 56.0412 42.1321 55.5241 42.1321ZM59.9956 42V35.4545H61.2697V42H59.9956ZM60.6391 34.4446C60.4175 34.4446 60.2271 34.3707 60.068 34.223C59.9118 34.0724 59.8337 33.8935 59.8337 33.6861C59.8337 33.4759 59.9118 33.2969 60.068 33.1491C60.2271 32.9986 60.4175 32.9233 60.6391 32.9233C60.8607 32.9233 61.0496 32.9986 61.2058 33.1491C61.3649 33.2969 61.4445 33.4759 61.4445 33.6861C61.4445 33.8935 61.3649 34.0724 61.2058 34.223C61.0496 34.3707 60.8607 34.4446 60.6391 34.4446ZM66.161 42.1321C65.5473 42.1321 65.0118 41.9915 64.5544 41.7102C64.0971 41.429 63.7419 41.0355 63.4891 40.5298C63.2363 40.0241 63.1098 39.4332 63.1098 38.7571C63.1098 38.0781 63.2363 37.4844 63.4891 36.9759C63.7419 36.4673 64.0971 36.0724 64.5544 35.7912C65.0118 35.5099 65.5473 35.3693 66.161 35.3693C66.7746 35.3693 67.3101 35.5099 67.7675 35.7912C68.2249 36.0724 68.58 36.4673 68.8329 36.9759C69.0857 37.4844 69.2121 38.0781 69.2121 38.7571C69.2121 39.4332 69.0857 40.0241 68.8329 40.5298C68.58 41.0355 68.2249 41.429 67.7675 41.7102C67.3101 41.9915 66.7746 42.1321 66.161 42.1321ZM66.1652 41.0625C66.563 41.0625 66.8925 40.9574 67.1539 40.7472C67.4152 40.5369 67.6084 40.2571 67.7334 39.9077C67.8613 39.5582 67.9252 39.1733 67.9252 38.7528C67.9252 38.3352 67.8613 37.9517 67.7334 37.6023C67.6084 37.25 67.4152 36.9673 67.1539 36.7543C66.8925 36.5412 66.563 36.4347 66.1652 36.4347C65.7647 36.4347 65.4323 36.5412 65.1681 36.7543C64.9067 36.9673 64.7121 37.25 64.5843 37.6023C64.4593 37.9517 64.3968 38.3352 64.3968 38.7528C64.3968 39.1733 64.4593 39.5582 64.5843 39.9077C64.7121 40.2571 64.9067 40.5369 65.1681 40.7472C65.4323 40.9574 65.7647 41.0625 66.1652 41.0625ZM72.3285 38.1136V42H71.0543V35.4545H72.2774V36.5199H72.3583C72.5089 36.1733 72.7447 35.8949 73.0657 35.6847C73.3896 35.4744 73.7972 35.3693 74.2887 35.3693C74.7347 35.3693 75.1254 35.4631 75.4606 35.6506C75.7958 35.8352 76.0558 36.1108 76.2404 36.4773C76.4251 36.8437 76.5174 37.2969 76.5174 37.8366V42H75.2433V37.9901C75.2433 37.5156 75.1197 37.1449 74.8725 36.8778C74.6254 36.608 74.2859 36.473 73.8541 36.473C73.5586 36.473 73.2958 36.5369 73.0657 36.6648C72.8384 36.7926 72.658 36.9801 72.5245 37.2273C72.3938 37.4716 72.3285 37.767 72.3285 38.1136ZM81.4672 42.1321C80.8224 42.1321 80.267 41.9943 79.8011 41.7188C79.338 41.4403 78.98 41.0497 78.7272 40.5469C78.4772 40.0412 78.3522 39.4489 78.3522 38.7699C78.3522 38.0994 78.4772 37.5085 78.7272 36.9972C78.98 36.4858 79.3323 36.0866 79.784 35.7997C80.2386 35.5128 80.7698 35.3693 81.3778 35.3693C81.7471 35.3693 82.105 35.4304 82.4516 35.5526C82.7982 35.6747 83.1093 35.8665 83.3849 36.1278C83.6604 36.3892 83.8778 36.7287 84.0368 37.1463C84.1959 37.5611 84.2755 38.0653 84.2755 38.6591V39.1108H79.0724V38.1562H83.0269C83.0269 37.821 82.9587 37.5241 82.8224 37.2656C82.686 37.0043 82.4942 36.7983 82.2471 36.6477C82.0028 36.4972 81.7158 36.4219 81.3863 36.4219C81.0283 36.4219 80.7158 36.5099 80.4488 36.6861C80.1846 36.8594 79.98 37.0866 79.8351 37.3679C79.6931 37.6463 79.6221 37.9489 79.6221 38.2756V39.0213C79.6221 39.4588 79.6988 39.831 79.8522 40.1378C80.0084 40.4446 80.2258 40.679 80.5042 40.8409C80.7826 41 81.1079 41.0795 81.48 41.0795C81.7215 41.0795 81.9417 41.0455 82.1405 40.9773C82.3394 40.9062 82.5113 40.8011 82.6562 40.6619C82.8011 40.5227 82.9118 40.3509 82.9886 40.1463L84.1945 40.3636C84.0979 40.7187 83.9246 41.0298 83.6746 41.2969C83.4275 41.5611 83.1164 41.767 82.7414 41.9148C82.3692 42.0597 81.9445 42.1321 81.4672 42.1321ZM91.014 37.0526L89.8592 37.2571C89.8109 37.1094 89.7342 36.9687 89.6291 36.8352C89.5268 36.7017 89.3876 36.5923 89.2115 36.5071C89.0353 36.4219 88.8152 36.3793 88.551 36.3793C88.1902 36.3793 87.889 36.4602 87.6475 36.6222C87.4061 36.7812 87.2853 36.9872 87.2853 37.2401C87.2853 37.4588 87.3663 37.6349 87.5282 37.7685C87.6902 37.902 87.9515 38.0114 88.3123 38.0966L89.3521 38.3352C89.9544 38.4744 90.4032 38.6889 90.6987 38.9787C90.9941 39.2685 91.1419 39.6449 91.1419 40.108C91.1419 40.5 91.0282 40.8494 90.801 41.1562C90.5765 41.4602 90.2626 41.6989 89.8592 41.8722C89.4586 42.0455 88.9941 42.1321 88.4657 42.1321C87.7328 42.1321 87.1348 41.9759 86.6717 41.6634C86.2086 41.348 85.9245 40.9006 85.8194 40.321L87.051 40.1335C87.1277 40.4545 87.2853 40.6974 87.524 40.8622C87.7626 41.0241 88.0737 41.1051 88.4572 41.1051C88.8748 41.1051 89.2086 41.0185 89.4586 40.8452C89.7086 40.669 89.8336 40.4545 89.8336 40.2017C89.8336 39.9972 89.7569 39.8253 89.6035 39.6861C89.4529 39.5469 89.2214 39.4418 88.9089 39.3707L87.801 39.1278C87.1902 38.9886 86.7385 38.767 86.4458 38.4631C86.1561 38.1591 86.0112 37.7741 86.0112 37.3082C86.0112 36.9219 86.1191 36.5838 86.335 36.294C86.551 36.0043 86.8492 35.7784 87.2299 35.6165C87.6106 35.4517 88.0467 35.3693 88.5382 35.3693C89.2456 35.3693 89.8024 35.5227 90.2086 35.8295C90.6149 36.1335 90.8833 36.5412 91.014 37.0526ZM99.4861 42H96.6608V33.2727H99.5756C100.431 33.2727 101.165 33.4474 101.779 33.7969C102.392 34.1435 102.863 34.642 103.189 35.2926C103.519 35.9403 103.684 36.7173 103.684 37.6236C103.684 38.5327 103.517 39.3139 103.185 39.9673C102.855 40.6207 102.378 41.1236 101.753 41.4759C101.128 41.8253 100.372 42 99.4861 42ZM97.9776 40.8494H99.4137C100.078 40.8494 100.631 40.7244 101.071 40.4744C101.512 40.2216 101.841 39.8565 102.06 39.3793C102.279 38.8991 102.388 38.3139 102.388 37.6236C102.388 36.9389 102.279 36.358 102.06 35.8807C101.844 35.4034 101.522 35.0412 101.093 34.794C100.664 34.5469 100.131 34.4233 99.4946 34.4233H97.9776V40.8494ZM105.639 42V35.4545H106.913V42H105.639ZM105.758 34.581L106.755 32.6165H108.098L106.777 34.581H105.758ZM110.952 42.1449C110.537 42.1449 110.162 42.0682 109.827 41.9148C109.492 41.7585 109.226 41.5327 109.03 41.2372C108.837 40.9418 108.74 40.5795 108.74 40.1506C108.74 39.7812 108.811 39.4773 108.953 39.2386C109.095 39 109.287 38.8111 109.529 38.6719C109.77 38.5327 110.04 38.4276 110.338 38.3565C110.636 38.2855 110.94 38.2315 111.25 38.1946C111.642 38.1491 111.96 38.1122 112.205 38.0838C112.449 38.0526 112.627 38.0028 112.737 37.9347C112.848 37.8665 112.904 37.7557 112.904 37.6023V37.5724C112.904 37.2003 112.798 36.9119 112.588 36.7074C112.381 36.5028 112.071 36.4006 111.659 36.4006C111.23 36.4006 110.892 36.4957 110.645 36.6861C110.401 36.8736 110.232 37.0824 110.138 37.3125L108.94 37.0398C109.083 36.642 109.29 36.321 109.563 36.0767C109.838 35.8295 110.155 35.6506 110.513 35.5398C110.871 35.4261 111.247 35.3693 111.642 35.3693C111.904 35.3693 112.181 35.4006 112.473 35.4631C112.769 35.5227 113.044 35.6335 113.3 35.7955C113.558 35.9574 113.77 36.1889 113.935 36.4901C114.1 36.7884 114.182 37.1761 114.182 37.6534V42H112.938V41.1051H112.886C112.804 41.2699 112.681 41.4318 112.516 41.5909C112.351 41.75 112.139 41.8821 111.881 41.9872C111.622 42.0923 111.313 42.1449 110.952 42.1449ZM111.229 41.1222C111.581 41.1222 111.882 41.0526 112.132 40.9134C112.385 40.7741 112.577 40.5923 112.708 40.3679C112.841 40.1406 112.908 39.8977 112.908 39.6392V38.7955C112.862 38.8409 112.774 38.8835 112.644 38.9233C112.516 38.9602 112.369 38.9929 112.205 39.0213C112.04 39.0469 111.879 39.071 111.723 39.0938C111.567 39.1136 111.436 39.1307 111.331 39.1449C111.084 39.1761 110.858 39.2287 110.654 39.3026C110.452 39.3764 110.29 39.483 110.168 39.6222C110.048 39.7585 109.989 39.9403 109.989 40.1676C109.989 40.483 110.105 40.7216 110.338 40.8835C110.571 41.0426 110.868 41.1222 111.229 41.1222ZM121.204 37.0526L120.049 37.2571C120.001 37.1094 119.924 36.9687 119.819 36.8352C119.717 36.7017 119.577 36.5923 119.401 36.5071C119.225 36.4219 119.005 36.3793 118.741 36.3793C118.38 36.3793 118.079 36.4602 117.837 36.6222C117.596 36.7812 117.475 36.9872 117.475 37.2401C117.475 37.4588 117.556 37.6349 117.718 37.7685C117.88 37.902 118.141 38.0114 118.502 38.0966L119.542 38.3352C120.144 38.4744 120.593 38.6889 120.889 38.9787C121.184 39.2685 121.332 39.6449 121.332 40.108C121.332 40.5 121.218 40.8494 120.991 41.1562C120.766 41.4602 120.452 41.6989 120.049 41.8722C119.648 42.0455 119.184 42.1321 118.656 42.1321C117.923 42.1321 117.325 41.9759 116.862 41.6634C116.398 41.348 116.114 40.9006 116.009 40.321L117.241 40.1335C117.317 40.4545 117.475 40.6974 117.714 40.8622C117.952 41.0241 118.264 41.1051 118.647 41.1051C119.065 41.1051 119.398 41.0185 119.648 40.8452C119.898 40.669 120.023 40.4545 120.023 40.2017C120.023 39.9972 119.947 39.8253 119.793 39.6861C119.643 39.5469 119.411 39.4418 119.099 39.3707L117.991 39.1278C117.38 38.9886 116.928 38.767 116.636 38.4631C116.346 38.1591 116.201 37.7741 116.201 37.3082C116.201 36.9219 116.309 36.5838 116.525 36.294C116.741 36.0043 117.039 35.7784 117.42 35.6165C117.8 35.4517 118.237 35.3693 118.728 35.3693C119.435 35.3693 119.992 35.5227 120.398 35.8295C120.805 36.1335 121.073 36.5412 121.204 37.0526ZM126.851 42V33.2727H128.167V37.0653H132.518V33.2727H133.839V42H132.518V38.1946H128.167V42H126.851ZM137.979 42.1449C137.565 42.1449 137.19 42.0682 136.854 41.9148C136.519 41.7585 136.254 41.5327 136.058 41.2372C135.864 40.9418 135.768 40.5795 135.768 40.1506C135.768 39.7812 135.839 39.4773 135.981 39.2386C136.123 39 136.315 38.8111 136.556 38.6719C136.798 38.5327 137.068 38.4276 137.366 38.3565C137.664 38.2855 137.968 38.2315 138.278 38.1946C138.67 38.1491 138.988 38.1122 139.232 38.0838C139.477 38.0526 139.654 38.0028 139.765 37.9347C139.876 37.8665 139.931 37.7557 139.931 37.6023V37.5724C139.931 37.2003 139.826 36.9119 139.616 36.7074C139.408 36.5028 139.099 36.4006 138.687 36.4006C138.258 36.4006 137.92 36.4957 137.673 36.6861C137.428 36.8736 137.259 37.0824 137.166 37.3125L135.968 37.0398C136.11 36.642 136.318 36.321 136.59 36.0767C136.866 35.8295 137.183 35.6506 137.541 35.5398C137.899 35.4261 138.275 35.3693 138.67 35.3693C138.931 35.3693 139.208 35.4006 139.501 35.4631C139.796 35.5227 140.072 35.6335 140.327 35.7955C140.586 35.9574 140.798 36.1889 140.962 36.4901C141.127 36.7884 141.21 37.1761 141.21 37.6534V42H139.965V41.1051H139.914C139.832 41.2699 139.708 41.4318 139.543 41.5909C139.379 41.75 139.167 41.8821 138.908 41.9872C138.65 42.0923 138.34 42.1449 137.979 42.1449ZM138.256 41.1222C138.609 41.1222 138.91 41.0526 139.16 40.9134C139.413 40.7741 139.604 40.5923 139.735 40.3679C139.869 40.1406 139.935 39.8977 139.935 39.6392V38.7955C139.89 38.8409 139.802 38.8835 139.671 38.9233C139.543 38.9602 139.397 38.9929 139.232 39.0213C139.068 39.0469 138.907 39.071 138.751 39.0938C138.595 39.1136 138.464 39.1307 138.359 39.1449C138.112 39.1761 137.886 39.2287 137.681 39.3026C137.479 39.3764 137.318 39.483 137.195 39.6222C137.076 39.7585 137.016 39.9403 137.016 40.1676C137.016 40.483 137.133 40.7216 137.366 40.8835C137.599 41.0426 137.896 41.1222 138.256 41.1222ZM138.21 34.581L139.207 32.6165H140.549L139.228 34.581H138.21ZM143.429 42V33.2727H144.703V36.5156H144.78C144.854 36.3793 144.96 36.2216 145.099 36.0426C145.239 35.8636 145.432 35.7074 145.679 35.5739C145.926 35.4375 146.253 35.3693 146.659 35.3693C147.187 35.3693 147.659 35.5028 148.074 35.7699C148.489 36.0369 148.814 36.4219 149.05 36.9247C149.288 37.4276 149.408 38.0327 149.408 38.7401C149.408 39.4474 149.29 40.054 149.054 40.5597C148.818 41.0625 148.494 41.4503 148.082 41.723C147.67 41.9929 147.2 42.1278 146.672 42.1278C146.274 42.1278 145.949 42.0611 145.696 41.9276C145.446 41.794 145.25 41.6378 145.108 41.4588C144.966 41.2798 144.857 41.1207 144.78 40.9815H144.673V42H143.429ZM144.678 38.7273C144.678 39.1875 144.744 39.5909 144.878 39.9375C145.011 40.2841 145.205 40.5554 145.457 40.7514C145.71 40.9446 146.02 41.0412 146.386 41.0412C146.767 41.0412 147.085 40.9403 147.341 40.7386C147.597 40.5341 147.79 40.2571 147.92 39.9077C148.054 39.5582 148.121 39.1648 148.121 38.7273C148.121 38.2955 148.055 37.9077 147.925 37.5639C147.797 37.2202 147.604 36.9489 147.345 36.75C147.089 36.5511 146.77 36.4517 146.386 36.4517C146.017 36.4517 145.705 36.5469 145.449 36.7372C145.196 36.9276 145.004 37.1932 144.874 37.5341C144.743 37.875 144.678 38.2727 144.678 38.7273ZM151.258 42V35.4545H152.533V42H151.258ZM151.902 34.4446C151.68 34.4446 151.49 34.3707 151.331 34.223C151.175 34.0724 151.096 33.8935 151.096 33.6861C151.096 33.4759 151.175 33.2969 151.331 33.1491C151.49 32.9986 151.68 32.9233 151.902 32.9233C152.123 32.9233 152.312 32.9986 152.469 33.1491C152.628 33.2969 152.707 33.4759 152.707 33.6861C152.707 33.8935 152.628 34.0724 152.469 34.223C152.312 34.3707 152.123 34.4446 151.902 34.4446ZM155.941 33.2727V42H154.667V33.2727H155.941ZM160.896 42.1321C160.251 42.1321 159.696 41.9943 159.23 41.7188C158.767 41.4403 158.409 41.0497 158.156 40.5469C157.906 40.0412 157.781 39.4489 157.781 38.7699C157.781 38.0994 157.906 37.5085 158.156 36.9972C158.409 36.4858 158.761 36.0866 159.213 35.7997C159.667 35.5128 160.199 35.3693 160.807 35.3693C161.176 35.3693 161.534 35.4304 161.88 35.5526C162.227 35.6747 162.538 35.8665 162.814 36.1278C163.089 36.3892 163.307 36.7287 163.466 37.1463C163.625 37.5611 163.704 38.0653 163.704 38.6591V39.1108H158.501V38.1562H162.456C162.456 37.821 162.387 37.5241 162.251 37.2656C162.115 37.0043 161.923 36.7983 161.676 36.6477C161.432 36.4972 161.145 36.4219 160.815 36.4219C160.457 36.4219 160.145 36.5099 159.878 36.6861C159.613 36.8594 159.409 37.0866 159.264 37.3679C159.122 37.6463 159.051 37.9489 159.051 38.2756V39.0213C159.051 39.4588 159.128 39.831 159.281 40.1378C159.437 40.4446 159.655 40.679 159.933 40.8409C160.211 41 160.537 41.0795 160.909 41.0795C161.15 41.0795 161.37 41.0455 161.569 40.9773C161.768 40.9062 161.94 40.8011 162.085 40.6619C162.23 40.5227 162.341 40.3509 162.417 40.1463L163.623 40.3636C163.527 40.7187 163.353 41.0298 163.103 41.2969C162.856 41.5611 162.545 41.767 162.17 41.9148C161.798 42.0597 161.373 42.1321 160.896 42.1321ZM170.443 37.0526L169.288 37.2571C169.24 37.1094 169.163 36.9687 169.058 36.8352C168.956 36.7017 168.816 36.5923 168.64 36.5071C168.464 36.4219 168.244 36.3793 167.98 36.3793C167.619 36.3793 167.318 36.4602 167.076 36.6222C166.835 36.7812 166.714 36.9872 166.714 37.2401C166.714 37.4588 166.795 37.6349 166.957 37.7685C167.119 37.902 167.38 38.0114 167.741 38.0966L168.781 38.3352C169.383 38.4744 169.832 38.6889 170.127 38.9787C170.423 39.2685 170.571 39.6449 170.571 40.108C170.571 40.5 170.457 40.8494 170.23 41.1562C170.005 41.4602 169.691 41.6989 169.288 41.8722C168.887 42.0455 168.423 42.1321 167.894 42.1321C167.162 42.1321 166.564 41.9759 166.1 41.6634C165.637 41.348 165.353 40.9006 165.248 40.321L166.48 40.1335C166.556 40.4545 166.714 40.6974 166.953 40.8622C167.191 41.0241 167.502 41.1051 167.886 41.1051C168.304 41.1051 168.637 41.0185 168.887 40.8452C169.137 40.669 169.262 40.4545 169.262 40.2017C169.262 39.9972 169.186 39.8253 169.032 39.6861C168.882 39.5469 168.65 39.4418 168.338 39.3707L167.23 39.1278C166.619 38.9886 166.167 38.767 165.875 38.4631C165.585 38.1591 165.44 37.7741 165.44 37.3082C165.44 36.9219 165.548 36.5838 165.764 36.294C165.98 36.0043 166.278 35.7784 166.659 35.6165C167.039 35.4517 167.475 35.3693 167.967 35.3693C168.674 35.3693 169.231 35.5227 169.637 35.8295C170.044 36.1335 170.312 36.5412 170.443 37.0526Z" fill="#818284"/>
<path d="M11.7685 10.0909L15.0071 19.2741H15.1349L18.3736 10.0909H19.7585L15.7528 21H14.3892L10.3835 10.0909H11.7685ZM21.4927 21H20.1077L24.1134 10.0909H25.4771L29.4827 21H28.0978L24.8379 11.8168H24.7526L21.4927 21ZM22.004 16.7386H27.5864V17.9105H22.004V16.7386ZM39.9727 13.5H38.6517C38.5735 13.12 38.4368 12.7862 38.2415 12.4986C38.0497 12.2109 37.8154 11.9695 37.5384 11.7741C37.2649 11.5753 36.9613 11.4261 36.6275 11.3267C36.2937 11.2273 35.9457 11.1776 35.5835 11.1776C34.923 11.1776 34.3246 11.3445 33.7884 11.6783C33.2557 12.0121 32.8313 12.5039 32.5153 13.1538C32.2028 13.8036 32.0465 14.6009 32.0465 15.5455C32.0465 16.4901 32.2028 17.2873 32.5153 17.9371C32.8313 18.587 33.2557 19.0788 33.7884 19.4126C34.3246 19.7464 34.923 19.9134 35.5835 19.9134C35.9457 19.9134 36.2937 19.8636 36.6275 19.7642C36.9613 19.6648 37.2649 19.5174 37.5384 19.3221C37.8154 19.1232 38.0497 18.88 38.2415 18.5923C38.4368 18.3011 38.5735 17.9673 38.6517 17.5909H39.9727C39.8732 18.1484 39.6921 18.6474 39.4293 19.0877C39.1666 19.5281 38.8399 19.9027 38.4492 20.2116C38.0586 20.517 37.62 20.7496 37.1335 20.9094C36.6506 21.0692 36.1339 21.1491 35.5835 21.1491C34.6531 21.1491 33.8257 20.9219 33.1012 20.4673C32.3768 20.0128 31.8068 19.3665 31.3914 18.5284C30.9759 17.6903 30.7681 16.696 30.7681 15.5455C30.7681 14.3949 30.9759 13.4006 31.3914 12.5625C31.8068 11.7244 32.3768 11.0781 33.1012 10.6236C33.8257 10.169 34.6531 9.94176 35.5835 9.94176C36.1339 9.94176 36.6506 10.0217 37.1335 10.1815C37.62 10.3413 38.0586 10.5756 38.4492 10.8846C38.8399 11.19 39.1666 11.5629 39.4293 12.0032C39.6921 12.44 39.8732 12.9389 39.9727 13.5ZM51.0196 10.0909V21H49.6985V11.4759H49.6346L46.9713 13.2443V11.902L49.6985 10.0909H51.0196Z" fill="white"/>
<path d="M73 16L60 1L209.5 1.5L223.5 17L209.5 31H59L73 16Z" fill="#EEEEEE"/>
<path d="M92.2102 21.1293C91.7886 21.1231 91.3731 21.0462 90.9638 20.8984C90.5575 20.7507 90.1882 20.5045 89.8558 20.1598C89.5234 19.8151 89.2572 19.3519 89.0572 18.7702C88.8602 18.1886 88.7617 17.4622 88.7617 16.5913C88.7617 15.7665 88.8433 15.034 89.0064 14.3938C89.1726 13.7537 89.4111 13.2135 89.7219 12.7734C90.0328 12.3303 90.4083 11.9933 90.8484 11.7624C91.2885 11.5316 91.7824 11.4162 92.3303 11.4162C92.8935 11.4162 93.3936 11.527 93.8306 11.7486C94.2676 11.9702 94.6216 12.2764 94.8924 12.6673C95.1663 13.0581 95.3402 13.5028 95.4141 14.0014H94.006C93.9106 13.6075 93.7214 13.2859 93.4382 13.0366C93.1551 12.7873 92.7857 12.6626 92.3303 12.6626C91.6378 12.6626 91.0977 12.9643 90.7099 13.5675C90.3252 14.1707 90.1313 15.0094 90.1282 16.0835H90.1974C90.3606 15.8157 90.5606 15.5879 90.7976 15.4002C91.0376 15.2094 91.3054 15.0632 91.6009 14.9616C91.8994 14.857 92.2133 14.8047 92.5426 14.8047C93.0904 14.8047 93.5859 14.9386 94.0291 15.2063C94.4754 15.471 94.8308 15.8372 95.0955 16.305C95.3602 16.7728 95.4925 17.3084 95.4925 17.9116C95.4925 18.5148 95.3556 19.0611 95.0817 19.5504C94.8108 20.0398 94.4292 20.4276 93.9368 20.7138C93.4444 20.9969 92.8688 21.1354 92.2102 21.1293ZM92.2056 19.929C92.5688 19.929 92.8935 19.8397 93.1797 19.6612C93.4659 19.4827 93.6921 19.2427 93.8583 18.9411C94.0245 18.6394 94.1076 18.3024 94.1076 17.93C94.1076 17.5669 94.026 17.236 93.8629 16.9375C93.7029 16.639 93.4813 16.402 93.1982 16.2266C92.9181 16.0511 92.598 15.9634 92.2379 15.9634C91.964 15.9634 91.7101 16.0157 91.4762 16.1204C91.2454 16.225 91.0423 16.3697 90.8668 16.5543C90.6914 16.739 90.5529 16.9513 90.4513 17.1914C90.3529 17.4284 90.3036 17.6792 90.3036 17.9439C90.3036 18.2978 90.3852 18.6256 90.5483 18.9272C90.7145 19.2288 90.9407 19.4719 91.2269 19.6566C91.5162 19.8382 91.8424 19.929 92.2056 19.929ZM100.93 21.1293C100.508 21.1231 100.093 21.0462 99.6834 20.8984C99.2772 20.7507 98.9079 20.5045 98.5755 20.1598C98.2431 19.8151 97.9769 19.3519 97.7768 18.7702C97.5799 18.1886 97.4814 17.4622 97.4814 16.5913C97.4814 15.7665 97.5629 15.034 97.726 14.3938C97.8922 13.7537 98.1308 13.2135 98.4416 12.7734C98.7524 12.3303 99.1279 11.9933 99.568 11.7624C100.008 11.5316 100.502 11.4162 101.05 11.4162C101.613 11.4162 102.113 11.527 102.55 11.7486C102.987 11.9702 103.341 12.2764 103.612 12.6673C103.886 13.0581 104.06 13.5028 104.134 14.0014H102.726C102.63 13.6075 102.441 13.2859 102.158 13.0366C101.875 12.7873 101.505 12.6626 101.05 12.6626C100.357 12.6626 99.8173 12.9643 99.4295 13.5675C99.0448 14.1707 98.8509 15.0094 98.8478 16.0835H98.9171C99.0802 15.8157 99.2803 15.5879 99.5172 15.4002C99.7573 15.2094 100.025 15.0632 100.321 14.9616C100.619 14.857 100.933 14.8047 101.262 14.8047C101.81 14.8047 102.306 14.9386 102.749 15.2063C103.195 15.471 103.55 15.8372 103.815 16.305C104.08 16.7728 104.212 17.3084 104.212 17.9116C104.212 18.5148 104.075 19.0611 103.801 19.5504C103.53 20.0398 103.149 20.4276 102.656 20.7138C102.164 20.9969 101.588 21.1354 100.93 21.1293ZM100.925 19.929C101.288 19.929 101.613 19.8397 101.899 19.6612C102.186 19.4827 102.412 19.2427 102.578 18.9411C102.744 18.6394 102.827 18.3024 102.827 17.93C102.827 17.5669 102.746 17.236 102.583 16.9375C102.423 16.639 102.201 16.402 101.918 16.2266C101.638 16.0511 101.318 15.9634 100.958 15.9634C100.684 15.9634 100.43 16.0157 100.196 16.1204C99.965 16.225 99.7619 16.3697 99.5865 16.5543C99.4111 16.739 99.2726 16.9513 99.171 17.1914C99.0725 17.4284 99.0233 17.6792 99.0233 17.9439C99.0233 18.2978 99.1048 18.6256 99.2679 18.9272C99.4341 19.2288 99.6603 19.4719 99.9466 19.6566C100.236 19.8382 100.562 19.929 100.925 19.929ZM107.731 19.7074L107.662 20.2106C107.616 20.5799 107.537 20.9646 107.427 21.3647C107.319 21.7679 107.207 22.1418 107.09 22.4865C106.976 22.8312 106.882 23.1051 106.808 23.3082H105.829C105.869 23.1174 105.925 22.8589 105.996 22.5327C106.066 22.2095 106.136 21.8479 106.203 21.4478C106.271 21.0477 106.322 20.6399 106.356 20.2244L106.402 19.7074H107.731ZM113.075 21.1293C112.654 21.1231 112.238 21.0462 111.829 20.8984C111.423 20.7507 111.053 20.5045 110.721 20.1598C110.388 19.8151 110.122 19.3519 109.922 18.7702C109.725 18.1886 109.627 17.4622 109.627 16.5913C109.627 15.7665 109.708 15.034 109.871 14.3938C110.038 13.7537 110.276 13.2135 110.587 12.7734C110.898 12.3303 111.273 11.9933 111.713 11.7624C112.153 11.5316 112.647 11.4162 113.195 11.4162C113.758 11.4162 114.259 11.527 114.696 11.7486C115.133 11.9702 115.487 12.2764 115.757 12.6673C116.031 13.0581 116.205 13.5028 116.279 14.0014H114.871C114.776 13.6075 114.586 13.2859 114.303 13.0366C114.02 12.7873 113.651 12.6626 113.195 12.6626C112.503 12.6626 111.963 12.9643 111.575 13.5675C111.19 14.1707 110.996 15.0094 110.993 16.0835H111.062C111.226 15.8157 111.426 15.5879 111.663 15.4002C111.903 15.2094 112.17 15.0632 112.466 14.9616C112.764 14.857 113.078 14.8047 113.408 14.8047C113.955 14.8047 114.451 14.9386 114.894 15.2063C115.34 15.471 115.696 15.8372 115.961 16.305C116.225 16.7728 116.358 17.3084 116.358 17.9116C116.358 18.5148 116.221 19.0611 115.947 19.5504C115.676 20.0398 115.294 20.4276 114.802 20.7138C114.309 20.9969 113.734 21.1354 113.075 21.1293ZM113.071 19.929C113.434 19.929 113.758 19.8397 114.045 19.6612C114.331 19.4827 114.557 19.2427 114.723 18.9411C114.89 18.6394 114.973 18.3024 114.973 17.93C114.973 17.5669 114.891 17.236 114.728 16.9375C114.568 16.639 114.346 16.402 114.063 16.2266C113.783 16.0511 113.463 15.9634 113.103 15.9634C112.829 15.9634 112.575 16.0157 112.341 16.1204C112.11 16.225 111.907 16.3697 111.732 16.5543C111.556 16.739 111.418 16.9513 111.316 17.1914C111.218 17.4284 111.169 17.6792 111.169 17.9439C111.169 18.2978 111.25 18.6256 111.413 18.9272C111.579 19.2288 111.806 19.4719 112.092 19.6566C112.381 19.8382 112.707 19.929 113.071 19.929ZM121.795 21.1293C121.373 21.1231 120.958 21.0462 120.548 20.8984C120.142 20.7507 119.773 20.5045 119.44 20.1598C119.108 19.8151 118.842 19.3519 118.642 18.7702C118.445 18.1886 118.346 17.4622 118.346 16.5913C118.346 15.7665 118.428 15.034 118.591 14.3938C118.757 13.7537 118.996 13.2135 119.307 12.7734C119.617 12.3303 119.993 11.9933 120.433 11.7624C120.873 11.5316 121.367 11.4162 121.915 11.4162C122.478 11.4162 122.978 11.527 123.415 11.7486C123.852 11.9702 124.206 12.2764 124.477 12.6673C124.751 13.0581 124.925 13.5028 124.999 14.0014H123.591C123.495 13.6075 123.306 13.2859 123.023 13.0366C122.74 12.7873 122.37 12.6626 121.915 12.6626C121.222 12.6626 120.682 12.9643 120.295 13.5675C119.91 14.1707 119.716 15.0094 119.713 16.0835H119.782C119.945 15.8157 120.145 15.5879 120.382 15.4002C120.622 15.2094 120.89 15.0632 121.186 14.9616C121.484 14.857 121.798 14.8047 122.127 14.8047C122.675 14.8047 123.171 14.9386 123.614 15.2063C124.06 15.471 124.415 15.8372 124.68 16.305C124.945 16.7728 125.077 17.3084 125.077 17.9116C125.077 18.5148 124.94 19.0611 124.666 19.5504C124.395 20.0398 124.014 20.4276 123.521 20.7138C123.029 20.9969 122.453 21.1354 121.795 21.1293ZM121.79 19.929C122.153 19.929 122.478 19.8397 122.764 19.6612C123.051 19.4827 123.277 19.2427 123.443 18.9411C123.609 18.6394 123.692 18.3024 123.692 17.93C123.692 17.5669 123.611 17.236 123.448 16.9375C123.288 16.639 123.066 16.402 122.783 16.2266C122.503 16.0511 122.183 15.9634 121.823 15.9634C121.549 15.9634 121.295 16.0157 121.061 16.1204C120.83 16.225 120.627 16.3697 120.451 16.5543C120.276 16.739 120.138 16.9513 120.036 17.1914C119.938 17.4284 119.888 17.6792 119.888 17.9439C119.888 18.2978 119.97 18.6256 120.133 18.9272C120.299 19.2288 120.525 19.4719 120.812 19.6566C121.101 19.8382 121.427 19.929 121.79 19.929ZM127.532 21L131.659 12.8381V12.7688H126.886V11.5455H133.137V12.8104L129.023 21H127.532ZM134.5 21.0877C134.248 21.0877 134.031 20.9985 133.849 20.82C133.667 20.6384 133.577 20.4199 133.577 20.1644C133.577 19.9121 133.667 19.6966 133.849 19.5181C134.031 19.3365 134.248 19.2457 134.5 19.2457C134.752 19.2457 134.969 19.3365 135.151 19.5181C135.332 19.6966 135.423 19.9121 135.423 20.1644C135.423 20.3337 135.38 20.4891 135.294 20.6307C135.211 20.7692 135.1 20.88 134.962 20.9631C134.823 21.0462 134.669 21.0877 134.5 21.0877ZM140.657 21.157C139.928 21.1539 139.305 20.9615 138.788 20.5799C138.271 20.1983 137.875 19.6428 137.601 18.9134C137.327 18.1839 137.191 17.3053 137.191 16.2773C137.191 15.2525 137.327 14.3769 137.601 13.6506C137.878 12.9242 138.275 12.3703 138.792 11.9886C139.313 11.607 139.934 11.4162 140.657 11.4162C141.381 11.4162 142.001 11.6085 142.518 11.9933C143.035 12.3749 143.43 12.9289 143.704 13.6552C143.981 14.3784 144.12 15.2525 144.12 16.2773C144.12 17.3084 143.983 18.1886 143.709 18.918C143.435 19.6443 143.04 20.1998 142.523 20.5845C142.005 20.9661 141.384 21.157 140.657 21.157ZM140.657 19.9244C141.298 19.9244 141.798 19.612 142.158 18.9872C142.521 18.3625 142.703 17.4592 142.703 16.2773C142.703 15.4925 142.619 14.8293 142.453 14.2876C142.29 13.7429 142.055 13.3305 141.747 13.0504C141.442 12.7673 141.079 12.6257 140.657 12.6257C140.02 12.6257 139.52 12.9396 139.157 13.5675C138.794 14.1953 138.611 15.0986 138.608 16.2773C138.608 17.0652 138.689 17.7315 138.852 18.2763C139.019 18.8179 139.254 19.2288 139.559 19.5089C139.863 19.7859 140.23 19.9244 140.657 19.9244ZM149.504 21.157C148.775 21.1539 148.151 20.9615 147.634 20.5799C147.117 20.1983 146.722 19.6428 146.448 18.9134C146.174 18.1839 146.037 17.3053 146.037 16.2773C146.037 15.2525 146.174 14.3769 146.448 13.6506C146.725 12.9242 147.122 12.3703 147.639 11.9886C148.159 11.607 148.781 11.4162 149.504 11.4162C150.227 11.4162 150.847 11.6085 151.365 11.9933C151.882 12.3749 152.277 12.9289 152.551 13.6552C152.828 14.3784 152.966 15.2525 152.966 16.2773C152.966 17.3084 152.829 18.1886 152.556 18.918C152.282 19.6443 151.886 20.1998 151.369 20.5845C150.852 20.9661 150.23 21.157 149.504 21.157ZM149.504 19.9244C150.144 19.9244 150.644 19.612 151.004 18.9872C151.368 18.3625 151.549 17.4592 151.549 16.2773C151.549 15.4925 151.466 14.8293 151.3 14.2876C151.137 13.7429 150.901 13.3305 150.594 13.0504C150.289 12.7673 149.926 12.6257 149.504 12.6257C148.867 12.6257 148.367 12.9396 148.004 13.5675C147.641 14.1953 147.457 15.0986 147.454 16.2773C147.454 17.0652 147.536 17.7315 147.699 18.2763C147.865 18.8179 148.101 19.2288 148.405 19.5089C148.71 19.7859 149.076 19.9244 149.504 19.9244Z" fill="#6F7173"/>
<rect x="198" y="34" width="121" height="15" rx="4" fill="#FBE5FF"/>
<path d="M210.639 44V38.1818H212.77C213.183 38.1818 213.525 38.25 213.795 38.3864C214.066 38.5208 214.269 38.7036 214.403 38.9347C214.538 39.1638 214.605 39.4223 214.605 39.7102C214.605 39.9527 214.561 40.1572 214.472 40.3239C214.383 40.4886 214.263 40.6212 214.114 40.7216C213.966 40.8201 213.803 40.892 213.625 40.9375V40.9943C213.818 41.0038 214.007 41.0663 214.19 41.1818C214.376 41.2955 214.529 41.4574 214.651 41.6676C214.772 41.8778 214.832 42.1335 214.832 42.4347C214.832 42.732 214.762 42.9991 214.622 43.2358C214.484 43.4706 214.27 43.6572 213.98 43.7955C213.69 43.9318 213.32 44 212.869 44H210.639ZM211.517 43.2472H212.784C213.205 43.2472 213.506 43.1657 213.688 43.0028C213.869 42.84 213.96 42.6364 213.96 42.392C213.96 42.2083 213.914 42.0398 213.821 41.8864C213.728 41.733 213.596 41.6108 213.423 41.5199C213.253 41.429 213.05 41.3835 212.815 41.3835H211.517V43.2472ZM211.517 40.6989H212.693C212.89 40.6989 213.067 40.661 213.224 40.5852C213.384 40.5095 213.509 40.4034 213.602 40.267C213.697 40.1288 213.744 39.9659 213.744 39.7784C213.744 39.5379 213.66 39.3362 213.491 39.1733C213.323 39.0104 213.064 38.929 212.716 38.929H211.517V40.6989ZM217.075 44.0966C216.799 44.0966 216.549 44.0455 216.325 43.9432C216.102 43.839 215.925 43.6884 215.794 43.4915C215.665 43.2945 215.601 43.053 215.601 42.767C215.601 42.5208 215.648 42.3182 215.743 42.1591C215.838 42 215.965 41.8741 216.126 41.7812C216.287 41.6884 216.467 41.6184 216.666 41.571C216.865 41.5237 217.068 41.4877 217.274 41.4631C217.536 41.4328 217.748 41.4081 217.911 41.3892C218.073 41.3684 218.192 41.3352 218.266 41.2898C218.339 41.2443 218.376 41.1705 218.376 41.0682V41.0483C218.376 40.8002 218.306 40.608 218.166 40.4716C218.028 40.3352 217.821 40.267 217.547 40.267C217.261 40.267 217.036 40.3305 216.871 40.4574C216.708 40.5824 216.595 40.7216 216.533 40.875L215.734 40.6932C215.829 40.428 215.967 40.214 216.149 40.0511C216.333 39.8864 216.544 39.767 216.783 39.6932C217.021 39.6174 217.272 39.5795 217.536 39.5795C217.71 39.5795 217.894 39.6004 218.089 39.642C218.286 39.6818 218.47 39.7557 218.641 39.8636C218.813 39.9716 218.954 40.1259 219.064 40.3267C219.174 40.5256 219.229 40.7841 219.229 41.1023V44H218.399V43.4034H218.365C218.31 43.5133 218.228 43.6212 218.118 43.7273C218.008 43.8333 217.867 43.9214 217.695 43.9915C217.522 44.0616 217.316 44.0966 217.075 44.0966ZM217.26 43.4148C217.495 43.4148 217.696 43.3684 217.862 43.2756C218.031 43.1828 218.159 43.0616 218.246 42.9119C218.335 42.7604 218.379 42.5985 218.379 42.4261V41.8636C218.349 41.8939 218.29 41.9223 218.203 41.9489C218.118 41.9735 218.02 41.9953 217.911 42.0142C217.801 42.0312 217.694 42.0473 217.589 42.0625C217.485 42.0758 217.398 42.0871 217.328 42.0966C217.163 42.1174 217.013 42.1525 216.876 42.2017C216.742 42.2509 216.634 42.322 216.553 42.4148C216.473 42.5057 216.433 42.6269 216.433 42.7784C216.433 42.9886 216.511 43.1477 216.666 43.2557C216.821 43.3617 217.019 43.4148 217.26 43.4148ZM223.63 40.7017L222.86 40.8381C222.828 40.7396 222.777 40.6458 222.707 40.5568C222.638 40.4678 222.546 40.3949 222.428 40.3381C222.311 40.2812 222.164 40.2528 221.988 40.2528C221.747 40.2528 221.547 40.3068 221.386 40.4148C221.225 40.5208 221.144 40.6581 221.144 40.8267C221.144 40.9725 221.198 41.09 221.306 41.179C221.414 41.268 221.588 41.3409 221.829 41.3977L222.522 41.5568C222.924 41.6496 223.223 41.7926 223.42 41.9858C223.617 42.179 223.715 42.4299 223.715 42.7386C223.715 43 223.639 43.233 223.488 43.4375C223.338 43.6402 223.129 43.7992 222.86 43.9148C222.593 44.0303 222.283 44.0881 221.931 44.0881C221.442 44.0881 221.044 43.9839 220.735 43.7756C220.426 43.5653 220.237 43.267 220.167 42.8807L220.988 42.7557C221.039 42.9697 221.144 43.1316 221.303 43.2415C221.462 43.3494 221.67 43.4034 221.925 43.4034C222.204 43.4034 222.426 43.3456 222.593 43.2301C222.76 43.1127 222.843 42.9697 222.843 42.8011C222.843 42.6648 222.792 42.5502 222.69 42.4574C222.589 42.3646 222.435 42.2945 222.227 42.2472L221.488 42.0852C221.081 41.9924 220.78 41.8447 220.585 41.642C220.391 41.4394 220.295 41.1828 220.295 40.8722C220.295 40.6146 220.367 40.3892 220.511 40.196C220.655 40.0028 220.853 39.8523 221.107 39.7443C221.361 39.6345 221.652 39.5795 221.979 39.5795C222.451 39.5795 222.822 39.6818 223.093 39.8864C223.364 40.089 223.543 40.3608 223.63 40.7017ZM226.53 44.0881C226.1 44.0881 225.73 43.9962 225.419 43.8125C225.11 43.6269 224.872 43.3665 224.703 43.0312C224.536 42.6941 224.453 42.2992 224.453 41.8466C224.453 41.3996 224.536 41.0057 224.703 40.6648C224.872 40.3239 225.107 40.0578 225.408 39.8665C225.711 39.6752 226.065 39.5795 226.47 39.5795C226.716 39.5795 226.955 39.6203 227.186 39.7017C227.417 39.7831 227.625 39.911 227.808 40.0852C227.992 40.2595 228.137 40.4858 228.243 40.7642C228.349 41.0407 228.402 41.3769 228.402 41.7727V42.0739H224.933V41.4375H227.57C227.57 41.214 227.524 41.0161 227.433 40.8438C227.342 40.6695 227.214 40.5322 227.05 40.4318C226.887 40.3314 226.696 40.2812 226.476 40.2812C226.237 40.2812 226.029 40.34 225.851 40.4574C225.675 40.5729 225.538 40.7244 225.442 40.9119C225.347 41.0975 225.3 41.2992 225.3 41.517V42.0142C225.3 42.3059 225.351 42.554 225.453 42.7585C225.557 42.9631 225.702 43.1193 225.888 43.2273C226.073 43.3333 226.29 43.3864 226.538 43.3864C226.699 43.3864 226.846 43.3636 226.979 43.3182C227.111 43.2708 227.226 43.2008 227.322 43.108C227.419 43.0152 227.493 42.9006 227.544 42.7642L228.348 42.9091C228.284 43.1458 228.168 43.3532 228.001 43.5312C227.837 43.7074 227.629 43.8447 227.379 43.9432C227.131 44.0398 226.848 44.0881 226.53 44.0881ZM233.095 44.0852C232.743 44.0852 232.429 43.9953 232.152 43.8153C231.877 43.6335 231.661 43.375 231.504 43.0398C231.349 42.7027 231.271 42.2983 231.271 41.8267C231.271 41.3551 231.35 40.9517 231.507 40.6165C231.666 40.2812 231.884 40.0246 232.161 39.8466C232.437 39.6686 232.75 39.5795 233.101 39.5795C233.372 39.5795 233.589 39.625 233.754 39.7159C233.921 39.8049 234.05 39.9091 234.141 40.0284C234.233 40.1477 234.305 40.2528 234.357 40.3438H234.408V38.1818H235.257V44H234.428V43.321H234.357C234.305 43.4138 234.232 43.5199 234.135 43.6392C234.04 43.7585 233.91 43.8627 233.743 43.9517C233.576 44.0407 233.36 44.0852 233.095 44.0852ZM233.283 43.3608C233.527 43.3608 233.733 43.2964 233.902 43.1676C234.072 43.0369 234.201 42.8561 234.288 42.625C234.377 42.3939 234.422 42.125 234.422 41.8182C234.422 41.5152 234.378 41.25 234.291 41.0227C234.204 40.7955 234.076 40.6184 233.908 40.4915C233.739 40.3646 233.531 40.3011 233.283 40.3011C233.027 40.3011 232.814 40.3674 232.643 40.5C232.473 40.6326 232.344 40.8134 232.257 41.0426C232.172 41.2718 232.129 41.5303 232.129 41.8182C232.129 42.1098 232.173 42.3722 232.26 42.6051C232.347 42.8381 232.476 43.0227 232.646 43.1591C232.819 43.2936 233.031 43.3608 233.283 43.3608ZM236.469 44V39.6364H237.319V44H236.469ZM236.898 38.9631C236.751 38.9631 236.624 38.9138 236.518 38.8153C236.414 38.715 236.362 38.5956 236.362 38.4574C236.362 38.3172 236.414 38.1979 236.518 38.0994C236.624 37.9991 236.751 37.9489 236.898 37.9489C237.046 37.9489 237.172 37.9991 237.276 38.0994C237.382 38.1979 237.435 38.3172 237.435 38.4574C237.435 38.5956 237.382 38.715 237.276 38.8153C237.172 38.9138 237.046 38.9631 236.898 38.9631ZM239.732 44.0966C239.455 44.0966 239.205 44.0455 238.982 43.9432C238.758 43.839 238.581 43.6884 238.45 43.4915C238.321 43.2945 238.257 43.053 238.257 42.767C238.257 42.5208 238.304 42.3182 238.399 42.1591C238.494 42 238.622 41.8741 238.783 41.7812C238.944 41.6884 239.124 41.6184 239.322 41.571C239.521 41.5237 239.724 41.4877 239.93 41.4631C240.192 41.4328 240.404 41.4081 240.567 41.3892C240.73 41.3684 240.848 41.3352 240.922 41.2898C240.996 41.2443 241.033 41.1705 241.033 41.0682V41.0483C241.033 40.8002 240.963 40.608 240.822 40.4716C240.684 40.3352 240.478 40.267 240.203 40.267C239.917 40.267 239.692 40.3305 239.527 40.4574C239.364 40.5824 239.251 40.7216 239.189 40.875L238.391 40.6932C238.485 40.428 238.624 40.214 238.805 40.0511C238.989 39.8864 239.2 39.767 239.439 39.6932C239.678 39.6174 239.929 39.5795 240.192 39.5795C240.366 39.5795 240.551 39.6004 240.746 39.642C240.943 39.6818 241.126 39.7557 241.297 39.8636C241.469 39.9716 241.61 40.1259 241.72 40.3267C241.83 40.5256 241.885 40.7841 241.885 41.1023V44H241.055V43.4034H241.021C240.966 43.5133 240.884 43.6212 240.774 43.7273C240.664 43.8333 240.523 43.9214 240.351 43.9915C240.179 44.0616 239.972 44.0966 239.732 44.0966ZM239.916 43.4148C240.151 43.4148 240.352 43.3684 240.518 43.2756C240.687 43.1828 240.815 43.0616 240.902 42.9119C240.991 42.7604 241.036 42.5985 241.036 42.4261V41.8636C241.005 41.8939 240.946 41.9223 240.859 41.9489C240.774 41.9735 240.677 41.9953 240.567 42.0142C240.457 42.0312 240.35 42.0473 240.246 42.0625C240.142 42.0758 240.054 42.0871 239.984 42.0966C239.82 42.1174 239.669 42.1525 239.533 42.2017C239.398 42.2509 239.29 42.322 239.209 42.4148C239.129 42.5057 239.089 42.6269 239.089 42.7784C239.089 42.9886 239.167 43.1477 239.322 43.2557C239.478 43.3617 239.676 43.4148 239.916 43.4148ZM243.016 44V39.6364H243.837V40.3295H243.883C243.962 40.0947 244.103 39.91 244.303 39.7756C244.506 39.6392 244.735 39.571 244.991 39.571C245.044 39.571 245.106 39.5729 245.178 39.5767C245.252 39.5805 245.31 39.5852 245.352 39.5909V40.4034C245.317 40.3939 245.257 40.3835 245.17 40.3722C245.083 40.3589 244.996 40.3523 244.908 40.3523C244.708 40.3523 244.529 40.3949 244.371 40.4801C244.216 40.5634 244.093 40.6799 244.002 40.8295C243.911 40.9773 243.866 41.1458 243.866 41.3352V44H243.016ZM246.087 44V39.6364H246.936V44H246.087ZM246.516 38.9631C246.368 38.9631 246.241 38.9138 246.135 38.8153C246.031 38.715 245.979 38.5956 245.979 38.4574C245.979 38.3172 246.031 38.1979 246.135 38.0994C246.241 37.9991 246.368 37.9489 246.516 37.9489C246.663 37.9489 246.789 37.9991 246.893 38.0994C247 38.1979 247.053 38.3172 247.053 38.4574C247.053 38.5956 247 38.715 246.893 38.8153C246.789 38.9138 246.663 38.9631 246.516 38.9631ZM249.349 44.0966C249.072 44.0966 248.822 44.0455 248.599 43.9432C248.375 43.839 248.198 43.6884 248.067 43.4915C247.939 43.2945 247.874 43.053 247.874 42.767C247.874 42.5208 247.922 42.3182 248.016 42.1591C248.111 42 248.239 41.8741 248.4 41.7812C248.561 41.6884 248.741 41.6184 248.94 41.571C249.138 41.5237 249.341 41.4877 249.548 41.4631C249.809 41.4328 250.021 41.4081 250.184 41.3892C250.347 41.3684 250.465 41.3352 250.539 41.2898C250.613 41.2443 250.65 41.1705 250.65 41.0682V41.0483C250.65 40.8002 250.58 40.608 250.44 40.4716C250.301 40.3352 250.095 40.267 249.82 40.267C249.534 40.267 249.309 40.3305 249.144 40.4574C248.981 40.5824 248.869 40.7216 248.806 40.875L248.008 40.6932C248.103 40.428 248.241 40.214 248.423 40.0511C248.606 39.8864 248.817 39.767 249.056 39.6932C249.295 39.6174 249.546 39.5795 249.809 39.5795C249.983 39.5795 250.168 39.6004 250.363 39.642C250.56 39.6818 250.744 39.7557 250.914 39.8636C251.086 39.9716 251.228 40.1259 251.337 40.3267C251.447 40.5256 251.502 40.7841 251.502 41.1023V44H250.673V43.4034H250.638C250.584 43.5133 250.501 43.6212 250.391 43.7273C250.281 43.8333 250.14 43.9214 249.968 43.9915C249.796 44.0616 249.589 44.0966 249.349 44.0966ZM249.533 43.4148C249.768 43.4148 249.969 43.3684 250.136 43.2756C250.304 43.1828 250.432 43.0616 250.519 42.9119C250.608 42.7604 250.653 42.5985 250.653 42.4261V41.8636C250.622 41.8939 250.564 41.9223 250.477 41.9489C250.391 41.9735 250.294 41.9953 250.184 42.0142C250.074 42.0312 249.967 42.0473 249.863 42.0625C249.759 42.0758 249.672 42.0871 249.602 42.0966C249.437 42.1174 249.286 42.1525 249.15 42.2017C249.015 42.2509 248.907 42.322 248.826 42.4148C248.746 42.5057 248.707 42.6269 248.707 42.7784C248.707 42.9886 248.784 43.1477 248.94 43.2557C249.095 43.3617 249.293 43.4148 249.533 43.4148ZM253.193 44.054C253.038 44.054 252.904 43.9991 252.793 43.8892C252.681 43.7775 252.625 43.643 252.625 43.4858C252.625 43.3305 252.681 43.1979 252.793 43.0881C252.904 42.9763 253.038 42.9205 253.193 42.9205C253.348 42.9205 253.482 42.9763 253.594 43.0881C253.705 43.1979 253.761 43.3305 253.761 43.4858C253.761 43.59 253.735 43.6856 253.682 43.7727C253.631 43.858 253.562 43.9261 253.477 43.9773C253.392 44.0284 253.297 44.054 253.193 44.054ZM253.193 40.8778C253.038 40.8778 252.904 40.822 252.793 40.7102C252.681 40.5985 252.625 40.465 252.625 40.3097C252.625 40.1544 252.681 40.0218 252.793 39.9119C252.904 39.8002 253.038 39.7443 253.193 39.7443C253.348 39.7443 253.482 39.8002 253.594 39.9119C253.705 40.0218 253.761 40.1544 253.761 40.3097C253.761 40.4138 253.735 40.5095 253.682 40.5966C253.631 40.6818 253.562 40.75 253.477 40.8011C253.392 40.8523 253.297 40.8778 253.193 40.8778ZM259.036 44.0795C258.777 44.0758 258.521 44.0284 258.269 43.9375C258.019 43.8466 257.792 43.6951 257.587 43.483C257.383 43.2708 257.219 42.9858 257.096 42.6278C256.975 42.2699 256.914 41.8229 256.914 41.2869C256.914 40.7794 256.964 40.3286 257.065 39.9347C257.167 39.5407 257.314 39.2083 257.505 38.9375C257.696 38.6648 257.927 38.4574 258.198 38.3153C258.469 38.1733 258.773 38.1023 259.11 38.1023C259.457 38.1023 259.764 38.1705 260.033 38.3068C260.302 38.4432 260.52 38.6316 260.687 38.8722C260.855 39.1127 260.962 39.3864 261.008 39.6932H260.141C260.083 39.4508 259.966 39.2528 259.792 39.0994C259.618 38.946 259.39 38.8693 259.11 38.8693C258.684 38.8693 258.352 39.0549 258.113 39.4261C257.876 39.7973 257.757 40.3134 257.755 40.9744H257.798C257.898 40.8097 258.021 40.6695 258.167 40.554C258.315 40.4366 258.479 40.3466 258.661 40.2841C258.845 40.2197 259.038 40.1875 259.241 40.1875C259.578 40.1875 259.883 40.2699 260.156 40.4347C260.43 40.5975 260.649 40.8229 260.812 41.1108C260.975 41.3987 261.056 41.7282 261.056 42.0994C261.056 42.4706 260.972 42.8068 260.803 43.108C260.637 43.4091 260.402 43.6477 260.099 43.8239C259.796 43.9981 259.442 44.0833 259.036 44.0795ZM259.033 43.3409C259.257 43.3409 259.457 43.286 259.633 43.1761C259.809 43.0663 259.948 42.9186 260.05 42.733C260.153 42.5473 260.204 42.34 260.204 42.1108C260.204 41.8873 260.154 41.6837 260.053 41.5C259.955 41.3163 259.818 41.1705 259.644 41.0625C259.472 40.9545 259.275 40.9006 259.053 40.9006C258.885 40.9006 258.728 40.9328 258.585 40.9972C258.442 41.0616 258.317 41.1506 258.21 41.2642C258.102 41.3778 258.016 41.5085 257.954 41.6562C257.893 41.8021 257.863 41.9564 257.863 42.1193C257.863 42.3371 257.913 42.5388 258.013 42.7244C258.116 42.91 258.255 43.0597 258.431 43.1733C258.609 43.285 258.81 43.3409 259.033 43.3409ZM264.122 44.0795C263.863 44.0758 263.607 44.0284 263.355 43.9375C263.105 43.8466 262.878 43.6951 262.673 43.483C262.469 43.2708 262.305 42.9858 262.182 42.6278C262.061 42.2699 262 41.8229 262 41.2869C262 40.7794 262.05 40.3286 262.151 39.9347C262.253 39.5407 262.4 39.2083 262.591 38.9375C262.782 38.6648 263.013 38.4574 263.284 38.3153C263.555 38.1733 263.859 38.1023 264.196 38.1023C264.543 38.1023 264.85 38.1705 265.119 38.3068C265.388 38.4432 265.606 38.6316 265.773 38.8722C265.941 39.1127 266.048 39.3864 266.094 39.6932H265.227C265.169 39.4508 265.052 39.2528 264.878 39.0994C264.704 38.946 264.476 38.8693 264.196 38.8693C263.77 38.8693 263.438 39.0549 263.199 39.4261C262.962 39.7973 262.843 40.3134 262.841 40.9744H262.884C262.984 40.8097 263.107 40.6695 263.253 40.554C263.401 40.4366 263.565 40.3466 263.747 40.2841C263.931 40.2197 264.124 40.1875 264.327 40.1875C264.664 40.1875 264.969 40.2699 265.241 40.4347C265.516 40.5975 265.735 40.8229 265.898 41.1108C266.061 41.3987 266.142 41.7282 266.142 42.0994C266.142 42.4706 266.058 42.8068 265.889 43.108C265.723 43.4091 265.488 43.6477 265.185 43.8239C264.882 43.9981 264.527 44.0833 264.122 44.0795ZM264.119 43.3409C264.343 43.3409 264.543 43.286 264.719 43.1761C264.895 43.0663 265.034 42.9186 265.136 42.733C265.239 42.5473 265.29 42.34 265.29 42.1108C265.29 41.8873 265.24 41.6837 265.139 41.5C265.041 41.3163 264.904 41.1705 264.73 41.0625C264.558 40.9545 264.361 40.9006 264.139 40.9006C263.971 40.9006 263.814 40.9328 263.67 40.9972C263.528 41.0616 263.403 41.1506 263.295 41.2642C263.188 41.3778 263.102 41.5085 263.04 41.6562C262.979 41.8021 262.949 41.9564 262.949 42.1193C262.949 42.3371 262.999 42.5388 263.099 42.7244C263.202 42.91 263.341 43.0597 263.517 43.1733C263.695 43.285 263.896 43.3409 264.119 43.3409ZM268.028 43.2045L267.985 43.5142C267.957 43.7415 267.908 43.9782 267.84 44.2244C267.774 44.4725 267.705 44.7027 267.633 44.9148C267.563 45.1269 267.505 45.2955 267.46 45.4205H266.857C266.882 45.303 266.916 45.1439 266.96 44.9432C267.003 44.7443 267.046 44.5218 267.087 44.2756C267.129 44.0294 267.16 43.7784 267.181 43.5227L267.21 43.2045H268.028ZM271.036 44.0795C270.777 44.0758 270.521 44.0284 270.269 43.9375C270.019 43.8466 269.792 43.6951 269.587 43.483C269.383 43.2708 269.219 42.9858 269.096 42.6278C268.975 42.2699 268.914 41.8229 268.914 41.2869C268.914 40.7794 268.964 40.3286 269.065 39.9347C269.167 39.5407 269.314 39.2083 269.505 38.9375C269.696 38.6648 269.927 38.4574 270.198 38.3153C270.469 38.1733 270.773 38.1023 271.11 38.1023C271.457 38.1023 271.764 38.1705 272.033 38.3068C272.302 38.4432 272.52 38.6316 272.687 38.8722C272.855 39.1127 272.962 39.3864 273.008 39.6932H272.141C272.083 39.4508 271.966 39.2528 271.792 39.0994C271.618 38.946 271.39 38.8693 271.11 38.8693C270.684 38.8693 270.352 39.0549 270.113 39.4261C269.876 39.7973 269.757 40.3134 269.755 40.9744H269.798C269.898 40.8097 270.021 40.6695 270.167 40.554C270.315 40.4366 270.479 40.3466 270.661 40.2841C270.845 40.2197 271.038 40.1875 271.241 40.1875C271.578 40.1875 271.883 40.2699 272.156 40.4347C272.43 40.5975 272.649 40.8229 272.812 41.1108C272.975 41.3987 273.056 41.7282 273.056 42.0994C273.056 42.4706 272.972 42.8068 272.803 43.108C272.637 43.4091 272.402 43.6477 272.099 43.8239C271.796 43.9981 271.442 44.0833 271.036 44.0795ZM271.033 43.3409C271.257 43.3409 271.457 43.286 271.633 43.1761C271.809 43.0663 271.948 42.9186 272.05 42.733C272.153 42.5473 272.204 42.34 272.204 42.1108C272.204 41.8873 272.154 41.6837 272.053 41.5C271.955 41.3163 271.818 41.1705 271.644 41.0625C271.472 40.9545 271.275 40.9006 271.053 40.9006C270.885 40.9006 270.728 40.9328 270.585 40.9972C270.442 41.0616 270.317 41.1506 270.21 41.2642C270.102 41.3778 270.016 41.5085 269.954 41.6562C269.893 41.8021 269.863 41.9564 269.863 42.1193C269.863 42.3371 269.913 42.5388 270.013 42.7244C270.116 42.91 270.255 43.0597 270.431 43.1733C270.609 43.285 270.81 43.3409 271.033 43.3409ZM276.122 44.0795C275.863 44.0758 275.607 44.0284 275.355 43.9375C275.105 43.8466 274.878 43.6951 274.673 43.483C274.469 43.2708 274.305 42.9858 274.182 42.6278C274.061 42.2699 274 41.8229 274 41.2869C274 40.7794 274.05 40.3286 274.151 39.9347C274.253 39.5407 274.4 39.2083 274.591 38.9375C274.782 38.6648 275.013 38.4574 275.284 38.3153C275.555 38.1733 275.859 38.1023 276.196 38.1023C276.543 38.1023 276.85 38.1705 277.119 38.3068C277.388 38.4432 277.606 38.6316 277.773 38.8722C277.941 39.1127 278.048 39.3864 278.094 39.6932H277.227C277.169 39.4508 277.052 39.2528 276.878 39.0994C276.704 38.946 276.476 38.8693 276.196 38.8693C275.77 38.8693 275.438 39.0549 275.199 39.4261C274.962 39.7973 274.843 40.3134 274.841 40.9744H274.884C274.984 40.8097 275.107 40.6695 275.253 40.554C275.401 40.4366 275.565 40.3466 275.747 40.2841C275.931 40.2197 276.124 40.1875 276.327 40.1875C276.664 40.1875 276.969 40.2699 277.241 40.4347C277.516 40.5975 277.735 40.8229 277.898 41.1108C278.061 41.3987 278.142 41.7282 278.142 42.0994C278.142 42.4706 278.058 42.8068 277.889 43.108C277.723 43.4091 277.488 43.6477 277.185 43.8239C276.882 43.9981 276.527 44.0833 276.122 44.0795ZM276.119 43.3409C276.343 43.3409 276.543 43.286 276.719 43.1761C276.895 43.0663 277.034 42.9186 277.136 42.733C277.239 42.5473 277.29 42.34 277.29 42.1108C277.29 41.8873 277.24 41.6837 277.139 41.5C277.041 41.3163 276.904 41.1705 276.73 41.0625C276.558 40.9545 276.361 40.9006 276.139 40.9006C275.971 40.9006 275.814 40.9328 275.67 40.9972C275.528 41.0616 275.403 41.1506 275.295 41.2642C275.188 41.3778 275.102 41.5085 275.04 41.6562C274.979 41.8021 274.949 41.9564 274.949 42.1193C274.949 42.3371 274.999 42.5388 275.099 42.7244C275.202 42.91 275.341 43.0597 275.517 43.1733C275.695 43.285 275.896 43.3409 276.119 43.3409ZM281.208 44.0795C280.949 44.0758 280.693 44.0284 280.441 43.9375C280.191 43.8466 279.964 43.6951 279.759 43.483C279.555 43.2708 279.391 42.9858 279.268 42.6278C279.147 42.2699 279.086 41.8229 279.086 41.2869C279.086 40.7794 279.136 40.3286 279.237 39.9347C279.339 39.5407 279.486 39.2083 279.677 38.9375C279.868 38.6648 280.099 38.4574 280.37 38.3153C280.641 38.1733 280.945 38.1023 281.282 38.1023C281.629 38.1023 281.936 38.1705 282.205 38.3068C282.474 38.4432 282.692 38.6316 282.859 38.8722C283.027 39.1127 283.134 39.3864 283.18 39.6932H282.313C282.254 39.4508 282.138 39.2528 281.964 39.0994C281.79 38.946 281.562 38.8693 281.282 38.8693C280.856 38.8693 280.523 39.0549 280.285 39.4261C280.048 39.7973 279.929 40.3134 279.927 40.9744H279.969C280.07 40.8097 280.193 40.6695 280.339 40.554C280.487 40.4366 280.651 40.3466 280.833 40.2841C281.017 40.2197 281.21 40.1875 281.413 40.1875C281.75 40.1875 282.055 40.2699 282.327 40.4347C282.602 40.5975 282.821 40.8229 282.984 41.1108C283.147 41.3987 283.228 41.7282 283.228 42.0994C283.228 42.4706 283.144 42.8068 282.975 43.108C282.808 43.4091 282.574 43.6477 282.271 43.8239C281.968 43.9981 281.613 44.0833 281.208 44.0795ZM281.205 43.3409C281.429 43.3409 281.629 43.286 281.805 43.1761C281.981 43.0663 282.12 42.9186 282.222 42.733C282.325 42.5473 282.376 42.34 282.376 42.1108C282.376 41.8873 282.326 41.6837 282.225 41.5C282.127 41.3163 281.99 41.1705 281.816 41.0625C281.644 40.9545 281.447 40.9006 281.225 40.9006C281.057 40.9006 280.9 40.9328 280.756 40.9972C280.614 41.0616 280.489 41.1506 280.381 41.2642C280.273 41.3778 280.188 41.5085 280.126 41.6562C280.065 41.8021 280.035 41.9564 280.035 42.1193C280.035 42.3371 280.085 42.5388 280.185 42.7244C280.288 42.91 280.427 43.0597 280.603 43.1733C280.781 43.285 280.982 43.3409 281.205 43.3409ZM284.568 44.054C284.413 44.054 284.279 43.9991 284.168 43.8892C284.056 43.7775 284 43.643 284 43.4858C284 43.3305 284.056 43.1979 284.168 43.0881C284.279 42.9763 284.413 42.9205 284.568 42.9205C284.723 42.9205 284.857 42.9763 284.969 43.0881C285.08 43.1979 285.136 43.3305 285.136 43.4858C285.136 43.59 285.11 43.6856 285.057 43.7727C285.006 43.858 284.938 43.9261 284.852 43.9773C284.767 44.0284 284.672 44.054 284.568 44.054ZM288.083 44.0795C287.824 44.0758 287.568 44.0284 287.316 43.9375C287.066 43.8466 286.839 43.6951 286.634 43.483C286.43 43.2708 286.266 42.9858 286.143 42.6278C286.022 42.2699 285.961 41.8229 285.961 41.2869C285.961 40.7794 286.011 40.3286 286.112 39.9347C286.214 39.5407 286.361 39.2083 286.552 38.9375C286.743 38.6648 286.974 38.4574 287.245 38.3153C287.516 38.1733 287.82 38.1023 288.157 38.1023C288.504 38.1023 288.811 38.1705 289.08 38.3068C289.349 38.4432 289.567 38.6316 289.734 38.8722C289.902 39.1127 290.009 39.3864 290.055 39.6932H289.188C289.129 39.4508 289.013 39.2528 288.839 39.0994C288.665 38.946 288.437 38.8693 288.157 38.8693C287.731 38.8693 287.398 39.0549 287.16 39.4261C286.923 39.7973 286.804 40.3134 286.802 40.9744H286.844C286.945 40.8097 287.068 40.6695 287.214 40.554C287.362 40.4366 287.526 40.3466 287.708 40.2841C287.892 40.2197 288.085 40.1875 288.288 40.1875C288.625 40.1875 288.93 40.2699 289.202 40.4347C289.477 40.5975 289.696 40.8229 289.859 41.1108C290.022 41.3987 290.103 41.7282 290.103 42.0994C290.103 42.4706 290.019 42.8068 289.85 43.108C289.683 43.4091 289.449 43.6477 289.146 43.8239C288.843 43.9981 288.488 44.0833 288.083 44.0795ZM288.08 43.3409C288.304 43.3409 288.504 43.286 288.68 43.1761C288.856 43.0663 288.995 42.9186 289.097 42.733C289.2 42.5473 289.251 42.34 289.251 42.1108C289.251 41.8873 289.201 41.6837 289.1 41.5C289.002 41.3163 288.865 41.1705 288.691 41.0625C288.519 40.9545 288.322 40.9006 288.1 40.9006C287.932 40.9006 287.775 40.9328 287.631 40.9972C287.489 41.0616 287.364 41.1506 287.256 41.2642C287.148 41.3778 287.063 41.5085 287.001 41.6562C286.94 41.8021 286.91 41.9564 286.91 42.1193C286.91 42.3371 286.96 42.5388 287.06 42.7244C287.163 42.91 287.302 43.0597 287.478 43.1733C287.656 43.285 287.857 43.3409 288.08 43.3409ZM291.334 44L293.874 38.9773V38.9347H290.936V38.1818H294.783V38.9602L292.251 44H291.334Z" fill="#A57CAD"/>
</svg>
