<svg width="319" height="57" viewBox="0 0 319 57" fill="none" xmlns="http://www.w3.org/2000/svg">
<path d="M1 56V1H55L68 16.5L55 30H18V56H1Z" fill="#F3B754" stroke="#F3B754"/>
<path d="M24.7216 34.2727L27.1506 41.3807H27.2486L29.6776 34.2727H31.1009L27.9602 43H26.4389L23.2983 34.2727H24.7216ZM33.9392 43.1449C33.5244 43.1449 33.1494 43.0682 32.8142 42.9148C32.4789 42.7585 32.2133 42.5327 32.0173 42.2372C31.8241 41.9418 31.7275 41.5795 31.7275 41.1506C31.7275 40.7812 31.7986 40.4773 31.9406 40.2386C32.0826 40 32.2744 39.8111 32.5159 39.6719C32.7574 39.5327 33.0272 39.4276 33.3255 39.3565C33.6238 39.2855 33.9278 39.2315 34.2375 39.1946C34.6295 39.1491 34.9477 39.1122 35.192 39.0838C35.4363 39.0526 35.6139 39.0028 35.7247 38.9347C35.8355 38.8665 35.8909 38.7557 35.8909 38.6023V38.5724C35.8909 38.2003 35.7858 37.9119 35.5755 37.7074C35.3682 37.5028 35.0585 37.4006 34.6466 37.4006C34.2176 37.4006 33.8795 37.4957 33.6324 37.6861C33.388 37.8736 33.219 38.0824 33.1253 38.3125L31.9278 38.0398C32.0699 37.642 32.2772 37.321 32.55 37.0767C32.8255 36.8295 33.1423 36.6506 33.5003 36.5398C33.8582 36.4261 34.2346 36.3693 34.6295 36.3693C34.8909 36.3693 35.1679 36.4006 35.4605 36.4631C35.7559 36.5227 36.0315 36.6335 36.2872 36.7955C36.5457 36.9574 36.7574 37.1889 36.9221 37.4901C37.0869 37.7884 37.1693 38.1761 37.1693 38.6534V43H35.925V42.1051H35.8738C35.7914 42.2699 35.6679 42.4318 35.5031 42.5909C35.3383 42.75 35.1267 42.8821 34.8682 42.9872C34.6096 43.0923 34.3 43.1449 33.9392 43.1449ZM34.2162 42.1222C34.5684 42.1222 34.8696 42.0526 35.1196 41.9134C35.3724 41.7741 35.5642 41.5923 35.6949 41.3679C35.8284 41.1406 35.8951 40.8977 35.8951 40.6392V39.7955C35.8497 39.8409 35.7616 39.8835 35.6309 39.9233C35.5031 39.9602 35.3568 39.9929 35.192 40.0213C35.0272 40.0469 34.8667 40.071 34.7105 40.0938C34.5542 40.1136 34.4236 40.1307 34.3184 40.1449C34.0713 40.1761 33.8454 40.2287 33.6409 40.3026C33.4392 40.3764 33.2772 40.483 33.1551 40.6222C33.0358 40.7585 32.9761 40.9403 32.9761 41.1676C32.9761 41.483 33.0926 41.7216 33.3255 41.8835C33.5585 42.0426 33.8554 42.1222 34.2162 42.1222ZM42.0435 43.1321C41.41 43.1321 40.8645 42.9886 40.4071 42.7017C39.9526 42.4119 39.6031 42.0128 39.3588 41.5043C39.1145 40.9957 38.9923 40.4134 38.9923 39.7571C38.9923 39.0923 39.1173 38.5057 39.3673 37.9972C39.6173 37.4858 39.9696 37.0866 40.4242 36.7997C40.8787 36.5128 41.4142 36.3693 42.0307 36.3693C42.5279 36.3693 42.971 36.4616 43.3602 36.6463C43.7494 36.8281 44.0634 37.0838 44.302 37.4134C44.5435 37.7429 44.6869 38.1278 44.7324 38.5682H43.4923C43.4242 38.2614 43.2679 37.9972 43.0236 37.7756C42.7821 37.554 42.4583 37.4432 42.052 37.4432C41.6969 37.4432 41.3858 37.5369 41.1188 37.7244C40.8546 37.9091 40.6486 38.1733 40.5009 38.517C40.3531 38.858 40.2793 39.2614 40.2793 39.7273C40.2793 40.2045 40.3517 40.6165 40.4966 40.9631C40.6415 41.3097 40.846 41.5781 41.1102 41.7685C41.3773 41.9588 41.6912 42.054 42.052 42.054C42.2935 42.054 42.5122 42.0099 42.7083 41.9219C42.9071 41.831 43.0733 41.7017 43.2068 41.5341C43.3432 41.3665 43.4384 41.1648 43.4923 40.929H44.7324C44.6869 41.3523 44.5492 41.7301 44.319 42.0625C44.0889 42.3949 43.7807 42.6562 43.3943 42.8466C43.0108 43.0369 42.5605 43.1321 42.0435 43.1321ZM48.4198 43.1449C48.005 43.1449 47.63 43.0682 47.2948 42.9148C46.9596 42.7585 46.6939 42.5327 46.4979 42.2372C46.3047 41.9418 46.2082 41.5795 46.2082 41.1506C46.2082 40.7812 46.2792 40.4773 46.4212 40.2386C46.5633 40 46.755 39.8111 46.9965 39.6719C47.238 39.5327 47.5079 39.4276 47.8062 39.3565C48.1045 39.2855 48.4084 39.2315 48.7181 39.1946C49.1101 39.1491 49.4283 39.1122 49.6726 39.0838C49.917 39.0526 50.0945 39.0028 50.2053 38.9347C50.3161 38.8665 50.3715 38.7557 50.3715 38.6023V38.5724C50.3715 38.2003 50.2664 37.9119 50.0562 37.7074C49.8488 37.5028 49.5391 37.4006 49.1272 37.4006C48.6982 37.4006 48.3601 37.4957 48.113 37.6861C47.8687 37.8736 47.6996 38.0824 47.6059 38.3125L46.4084 38.0398C46.5505 37.642 46.7579 37.321 47.0306 37.0767C47.3062 36.8295 47.6229 36.6506 47.9809 36.5398C48.3388 36.4261 48.7153 36.3693 49.1101 36.3693C49.3715 36.3693 49.6485 36.4006 49.9411 36.4631C50.2366 36.5227 50.5121 36.6335 50.7678 36.7955C51.0263 36.9574 51.238 37.1889 51.4028 37.4901C51.5675 37.7884 51.6499 38.1761 51.6499 38.6534V43H50.4056V42.1051H50.3545C50.2721 42.2699 50.1485 42.4318 49.9837 42.5909C49.8189 42.75 49.6073 42.8821 49.3488 42.9872C49.0903 43.0923 48.7806 43.1449 48.4198 43.1449ZM48.6968 42.1222C49.0491 42.1222 49.3502 42.0526 49.6002 41.9134C49.853 41.7741 50.0448 41.5923 50.1755 41.3679C50.309 41.1406 50.3758 40.8977 50.3758 40.6392V39.7955C50.3303 39.8409 50.2422 39.8835 50.1116 39.9233C49.9837 39.9602 49.8374 39.9929 49.6726 40.0213C49.5079 40.0469 49.3474 40.071 49.1911 40.0938C49.0349 40.1136 48.9042 40.1307 48.7991 40.1449C48.5519 40.1761 48.3261 40.2287 48.1215 40.3026C47.9198 40.3764 47.7579 40.483 47.6357 40.6222C47.5164 40.7585 47.4567 40.9403 47.4567 41.1676C47.4567 41.483 47.5732 41.7216 47.8062 41.8835C48.0391 42.0426 48.336 42.1222 48.6968 42.1222ZM56.5241 43.1321C55.8906 43.1321 55.3451 42.9886 54.8877 42.7017C54.4332 42.4119 54.0838 42.0128 53.8394 41.5043C53.5951 40.9957 53.473 40.4134 53.473 39.7571C53.473 39.0923 53.598 38.5057 53.848 37.9972C54.098 37.4858 54.4502 37.0866 54.9048 36.7997C55.3593 36.5128 55.8948 36.3693 56.5113 36.3693C57.0085 36.3693 57.4517 36.4616 57.8409 36.6463C58.2301 36.8281 58.544 37.0838 58.7826 37.4134C59.0241 37.7429 59.1676 38.1278 59.213 38.5682H57.973C57.9048 38.2614 57.7485 37.9972 57.5042 37.7756C57.2627 37.554 56.9389 37.4432 56.5326 37.4432C56.1775 37.4432 55.8664 37.5369 55.5994 37.7244C55.3352 37.9091 55.1292 38.1733 54.9815 38.517C54.8338 38.858 54.7599 39.2614 54.7599 39.7273C54.7599 40.2045 54.8323 40.6165 54.9772 40.9631C55.1221 41.3097 55.3267 41.5781 55.5909 41.7685C55.8579 41.9588 56.1718 42.054 56.5326 42.054C56.7741 42.054 56.9929 42.0099 57.1889 41.9219C57.3877 41.831 57.5539 41.7017 57.6875 41.5341C57.8238 41.3665 57.919 41.1648 57.973 40.929H59.213C59.1676 41.3523 59.0298 41.7301 58.7997 42.0625C58.5696 42.3949 58.2613 42.6562 57.875 42.8466C57.4914 43.0369 57.0412 43.1321 56.5241 43.1321ZM60.9956 43V36.4545H62.2697V43H60.9956ZM61.6391 35.4446C61.4175 35.4446 61.2271 35.3707 61.068 35.223C60.9118 35.0724 60.8337 34.8935 60.8337 34.6861C60.8337 34.4759 60.9118 34.2969 61.068 34.1491C61.2271 33.9986 61.4175 33.9233 61.6391 33.9233C61.8607 33.9233 62.0496 33.9986 62.2058 34.1491C62.3649 34.2969 62.4445 34.4759 62.4445 34.6861C62.4445 34.8935 62.3649 35.0724 62.2058 35.223C62.0496 35.3707 61.8607 35.4446 61.6391 35.4446ZM67.161 43.1321C66.5473 43.1321 66.0118 42.9915 65.5544 42.7102C65.0971 42.429 64.7419 42.0355 64.4891 41.5298C64.2363 41.0241 64.1098 40.4332 64.1098 39.7571C64.1098 39.0781 64.2363 38.4844 64.4891 37.9759C64.7419 37.4673 65.0971 37.0724 65.5544 36.7912C66.0118 36.5099 66.5473 36.3693 67.161 36.3693C67.7746 36.3693 68.3101 36.5099 68.7675 36.7912C69.2249 37.0724 69.58 37.4673 69.8329 37.9759C70.0857 38.4844 70.2121 39.0781 70.2121 39.7571C70.2121 40.4332 70.0857 41.0241 69.8329 41.5298C69.58 42.0355 69.2249 42.429 68.7675 42.7102C68.3101 42.9915 67.7746 43.1321 67.161 43.1321ZM67.1652 42.0625C67.563 42.0625 67.8925 41.9574 68.1539 41.7472C68.4152 41.5369 68.6084 41.2571 68.7334 40.9077C68.8613 40.5582 68.9252 40.1733 68.9252 39.7528C68.9252 39.3352 68.8613 38.9517 68.7334 38.6023C68.6084 38.25 68.4152 37.9673 68.1539 37.7543C67.8925 37.5412 67.563 37.4347 67.1652 37.4347C66.7647 37.4347 66.4323 37.5412 66.1681 37.7543C65.9067 37.9673 65.7121 38.25 65.5843 38.6023C65.4593 38.9517 65.3968 39.3352 65.3968 39.7528C65.3968 40.1733 65.4593 40.5582 65.5843 40.9077C65.7121 41.2571 65.9067 41.5369 66.1681 41.7472C66.4323 41.9574 66.7647 42.0625 67.1652 42.0625ZM73.3285 39.1136V43H72.0543V36.4545H73.2774V37.5199H73.3583C73.5089 37.1733 73.7447 36.8949 74.0657 36.6847C74.3896 36.4744 74.7972 36.3693 75.2887 36.3693C75.7347 36.3693 76.1254 36.4631 76.4606 36.6506C76.7958 36.8352 77.0558 37.1108 77.2404 37.4773C77.4251 37.8437 77.5174 38.2969 77.5174 38.8366V43H76.2433V38.9901C76.2433 38.5156 76.1197 38.1449 75.8725 37.8778C75.6254 37.608 75.2859 37.473 74.8541 37.473C74.5586 37.473 74.2958 37.5369 74.0657 37.6648C73.8384 37.7926 73.658 37.9801 73.5245 38.2273C73.3938 38.4716 73.3285 38.767 73.3285 39.1136ZM82.4672 43.1321C81.8224 43.1321 81.267 42.9943 80.8011 42.7188C80.338 42.4403 79.98 42.0497 79.7272 41.5469C79.4772 41.0412 79.3522 40.4489 79.3522 39.7699C79.3522 39.0994 79.4772 38.5085 79.7272 37.9972C79.98 37.4858 80.3323 37.0866 80.784 36.7997C81.2386 36.5128 81.7698 36.3693 82.3778 36.3693C82.7471 36.3693 83.105 36.4304 83.4516 36.5526C83.7982 36.6747 84.1093 36.8665 84.3849 37.1278C84.6604 37.3892 84.8778 37.7287 85.0368 38.1463C85.1959 38.5611 85.2755 39.0653 85.2755 39.6591V40.1108H80.0724V39.1562H84.0269C84.0269 38.821 83.9587 38.5241 83.8224 38.2656C83.686 38.0043 83.4942 37.7983 83.2471 37.6477C83.0028 37.4972 82.7158 37.4219 82.3863 37.4219C82.0283 37.4219 81.7158 37.5099 81.4488 37.6861C81.1846 37.8594 80.98 38.0866 80.8351 38.3679C80.6931 38.6463 80.6221 38.9489 80.6221 39.2756V40.0213C80.6221 40.4588 80.6988 40.831 80.8522 41.1378C81.0084 41.4446 81.2258 41.679 81.5042 41.8409C81.7826 42 82.1079 42.0795 82.48 42.0795C82.7215 42.0795 82.9417 42.0455 83.1405 41.9773C83.3394 41.9062 83.5113 41.8011 83.6562 41.6619C83.8011 41.5227 83.9118 41.3509 83.9886 41.1463L85.1945 41.3636C85.0979 41.7187 84.9246 42.0298 84.6746 42.2969C84.4275 42.5611 84.1164 42.767 83.7414 42.9148C83.3692 43.0597 82.9445 43.1321 82.4672 43.1321ZM92.014 38.0526L90.8592 38.2571C90.8109 38.1094 90.7342 37.9687 90.6291 37.8352C90.5268 37.7017 90.3876 37.5923 90.2115 37.5071C90.0353 37.4219 89.8152 37.3793 89.551 37.3793C89.1902 37.3793 88.889 37.4602 88.6475 37.6222C88.4061 37.7812 88.2853 37.9872 88.2853 38.2401C88.2853 38.4588 88.3663 38.6349 88.5282 38.7685C88.6902 38.902 88.9515 39.0114 89.3123 39.0966L90.3521 39.3352C90.9544 39.4744 91.4032 39.6889 91.6987 39.9787C91.9941 40.2685 92.1419 40.6449 92.1419 41.108C92.1419 41.5 92.0282 41.8494 91.801 42.1562C91.5765 42.4602 91.2626 42.6989 90.8592 42.8722C90.4586 43.0455 89.9941 43.1321 89.4657 43.1321C88.7328 43.1321 88.1348 42.9759 87.6717 42.6634C87.2086 42.348 86.9245 41.9006 86.8194 41.321L88.051 41.1335C88.1277 41.4545 88.2853 41.6974 88.524 41.8622C88.7626 42.0241 89.0737 42.1051 89.4572 42.1051C89.8748 42.1051 90.2086 42.0185 90.4586 41.8452C90.7086 41.669 90.8336 41.4545 90.8336 41.2017C90.8336 40.9972 90.7569 40.8253 90.6035 40.6861C90.4529 40.5469 90.2214 40.4418 89.9089 40.3707L88.801 40.1278C88.1902 39.9886 87.7385 39.767 87.4458 39.4631C87.1561 39.1591 87.0112 38.7741 87.0112 38.3082C87.0112 37.9219 87.1191 37.5838 87.335 37.294C87.551 37.0043 87.8492 36.7784 88.2299 36.6165C88.6106 36.4517 89.0467 36.3693 89.5382 36.3693C90.2456 36.3693 90.8024 36.5227 91.2086 36.8295C91.6149 37.1335 91.8833 37.5412 92.014 38.0526ZM100.486 43H97.6608V34.2727H100.576C101.431 34.2727 102.165 34.4474 102.779 34.7969C103.392 35.1435 103.863 35.642 104.189 36.2926C104.519 36.9403 104.684 37.7173 104.684 38.6236C104.684 39.5327 104.517 40.3139 104.185 40.9673C103.855 41.6207 103.378 42.1236 102.753 42.4759C102.128 42.8253 101.372 43 100.486 43ZM98.9776 41.8494H100.414C101.078 41.8494 101.631 41.7244 102.071 41.4744C102.512 41.2216 102.841 40.8565 103.06 40.3793C103.279 39.8991 103.388 39.3139 103.388 38.6236C103.388 37.9389 103.279 37.358 103.06 36.8807C102.844 36.4034 102.522 36.0412 102.093 35.794C101.664 35.5469 101.131 35.4233 100.495 35.4233H98.9776V41.8494ZM106.639 43V36.4545H107.913V43H106.639ZM106.758 35.581L107.755 33.6165H109.098L107.777 35.581H106.758ZM111.952 43.1449C111.537 43.1449 111.162 43.0682 110.827 42.9148C110.492 42.7585 110.226 42.5327 110.03 42.2372C109.837 41.9418 109.74 41.5795 109.74 41.1506C109.74 40.7812 109.811 40.4773 109.953 40.2386C110.095 40 110.287 39.8111 110.529 39.6719C110.77 39.5327 111.04 39.4276 111.338 39.3565C111.636 39.2855 111.94 39.2315 112.25 39.1946C112.642 39.1491 112.96 39.1122 113.205 39.0838C113.449 39.0526 113.627 39.0028 113.737 38.9347C113.848 38.8665 113.904 38.7557 113.904 38.6023V38.5724C113.904 38.2003 113.798 37.9119 113.588 37.7074C113.381 37.5028 113.071 37.4006 112.659 37.4006C112.23 37.4006 111.892 37.4957 111.645 37.6861C111.401 37.8736 111.232 38.0824 111.138 38.3125L109.94 38.0398C110.083 37.642 110.29 37.321 110.563 37.0767C110.838 36.8295 111.155 36.6506 111.513 36.5398C111.871 36.4261 112.247 36.3693 112.642 36.3693C112.904 36.3693 113.181 36.4006 113.473 36.4631C113.769 36.5227 114.044 36.6335 114.3 36.7955C114.558 36.9574 114.77 37.1889 114.935 37.4901C115.1 37.7884 115.182 38.1761 115.182 38.6534V43H113.938V42.1051H113.886C113.804 42.2699 113.681 42.4318 113.516 42.5909C113.351 42.75 113.139 42.8821 112.881 42.9872C112.622 43.0923 112.313 43.1449 111.952 43.1449ZM112.229 42.1222C112.581 42.1222 112.882 42.0526 113.132 41.9134C113.385 41.7741 113.577 41.5923 113.708 41.3679C113.841 41.1406 113.908 40.8977 113.908 40.6392V39.7955C113.862 39.8409 113.774 39.8835 113.644 39.9233C113.516 39.9602 113.369 39.9929 113.205 40.0213C113.04 40.0469 112.879 40.071 112.723 40.0938C112.567 40.1136 112.436 40.1307 112.331 40.1449C112.084 40.1761 111.858 40.2287 111.654 40.3026C111.452 40.3764 111.29 40.483 111.168 40.6222C111.048 40.7585 110.989 40.9403 110.989 41.1676C110.989 41.483 111.105 41.7216 111.338 41.8835C111.571 42.0426 111.868 42.1222 112.229 42.1222ZM122.204 38.0526L121.049 38.2571C121.001 38.1094 120.924 37.9687 120.819 37.8352C120.717 37.7017 120.577 37.5923 120.401 37.5071C120.225 37.4219 120.005 37.3793 119.741 37.3793C119.38 37.3793 119.079 37.4602 118.837 37.6222C118.596 37.7812 118.475 37.9872 118.475 38.2401C118.475 38.4588 118.556 38.6349 118.718 38.7685C118.88 38.902 119.141 39.0114 119.502 39.0966L120.542 39.3352C121.144 39.4744 121.593 39.6889 121.889 39.9787C122.184 40.2685 122.332 40.6449 122.332 41.108C122.332 41.5 122.218 41.8494 121.991 42.1562C121.766 42.4602 121.452 42.6989 121.049 42.8722C120.648 43.0455 120.184 43.1321 119.656 43.1321C118.923 43.1321 118.325 42.9759 117.862 42.6634C117.398 42.348 117.114 41.9006 117.009 41.321L118.241 41.1335C118.317 41.4545 118.475 41.6974 118.714 41.8622C118.952 42.0241 119.264 42.1051 119.647 42.1051C120.065 42.1051 120.398 42.0185 120.648 41.8452C120.898 41.669 121.023 41.4545 121.023 41.2017C121.023 40.9972 120.947 40.8253 120.793 40.6861C120.643 40.5469 120.411 40.4418 120.099 40.3707L118.991 40.1278C118.38 39.9886 117.928 39.767 117.636 39.4631C117.346 39.1591 117.201 38.7741 117.201 38.3082C117.201 37.9219 117.309 37.5838 117.525 37.294C117.741 37.0043 118.039 36.7784 118.42 36.6165C118.8 36.4517 119.237 36.3693 119.728 36.3693C120.435 36.3693 120.992 36.5227 121.398 36.8295C121.805 37.1335 122.073 37.5412 122.204 38.0526ZM127.851 43V34.2727H133.263V35.4062H129.167V38.0653H132.875V39.1946H129.167V43H127.851ZM137.54 43.1321C136.895 43.1321 136.34 42.9943 135.874 42.7188C135.411 42.4403 135.053 42.0497 134.8 41.5469C134.55 41.0412 134.425 40.4489 134.425 39.7699C134.425 39.0994 134.55 38.5085 134.8 37.9972C135.053 37.4858 135.405 37.0866 135.857 36.7997C136.312 36.5128 136.843 36.3693 137.451 36.3693C137.82 36.3693 138.178 36.4304 138.525 36.5526C138.871 36.6747 139.182 36.8665 139.458 37.1278C139.733 37.3892 139.951 37.7287 140.11 38.1463C140.269 38.5611 140.348 39.0653 140.348 39.6591V40.1108H135.145V39.1562H139.1C139.1 38.821 139.032 38.5241 138.895 38.2656C138.759 38.0043 138.567 37.7983 138.32 37.6477C138.076 37.4972 137.789 37.4219 137.459 37.4219C137.101 37.4219 136.789 37.5099 136.522 37.6861C136.258 37.8594 136.053 38.0866 135.908 38.3679C135.766 38.6463 135.695 38.9489 135.695 39.2756V40.0213C135.695 40.4588 135.772 40.831 135.925 41.1378C136.081 41.4446 136.299 41.679 136.577 41.8409C136.856 42 137.181 42.0795 137.553 42.0795C137.794 42.0795 138.015 42.0455 138.214 41.9773C138.412 41.9062 138.584 41.8011 138.729 41.6619C138.874 41.5227 138.985 41.3509 139.062 41.1463L140.267 41.3636C140.171 41.7187 139.998 42.0298 139.748 42.2969C139.5 42.5611 139.189 42.767 138.814 42.9148C138.442 43.0597 138.017 43.1321 137.54 43.1321ZM147.087 38.0526L145.932 38.2571C145.884 38.1094 145.807 37.9687 145.702 37.8352C145.6 37.7017 145.461 37.5923 145.284 37.5071C145.108 37.4219 144.888 37.3793 144.624 37.3793C144.263 37.3793 143.962 37.4602 143.721 37.6222C143.479 37.7812 143.358 37.9872 143.358 38.2401C143.358 38.4588 143.439 38.6349 143.601 38.7685C143.763 38.902 144.024 39.0114 144.385 39.0966L145.425 39.3352C146.027 39.4744 146.476 39.6889 146.772 39.9787C147.067 40.2685 147.215 40.6449 147.215 41.108C147.215 41.5 147.101 41.8494 146.874 42.1562C146.649 42.4602 146.336 42.6989 145.932 42.8722C145.532 43.0455 145.067 43.1321 144.539 43.1321C143.806 43.1321 143.208 42.9759 142.745 42.6634C142.282 42.348 141.997 41.9006 141.892 41.321L143.124 41.1335C143.201 41.4545 143.358 41.6974 143.597 41.8622C143.836 42.0241 144.147 42.1051 144.53 42.1051C144.948 42.1051 145.282 42.0185 145.532 41.8452C145.782 41.669 145.907 41.4545 145.907 41.2017C145.907 40.9972 145.83 40.8253 145.676 40.6861C145.526 40.5469 145.294 40.4418 144.982 40.3707L143.874 40.1278C143.263 39.9886 142.811 39.767 142.519 39.4631C142.229 39.1591 142.084 38.7741 142.084 38.3082C142.084 37.9219 142.192 37.5838 142.408 37.294C142.624 37.0043 142.922 36.7784 143.303 36.6165C143.684 36.4517 144.12 36.3693 144.611 36.3693C145.319 36.3693 145.875 36.5227 146.282 36.8295C146.688 37.1335 146.956 37.5412 147.087 38.0526ZM152.091 36.4545V37.4773H148.516V36.4545H152.091ZM149.475 34.8864H150.749V41.0781C150.749 41.3253 150.786 41.5114 150.86 41.6364C150.933 41.7585 151.029 41.8423 151.145 41.8878C151.264 41.9304 151.394 41.9517 151.533 41.9517C151.635 41.9517 151.725 41.9446 151.801 41.9304C151.878 41.9162 151.938 41.9048 151.98 41.8963L152.21 42.9489C152.137 42.9773 152.031 43.0057 151.895 43.0341C151.759 43.0653 151.588 43.0824 151.384 43.0852C151.049 43.0909 150.736 43.0312 150.446 42.9062C150.156 42.7812 149.922 42.5881 149.743 42.3267C149.564 42.0653 149.475 41.7372 149.475 41.3423V34.8864ZM153.921 43V36.4545H155.195V43H153.921ZM154.564 35.4446C154.342 35.4446 154.152 35.3707 153.993 35.223C153.837 35.0724 153.759 34.8935 153.759 34.6861C153.759 34.4759 153.837 34.2969 153.993 34.1491C154.152 33.9986 154.342 33.9233 154.564 33.9233C154.786 33.9233 154.975 33.9986 155.131 34.1491C155.29 34.2969 155.369 34.4759 155.369 34.6861C155.369 34.8935 155.29 35.0724 155.131 35.223C154.975 35.3707 154.786 35.4446 154.564 35.4446ZM162.928 36.4545L160.555 43H159.191L156.813 36.4545H158.181L159.839 41.4915H159.907L161.56 36.4545H162.928ZM167.08 43.1321C166.467 43.1321 165.931 42.9915 165.474 42.7102C165.016 42.429 164.661 42.0355 164.408 41.5298C164.155 41.0241 164.029 40.4332 164.029 39.7571C164.029 39.0781 164.155 38.4844 164.408 37.9759C164.661 37.4673 165.016 37.0724 165.474 36.7912C165.931 36.5099 166.467 36.3693 167.08 36.3693C167.694 36.3693 168.229 36.5099 168.687 36.7912C169.144 37.0724 169.499 37.4673 169.752 37.9759C170.005 38.4844 170.131 39.0781 170.131 39.7571C170.131 40.4332 170.005 41.0241 169.752 41.5298C169.499 42.0355 169.144 42.429 168.687 42.7102C168.229 42.9915 167.694 43.1321 167.08 43.1321ZM167.084 42.0625C167.482 42.0625 167.812 41.9574 168.073 41.7472C168.334 41.5369 168.528 41.2571 168.653 40.9077C168.78 40.5582 168.844 40.1733 168.844 39.7528C168.844 39.3352 168.78 38.9517 168.653 38.6023C168.528 38.25 168.334 37.9673 168.073 37.7543C167.812 37.5412 167.482 37.4347 167.084 37.4347C166.684 37.4347 166.352 37.5412 166.087 37.7543C165.826 37.9673 165.631 38.25 165.503 38.6023C165.378 38.9517 165.316 39.3352 165.316 39.7528C165.316 40.1733 165.378 40.5582 165.503 40.9077C165.631 41.2571 165.826 41.5369 166.087 41.7472C166.352 41.9574 166.684 42.0625 167.084 42.0625ZM176.878 38.0526L175.724 38.2571C175.675 38.1094 175.599 37.9687 175.493 37.8352C175.391 37.7017 175.252 37.5923 175.076 37.5071C174.9 37.4219 174.68 37.3793 174.415 37.3793C174.055 37.3793 173.753 37.4602 173.512 37.6222C173.27 37.7812 173.15 37.9872 173.15 38.2401C173.15 38.4588 173.231 38.6349 173.393 38.7685C173.555 38.902 173.816 39.0114 174.177 39.0966L175.216 39.3352C175.819 39.4744 176.268 39.6889 176.563 39.9787C176.859 40.2685 177.006 40.6449 177.006 41.108C177.006 41.5 176.893 41.8494 176.665 42.1562C176.441 42.4602 176.127 42.6989 175.724 42.8722C175.323 43.0455 174.859 43.1321 174.33 43.1321C173.597 43.1321 172.999 42.9759 172.536 42.6634C172.073 42.348 171.789 41.9006 171.684 41.321L172.915 41.1335C172.992 41.4545 173.15 41.6974 173.388 41.8622C173.627 42.0241 173.938 42.1051 174.322 42.1051C174.739 42.1051 175.073 42.0185 175.323 41.8452C175.573 41.669 175.698 41.4545 175.698 41.2017C175.698 40.9972 175.621 40.8253 175.468 40.6861C175.317 40.5469 175.086 40.4418 174.773 40.3707L173.665 40.1278C173.055 39.9886 172.603 39.767 172.31 39.4631C172.02 39.1591 171.876 38.7741 171.876 38.3082C171.876 37.9219 171.984 37.5838 172.199 37.294C172.415 37.0043 172.714 36.7784 173.094 36.6165C173.475 36.4517 173.911 36.3693 174.403 36.3693C175.11 36.3693 175.667 36.5227 176.073 36.8295C176.479 37.1335 176.748 37.5412 176.878 38.0526Z" fill="#818284"/>
<path d="M24.7216 34.2727L27.1506 41.3807H27.2486L29.6776 34.2727H31.1009L27.9602 43H26.4389L23.2983 34.2727H24.7216ZM33.9392 43.1449C33.5244 43.1449 33.1494 43.0682 32.8142 42.9148C32.4789 42.7585 32.2133 42.5327 32.0173 42.2372C31.8241 41.9418 31.7275 41.5795 31.7275 41.1506C31.7275 40.7812 31.7986 40.4773 31.9406 40.2386C32.0826 40 32.2744 39.8111 32.5159 39.6719C32.7574 39.5327 33.0272 39.4276 33.3255 39.3565C33.6238 39.2855 33.9278 39.2315 34.2375 39.1946C34.6295 39.1491 34.9477 39.1122 35.192 39.0838C35.4363 39.0526 35.6139 39.0028 35.7247 38.9347C35.8355 38.8665 35.8909 38.7557 35.8909 38.6023V38.5724C35.8909 38.2003 35.7858 37.9119 35.5755 37.7074C35.3682 37.5028 35.0585 37.4006 34.6466 37.4006C34.2176 37.4006 33.8795 37.4957 33.6324 37.6861C33.388 37.8736 33.219 38.0824 33.1253 38.3125L31.9278 38.0398C32.0699 37.642 32.2772 37.321 32.55 37.0767C32.8255 36.8295 33.1423 36.6506 33.5003 36.5398C33.8582 36.4261 34.2346 36.3693 34.6295 36.3693C34.8909 36.3693 35.1679 36.4006 35.4605 36.4631C35.7559 36.5227 36.0315 36.6335 36.2872 36.7955C36.5457 36.9574 36.7574 37.1889 36.9221 37.4901C37.0869 37.7884 37.1693 38.1761 37.1693 38.6534V43H35.925V42.1051H35.8738C35.7914 42.2699 35.6679 42.4318 35.5031 42.5909C35.3383 42.75 35.1267 42.8821 34.8682 42.9872C34.6096 43.0923 34.3 43.1449 33.9392 43.1449ZM34.2162 42.1222C34.5684 42.1222 34.8696 42.0526 35.1196 41.9134C35.3724 41.7741 35.5642 41.5923 35.6949 41.3679C35.8284 41.1406 35.8951 40.8977 35.8951 40.6392V39.7955C35.8497 39.8409 35.7616 39.8835 35.6309 39.9233C35.5031 39.9602 35.3568 39.9929 35.192 40.0213C35.0272 40.0469 34.8667 40.071 34.7105 40.0938C34.5542 40.1136 34.4236 40.1307 34.3184 40.1449C34.0713 40.1761 33.8454 40.2287 33.6409 40.3026C33.4392 40.3764 33.2772 40.483 33.1551 40.6222C33.0358 40.7585 32.9761 40.9403 32.9761 41.1676C32.9761 41.483 33.0926 41.7216 33.3255 41.8835C33.5585 42.0426 33.8554 42.1222 34.2162 42.1222ZM42.0435 43.1321C41.41 43.1321 40.8645 42.9886 40.4071 42.7017C39.9526 42.4119 39.6031 42.0128 39.3588 41.5043C39.1145 40.9957 38.9923 40.4134 38.9923 39.7571C38.9923 39.0923 39.1173 38.5057 39.3673 37.9972C39.6173 37.4858 39.9696 37.0866 40.4242 36.7997C40.8787 36.5128 41.4142 36.3693 42.0307 36.3693C42.5279 36.3693 42.971 36.4616 43.3602 36.6463C43.7494 36.8281 44.0634 37.0838 44.302 37.4134C44.5435 37.7429 44.6869 38.1278 44.7324 38.5682H43.4923C43.4242 38.2614 43.2679 37.9972 43.0236 37.7756C42.7821 37.554 42.4583 37.4432 42.052 37.4432C41.6969 37.4432 41.3858 37.5369 41.1188 37.7244C40.8546 37.9091 40.6486 38.1733 40.5009 38.517C40.3531 38.858 40.2793 39.2614 40.2793 39.7273C40.2793 40.2045 40.3517 40.6165 40.4966 40.9631C40.6415 41.3097 40.846 41.5781 41.1102 41.7685C41.3773 41.9588 41.6912 42.054 42.052 42.054C42.2935 42.054 42.5122 42.0099 42.7083 41.9219C42.9071 41.831 43.0733 41.7017 43.2068 41.5341C43.3432 41.3665 43.4384 41.1648 43.4923 40.929H44.7324C44.6869 41.3523 44.5492 41.7301 44.319 42.0625C44.0889 42.3949 43.7807 42.6562 43.3943 42.8466C43.0108 43.0369 42.5605 43.1321 42.0435 43.1321ZM48.4198 43.1449C48.005 43.1449 47.63 43.0682 47.2948 42.9148C46.9596 42.7585 46.6939 42.5327 46.4979 42.2372C46.3047 41.9418 46.2082 41.5795 46.2082 41.1506C46.2082 40.7812 46.2792 40.4773 46.4212 40.2386C46.5633 40 46.755 39.8111 46.9965 39.6719C47.238 39.5327 47.5079 39.4276 47.8062 39.3565C48.1045 39.2855 48.4084 39.2315 48.7181 39.1946C49.1101 39.1491 49.4283 39.1122 49.6726 39.0838C49.917 39.0526 50.0945 39.0028 50.2053 38.9347C50.3161 38.8665 50.3715 38.7557 50.3715 38.6023V38.5724C50.3715 38.2003 50.2664 37.9119 50.0562 37.7074C49.8488 37.5028 49.5391 37.4006 49.1272 37.4006C48.6982 37.4006 48.3601 37.4957 48.113 37.6861C47.8687 37.8736 47.6996 38.0824 47.6059 38.3125L46.4084 38.0398C46.5505 37.642 46.7579 37.321 47.0306 37.0767C47.3062 36.8295 47.6229 36.6506 47.9809 36.5398C48.3388 36.4261 48.7153 36.3693 49.1101 36.3693C49.3715 36.3693 49.6485 36.4006 49.9411 36.4631C50.2366 36.5227 50.5121 36.6335 50.7678 36.7955C51.0263 36.9574 51.238 37.1889 51.4028 37.4901C51.5675 37.7884 51.6499 38.1761 51.6499 38.6534V43H50.4056V42.1051H50.3545C50.2721 42.2699 50.1485 42.4318 49.9837 42.5909C49.8189 42.75 49.6073 42.8821 49.3488 42.9872C49.0903 43.0923 48.7806 43.1449 48.4198 43.1449ZM48.6968 42.1222C49.0491 42.1222 49.3502 42.0526 49.6002 41.9134C49.853 41.7741 50.0448 41.5923 50.1755 41.3679C50.309 41.1406 50.3758 40.8977 50.3758 40.6392V39.7955C50.3303 39.8409 50.2422 39.8835 50.1116 39.9233C49.9837 39.9602 49.8374 39.9929 49.6726 40.0213C49.5079 40.0469 49.3474 40.071 49.1911 40.0938C49.0349 40.1136 48.9042 40.1307 48.7991 40.1449C48.5519 40.1761 48.3261 40.2287 48.1215 40.3026C47.9198 40.3764 47.7579 40.483 47.6357 40.6222C47.5164 40.7585 47.4567 40.9403 47.4567 41.1676C47.4567 41.483 47.5732 41.7216 47.8062 41.8835C48.0391 42.0426 48.336 42.1222 48.6968 42.1222ZM56.5241 43.1321C55.8906 43.1321 55.3451 42.9886 54.8877 42.7017C54.4332 42.4119 54.0838 42.0128 53.8394 41.5043C53.5951 40.9957 53.473 40.4134 53.473 39.7571C53.473 39.0923 53.598 38.5057 53.848 37.9972C54.098 37.4858 54.4502 37.0866 54.9048 36.7997C55.3593 36.5128 55.8948 36.3693 56.5113 36.3693C57.0085 36.3693 57.4517 36.4616 57.8409 36.6463C58.2301 36.8281 58.544 37.0838 58.7826 37.4134C59.0241 37.7429 59.1676 38.1278 59.213 38.5682H57.973C57.9048 38.2614 57.7485 37.9972 57.5042 37.7756C57.2627 37.554 56.9389 37.4432 56.5326 37.4432C56.1775 37.4432 55.8664 37.5369 55.5994 37.7244C55.3352 37.9091 55.1292 38.1733 54.9815 38.517C54.8338 38.858 54.7599 39.2614 54.7599 39.7273C54.7599 40.2045 54.8323 40.6165 54.9772 40.9631C55.1221 41.3097 55.3267 41.5781 55.5909 41.7685C55.8579 41.9588 56.1718 42.054 56.5326 42.054C56.7741 42.054 56.9929 42.0099 57.1889 41.9219C57.3877 41.831 57.5539 41.7017 57.6875 41.5341C57.8238 41.3665 57.919 41.1648 57.973 40.929H59.213C59.1676 41.3523 59.0298 41.7301 58.7997 42.0625C58.5696 42.3949 58.2613 42.6562 57.875 42.8466C57.4914 43.0369 57.0412 43.1321 56.5241 43.1321ZM60.9956 43V36.4545H62.2697V43H60.9956ZM61.6391 35.4446C61.4175 35.4446 61.2271 35.3707 61.068 35.223C60.9118 35.0724 60.8337 34.8935 60.8337 34.6861C60.8337 34.4759 60.9118 34.2969 61.068 34.1491C61.2271 33.9986 61.4175 33.9233 61.6391 33.9233C61.8607 33.9233 62.0496 33.9986 62.2058 34.1491C62.3649 34.2969 62.4445 34.4759 62.4445 34.6861C62.4445 34.8935 62.3649 35.0724 62.2058 35.223C62.0496 35.3707 61.8607 35.4446 61.6391 35.4446ZM67.161 43.1321C66.5473 43.1321 66.0118 42.9915 65.5544 42.7102C65.0971 42.429 64.7419 42.0355 64.4891 41.5298C64.2363 41.0241 64.1098 40.4332 64.1098 39.7571C64.1098 39.0781 64.2363 38.4844 64.4891 37.9759C64.7419 37.4673 65.0971 37.0724 65.5544 36.7912C66.0118 36.5099 66.5473 36.3693 67.161 36.3693C67.7746 36.3693 68.3101 36.5099 68.7675 36.7912C69.2249 37.0724 69.58 37.4673 69.8329 37.9759C70.0857 38.4844 70.2121 39.0781 70.2121 39.7571C70.2121 40.4332 70.0857 41.0241 69.8329 41.5298C69.58 42.0355 69.2249 42.429 68.7675 42.7102C68.3101 42.9915 67.7746 43.1321 67.161 43.1321ZM67.1652 42.0625C67.563 42.0625 67.8925 41.9574 68.1539 41.7472C68.4152 41.5369 68.6084 41.2571 68.7334 40.9077C68.8613 40.5582 68.9252 40.1733 68.9252 39.7528C68.9252 39.3352 68.8613 38.9517 68.7334 38.6023C68.6084 38.25 68.4152 37.9673 68.1539 37.7543C67.8925 37.5412 67.563 37.4347 67.1652 37.4347C66.7647 37.4347 66.4323 37.5412 66.1681 37.7543C65.9067 37.9673 65.7121 38.25 65.5843 38.6023C65.4593 38.9517 65.3968 39.3352 65.3968 39.7528C65.3968 40.1733 65.4593 40.5582 65.5843 40.9077C65.7121 41.2571 65.9067 41.5369 66.1681 41.7472C66.4323 41.9574 66.7647 42.0625 67.1652 42.0625ZM73.3285 39.1136V43H72.0543V36.4545H73.2774V37.5199H73.3583C73.5089 37.1733 73.7447 36.8949 74.0657 36.6847C74.3896 36.4744 74.7972 36.3693 75.2887 36.3693C75.7347 36.3693 76.1254 36.4631 76.4606 36.6506C76.7958 36.8352 77.0558 37.1108 77.2404 37.4773C77.4251 37.8437 77.5174 38.2969 77.5174 38.8366V43H76.2433V38.9901C76.2433 38.5156 76.1197 38.1449 75.8725 37.8778C75.6254 37.608 75.2859 37.473 74.8541 37.473C74.5586 37.473 74.2958 37.5369 74.0657 37.6648C73.8384 37.7926 73.658 37.9801 73.5245 38.2273C73.3938 38.4716 73.3285 38.767 73.3285 39.1136ZM82.4672 43.1321C81.8224 43.1321 81.267 42.9943 80.8011 42.7188C80.338 42.4403 79.98 42.0497 79.7272 41.5469C79.4772 41.0412 79.3522 40.4489 79.3522 39.7699C79.3522 39.0994 79.4772 38.5085 79.7272 37.9972C79.98 37.4858 80.3323 37.0866 80.784 36.7997C81.2386 36.5128 81.7698 36.3693 82.3778 36.3693C82.7471 36.3693 83.105 36.4304 83.4516 36.5526C83.7982 36.6747 84.1093 36.8665 84.3849 37.1278C84.6604 37.3892 84.8778 37.7287 85.0368 38.1463C85.1959 38.5611 85.2755 39.0653 85.2755 39.6591V40.1108H80.0724V39.1562H84.0269C84.0269 38.821 83.9587 38.5241 83.8224 38.2656C83.686 38.0043 83.4942 37.7983 83.2471 37.6477C83.0028 37.4972 82.7158 37.4219 82.3863 37.4219C82.0283 37.4219 81.7158 37.5099 81.4488 37.6861C81.1846 37.8594 80.98 38.0866 80.8351 38.3679C80.6931 38.6463 80.6221 38.9489 80.6221 39.2756V40.0213C80.6221 40.4588 80.6988 40.831 80.8522 41.1378C81.0084 41.4446 81.2258 41.679 81.5042 41.8409C81.7826 42 82.1079 42.0795 82.48 42.0795C82.7215 42.0795 82.9417 42.0455 83.1405 41.9773C83.3394 41.9062 83.5113 41.8011 83.6562 41.6619C83.8011 41.5227 83.9118 41.3509 83.9886 41.1463L85.1945 41.3636C85.0979 41.7187 84.9246 42.0298 84.6746 42.2969C84.4275 42.5611 84.1164 42.767 83.7414 42.9148C83.3692 43.0597 82.9445 43.1321 82.4672 43.1321ZM92.014 38.0526L90.8592 38.2571C90.8109 38.1094 90.7342 37.9687 90.6291 37.8352C90.5268 37.7017 90.3876 37.5923 90.2115 37.5071C90.0353 37.4219 89.8152 37.3793 89.551 37.3793C89.1902 37.3793 88.889 37.4602 88.6475 37.6222C88.4061 37.7812 88.2853 37.9872 88.2853 38.2401C88.2853 38.4588 88.3663 38.6349 88.5282 38.7685C88.6902 38.902 88.9515 39.0114 89.3123 39.0966L90.3521 39.3352C90.9544 39.4744 91.4032 39.6889 91.6987 39.9787C91.9941 40.2685 92.1419 40.6449 92.1419 41.108C92.1419 41.5 92.0282 41.8494 91.801 42.1562C91.5765 42.4602 91.2626 42.6989 90.8592 42.8722C90.4586 43.0455 89.9941 43.1321 89.4657 43.1321C88.7328 43.1321 88.1348 42.9759 87.6717 42.6634C87.2086 42.348 86.9245 41.9006 86.8194 41.321L88.051 41.1335C88.1277 41.4545 88.2853 41.6974 88.524 41.8622C88.7626 42.0241 89.0737 42.1051 89.4572 42.1051C89.8748 42.1051 90.2086 42.0185 90.4586 41.8452C90.7086 41.669 90.8336 41.4545 90.8336 41.2017C90.8336 40.9972 90.7569 40.8253 90.6035 40.6861C90.4529 40.5469 90.2214 40.4418 89.9089 40.3707L88.801 40.1278C88.1902 39.9886 87.7385 39.767 87.4458 39.4631C87.1561 39.1591 87.0112 38.7741 87.0112 38.3082C87.0112 37.9219 87.1191 37.5838 87.335 37.294C87.551 37.0043 87.8492 36.7784 88.2299 36.6165C88.6106 36.4517 89.0467 36.3693 89.5382 36.3693C90.2456 36.3693 90.8024 36.5227 91.2086 36.8295C91.6149 37.1335 91.8833 37.5412 92.014 38.0526ZM100.486 43H97.6608V34.2727H100.576C101.431 34.2727 102.165 34.4474 102.779 34.7969C103.392 35.1435 103.863 35.642 104.189 36.2926C104.519 36.9403 104.684 37.7173 104.684 38.6236C104.684 39.5327 104.517 40.3139 104.185 40.9673C103.855 41.6207 103.378 42.1236 102.753 42.4759C102.128 42.8253 101.372 43 100.486 43ZM98.9776 41.8494H100.414C101.078 41.8494 101.631 41.7244 102.071 41.4744C102.512 41.2216 102.841 40.8565 103.06 40.3793C103.279 39.8991 103.388 39.3139 103.388 38.6236C103.388 37.9389 103.279 37.358 103.06 36.8807C102.844 36.4034 102.522 36.0412 102.093 35.794C101.664 35.5469 101.131 35.4233 100.495 35.4233H98.9776V41.8494ZM106.639 43V36.4545H107.913V43H106.639ZM106.758 35.581L107.755 33.6165H109.098L107.777 35.581H106.758ZM111.952 43.1449C111.537 43.1449 111.162 43.0682 110.827 42.9148C110.492 42.7585 110.226 42.5327 110.03 42.2372C109.837 41.9418 109.74 41.5795 109.74 41.1506C109.74 40.7812 109.811 40.4773 109.953 40.2386C110.095 40 110.287 39.8111 110.529 39.6719C110.77 39.5327 111.04 39.4276 111.338 39.3565C111.636 39.2855 111.94 39.2315 112.25 39.1946C112.642 39.1491 112.96 39.1122 113.205 39.0838C113.449 39.0526 113.627 39.0028 113.737 38.9347C113.848 38.8665 113.904 38.7557 113.904 38.6023V38.5724C113.904 38.2003 113.798 37.9119 113.588 37.7074C113.381 37.5028 113.071 37.4006 112.659 37.4006C112.23 37.4006 111.892 37.4957 111.645 37.6861C111.401 37.8736 111.232 38.0824 111.138 38.3125L109.94 38.0398C110.083 37.642 110.29 37.321 110.563 37.0767C110.838 36.8295 111.155 36.6506 111.513 36.5398C111.871 36.4261 112.247 36.3693 112.642 36.3693C112.904 36.3693 113.181 36.4006 113.473 36.4631C113.769 36.5227 114.044 36.6335 114.3 36.7955C114.558 36.9574 114.77 37.1889 114.935 37.4901C115.1 37.7884 115.182 38.1761 115.182 38.6534V43H113.938V42.1051H113.886C113.804 42.2699 113.681 42.4318 113.516 42.5909C113.351 42.75 113.139 42.8821 112.881 42.9872C112.622 43.0923 112.313 43.1449 111.952 43.1449ZM112.229 42.1222C112.581 42.1222 112.882 42.0526 113.132 41.9134C113.385 41.7741 113.577 41.5923 113.708 41.3679C113.841 41.1406 113.908 40.8977 113.908 40.6392V39.7955C113.862 39.8409 113.774 39.8835 113.644 39.9233C113.516 39.9602 113.369 39.9929 113.205 40.0213C113.04 40.0469 112.879 40.071 112.723 40.0938C112.567 40.1136 112.436 40.1307 112.331 40.1449C112.084 40.1761 111.858 40.2287 111.654 40.3026C111.452 40.3764 111.29 40.483 111.168 40.6222C111.048 40.7585 110.989 40.9403 110.989 41.1676C110.989 41.483 111.105 41.7216 111.338 41.8835C111.571 42.0426 111.868 42.1222 112.229 42.1222ZM122.204 38.0526L121.049 38.2571C121.001 38.1094 120.924 37.9687 120.819 37.8352C120.717 37.7017 120.577 37.5923 120.401 37.5071C120.225 37.4219 120.005 37.3793 119.741 37.3793C119.38 37.3793 119.079 37.4602 118.837 37.6222C118.596 37.7812 118.475 37.9872 118.475 38.2401C118.475 38.4588 118.556 38.6349 118.718 38.7685C118.88 38.902 119.141 39.0114 119.502 39.0966L120.542 39.3352C121.144 39.4744 121.593 39.6889 121.889 39.9787C122.184 40.2685 122.332 40.6449 122.332 41.108C122.332 41.5 122.218 41.8494 121.991 42.1562C121.766 42.4602 121.452 42.6989 121.049 42.8722C120.648 43.0455 120.184 43.1321 119.656 43.1321C118.923 43.1321 118.325 42.9759 117.862 42.6634C117.398 42.348 117.114 41.9006 117.009 41.321L118.241 41.1335C118.317 41.4545 118.475 41.6974 118.714 41.8622C118.952 42.0241 119.264 42.1051 119.647 42.1051C120.065 42.1051 120.398 42.0185 120.648 41.8452C120.898 41.669 121.023 41.4545 121.023 41.2017C121.023 40.9972 120.947 40.8253 120.793 40.6861C120.643 40.5469 120.411 40.4418 120.099 40.3707L118.991 40.1278C118.38 39.9886 117.928 39.767 117.636 39.4631C117.346 39.1591 117.201 38.7741 117.201 38.3082C117.201 37.9219 117.309 37.5838 117.525 37.294C117.741 37.0043 118.039 36.7784 118.42 36.6165C118.8 36.4517 119.237 36.3693 119.728 36.3693C120.435 36.3693 120.992 36.5227 121.398 36.8295C121.805 37.1335 122.073 37.5412 122.204 38.0526ZM127.851 43V34.2727H133.263V35.4062H129.167V38.0653H132.875V39.1946H129.167V43H127.851ZM137.54 43.1321C136.895 43.1321 136.34 42.9943 135.874 42.7188C135.411 42.4403 135.053 42.0497 134.8 41.5469C134.55 41.0412 134.425 40.4489 134.425 39.7699C134.425 39.0994 134.55 38.5085 134.8 37.9972C135.053 37.4858 135.405 37.0866 135.857 36.7997C136.312 36.5128 136.843 36.3693 137.451 36.3693C137.82 36.3693 138.178 36.4304 138.525 36.5526C138.871 36.6747 139.182 36.8665 139.458 37.1278C139.733 37.3892 139.951 37.7287 140.11 38.1463C140.269 38.5611 140.348 39.0653 140.348 39.6591V40.1108H135.145V39.1562H139.1C139.1 38.821 139.032 38.5241 138.895 38.2656C138.759 38.0043 138.567 37.7983 138.32 37.6477C138.076 37.4972 137.789 37.4219 137.459 37.4219C137.101 37.4219 136.789 37.5099 136.522 37.6861C136.258 37.8594 136.053 38.0866 135.908 38.3679C135.766 38.6463 135.695 38.9489 135.695 39.2756V40.0213C135.695 40.4588 135.772 40.831 135.925 41.1378C136.081 41.4446 136.299 41.679 136.577 41.8409C136.856 42 137.181 42.0795 137.553 42.0795C137.794 42.0795 138.015 42.0455 138.214 41.9773C138.412 41.9062 138.584 41.8011 138.729 41.6619C138.874 41.5227 138.985 41.3509 139.062 41.1463L140.267 41.3636C140.171 41.7187 139.998 42.0298 139.748 42.2969C139.5 42.5611 139.189 42.767 138.814 42.9148C138.442 43.0597 138.017 43.1321 137.54 43.1321ZM147.087 38.0526L145.932 38.2571C145.884 38.1094 145.807 37.9687 145.702 37.8352C145.6 37.7017 145.461 37.5923 145.284 37.5071C145.108 37.4219 144.888 37.3793 144.624 37.3793C144.263 37.3793 143.962 37.4602 143.721 37.6222C143.479 37.7812 143.358 37.9872 143.358 38.2401C143.358 38.4588 143.439 38.6349 143.601 38.7685C143.763 38.902 144.024 39.0114 144.385 39.0966L145.425 39.3352C146.027 39.4744 146.476 39.6889 146.772 39.9787C147.067 40.2685 147.215 40.6449 147.215 41.108C147.215 41.5 147.101 41.8494 146.874 42.1562C146.649 42.4602 146.336 42.6989 145.932 42.8722C145.532 43.0455 145.067 43.1321 144.539 43.1321C143.806 43.1321 143.208 42.9759 142.745 42.6634C142.282 42.348 141.997 41.9006 141.892 41.321L143.124 41.1335C143.201 41.4545 143.358 41.6974 143.597 41.8622C143.836 42.0241 144.147 42.1051 144.53 42.1051C144.948 42.1051 145.282 42.0185 145.532 41.8452C145.782 41.669 145.907 41.4545 145.907 41.2017C145.907 40.9972 145.83 40.8253 145.676 40.6861C145.526 40.5469 145.294 40.4418 144.982 40.3707L143.874 40.1278C143.263 39.9886 142.811 39.767 142.519 39.4631C142.229 39.1591 142.084 38.7741 142.084 38.3082C142.084 37.9219 142.192 37.5838 142.408 37.294C142.624 37.0043 142.922 36.7784 143.303 36.6165C143.684 36.4517 144.12 36.3693 144.611 36.3693C145.319 36.3693 145.875 36.5227 146.282 36.8295C146.688 37.1335 146.956 37.5412 147.087 38.0526ZM152.091 36.4545V37.4773H148.516V36.4545H152.091ZM149.475 34.8864H150.749V41.0781C150.749 41.3253 150.786 41.5114 150.86 41.6364C150.933 41.7585 151.029 41.8423 151.145 41.8878C151.264 41.9304 151.394 41.9517 151.533 41.9517C151.635 41.9517 151.725 41.9446 151.801 41.9304C151.878 41.9162 151.938 41.9048 151.98 41.8963L152.21 42.9489C152.137 42.9773 152.031 43.0057 151.895 43.0341C151.759 43.0653 151.588 43.0824 151.384 43.0852C151.049 43.0909 150.736 43.0312 150.446 42.9062C150.156 42.7812 149.922 42.5881 149.743 42.3267C149.564 42.0653 149.475 41.7372 149.475 41.3423V34.8864ZM153.921 43V36.4545H155.195V43H153.921ZM154.564 35.4446C154.342 35.4446 154.152 35.3707 153.993 35.223C153.837 35.0724 153.759 34.8935 153.759 34.6861C153.759 34.4759 153.837 34.2969 153.993 34.1491C154.152 33.9986 154.342 33.9233 154.564 33.9233C154.786 33.9233 154.975 33.9986 155.131 34.1491C155.29 34.2969 155.369 34.4759 155.369 34.6861C155.369 34.8935 155.29 35.0724 155.131 35.223C154.975 35.3707 154.786 35.4446 154.564 35.4446ZM162.928 36.4545L160.555 43H159.191L156.813 36.4545H158.181L159.839 41.4915H159.907L161.56 36.4545H162.928ZM167.08 43.1321C166.467 43.1321 165.931 42.9915 165.474 42.7102C165.016 42.429 164.661 42.0355 164.408 41.5298C164.155 41.0241 164.029 40.4332 164.029 39.7571C164.029 39.0781 164.155 38.4844 164.408 37.9759C164.661 37.4673 165.016 37.0724 165.474 36.7912C165.931 36.5099 166.467 36.3693 167.08 36.3693C167.694 36.3693 168.229 36.5099 168.687 36.7912C169.144 37.0724 169.499 37.4673 169.752 37.9759C170.005 38.4844 170.131 39.0781 170.131 39.7571C170.131 40.4332 170.005 41.0241 169.752 41.5298C169.499 42.0355 169.144 42.429 168.687 42.7102C168.229 42.9915 167.694 43.1321 167.08 43.1321ZM167.084 42.0625C167.482 42.0625 167.812 41.9574 168.073 41.7472C168.334 41.5369 168.528 41.2571 168.653 40.9077C168.78 40.5582 168.844 40.1733 168.844 39.7528C168.844 39.3352 168.78 38.9517 168.653 38.6023C168.528 38.25 168.334 37.9673 168.073 37.7543C167.812 37.5412 167.482 37.4347 167.084 37.4347C166.684 37.4347 166.352 37.5412 166.087 37.7543C165.826 37.9673 165.631 38.25 165.503 38.6023C165.378 38.9517 165.316 39.3352 165.316 39.7528C165.316 40.1733 165.378 40.5582 165.503 40.9077C165.631 41.2571 165.826 41.5369 166.087 41.7472C166.352 41.9574 166.684 42.0625 167.084 42.0625ZM176.878 38.0526L175.724 38.2571C175.675 38.1094 175.599 37.9687 175.493 37.8352C175.391 37.7017 175.252 37.5923 175.076 37.5071C174.9 37.4219 174.68 37.3793 174.415 37.3793C174.055 37.3793 173.753 37.4602 173.512 37.6222C173.27 37.7812 173.15 37.9872 173.15 38.2401C173.15 38.4588 173.231 38.6349 173.393 38.7685C173.555 38.902 173.816 39.0114 174.177 39.0966L175.216 39.3352C175.819 39.4744 176.268 39.6889 176.563 39.9787C176.859 40.2685 177.006 40.6449 177.006 41.108C177.006 41.5 176.893 41.8494 176.665 42.1562C176.441 42.4602 176.127 42.6989 175.724 42.8722C175.323 43.0455 174.859 43.1321 174.33 43.1321C173.597 43.1321 172.999 42.9759 172.536 42.6634C172.073 42.348 171.789 41.9006 171.684 41.321L172.915 41.1335C172.992 41.4545 173.15 41.6974 173.388 41.8622C173.627 42.0241 173.938 42.1051 174.322 42.1051C174.739 42.1051 175.073 42.0185 175.323 41.8452C175.573 41.669 175.698 41.4545 175.698 41.2017C175.698 40.9972 175.621 40.8253 175.468 40.6861C175.317 40.5469 175.086 40.4418 174.773 40.3707L173.665 40.1278C173.055 39.9886 172.603 39.767 172.31 39.4631C172.02 39.1591 171.876 38.7741 171.876 38.3082C171.876 37.9219 171.984 37.5838 172.199 37.294C172.415 37.0043 172.714 36.7784 173.094 36.6165C173.475 36.4517 173.911 36.3693 174.403 36.3693C175.11 36.3693 175.667 36.5227 176.073 36.8295C176.479 37.1335 176.748 37.5412 176.878 38.0526Z" fill="#818284"/>
<path d="M11.7685 11.0909L15.0071 20.2741H15.1349L18.3736 11.0909H19.7585L15.7528 22H14.3892L10.3835 11.0909H11.7685ZM21.4927 22H20.1077L24.1134 11.0909H25.4771L29.4827 22H28.0978L24.8379 12.8168H24.7526L21.4927 22ZM22.004 17.7386H27.5864V18.9105H22.004V17.7386ZM39.9727 14.5H38.6517C38.5735 14.12 38.4368 13.7862 38.2415 13.4986C38.0497 13.2109 37.8154 12.9695 37.5384 12.7741C37.2649 12.5753 36.9613 12.4261 36.6275 12.3267C36.2937 12.2273 35.9457 12.1776 35.5835 12.1776C34.923 12.1776 34.3246 12.3445 33.7884 12.6783C33.2557 13.0121 32.8313 13.5039 32.5153 14.1538C32.2028 14.8036 32.0465 15.6009 32.0465 16.5455C32.0465 17.4901 32.2028 18.2873 32.5153 18.9371C32.8313 19.587 33.2557 20.0788 33.7884 20.4126C34.3246 20.7464 34.923 20.9134 35.5835 20.9134C35.9457 20.9134 36.2937 20.8636 36.6275 20.7642C36.9613 20.6648 37.2649 20.5174 37.5384 20.3221C37.8154 20.1232 38.0497 19.88 38.2415 19.5923C38.4368 19.3011 38.5735 18.9673 38.6517 18.5909H39.9727C39.8732 19.1484 39.6921 19.6474 39.4293 20.0877C39.1666 20.5281 38.8399 20.9027 38.4492 21.2116C38.0586 21.517 37.62 21.7496 37.1335 21.9094C36.6506 22.0692 36.1339 22.1491 35.5835 22.1491C34.6531 22.1491 33.8257 21.9219 33.1012 21.4673C32.3768 21.0128 31.8068 20.3665 31.3914 19.5284C30.9759 18.6903 30.7681 17.696 30.7681 16.5455C30.7681 15.3949 30.9759 14.4006 31.3914 13.5625C31.8068 12.7244 32.3768 12.0781 33.1012 11.6236C33.8257 11.169 34.6531 10.9418 35.5835 10.9418C36.1339 10.9418 36.6506 11.0217 37.1335 11.1815C37.62 11.3413 38.0586 11.5756 38.4492 11.8846C38.8399 12.19 39.1666 12.5629 39.4293 13.0032C39.6921 13.44 39.8732 13.9389 39.9727 14.5ZM47.1843 22V21.0412L50.7852 17.0994C51.2078 16.6378 51.5558 16.2365 51.8292 15.8956C52.1027 15.5511 52.3051 15.228 52.4365 14.9261C52.5714 14.6207 52.6389 14.3011 52.6389 13.9673C52.6389 13.5838 52.5466 13.2518 52.3619 12.9712C52.1808 12.6907 51.9322 12.4741 51.6162 12.3214C51.3001 12.1687 50.945 12.0923 50.5508 12.0923C50.1318 12.0923 49.766 12.1793 49.4535 12.3533C49.1446 12.5238 48.9049 12.7635 48.7344 13.0724C48.5675 13.3814 48.4841 13.7436 48.4841 14.1591H47.227C47.227 13.5199 47.3743 12.9588 47.6691 12.4759C47.9638 11.9929 48.3651 11.6165 48.8729 11.3466C49.3843 11.0767 49.9578 10.9418 50.5934 10.9418C51.2326 10.9418 51.799 11.0767 52.2926 11.3466C52.7863 11.6165 53.1733 11.9805 53.4539 12.4386C53.7344 12.8967 53.8747 13.4062 53.8747 13.9673C53.8747 14.3686 53.8019 14.761 53.6563 15.1445C53.5142 15.5245 53.2657 15.9489 52.9105 16.4176C52.559 16.8828 52.0707 17.451 51.4457 18.1222L48.9954 20.7429V20.8281H54.0664V22H47.1843Z" fill="white"/>
<path d="M73 16L60 1L209.5 1.5L223.5 17L209.5 31H59L73 16Z" fill="#EEEEEE"/>
<rect x="198" y="35" width="121" height="15" rx="4" fill="#FBE5FF"/>
<path d="M213.639 46V40.1818H215.77C216.183 40.1818 216.525 40.25 216.795 40.3864C217.066 40.5208 217.269 40.7036 217.403 40.9347C217.538 41.1638 217.605 41.4223 217.605 41.7102C217.605 41.9527 217.561 42.1572 217.472 42.3239C217.383 42.4886 217.263 42.6212 217.114 42.7216C216.966 42.8201 216.803 42.892 216.625 42.9375V42.9943C216.818 43.0038 217.007 43.0663 217.19 43.1818C217.376 43.2955 217.529 43.4574 217.651 43.6676C217.772 43.8778 217.832 44.1335 217.832 44.4347C217.832 44.732 217.762 44.9991 217.622 45.2358C217.484 45.4706 217.27 45.6572 216.98 45.7955C216.69 45.9318 216.32 46 215.869 46H213.639ZM214.517 45.2472H215.784C216.205 45.2472 216.506 45.1657 216.688 45.0028C216.869 44.84 216.96 44.6364 216.96 44.392C216.96 44.2083 216.914 44.0398 216.821 43.8864C216.728 43.733 216.596 43.6108 216.423 43.5199C216.253 43.429 216.05 43.3835 215.815 43.3835H214.517V45.2472ZM214.517 42.6989H215.693C215.89 42.6989 216.067 42.661 216.224 42.5852C216.384 42.5095 216.509 42.4034 216.602 42.267C216.697 42.1288 216.744 41.9659 216.744 41.7784C216.744 41.5379 216.66 41.3362 216.491 41.1733C216.323 41.0104 216.064 40.929 215.716 40.929H214.517V42.6989ZM220.075 46.0966C219.799 46.0966 219.549 46.0455 219.325 45.9432C219.102 45.839 218.925 45.6884 218.794 45.4915C218.665 45.2945 218.601 45.053 218.601 44.767C218.601 44.5208 218.648 44.3182 218.743 44.1591C218.838 44 218.965 43.8741 219.126 43.7812C219.287 43.6884 219.467 43.6184 219.666 43.571C219.865 43.5237 220.068 43.4877 220.274 43.4631C220.536 43.4328 220.748 43.4081 220.911 43.3892C221.073 43.3684 221.192 43.3352 221.266 43.2898C221.339 43.2443 221.376 43.1705 221.376 43.0682V43.0483C221.376 42.8002 221.306 42.608 221.166 42.4716C221.028 42.3352 220.821 42.267 220.547 42.267C220.261 42.267 220.036 42.3305 219.871 42.4574C219.708 42.5824 219.595 42.7216 219.533 42.875L218.734 42.6932C218.829 42.428 218.967 42.214 219.149 42.0511C219.333 41.8864 219.544 41.767 219.783 41.6932C220.021 41.6174 220.272 41.5795 220.536 41.5795C220.71 41.5795 220.894 41.6004 221.089 41.642C221.286 41.6818 221.47 41.7557 221.641 41.8636C221.813 41.9716 221.954 42.1259 222.064 42.3267C222.174 42.5256 222.229 42.7841 222.229 43.1023V46H221.399V45.4034H221.365C221.31 45.5133 221.228 45.6212 221.118 45.7273C221.008 45.8333 220.867 45.9214 220.695 45.9915C220.522 46.0616 220.316 46.0966 220.075 46.0966ZM220.26 45.4148C220.495 45.4148 220.696 45.3684 220.862 45.2756C221.031 45.1828 221.159 45.0616 221.246 44.9119C221.335 44.7604 221.379 44.5985 221.379 44.4261V43.8636C221.349 43.8939 221.29 43.9223 221.203 43.9489C221.118 43.9735 221.02 43.9953 220.911 44.0142C220.801 44.0312 220.694 44.0473 220.589 44.0625C220.485 44.0758 220.398 44.0871 220.328 44.0966C220.163 44.1174 220.013 44.1525 219.876 44.2017C219.742 44.2509 219.634 44.322 219.553 44.4148C219.473 44.5057 219.433 44.6269 219.433 44.7784C219.433 44.9886 219.511 45.1477 219.666 45.2557C219.821 45.3617 220.019 45.4148 220.26 45.4148ZM226.63 42.7017L225.86 42.8381C225.828 42.7396 225.777 42.6458 225.707 42.5568C225.638 42.4678 225.546 42.3949 225.428 42.3381C225.311 42.2812 225.164 42.2528 224.988 42.2528C224.747 42.2528 224.547 42.3068 224.386 42.4148C224.225 42.5208 224.144 42.6581 224.144 42.8267C224.144 42.9725 224.198 43.09 224.306 43.179C224.414 43.268 224.588 43.3409 224.829 43.3977L225.522 43.5568C225.924 43.6496 226.223 43.7926 226.42 43.9858C226.617 44.179 226.715 44.4299 226.715 44.7386C226.715 45 226.639 45.233 226.488 45.4375C226.338 45.6402 226.129 45.7992 225.86 45.9148C225.593 46.0303 225.283 46.0881 224.931 46.0881C224.442 46.0881 224.044 45.9839 223.735 45.7756C223.426 45.5653 223.237 45.267 223.167 44.8807L223.988 44.7557C224.039 44.9697 224.144 45.1316 224.303 45.2415C224.462 45.3494 224.67 45.4034 224.925 45.4034C225.204 45.4034 225.426 45.3456 225.593 45.2301C225.76 45.1127 225.843 44.9697 225.843 44.8011C225.843 44.6648 225.792 44.5502 225.69 44.4574C225.589 44.3646 225.435 44.2945 225.227 44.2472L224.488 44.0852C224.081 43.9924 223.78 43.8447 223.585 43.642C223.391 43.4394 223.295 43.1828 223.295 42.8722C223.295 42.6146 223.367 42.3892 223.511 42.196C223.655 42.0028 223.853 41.8523 224.107 41.7443C224.361 41.6345 224.652 41.5795 224.979 41.5795C225.451 41.5795 225.822 41.6818 226.093 41.8864C226.364 42.089 226.543 42.3608 226.63 42.7017ZM229.53 46.0881C229.1 46.0881 228.73 45.9962 228.419 45.8125C228.11 45.6269 227.872 45.3665 227.703 45.0312C227.536 44.6941 227.453 44.2992 227.453 43.8466C227.453 43.3996 227.536 43.0057 227.703 42.6648C227.872 42.3239 228.107 42.0578 228.408 41.8665C228.711 41.6752 229.065 41.5795 229.47 41.5795C229.716 41.5795 229.955 41.6203 230.186 41.7017C230.417 41.7831 230.625 41.911 230.808 42.0852C230.992 42.2595 231.137 42.4858 231.243 42.7642C231.349 43.0407 231.402 43.3769 231.402 43.7727V44.0739H227.933V43.4375H230.57C230.57 43.214 230.524 43.0161 230.433 42.8438C230.342 42.6695 230.214 42.5322 230.05 42.4318C229.887 42.3314 229.696 42.2812 229.476 42.2812C229.237 42.2812 229.029 42.34 228.851 42.4574C228.675 42.5729 228.538 42.7244 228.442 42.9119C228.347 43.0975 228.3 43.2992 228.3 43.517V44.0142C228.3 44.3059 228.351 44.554 228.453 44.7585C228.557 44.9631 228.702 45.1193 228.888 45.2273C229.073 45.3333 229.29 45.3864 229.538 45.3864C229.699 45.3864 229.846 45.3636 229.979 45.3182C230.111 45.2708 230.226 45.2008 230.322 45.108C230.419 45.0152 230.493 44.9006 230.544 44.7642L231.348 44.9091C231.284 45.1458 231.168 45.3532 231.001 45.5312C230.837 45.7074 230.629 45.8447 230.379 45.9432C230.131 46.0398 229.848 46.0881 229.53 46.0881ZM236.095 46.0852C235.743 46.0852 235.429 45.9953 235.152 45.8153C234.877 45.6335 234.661 45.375 234.504 45.0398C234.349 44.7027 234.271 44.2983 234.271 43.8267C234.271 43.3551 234.35 42.9517 234.507 42.6165C234.666 42.2812 234.884 42.0246 235.161 41.8466C235.437 41.6686 235.75 41.5795 236.101 41.5795C236.372 41.5795 236.589 41.625 236.754 41.7159C236.921 41.8049 237.05 41.9091 237.141 42.0284C237.233 42.1477 237.305 42.2528 237.357 42.3438H237.408V40.1818H238.257V46H237.428V45.321H237.357C237.305 45.4138 237.232 45.5199 237.135 45.6392C237.04 45.7585 236.91 45.8627 236.743 45.9517C236.576 46.0407 236.36 46.0852 236.095 46.0852ZM236.283 45.3608C236.527 45.3608 236.733 45.2964 236.902 45.1676C237.072 45.0369 237.201 44.8561 237.288 44.625C237.377 44.3939 237.422 44.125 237.422 43.8182C237.422 43.5152 237.378 43.25 237.291 43.0227C237.204 42.7955 237.076 42.6184 236.908 42.4915C236.739 42.3646 236.531 42.3011 236.283 42.3011C236.027 42.3011 235.814 42.3674 235.643 42.5C235.473 42.6326 235.344 42.8134 235.257 43.0426C235.172 43.2718 235.129 43.5303 235.129 43.8182C235.129 44.1098 235.173 44.3722 235.26 44.6051C235.347 44.8381 235.476 45.0227 235.646 45.1591C235.819 45.2936 236.031 45.3608 236.283 45.3608ZM239.469 46V41.6364H240.319V46H239.469ZM239.898 40.9631C239.751 40.9631 239.624 40.9138 239.518 40.8153C239.414 40.715 239.362 40.5956 239.362 40.4574C239.362 40.3172 239.414 40.1979 239.518 40.0994C239.624 39.9991 239.751 39.9489 239.898 39.9489C240.046 39.9489 240.172 39.9991 240.276 40.0994C240.382 40.1979 240.435 40.3172 240.435 40.4574C240.435 40.5956 240.382 40.715 240.276 40.8153C240.172 40.9138 240.046 40.9631 239.898 40.9631ZM242.732 46.0966C242.455 46.0966 242.205 46.0455 241.982 45.9432C241.758 45.839 241.581 45.6884 241.45 45.4915C241.321 45.2945 241.257 45.053 241.257 44.767C241.257 44.5208 241.304 44.3182 241.399 44.1591C241.494 44 241.622 43.8741 241.783 43.7812C241.944 43.6884 242.124 43.6184 242.322 43.571C242.521 43.5237 242.724 43.4877 242.93 43.4631C243.192 43.4328 243.404 43.4081 243.567 43.3892C243.73 43.3684 243.848 43.3352 243.922 43.2898C243.996 43.2443 244.033 43.1705 244.033 43.0682V43.0483C244.033 42.8002 243.963 42.608 243.822 42.4716C243.684 42.3352 243.478 42.267 243.203 42.267C242.917 42.267 242.692 42.3305 242.527 42.4574C242.364 42.5824 242.251 42.7216 242.189 42.875L241.391 42.6932C241.485 42.428 241.624 42.214 241.805 42.0511C241.989 41.8864 242.2 41.767 242.439 41.6932C242.678 41.6174 242.929 41.5795 243.192 41.5795C243.366 41.5795 243.551 41.6004 243.746 41.642C243.943 41.6818 244.126 41.7557 244.297 41.8636C244.469 41.9716 244.61 42.1259 244.72 42.3267C244.83 42.5256 244.885 42.7841 244.885 43.1023V46H244.055V45.4034H244.021C243.966 45.5133 243.884 45.6212 243.774 45.7273C243.664 45.8333 243.523 45.9214 243.351 45.9915C243.179 46.0616 242.972 46.0966 242.732 46.0966ZM242.916 45.4148C243.151 45.4148 243.352 45.3684 243.518 45.2756C243.687 45.1828 243.815 45.0616 243.902 44.9119C243.991 44.7604 244.036 44.5985 244.036 44.4261V43.8636C244.005 43.8939 243.946 43.9223 243.859 43.9489C243.774 43.9735 243.677 43.9953 243.567 44.0142C243.457 44.0312 243.35 44.0473 243.246 44.0625C243.142 44.0758 243.054 44.0871 242.984 44.0966C242.82 44.1174 242.669 44.1525 242.533 44.2017C242.398 44.2509 242.29 44.322 242.209 44.4148C242.129 44.5057 242.089 44.6269 242.089 44.7784C242.089 44.9886 242.167 45.1477 242.322 45.2557C242.478 45.3617 242.676 45.4148 242.916 45.4148ZM246.016 46V41.6364H246.837V42.3295H246.883C246.962 42.0947 247.103 41.91 247.303 41.7756C247.506 41.6392 247.735 41.571 247.991 41.571C248.044 41.571 248.106 41.5729 248.178 41.5767C248.252 41.5805 248.31 41.5852 248.352 41.5909V42.4034C248.317 42.3939 248.257 42.3835 248.17 42.3722C248.083 42.3589 247.996 42.3523 247.908 42.3523C247.708 42.3523 247.529 42.3949 247.371 42.4801C247.216 42.5634 247.093 42.6799 247.002 42.8295C246.911 42.9773 246.866 43.1458 246.866 43.3352V46H246.016ZM249.087 46V41.6364H249.936V46H249.087ZM249.516 40.9631C249.368 40.9631 249.241 40.9138 249.135 40.8153C249.031 40.715 248.979 40.5956 248.979 40.4574C248.979 40.3172 249.031 40.1979 249.135 40.0994C249.241 39.9991 249.368 39.9489 249.516 39.9489C249.663 39.9489 249.789 39.9991 249.893 40.0994C250 40.1979 250.053 40.3172 250.053 40.4574C250.053 40.5956 250 40.715 249.893 40.8153C249.789 40.9138 249.663 40.9631 249.516 40.9631ZM252.349 46.0966C252.072 46.0966 251.822 46.0455 251.599 45.9432C251.375 45.839 251.198 45.6884 251.067 45.4915C250.939 45.2945 250.874 45.053 250.874 44.767C250.874 44.5208 250.922 44.3182 251.016 44.1591C251.111 44 251.239 43.8741 251.4 43.7812C251.561 43.6884 251.741 43.6184 251.94 43.571C252.138 43.5237 252.341 43.4877 252.548 43.4631C252.809 43.4328 253.021 43.4081 253.184 43.3892C253.347 43.3684 253.465 43.3352 253.539 43.2898C253.613 43.2443 253.65 43.1705 253.65 43.0682V43.0483C253.65 42.8002 253.58 42.608 253.44 42.4716C253.301 42.3352 253.095 42.267 252.82 42.267C252.534 42.267 252.309 42.3305 252.144 42.4574C251.981 42.5824 251.869 42.7216 251.806 42.875L251.008 42.6932C251.103 42.428 251.241 42.214 251.423 42.0511C251.606 41.8864 251.817 41.767 252.056 41.6932C252.295 41.6174 252.546 41.5795 252.809 41.5795C252.983 41.5795 253.168 41.6004 253.363 41.642C253.56 41.6818 253.744 41.7557 253.914 41.8636C254.086 41.9716 254.228 42.1259 254.337 42.3267C254.447 42.5256 254.502 42.7841 254.502 43.1023V46H253.673V45.4034H253.638C253.584 45.5133 253.501 45.6212 253.391 45.7273C253.281 45.8333 253.14 45.9214 252.968 45.9915C252.796 46.0616 252.589 46.0966 252.349 46.0966ZM252.533 45.4148C252.768 45.4148 252.969 45.3684 253.136 45.2756C253.304 45.1828 253.432 45.0616 253.519 44.9119C253.608 44.7604 253.653 44.5985 253.653 44.4261V43.8636C253.622 43.8939 253.564 43.9223 253.477 43.9489C253.391 43.9735 253.294 43.9953 253.184 44.0142C253.074 44.0312 252.967 44.0473 252.863 44.0625C252.759 44.0758 252.672 44.0871 252.602 44.0966C252.437 44.1174 252.286 44.1525 252.15 44.2017C252.015 44.2509 251.907 44.322 251.826 44.4148C251.746 44.5057 251.707 44.6269 251.707 44.7784C251.707 44.9886 251.784 45.1477 251.94 45.2557C252.095 45.3617 252.293 45.4148 252.533 45.4148ZM256.193 46.054C256.038 46.054 255.904 45.9991 255.793 45.8892C255.681 45.7775 255.625 45.643 255.625 45.4858C255.625 45.3305 255.681 45.1979 255.793 45.0881C255.904 44.9763 256.038 44.9205 256.193 44.9205C256.348 44.9205 256.482 44.9763 256.594 45.0881C256.705 45.1979 256.761 45.3305 256.761 45.4858C256.761 45.59 256.735 45.6856 256.682 45.7727C256.631 45.858 256.562 45.9261 256.477 45.9773C256.392 46.0284 256.297 46.054 256.193 46.054ZM256.193 42.8778C256.038 42.8778 255.904 42.822 255.793 42.7102C255.681 42.5985 255.625 42.465 255.625 42.3097C255.625 42.1544 255.681 42.0218 255.793 41.9119C255.904 41.8002 256.038 41.7443 256.193 41.7443C256.348 41.7443 256.482 41.8002 256.594 41.9119C256.705 42.0218 256.761 42.1544 256.761 42.3097C256.761 42.4138 256.735 42.5095 256.682 42.5966C256.631 42.6818 256.562 42.75 256.477 42.8011C256.392 42.8523 256.297 42.8778 256.193 42.8778ZM262.036 46.0795C261.777 46.0758 261.521 46.0284 261.269 45.9375C261.019 45.8466 260.792 45.6951 260.587 45.483C260.383 45.2708 260.219 44.9858 260.096 44.6278C259.975 44.2699 259.914 43.8229 259.914 43.2869C259.914 42.7794 259.964 42.3286 260.065 41.9347C260.167 41.5407 260.314 41.2083 260.505 40.9375C260.696 40.6648 260.927 40.4574 261.198 40.3153C261.469 40.1733 261.773 40.1023 262.11 40.1023C262.457 40.1023 262.764 40.1705 263.033 40.3068C263.302 40.4432 263.52 40.6316 263.687 40.8722C263.855 41.1127 263.962 41.3864 264.008 41.6932H263.141C263.083 41.4508 262.966 41.2528 262.792 41.0994C262.618 40.946 262.39 40.8693 262.11 40.8693C261.684 40.8693 261.352 41.0549 261.113 41.4261C260.876 41.7973 260.757 42.3134 260.755 42.9744H260.798C260.898 42.8097 261.021 42.6695 261.167 42.554C261.315 42.4366 261.479 42.3466 261.661 42.2841C261.845 42.2197 262.038 42.1875 262.241 42.1875C262.578 42.1875 262.883 42.2699 263.156 42.4347C263.43 42.5975 263.649 42.8229 263.812 43.1108C263.975 43.3987 264.056 43.7282 264.056 44.0994C264.056 44.4706 263.972 44.8068 263.803 45.108C263.637 45.4091 263.402 45.6477 263.099 45.8239C262.796 45.9981 262.442 46.0833 262.036 46.0795ZM262.033 45.3409C262.257 45.3409 262.457 45.286 262.633 45.1761C262.809 45.0663 262.948 44.9186 263.05 44.733C263.153 44.5473 263.204 44.34 263.204 44.1108C263.204 43.8873 263.154 43.6837 263.053 43.5C262.955 43.3163 262.818 43.1705 262.644 43.0625C262.472 42.9545 262.275 42.9006 262.053 42.9006C261.885 42.9006 261.728 42.9328 261.585 42.9972C261.442 43.0616 261.317 43.1506 261.21 43.2642C261.102 43.3778 261.016 43.5085 260.954 43.6562C260.893 43.8021 260.863 43.9564 260.863 44.1193C260.863 44.3371 260.913 44.5388 261.013 44.7244C261.116 44.91 261.255 45.0597 261.431 45.1733C261.609 45.285 261.81 45.3409 262.033 45.3409ZM267.122 46.0795C266.863 46.0758 266.607 46.0284 266.355 45.9375C266.105 45.8466 265.878 45.6951 265.673 45.483C265.469 45.2708 265.305 44.9858 265.182 44.6278C265.061 44.2699 265 43.8229 265 43.2869C265 42.7794 265.05 42.3286 265.151 41.9347C265.253 41.5407 265.4 41.2083 265.591 40.9375C265.782 40.6648 266.013 40.4574 266.284 40.3153C266.555 40.1733 266.859 40.1023 267.196 40.1023C267.543 40.1023 267.85 40.1705 268.119 40.3068C268.388 40.4432 268.606 40.6316 268.773 40.8722C268.941 41.1127 269.048 41.3864 269.094 41.6932H268.227C268.169 41.4508 268.052 41.2528 267.878 41.0994C267.704 40.946 267.476 40.8693 267.196 40.8693C266.77 40.8693 266.438 41.0549 266.199 41.4261C265.962 41.7973 265.843 42.3134 265.841 42.9744H265.884C265.984 42.8097 266.107 42.6695 266.253 42.554C266.401 42.4366 266.565 42.3466 266.747 42.2841C266.931 42.2197 267.124 42.1875 267.327 42.1875C267.664 42.1875 267.969 42.2699 268.241 42.4347C268.516 42.5975 268.735 42.8229 268.898 43.1108C269.061 43.3987 269.142 43.7282 269.142 44.0994C269.142 44.4706 269.058 44.8068 268.889 45.108C268.723 45.4091 268.488 45.6477 268.185 45.8239C267.882 45.9981 267.527 46.0833 267.122 46.0795ZM267.119 45.3409C267.343 45.3409 267.543 45.286 267.719 45.1761C267.895 45.0663 268.034 44.9186 268.136 44.733C268.239 44.5473 268.29 44.34 268.29 44.1108C268.29 43.8873 268.24 43.6837 268.139 43.5C268.041 43.3163 267.904 43.1705 267.73 43.0625C267.558 42.9545 267.361 42.9006 267.139 42.9006C266.971 42.9006 266.814 42.9328 266.67 42.9972C266.528 43.0616 266.403 43.1506 266.295 43.2642C266.188 43.3778 266.102 43.5085 266.04 43.6562C265.979 43.8021 265.949 43.9564 265.949 44.1193C265.949 44.3371 265.999 44.5388 266.099 44.7244C266.202 44.91 266.341 45.0597 266.517 45.1733C266.695 45.285 266.896 45.3409 267.119 45.3409ZM271.028 45.2045L270.985 45.5142C270.957 45.7415 270.908 45.9782 270.84 46.2244C270.774 46.4725 270.705 46.7027 270.633 46.9148C270.563 47.1269 270.505 47.2955 270.46 47.4205H269.857C269.882 47.303 269.916 47.1439 269.96 46.9432C270.003 46.7443 270.046 46.5218 270.087 46.2756C270.129 46.0294 270.16 45.7784 270.181 45.5227L270.21 45.2045H271.028ZM274.036 46.0795C273.777 46.0758 273.521 46.0284 273.269 45.9375C273.019 45.8466 272.792 45.6951 272.587 45.483C272.383 45.2708 272.219 44.9858 272.096 44.6278C271.975 44.2699 271.914 43.8229 271.914 43.2869C271.914 42.7794 271.964 42.3286 272.065 41.9347C272.167 41.5407 272.314 41.2083 272.505 40.9375C272.696 40.6648 272.927 40.4574 273.198 40.3153C273.469 40.1733 273.773 40.1023 274.11 40.1023C274.457 40.1023 274.764 40.1705 275.033 40.3068C275.302 40.4432 275.52 40.6316 275.687 40.8722C275.855 41.1127 275.962 41.3864 276.008 41.6932H275.141C275.083 41.4508 274.966 41.2528 274.792 41.0994C274.618 40.946 274.39 40.8693 274.11 40.8693C273.684 40.8693 273.352 41.0549 273.113 41.4261C272.876 41.7973 272.757 42.3134 272.755 42.9744H272.798C272.898 42.8097 273.021 42.6695 273.167 42.554C273.315 42.4366 273.479 42.3466 273.661 42.2841C273.845 42.2197 274.038 42.1875 274.241 42.1875C274.578 42.1875 274.883 42.2699 275.156 42.4347C275.43 42.5975 275.649 42.8229 275.812 43.1108C275.975 43.3987 276.056 43.7282 276.056 44.0994C276.056 44.4706 275.972 44.8068 275.803 45.108C275.637 45.4091 275.402 45.6477 275.099 45.8239C274.796 45.9981 274.442 46.0833 274.036 46.0795ZM274.033 45.3409C274.257 45.3409 274.457 45.286 274.633 45.1761C274.809 45.0663 274.948 44.9186 275.05 44.733C275.153 44.5473 275.204 44.34 275.204 44.1108C275.204 43.8873 275.154 43.6837 275.053 43.5C274.955 43.3163 274.818 43.1705 274.644 43.0625C274.472 42.9545 274.275 42.9006 274.053 42.9006C273.885 42.9006 273.728 42.9328 273.585 42.9972C273.442 43.0616 273.317 43.1506 273.21 43.2642C273.102 43.3778 273.016 43.5085 272.954 43.6562C272.893 43.8021 272.863 43.9564 272.863 44.1193C272.863 44.3371 272.913 44.5388 273.013 44.7244C273.116 44.91 273.255 45.0597 273.431 45.1733C273.609 45.285 273.81 45.3409 274.033 45.3409ZM279.122 46.0795C278.863 46.0758 278.607 46.0284 278.355 45.9375C278.105 45.8466 277.878 45.6951 277.673 45.483C277.469 45.2708 277.305 44.9858 277.182 44.6278C277.061 44.2699 277 43.8229 277 43.2869C277 42.7794 277.05 42.3286 277.151 41.9347C277.253 41.5407 277.4 41.2083 277.591 40.9375C277.782 40.6648 278.013 40.4574 278.284 40.3153C278.555 40.1733 278.859 40.1023 279.196 40.1023C279.543 40.1023 279.85 40.1705 280.119 40.3068C280.388 40.4432 280.606 40.6316 280.773 40.8722C280.941 41.1127 281.048 41.3864 281.094 41.6932H280.227C280.169 41.4508 280.052 41.2528 279.878 41.0994C279.704 40.946 279.476 40.8693 279.196 40.8693C278.77 40.8693 278.438 41.0549 278.199 41.4261C277.962 41.7973 277.843 42.3134 277.841 42.9744H277.884C277.984 42.8097 278.107 42.6695 278.253 42.554C278.401 42.4366 278.565 42.3466 278.747 42.2841C278.931 42.2197 279.124 42.1875 279.327 42.1875C279.664 42.1875 279.969 42.2699 280.241 42.4347C280.516 42.5975 280.735 42.8229 280.898 43.1108C281.061 43.3987 281.142 43.7282 281.142 44.0994C281.142 44.4706 281.058 44.8068 280.889 45.108C280.723 45.4091 280.488 45.6477 280.185 45.8239C279.882 45.9981 279.527 46.0833 279.122 46.0795ZM279.119 45.3409C279.343 45.3409 279.543 45.286 279.719 45.1761C279.895 45.0663 280.034 44.9186 280.136 44.733C280.239 44.5473 280.29 44.34 280.29 44.1108C280.29 43.8873 280.24 43.6837 280.139 43.5C280.041 43.3163 279.904 43.1705 279.73 43.0625C279.558 42.9545 279.361 42.9006 279.139 42.9006C278.971 42.9006 278.814 42.9328 278.67 42.9972C278.528 43.0616 278.403 43.1506 278.295 43.2642C278.188 43.3778 278.102 43.5085 278.04 43.6562C277.979 43.8021 277.949 43.9564 277.949 44.1193C277.949 44.3371 277.999 44.5388 278.099 44.7244C278.202 44.91 278.341 45.0597 278.517 45.1733C278.695 45.285 278.896 45.3409 279.119 45.3409ZM284.208 46.0795C283.949 46.0758 283.693 46.0284 283.441 45.9375C283.191 45.8466 282.964 45.6951 282.759 45.483C282.555 45.2708 282.391 44.9858 282.268 44.6278C282.147 44.2699 282.086 43.8229 282.086 43.2869C282.086 42.7794 282.136 42.3286 282.237 41.9347C282.339 41.5407 282.486 41.2083 282.677 40.9375C282.868 40.6648 283.099 40.4574 283.37 40.3153C283.641 40.1733 283.945 40.1023 284.282 40.1023C284.629 40.1023 284.936 40.1705 285.205 40.3068C285.474 40.4432 285.692 40.6316 285.859 40.8722C286.027 41.1127 286.134 41.3864 286.18 41.6932H285.313C285.254 41.4508 285.138 41.2528 284.964 41.0994C284.79 40.946 284.562 40.8693 284.282 40.8693C283.856 40.8693 283.523 41.0549 283.285 41.4261C283.048 41.7973 282.929 42.3134 282.927 42.9744H282.969C283.07 42.8097 283.193 42.6695 283.339 42.554C283.487 42.4366 283.651 42.3466 283.833 42.2841C284.017 42.2197 284.21 42.1875 284.413 42.1875C284.75 42.1875 285.055 42.2699 285.327 42.4347C285.602 42.5975 285.821 42.8229 285.984 43.1108C286.147 43.3987 286.228 43.7282 286.228 44.0994C286.228 44.4706 286.144 44.8068 285.975 45.108C285.808 45.4091 285.574 45.6477 285.271 45.8239C284.968 45.9981 284.613 46.0833 284.208 46.0795ZM284.205 45.3409C284.429 45.3409 284.629 45.286 284.805 45.1761C284.981 45.0663 285.12 44.9186 285.222 44.733C285.325 44.5473 285.376 44.34 285.376 44.1108C285.376 43.8873 285.326 43.6837 285.225 43.5C285.127 43.3163 284.99 43.1705 284.816 43.0625C284.644 42.9545 284.447 42.9006 284.225 42.9006C284.057 42.9006 283.9 42.9328 283.756 42.9972C283.614 43.0616 283.489 43.1506 283.381 43.2642C283.273 43.3778 283.188 43.5085 283.126 43.6562C283.065 43.8021 283.035 43.9564 283.035 44.1193C283.035 44.3371 283.085 44.5388 283.185 44.7244C283.288 44.91 283.427 45.0597 283.603 45.1733C283.781 45.285 283.982 45.3409 284.205 45.3409ZM287.568 46.054C287.413 46.054 287.279 45.9991 287.168 45.8892C287.056 45.7775 287 45.643 287 45.4858C287 45.3305 287.056 45.1979 287.168 45.0881C287.279 44.9763 287.413 44.9205 287.568 44.9205C287.723 44.9205 287.857 44.9763 287.969 45.0881C288.08 45.1979 288.136 45.3305 288.136 45.4858C288.136 45.59 288.11 45.6856 288.057 45.7727C288.006 45.858 287.938 45.9261 287.852 45.9773C287.767 46.0284 287.672 46.054 287.568 46.054ZM291.083 46.0795C290.824 46.0758 290.568 46.0284 290.316 45.9375C290.066 45.8466 289.839 45.6951 289.634 45.483C289.43 45.2708 289.266 44.9858 289.143 44.6278C289.022 44.2699 288.961 43.8229 288.961 43.2869C288.961 42.7794 289.011 42.3286 289.112 41.9347C289.214 41.5407 289.361 41.2083 289.552 40.9375C289.743 40.6648 289.974 40.4574 290.245 40.3153C290.516 40.1733 290.82 40.1023 291.157 40.1023C291.504 40.1023 291.811 40.1705 292.08 40.3068C292.349 40.4432 292.567 40.6316 292.734 40.8722C292.902 41.1127 293.009 41.3864 293.055 41.6932H292.188C292.129 41.4508 292.013 41.2528 291.839 41.0994C291.665 40.946 291.437 40.8693 291.157 40.8693C290.731 40.8693 290.398 41.0549 290.16 41.4261C289.923 41.7973 289.804 42.3134 289.802 42.9744H289.844C289.945 42.8097 290.068 42.6695 290.214 42.554C290.362 42.4366 290.526 42.3466 290.708 42.2841C290.892 42.2197 291.085 42.1875 291.288 42.1875C291.625 42.1875 291.93 42.2699 292.202 42.4347C292.477 42.5975 292.696 42.8229 292.859 43.1108C293.022 43.3987 293.103 43.7282 293.103 44.0994C293.103 44.4706 293.019 44.8068 292.85 45.108C292.683 45.4091 292.449 45.6477 292.146 45.8239C291.843 45.9981 291.488 46.0833 291.083 46.0795ZM291.08 45.3409C291.304 45.3409 291.504 45.286 291.68 45.1761C291.856 45.0663 291.995 44.9186 292.097 44.733C292.2 44.5473 292.251 44.34 292.251 44.1108C292.251 43.8873 292.201 43.6837 292.1 43.5C292.002 43.3163 291.865 43.1705 291.691 43.0625C291.519 42.9545 291.322 42.9006 291.1 42.9006C290.932 42.9006 290.775 42.9328 290.631 42.9972C290.489 43.0616 290.364 43.1506 290.256 43.2642C290.148 43.3778 290.063 43.5085 290.001 43.6562C289.94 43.8021 289.91 43.9564 289.91 44.1193C289.91 44.3371 289.96 44.5388 290.06 44.7244C290.163 44.91 290.302 45.0597 290.478 45.1733C290.656 45.285 290.857 45.3409 291.08 45.3409ZM294.334 46L296.874 40.9773V40.9347H293.936V40.1818H297.783V40.9602L295.251 46H294.334Z" fill="#A57CAD"/>
<path d="M92.4964 13.5455V23H91.0653V14.9766H91.0099L88.7479 16.4538V15.0874L91.1069 13.5455H92.4964ZM98.8005 23.1293C98.1665 23.1293 97.6002 23.02 97.1017 22.8015C96.6062 22.583 96.2138 22.2798 95.9245 21.892C95.6382 21.5012 95.4844 21.0488 95.4628 20.5348H96.9124C96.9309 20.8149 97.0247 21.058 97.194 21.2642C97.3663 21.4673 97.591 21.6243 97.868 21.7351C98.145 21.8459 98.4528 21.9013 98.7913 21.9013C99.1637 21.9013 99.493 21.8366 99.7792 21.7074C100.069 21.5781 100.295 21.3981 100.458 21.1673C100.621 20.9334 100.703 20.6641 100.703 20.3594C100.703 20.0424 100.621 19.7638 100.458 19.5238C100.298 19.2807 100.062 19.0898 99.7515 18.9513C99.4438 18.8129 99.0714 18.7436 98.6343 18.7436H97.8357V17.5803H98.6343C98.9852 17.5803 99.2929 17.5172 99.5576 17.391C99.8254 17.2648 100.035 17.0894 100.185 16.8647C100.336 16.637 100.412 16.3707 100.412 16.0661C100.412 15.7737 100.346 15.5198 100.213 15.3043C100.084 15.0858 99.8992 14.915 99.6592 14.7919C99.4222 14.6688 99.1421 14.6072 98.819 14.6072C98.5112 14.6072 98.2235 14.6642 97.9557 14.7781C97.691 14.8888 97.4756 15.0489 97.3094 15.2582C97.1432 15.4644 97.054 15.7121 97.0416 16.0014H95.6613C95.6767 15.4905 95.8275 15.0412 96.1137 14.6534C96.403 14.2656 96.7847 13.9625 97.2586 13.744C97.7326 13.5254 98.2589 13.4162 98.8375 13.4162C99.4438 13.4162 99.967 13.5347 100.407 13.7717C100.85 14.0056 101.192 14.3179 101.432 14.7088C101.675 15.0997 101.795 15.5275 101.792 15.9922C101.795 16.5215 101.647 16.9709 101.349 17.3402C101.053 17.7095 100.659 17.9573 100.167 18.0835V18.1573C100.795 18.2527 101.281 18.502 101.626 18.9052C101.974 19.3084 102.146 19.8085 102.143 20.4055C102.146 20.9257 102.001 21.3919 101.709 21.8043C101.42 22.2167 101.024 22.5414 100.522 22.7784C100.021 23.0123 99.4468 23.1293 98.8005 23.1293ZM107.634 23.1293C107 23.1293 106.434 23.02 105.936 22.8015C105.44 22.583 105.048 22.2798 104.758 21.892C104.472 21.5012 104.318 21.0488 104.297 20.5348H105.746C105.765 20.8149 105.859 21.058 106.028 21.2642C106.2 21.4673 106.425 21.6243 106.702 21.7351C106.979 21.8459 107.287 21.9013 107.625 21.9013C107.998 21.9013 108.327 21.8366 108.613 21.7074C108.902 21.5781 109.129 21.3981 109.292 21.1673C109.455 20.9334 109.536 20.6641 109.536 20.3594C109.536 20.0424 109.455 19.7638 109.292 19.5238C109.132 19.2807 108.896 19.0898 108.585 18.9513C108.278 18.8129 107.905 18.7436 107.468 18.7436H106.67V17.5803H107.468C107.819 17.5803 108.127 17.5172 108.392 17.391C108.659 17.2648 108.869 17.0894 109.019 16.8647C109.17 16.637 109.246 16.3707 109.246 16.0661C109.246 15.7737 109.179 15.5198 109.047 15.3043C108.918 15.0858 108.733 14.915 108.493 14.7919C108.256 14.6688 107.976 14.6072 107.653 14.6072C107.345 14.6072 107.057 14.6642 106.79 14.7781C106.525 14.8888 106.31 15.0489 106.143 15.2582C105.977 15.4644 105.888 15.7121 105.876 16.0014H104.495C104.511 15.4905 104.661 15.0412 104.948 14.6534C105.237 14.2656 105.619 13.9625 106.093 13.744C106.566 13.5254 107.093 13.4162 107.671 13.4162C108.278 13.4162 108.801 13.5347 109.241 13.7717C109.684 14.0056 110.026 14.3179 110.266 14.7088C110.509 15.0997 110.629 15.5275 110.626 15.9922C110.629 16.5215 110.481 16.9709 110.183 17.3402C109.887 17.7095 109.493 17.9573 109.001 18.0835V18.1573C109.629 18.2527 110.115 18.502 110.46 18.9052C110.807 19.3084 110.98 19.8085 110.977 20.4055C110.98 20.9257 110.835 21.3919 110.543 21.8043C110.254 22.2167 109.858 22.5414 109.356 22.7784C108.855 23.0123 108.281 23.1293 107.634 23.1293ZM114.712 21.7074L114.643 22.2106C114.596 22.5799 114.518 22.9646 114.407 23.3647C114.299 23.7679 114.187 24.1418 114.07 24.4865C113.956 24.8312 113.862 25.1051 113.788 25.3082H112.81C112.85 25.1174 112.905 24.8589 112.976 24.5327C113.047 24.2095 113.116 23.8479 113.184 23.4478C113.251 23.0477 113.302 22.6399 113.336 22.2244L113.382 21.7074H114.712ZM120.046 23.1293C119.412 23.1293 118.846 23.02 118.348 22.8015C117.852 22.583 117.46 22.2798 117.17 21.892C116.884 21.5012 116.73 21.0488 116.709 20.5348H118.158C118.177 20.8149 118.271 21.058 118.44 21.2642C118.612 21.4673 118.837 21.6243 119.114 21.7351C119.391 21.8459 119.699 21.9013 120.037 21.9013C120.41 21.9013 120.739 21.8366 121.025 21.7074C121.314 21.5781 121.541 21.3981 121.704 21.1673C121.867 20.9334 121.948 20.6641 121.948 20.3594C121.948 20.0424 121.867 19.7638 121.704 19.5238C121.544 19.2807 121.308 19.0898 120.997 18.9513C120.69 18.8129 120.317 18.7436 119.88 18.7436H119.082V17.5803H119.88C120.231 17.5803 120.539 17.5172 120.803 17.391C121.071 17.2648 121.281 17.0894 121.431 16.8647C121.582 16.637 121.658 16.3707 121.658 16.0661C121.658 15.7737 121.591 15.5198 121.459 15.3043C121.33 15.0858 121.145 14.915 120.905 14.7919C120.668 14.6688 120.388 14.6072 120.065 14.6072C119.757 14.6072 119.469 14.6642 119.202 14.7781C118.937 14.8888 118.721 15.0489 118.555 15.2582C118.389 15.4644 118.3 15.7121 118.288 16.0014H116.907C116.923 15.4905 117.073 15.0412 117.36 14.6534C117.649 14.2656 118.031 13.9625 118.504 13.744C118.978 13.5254 119.505 13.4162 120.083 13.4162C120.69 13.4162 121.213 13.5347 121.653 13.7717C122.096 14.0056 122.438 14.3179 122.678 14.7088C122.921 15.0997 123.041 15.5275 123.038 15.9922C123.041 16.5215 122.893 16.9709 122.595 17.3402C122.299 17.7095 121.905 17.9573 121.413 18.0835V18.1573C122.041 18.2527 122.527 18.502 122.872 18.9052C123.219 19.3084 123.392 19.8085 123.389 20.4055C123.392 20.9257 123.247 21.3919 122.955 21.8043C122.665 22.2167 122.27 22.5414 121.768 22.7784C121.267 23.0123 120.693 23.1293 120.046 23.1293ZM128.88 23.1293C128.246 23.1293 127.68 23.02 127.181 22.8015C126.686 22.583 126.294 22.2798 126.004 21.892C125.718 21.5012 125.564 21.0488 125.543 20.5348H126.992C127.011 20.8149 127.104 21.058 127.274 21.2642C127.446 21.4673 127.671 21.6243 127.948 21.7351C128.225 21.8459 128.533 21.9013 128.871 21.9013C129.243 21.9013 129.573 21.8366 129.859 21.7074C130.148 21.5781 130.374 21.3981 130.538 21.1673C130.701 20.9334 130.782 20.6641 130.782 20.3594C130.782 20.0424 130.701 19.7638 130.538 19.5238C130.378 19.2807 130.142 19.0898 129.831 18.9513C129.524 18.8129 129.151 18.7436 128.714 18.7436H127.915V17.5803H128.714C129.065 17.5803 129.373 17.5172 129.637 17.391C129.905 17.2648 130.114 17.0894 130.265 16.8647C130.416 16.637 130.491 16.3707 130.491 16.0661C130.491 15.7737 130.425 15.5198 130.293 15.3043C130.164 15.0858 129.979 14.915 129.739 14.7919C129.502 14.6688 129.222 14.6072 128.899 14.6072C128.591 14.6072 128.303 14.6642 128.035 14.7781C127.771 14.8888 127.555 15.0489 127.389 15.2582C127.223 15.4644 127.134 15.7121 127.121 16.0014H125.741C125.756 15.4905 125.907 15.0412 126.194 14.6534C126.483 14.2656 126.864 13.9625 127.338 13.744C127.812 13.5254 128.339 13.4162 128.917 13.4162C129.524 13.4162 130.047 13.5347 130.487 13.7717C130.93 14.0056 131.272 14.3179 131.512 14.7088C131.755 15.0997 131.875 15.5275 131.872 15.9922C131.875 16.5215 131.727 16.9709 131.429 17.3402C131.133 17.7095 130.739 17.9573 130.247 18.0835V18.1573C130.875 18.2527 131.361 18.502 131.706 18.9052C132.053 19.3084 132.226 19.8085 132.223 20.4055C132.226 20.9257 132.081 21.3919 131.789 21.8043C131.499 22.2167 131.104 22.5414 130.602 22.7784C130.101 23.0123 129.527 23.1293 128.88 23.1293ZM137.714 23.1293C137.08 23.1293 136.514 23.02 136.015 22.8015C135.52 22.583 135.127 22.2798 134.838 21.892C134.552 21.5012 134.398 21.0488 134.376 20.5348H135.826C135.845 20.8149 135.938 21.058 136.108 21.2642C136.28 21.4673 136.505 21.6243 136.782 21.7351C137.059 21.8459 137.366 21.9013 137.705 21.9013C138.077 21.9013 138.407 21.8366 138.693 21.7074C138.982 21.5781 139.208 21.3981 139.372 21.1673C139.535 20.9334 139.616 20.6641 139.616 20.3594C139.616 20.0424 139.535 19.7638 139.372 19.5238C139.211 19.2807 138.976 19.0898 138.665 18.9513C138.357 18.8129 137.985 18.7436 137.548 18.7436H136.749V17.5803H137.548C137.899 17.5803 138.207 17.5172 138.471 17.391C138.739 17.2648 138.948 17.0894 139.099 16.8647C139.25 16.637 139.325 16.3707 139.325 16.0661C139.325 15.7737 139.259 15.5198 139.127 15.3043C138.998 15.0858 138.813 14.915 138.573 14.7919C138.336 14.6688 138.056 14.6072 137.733 14.6072C137.425 14.6072 137.137 14.6642 136.869 14.7781C136.605 14.8888 136.389 15.0489 136.223 15.2582C136.057 15.4644 135.968 15.7121 135.955 16.0014H134.575C134.59 15.4905 134.741 15.0412 135.027 14.6534C135.317 14.2656 135.698 13.9625 136.172 13.744C136.646 13.5254 137.173 13.4162 137.751 13.4162C138.357 13.4162 138.881 13.5347 139.321 13.7717C139.764 14.0056 140.106 14.3179 140.346 14.7088C140.589 15.0997 140.709 15.5275 140.706 15.9922C140.709 16.5215 140.561 16.9709 140.262 17.3402C139.967 17.7095 139.573 17.9573 139.081 18.0835V18.1573C139.709 18.2527 140.195 18.502 140.539 18.9052C140.887 19.3084 141.06 19.8085 141.057 20.4055C141.06 20.9257 140.915 21.3919 140.623 21.8043C140.333 22.2167 139.938 22.5414 139.436 22.7784C138.934 23.0123 138.361 23.1293 137.714 23.1293ZM143.905 23.0877C143.653 23.0877 143.436 22.9985 143.254 22.82C143.073 22.6384 142.982 22.4199 142.982 22.1644C142.982 21.9121 143.073 21.6966 143.254 21.5181C143.436 21.3365 143.653 21.2457 143.905 21.2457C144.158 21.2457 144.375 21.3365 144.556 21.5181C144.738 21.6966 144.828 21.9121 144.828 22.1644C144.828 22.3337 144.785 22.4891 144.699 22.6307C144.616 22.7692 144.505 22.88 144.367 22.9631C144.228 23.0462 144.074 23.0877 143.905 23.0877ZM150.063 23.157C149.333 23.1539 148.71 22.9615 148.193 22.5799C147.676 22.1983 147.28 21.6428 147.007 20.9134C146.733 20.1839 146.596 19.3053 146.596 18.2773C146.596 17.2525 146.733 16.3769 147.007 15.6506C147.284 14.9242 147.681 14.3703 148.198 13.9886C148.718 13.607 149.339 13.4162 150.063 13.4162C150.786 13.4162 151.406 13.6085 151.923 13.9933C152.44 14.3749 152.836 14.9289 153.11 15.6552C153.387 16.3784 153.525 17.2525 153.525 18.2773C153.525 19.3084 153.388 20.1886 153.114 20.918C152.84 21.6443 152.445 22.1998 151.928 22.5845C151.411 22.9661 150.789 23.157 150.063 23.157ZM150.063 21.9244C150.703 21.9244 151.203 21.612 151.563 20.9872C151.926 20.3625 152.108 19.4592 152.108 18.2773C152.108 17.4925 152.025 16.8293 151.858 16.2876C151.695 15.7429 151.46 15.3305 151.152 15.0504C150.847 14.7673 150.484 14.6257 150.063 14.6257C149.426 14.6257 148.925 14.9396 148.562 15.5675C148.199 16.1953 148.016 17.0986 148.013 18.2773C148.013 19.0652 148.095 19.7315 148.258 20.2763C148.424 20.8179 148.659 21.2288 148.964 21.5089C149.269 21.7859 149.635 21.9244 150.063 21.9244ZM158.909 23.157C158.18 23.1539 157.557 22.9615 157.04 22.5799C156.523 22.1983 156.127 21.6428 155.853 20.9134C155.579 20.1839 155.442 19.3053 155.442 18.2773C155.442 17.2525 155.579 16.3769 155.853 15.6506C156.13 14.9242 156.527 14.3703 157.044 13.9886C157.564 13.607 158.186 13.4162 158.909 13.4162C159.633 13.4162 160.253 13.6085 160.77 13.9933C161.287 14.3749 161.682 14.9289 161.956 15.6552C162.233 16.3784 162.372 17.2525 162.372 18.2773C162.372 19.3084 162.235 20.1886 161.961 20.918C161.687 21.6443 161.291 22.1998 160.774 22.5845C160.257 22.9661 159.636 23.157 158.909 23.157ZM158.909 21.9244C159.549 21.9244 160.05 21.612 160.41 20.9872C160.773 20.3625 160.954 19.4592 160.954 18.2773C160.954 17.4925 160.871 16.8293 160.705 16.2876C160.542 15.7429 160.307 15.3305 159.999 15.0504C159.694 14.7673 159.331 14.6257 158.909 14.6257C158.272 14.6257 157.772 14.9396 157.409 15.5675C157.046 16.1953 156.863 17.0986 156.86 18.2773C156.86 19.0652 156.941 19.7315 157.104 20.2763C157.27 20.8179 157.506 21.2288 157.811 21.5089C158.115 21.7859 158.481 21.9244 158.909 21.9244Z" fill="#6F7173"/>
</svg>
