<svg width="155" height="11" viewBox="0 0 155 11" fill="none" xmlns="http://www.w3.org/2000/svg">
<path d="M1.72159 1.27273L4.15057 8.38068H4.24858L6.67756 1.27273H8.10085L4.96023 10H3.43892L0.298295 1.27273H1.72159ZM10.9392 10.1449C10.5244 10.1449 10.1494 10.0682 9.81418 9.91477C9.47895 9.75852 9.21332 9.53267 9.0173 9.23722C8.82412 8.94176 8.72753 8.57955 8.72753 8.15057C8.72753 7.78125 8.79855 7.47727 8.9406 7.23864C9.08264 7 9.2744 6.81108 9.51588 6.67188C9.75736 6.53267 10.0272 6.42756 10.3255 6.35653C10.6238 6.28551 10.9278 6.23153 11.2375 6.1946C11.6295 6.14915 11.9477 6.11222 12.192 6.08381C12.4363 6.05256 12.6139 6.00284 12.7247 5.93466C12.8355 5.86648 12.8909 5.75568 12.8909 5.60227V5.57244C12.8909 5.20028 12.7858 4.91193 12.5755 4.70739C12.3682 4.50284 12.0585 4.40057 11.6466 4.40057C11.2176 4.40057 10.8795 4.49574 10.6324 4.68608C10.388 4.87358 10.219 5.08239 10.1253 5.3125L8.92781 5.03977C9.06986 4.64205 9.27724 4.32102 9.54997 4.0767C9.82554 3.82955 10.1423 3.65057 10.5003 3.53977C10.8582 3.42614 11.2346 3.36932 11.6295 3.36932C11.8909 3.36932 12.1679 3.40057 12.4605 3.46307C12.7559 3.52273 13.0315 3.63352 13.2872 3.79545C13.5457 3.95739 13.7574 4.18892 13.9221 4.49006C14.0869 4.78835 14.1693 5.17614 14.1693 5.65341V10H12.925V9.10511H12.8738C12.7914 9.26989 12.6679 9.43182 12.5031 9.59091C12.3383 9.75 12.1267 9.8821 11.8682 9.98722C11.6096 10.0923 11.3 10.1449 10.9392 10.1449ZM11.2162 9.12216C11.5684 9.12216 11.8696 9.05256 12.1196 8.91335C12.3724 8.77415 12.5642 8.59233 12.6949 8.3679C12.8284 8.14062 12.8951 7.89773 12.8951 7.6392V6.79545C12.8497 6.84091 12.7616 6.88352 12.6309 6.9233C12.5031 6.96023 12.3568 6.9929 12.192 7.02131C12.0272 7.04687 11.8667 7.07102 11.7105 7.09375C11.5542 7.11364 11.4236 7.13068 11.3184 7.14489C11.0713 7.17614 10.8454 7.22869 10.6409 7.30256C10.4392 7.37642 10.2772 7.48295 10.1551 7.62216C10.0358 7.75852 9.97611 7.94034 9.97611 8.16761C9.97611 8.48295 10.0926 8.72159 10.3255 8.88352C10.5585 9.04261 10.8554 9.12216 11.2162 9.12216ZM19.0435 10.1321C18.41 10.1321 17.8645 9.98864 17.4071 9.7017C16.9526 9.41193 16.6031 9.01278 16.3588 8.50426C16.1145 7.99574 15.9923 7.41335 15.9923 6.7571C15.9923 6.09233 16.1173 5.50568 16.3673 4.99716C16.6173 4.4858 16.9696 4.08665 17.4242 3.79972C17.8787 3.51278 18.4142 3.36932 19.0307 3.36932C19.5279 3.36932 19.971 3.46165 20.3602 3.64631C20.7494 3.82812 21.0634 4.08381 21.302 4.41335C21.5435 4.7429 21.6869 5.12784 21.7324 5.56818H20.4923C20.4242 5.26136 20.2679 4.99716 20.0236 4.77557C19.7821 4.55398 19.4583 4.44318 19.052 4.44318C18.6969 4.44318 18.3858 4.53693 18.1188 4.72443C17.8546 4.90909 17.6486 5.1733 17.5009 5.51705C17.3531 5.85795 17.2793 6.26136 17.2793 6.72727C17.2793 7.20455 17.3517 7.61648 17.4966 7.96307C17.6415 8.30966 17.846 8.57812 18.1102 8.76847C18.3773 8.95881 18.6912 9.05398 19.052 9.05398C19.2935 9.05398 19.5122 9.00994 19.7083 8.92188C19.9071 8.83097 20.0733 8.7017 20.2068 8.53409C20.3432 8.36648 20.4384 8.16477 20.4923 7.92898H21.7324C21.6869 8.35227 21.5492 8.73011 21.319 9.0625C21.0889 9.39489 20.7807 9.65625 20.3943 9.84659C20.0108 10.0369 19.5605 10.1321 19.0435 10.1321ZM25.4198 10.1449C25.005 10.1449 24.63 10.0682 24.2948 9.91477C23.9596 9.75852 23.6939 9.53267 23.4979 9.23722C23.3047 8.94176 23.2082 8.57955 23.2082 8.15057C23.2082 7.78125 23.2792 7.47727 23.4212 7.23864C23.5633 7 23.755 6.81108 23.9965 6.67188C24.238 6.53267 24.5079 6.42756 24.8062 6.35653C25.1045 6.28551 25.4084 6.23153 25.7181 6.1946C26.1101 6.14915 26.4283 6.11222 26.6726 6.08381C26.917 6.05256 27.0945 6.00284 27.2053 5.93466C27.3161 5.86648 27.3715 5.75568 27.3715 5.60227V5.57244C27.3715 5.20028 27.2664 4.91193 27.0562 4.70739C26.8488 4.50284 26.5391 4.40057 26.1272 4.40057C25.6982 4.40057 25.3601 4.49574 25.113 4.68608C24.8687 4.87358 24.6996 5.08239 24.6059 5.3125L23.4084 5.03977C23.5505 4.64205 23.7579 4.32102 24.0306 4.0767C24.3062 3.82955 24.6229 3.65057 24.9809 3.53977C25.3388 3.42614 25.7153 3.36932 26.1101 3.36932C26.3715 3.36932 26.6485 3.40057 26.9411 3.46307C27.2366 3.52273 27.5121 3.63352 27.7678 3.79545C28.0263 3.95739 28.238 4.18892 28.4028 4.49006C28.5675 4.78835 28.6499 5.17614 28.6499 5.65341V10H27.4056V9.10511H27.3545C27.2721 9.26989 27.1485 9.43182 26.9837 9.59091C26.8189 9.75 26.6073 9.8821 26.3488 9.98722C26.0903 10.0923 25.7806 10.1449 25.4198 10.1449ZM25.6968 9.12216C26.0491 9.12216 26.3502 9.05256 26.6002 8.91335C26.853 8.77415 27.0448 8.59233 27.1755 8.3679C27.309 8.14062 27.3758 7.89773 27.3758 7.6392V6.79545C27.3303 6.84091 27.2422 6.88352 27.1116 6.9233C26.9837 6.96023 26.8374 6.9929 26.6726 7.02131C26.5079 7.04687 26.3474 7.07102 26.1911 7.09375C26.0349 7.11364 25.9042 7.13068 25.7991 7.14489C25.5519 7.17614 25.3261 7.22869 25.1215 7.30256C24.9198 7.37642 24.7579 7.48295 24.6357 7.62216C24.5164 7.75852 24.4567 7.94034 24.4567 8.16761C24.4567 8.48295 24.5732 8.72159 24.8062 8.88352C25.0391 9.04261 25.336 9.12216 25.6968 9.12216ZM33.5241 10.1321C32.8906 10.1321 32.3451 9.98864 31.8877 9.7017C31.4332 9.41193 31.0838 9.01278 30.8394 8.50426C30.5951 7.99574 30.473 7.41335 30.473 6.7571C30.473 6.09233 30.598 5.50568 30.848 4.99716C31.098 4.4858 31.4502 4.08665 31.9048 3.79972C32.3593 3.51278 32.8948 3.36932 33.5113 3.36932C34.0085 3.36932 34.4517 3.46165 34.8409 3.64631C35.2301 3.82812 35.544 4.08381 35.7826 4.41335C36.0241 4.7429 36.1676 5.12784 36.213 5.56818H34.973C34.9048 5.26136 34.7485 4.99716 34.5042 4.77557C34.2627 4.55398 33.9389 4.44318 33.5326 4.44318C33.1775 4.44318 32.8664 4.53693 32.5994 4.72443C32.3352 4.90909 32.1292 5.1733 31.9815 5.51705C31.8338 5.85795 31.7599 6.26136 31.7599 6.72727C31.7599 7.20455 31.8323 7.61648 31.9772 7.96307C32.1221 8.30966 32.3267 8.57812 32.5909 8.76847C32.8579 8.95881 33.1718 9.05398 33.5326 9.05398C33.7741 9.05398 33.9929 9.00994 34.1889 8.92188C34.3877 8.83097 34.5539 8.7017 34.6875 8.53409C34.8238 8.36648 34.919 8.16477 34.973 7.92898H36.213C36.1676 8.35227 36.0298 8.73011 35.7997 9.0625C35.5696 9.39489 35.2613 9.65625 34.875 9.84659C34.4914 10.0369 34.0412 10.1321 33.5241 10.1321ZM37.9956 10V3.45455H39.2697V10H37.9956ZM38.6391 2.4446C38.4175 2.4446 38.2271 2.37074 38.068 2.22301C37.9118 2.07244 37.8337 1.89347 37.8337 1.68608C37.8337 1.47585 37.9118 1.29687 38.068 1.14915C38.2271 0.998579 38.4175 0.923295 38.6391 0.923295C38.8607 0.923295 39.0496 0.998579 39.2058 1.14915C39.3649 1.29687 39.4445 1.47585 39.4445 1.68608C39.4445 1.89347 39.3649 2.07244 39.2058 2.22301C39.0496 2.37074 38.8607 2.4446 38.6391 2.4446ZM44.161 10.1321C43.5473 10.1321 43.0118 9.99148 42.5544 9.71023C42.0971 9.42898 41.7419 9.03551 41.4891 8.52983C41.2363 8.02415 41.1098 7.43324 41.1098 6.7571C41.1098 6.07812 41.2363 5.48437 41.4891 4.97585C41.7419 4.46733 42.0971 4.07244 42.5544 3.79119C43.0118 3.50994 43.5473 3.36932 44.161 3.36932C44.7746 3.36932 45.3101 3.50994 45.7675 3.79119C46.2249 4.07244 46.58 4.46733 46.8329 4.97585C47.0857 5.48437 47.2121 6.07812 47.2121 6.7571C47.2121 7.43324 47.0857 8.02415 46.8329 8.52983C46.58 9.03551 46.2249 9.42898 45.7675 9.71023C45.3101 9.99148 44.7746 10.1321 44.161 10.1321ZM44.1652 9.0625C44.563 9.0625 44.8925 8.95739 45.1539 8.74716C45.4152 8.53693 45.6084 8.2571 45.7334 7.90767C45.8613 7.55824 45.9252 7.1733 45.9252 6.75284C45.9252 6.33523 45.8613 5.9517 45.7334 5.60227C45.6084 5.25 45.4152 4.96733 45.1539 4.75426C44.8925 4.54119 44.563 4.43466 44.1652 4.43466C43.7647 4.43466 43.4323 4.54119 43.1681 4.75426C42.9067 4.96733 42.7121 5.25 42.5843 5.60227C42.4593 5.9517 42.3968 6.33523 42.3968 6.75284C42.3968 7.1733 42.4593 7.55824 42.5843 7.90767C42.7121 8.2571 42.9067 8.53693 43.1681 8.74716C43.4323 8.95739 43.7647 9.0625 44.1652 9.0625ZM50.3285 6.11364V10H49.0543V3.45455H50.2774V4.51989H50.3583C50.5089 4.1733 50.7447 3.89489 51.0657 3.68466C51.3896 3.47443 51.7972 3.36932 52.2887 3.36932C52.7347 3.36932 53.1254 3.46307 53.4606 3.65057C53.7958 3.83523 54.0558 4.1108 54.2404 4.47727C54.4251 4.84375 54.5174 5.29687 54.5174 5.83665V10H53.2433V5.99006C53.2433 5.51562 53.1197 5.14489 52.8725 4.87784C52.6254 4.60795 52.2859 4.47301 51.8541 4.47301C51.5586 4.47301 51.2958 4.53693 51.0657 4.66477C50.8384 4.79261 50.658 4.98011 50.5245 5.22727C50.3938 5.47159 50.3285 5.76705 50.3285 6.11364ZM59.4672 10.1321C58.8224 10.1321 58.267 9.99432 57.8011 9.71875C57.338 9.44034 56.98 9.04972 56.7272 8.54688C56.4772 8.04119 56.3522 7.44886 56.3522 6.76989C56.3522 6.09943 56.4772 5.50852 56.7272 4.99716C56.98 4.4858 57.3323 4.08665 57.784 3.79972C58.2386 3.51278 58.7698 3.36932 59.3778 3.36932C59.7471 3.36932 60.105 3.4304 60.4516 3.55256C60.7982 3.67472 61.1093 3.86648 61.3849 4.12784C61.6604 4.3892 61.8778 4.72869 62.0368 5.14631C62.1959 5.56108 62.2755 6.06534 62.2755 6.65909V7.1108H57.0724V6.15625H61.0269C61.0269 5.82102 60.9587 5.52415 60.8224 5.26562C60.686 5.00426 60.4942 4.7983 60.2471 4.64773C60.0028 4.49716 59.7158 4.42188 59.3863 4.42188C59.0283 4.42188 58.7158 4.50994 58.4488 4.68608C58.1846 4.85937 57.98 5.08665 57.8351 5.3679C57.6931 5.64631 57.6221 5.94886 57.6221 6.27557V7.02131C57.6221 7.45881 57.6988 7.83097 57.8522 8.13778C58.0084 8.4446 58.2258 8.67898 58.5042 8.84091C58.7826 9 59.1079 9.07955 59.48 9.07955C59.7215 9.07955 59.9417 9.04545 60.1405 8.97727C60.3394 8.90625 60.5113 8.80114 60.6562 8.66193C60.8011 8.52273 60.9118 8.35085 60.9886 8.14631L62.1945 8.36364C62.0979 8.71875 61.9246 9.02983 61.6746 9.29688C61.4275 9.56108 61.1164 9.76705 60.7414 9.91477C60.3692 10.0597 59.9445 10.1321 59.4672 10.1321ZM69.014 5.05256L67.8592 5.2571C67.8109 5.10937 67.7342 4.96875 67.6291 4.83523C67.5268 4.7017 67.3876 4.59233 67.2115 4.5071C67.0353 4.42187 66.8152 4.37926 66.551 4.37926C66.1902 4.37926 65.889 4.46023 65.6475 4.62216C65.4061 4.78125 65.2853 4.98722 65.2853 5.24006C65.2853 5.45881 65.3663 5.63494 65.5282 5.76847C65.6902 5.90199 65.9515 6.01136 66.3123 6.09659L67.3521 6.33523C67.9544 6.47443 68.4032 6.68892 68.6987 6.97869C68.9941 7.26847 69.1419 7.64489 69.1419 8.10795C69.1419 8.5 69.0282 8.84943 68.801 9.15625C68.5765 9.46023 68.2626 9.69886 67.8592 9.87216C67.4586 10.0455 66.9941 10.1321 66.4657 10.1321C65.7328 10.1321 65.1348 9.97585 64.6717 9.66335C64.2086 9.34801 63.9245 8.90057 63.8194 8.32102L65.051 8.13352C65.1277 8.45455 65.2853 8.69744 65.524 8.86222C65.7626 9.02415 66.0737 9.10511 66.4572 9.10511C66.8748 9.10511 67.2086 9.01847 67.4586 8.84517C67.7086 8.66903 67.8336 8.45455 67.8336 8.2017C67.8336 7.99716 67.7569 7.82528 67.6035 7.68608C67.4529 7.54687 67.2214 7.44176 66.9089 7.37074L65.801 7.12784C65.1902 6.98864 64.7385 6.76705 64.4458 6.46307C64.1561 6.15909 64.0112 5.77415 64.0112 5.30824C64.0112 4.92187 64.1191 4.58381 64.335 4.29403C64.551 4.00426 64.8492 3.77841 65.2299 3.61648C65.6106 3.4517 66.0467 3.36932 66.5382 3.36932C67.2456 3.36932 67.8024 3.52273 68.2086 3.82955C68.6149 4.13352 68.8833 4.54119 69.014 5.05256ZM77.4861 10H74.6608V1.27273H77.5756C78.4307 1.27273 79.1651 1.44744 79.7787 1.79688C80.3924 2.14347 80.8625 2.64205 81.1893 3.29261C81.5188 3.94034 81.6836 4.71733 81.6836 5.62358C81.6836 6.53267 81.5174 7.31392 81.185 7.96733C80.8554 8.62074 80.3782 9.12358 79.7532 9.47585C79.1282 9.82528 78.3725 10 77.4861 10ZM75.9776 8.84943H77.4137C78.0785 8.84943 78.631 8.72443 79.0714 8.47443C79.5117 8.22159 79.8412 7.85653 80.06 7.37926C80.2787 6.89915 80.3881 6.31392 80.3881 5.62358C80.3881 4.93892 80.2787 4.35795 80.06 3.88068C79.8441 3.40341 79.5216 3.04119 79.0927 2.79403C78.6637 2.54687 78.131 2.4233 77.4946 2.4233H75.9776V8.84943ZM83.6387 10V3.45455H84.9129V10H83.6387ZM83.758 2.58097L84.7552 0.616477H86.0975L84.7765 2.58097H83.758ZM88.9518 10.1449C88.5371 10.1449 88.1621 10.0682 87.8268 9.91477C87.4916 9.75852 87.226 9.53267 87.03 9.23722C86.8368 8.94176 86.7402 8.57955 86.7402 8.15057C86.7402 7.78125 86.8112 7.47727 86.9533 7.23864C87.0953 7 87.2871 6.81108 87.5285 6.67188C87.77 6.53267 88.0399 6.42756 88.3382 6.35653C88.6365 6.28551 88.9405 6.23153 89.2501 6.1946C89.6422 6.14915 89.9604 6.11222 90.2047 6.08381C90.449 6.05256 90.6265 6.00284 90.7373 5.93466C90.8481 5.86648 90.9035 5.75568 90.9035 5.60227V5.57244C90.9035 5.20028 90.7984 4.91193 90.5882 4.70739C90.3808 4.50284 90.0711 4.40057 89.6592 4.40057C89.2302 4.40057 88.8922 4.49574 88.645 4.68608C88.4007 4.87358 88.2317 5.08239 88.1379 5.3125L86.9405 5.03977C87.0825 4.64205 87.2899 4.32102 87.5626 4.0767C87.8382 3.82955 88.155 3.65057 88.5129 3.53977C88.8709 3.42614 89.2473 3.36932 89.6422 3.36932C89.9035 3.36932 90.1805 3.40057 90.4731 3.46307C90.7686 3.52273 91.0442 3.63352 91.2998 3.79545C91.5584 3.95739 91.77 4.18892 91.9348 4.49006C92.0996 4.78835 92.1819 5.17614 92.1819 5.65341V10H90.9376V9.10511H90.8865C90.8041 9.26989 90.6805 9.43182 90.5158 9.59091C90.351 9.75 90.1393 9.8821 89.8808 9.98722C89.6223 10.0923 89.3126 10.1449 88.9518 10.1449ZM89.2288 9.12216C89.5811 9.12216 89.8822 9.05256 90.1322 8.91335C90.3851 8.77415 90.5768 8.59233 90.7075 8.3679C90.841 8.14062 90.9078 7.89773 90.9078 7.6392V6.79545C90.8623 6.84091 90.7743 6.88352 90.6436 6.9233C90.5158 6.96023 90.3694 6.9929 90.2047 7.02131C90.0399 7.04687 89.8794 7.07102 89.7231 7.09375C89.5669 7.11364 89.4362 7.13068 89.3311 7.14489C89.0839 7.17614 88.8581 7.22869 88.6535 7.30256C88.4518 7.37642 88.2899 7.48295 88.1677 7.62216C88.0484 7.75852 87.9888 7.94034 87.9888 8.16761C87.9888 8.48295 88.1052 8.72159 88.3382 8.88352C88.5711 9.04261 88.868 9.12216 89.2288 9.12216ZM99.2039 5.05256L98.049 5.2571C98.0007 5.10937 97.924 4.96875 97.8189 4.83523C97.7166 4.7017 97.5774 4.59233 97.4013 4.5071C97.2252 4.42187 97.005 4.37926 96.7408 4.37926C96.38 4.37926 96.0789 4.46023 95.8374 4.62216C95.5959 4.78125 95.4752 4.98722 95.4752 5.24006C95.4752 5.45881 95.5561 5.63494 95.7181 5.76847C95.88 5.90199 96.1414 6.01136 96.5022 6.09659L97.5419 6.33523C98.1442 6.47443 98.5931 6.68892 98.8885 6.97869C99.184 7.26847 99.3317 7.64489 99.3317 8.10795C99.3317 8.5 99.2181 8.84943 98.9908 9.15625C98.7664 9.46023 98.4524 9.69886 98.049 9.87216C97.6485 10.0455 97.184 10.1321 96.6556 10.1321C95.9226 10.1321 95.3246 9.97585 94.8615 9.66335C94.3985 9.34801 94.1144 8.90057 94.0093 8.32102L95.2408 8.13352C95.3175 8.45455 95.4752 8.69744 95.7138 8.86222C95.9524 9.02415 96.2635 9.10511 96.647 9.10511C97.0647 9.10511 97.3985 9.01847 97.6485 8.84517C97.8985 8.66903 98.0235 8.45455 98.0235 8.2017C98.0235 7.99716 97.9468 7.82528 97.7933 7.68608C97.6428 7.54687 97.4112 7.44176 97.0987 7.37074L95.9908 7.12784C95.38 6.98864 94.9283 6.76705 94.6357 6.46307C94.3459 6.15909 94.201 5.77415 94.201 5.30824C94.201 4.92187 94.309 4.58381 94.5249 4.29403C94.7408 4.00426 95.0391 3.77841 95.4198 3.61648C95.8005 3.4517 96.2365 3.36932 96.728 3.36932C97.4354 3.36932 97.9922 3.52273 98.3985 3.82955C98.8047 4.13352 99.0732 4.54119 99.2039 5.05256ZM104.851 10V1.27273H110.263V2.40625H106.167V5.06534H109.875V6.1946H106.167V10H104.851ZM114.54 10.1321C113.895 10.1321 113.34 9.99432 112.874 9.71875C112.411 9.44034 112.053 9.04972 111.8 8.54688C111.55 8.04119 111.425 7.44886 111.425 6.76989C111.425 6.09943 111.55 5.50852 111.8 4.99716C112.053 4.4858 112.405 4.08665 112.857 3.79972C113.312 3.51278 113.843 3.36932 114.451 3.36932C114.82 3.36932 115.178 3.4304 115.525 3.55256C115.871 3.67472 116.182 3.86648 116.458 4.12784C116.733 4.3892 116.951 4.72869 117.11 5.14631C117.269 5.56108 117.348 6.06534 117.348 6.65909V7.1108H112.145V6.15625H116.1C116.1 5.82102 116.032 5.52415 115.895 5.26562C115.759 5.00426 115.567 4.7983 115.32 4.64773C115.076 4.49716 114.789 4.42188 114.459 4.42188C114.101 4.42188 113.789 4.50994 113.522 4.68608C113.258 4.85937 113.053 5.08665 112.908 5.3679C112.766 5.64631 112.695 5.94886 112.695 6.27557V7.02131C112.695 7.45881 112.772 7.83097 112.925 8.13778C113.081 8.4446 113.299 8.67898 113.577 8.84091C113.856 9 114.181 9.07955 114.553 9.07955C114.794 9.07955 115.015 9.04545 115.214 8.97727C115.412 8.90625 115.584 8.80114 115.729 8.66193C115.874 8.52273 115.985 8.35085 116.062 8.14631L117.267 8.36364C117.171 8.71875 116.998 9.02983 116.748 9.29688C116.5 9.56108 116.189 9.76705 115.814 9.91477C115.442 10.0597 115.017 10.1321 114.54 10.1321ZM124.087 5.05256L122.932 5.2571C122.884 5.10937 122.807 4.96875 122.702 4.83523C122.6 4.7017 122.461 4.59233 122.284 4.5071C122.108 4.42187 121.888 4.37926 121.624 4.37926C121.263 4.37926 120.962 4.46023 120.721 4.62216C120.479 4.78125 120.358 4.98722 120.358 5.24006C120.358 5.45881 120.439 5.63494 120.601 5.76847C120.763 5.90199 121.024 6.01136 121.385 6.09659L122.425 6.33523C123.027 6.47443 123.476 6.68892 123.772 6.97869C124.067 7.26847 124.215 7.64489 124.215 8.10795C124.215 8.5 124.101 8.84943 123.874 9.15625C123.649 9.46023 123.336 9.69886 122.932 9.87216C122.532 10.0455 122.067 10.1321 121.539 10.1321C120.806 10.1321 120.208 9.97585 119.745 9.66335C119.282 9.34801 118.997 8.90057 118.892 8.32102L120.124 8.13352C120.201 8.45455 120.358 8.69744 120.597 8.86222C120.836 9.02415 121.147 9.10511 121.53 9.10511C121.948 9.10511 122.282 9.01847 122.532 8.84517C122.782 8.66903 122.907 8.45455 122.907 8.2017C122.907 7.99716 122.83 7.82528 122.676 7.68608C122.526 7.54687 122.294 7.44176 121.982 7.37074L120.874 7.12784C120.263 6.98864 119.811 6.76705 119.519 6.46307C119.229 6.15909 119.084 5.77415 119.084 5.30824C119.084 4.92187 119.192 4.58381 119.408 4.29403C119.624 4.00426 119.922 3.77841 120.303 3.61648C120.684 3.4517 121.12 3.36932 121.611 3.36932C122.319 3.36932 122.875 3.52273 123.282 3.82955C123.688 4.13352 123.956 4.54119 124.087 5.05256ZM129.091 3.45455V4.47727H125.516V3.45455H129.091ZM126.475 1.88636H127.749V8.07812C127.749 8.32528 127.786 8.51136 127.86 8.63636C127.933 8.75852 128.029 8.84233 128.145 8.88778C128.264 8.9304 128.394 8.9517 128.533 8.9517C128.635 8.9517 128.725 8.9446 128.801 8.9304C128.878 8.91619 128.938 8.90483 128.98 8.89631L129.21 9.94886C129.137 9.97727 129.031 10.0057 128.895 10.0341C128.759 10.0653 128.588 10.0824 128.384 10.0852C128.049 10.0909 127.736 10.0312 127.446 9.90625C127.156 9.78125 126.922 9.58807 126.743 9.3267C126.564 9.06534 126.475 8.73722 126.475 8.34233V1.88636ZM130.921 10V3.45455H132.195V10H130.921ZM131.564 2.4446C131.342 2.4446 131.152 2.37074 130.993 2.22301C130.837 2.07244 130.759 1.89347 130.759 1.68608C130.759 1.47585 130.837 1.29687 130.993 1.14915C131.152 0.998579 131.342 0.923295 131.564 0.923295C131.786 0.923295 131.975 0.998579 132.131 1.14915C132.29 1.29687 132.369 1.47585 132.369 1.68608C132.369 1.89347 132.29 2.07244 132.131 2.22301C131.975 2.37074 131.786 2.4446 131.564 2.4446ZM139.928 3.45455L137.555 10H136.191L133.813 3.45455H135.181L136.839 8.49148H136.907L138.56 3.45455H139.928ZM144.08 10.1321C143.467 10.1321 142.931 9.99148 142.474 9.71023C142.016 9.42898 141.661 9.03551 141.408 8.52983C141.155 8.02415 141.029 7.43324 141.029 6.7571C141.029 6.07812 141.155 5.48437 141.408 4.97585C141.661 4.46733 142.016 4.07244 142.474 3.79119C142.931 3.50994 143.467 3.36932 144.08 3.36932C144.694 3.36932 145.229 3.50994 145.687 3.79119C146.144 4.07244 146.499 4.46733 146.752 4.97585C147.005 5.48437 147.131 6.07812 147.131 6.7571C147.131 7.43324 147.005 8.02415 146.752 8.52983C146.499 9.03551 146.144 9.42898 145.687 9.71023C145.229 9.99148 144.694 10.1321 144.08 10.1321ZM144.084 9.0625C144.482 9.0625 144.812 8.95739 145.073 8.74716C145.334 8.53693 145.528 8.2571 145.653 7.90767C145.78 7.55824 145.844 7.1733 145.844 6.75284C145.844 6.33523 145.78 5.9517 145.653 5.60227C145.528 5.25 145.334 4.96733 145.073 4.75426C144.812 4.54119 144.482 4.43466 144.084 4.43466C143.684 4.43466 143.352 4.54119 143.087 4.75426C142.826 4.96733 142.631 5.25 142.503 5.60227C142.378 5.9517 142.316 6.33523 142.316 6.75284C142.316 7.1733 142.378 7.55824 142.503 7.90767C142.631 8.2571 142.826 8.53693 143.087 8.74716C143.352 8.95739 143.684 9.0625 144.084 9.0625ZM153.878 5.05256L152.724 5.2571C152.675 5.10937 152.599 4.96875 152.493 4.83523C152.391 4.7017 152.252 4.59233 152.076 4.5071C151.9 4.42187 151.68 4.37926 151.415 4.37926C151.055 4.37926 150.753 4.46023 150.512 4.62216C150.27 4.78125 150.15 4.98722 150.15 5.24006C150.15 5.45881 150.231 5.63494 150.393 5.76847C150.555 5.90199 150.816 6.01136 151.177 6.09659L152.216 6.33523C152.819 6.47443 153.268 6.68892 153.563 6.97869C153.859 7.26847 154.006 7.64489 154.006 8.10795C154.006 8.5 153.893 8.84943 153.665 9.15625C153.441 9.46023 153.127 9.69886 152.724 9.87216C152.323 10.0455 151.859 10.1321 151.33 10.1321C150.597 10.1321 149.999 9.97585 149.536 9.66335C149.073 9.34801 148.789 8.90057 148.684 8.32102L149.915 8.13352C149.992 8.45455 150.15 8.69744 150.388 8.86222C150.627 9.02415 150.938 9.10511 151.322 9.10511C151.739 9.10511 152.073 9.01847 152.323 8.84517C152.573 8.66903 152.698 8.45455 152.698 8.2017C152.698 7.99716 152.621 7.82528 152.468 7.68608C152.317 7.54687 152.086 7.44176 151.773 7.37074L150.665 7.12784C150.055 6.98864 149.603 6.76705 149.31 6.46307C149.02 6.15909 148.876 5.77415 148.876 5.30824C148.876 4.92187 148.984 4.58381 149.199 4.29403C149.415 4.00426 149.714 3.77841 150.094 3.61648C150.475 3.4517 150.911 3.36932 151.403 3.36932C152.11 3.36932 152.667 3.52273 153.073 3.82955C153.479 4.13352 153.748 4.54119 153.878 5.05256Z" fill="#818284"/>
<path d="M1.72159 1.27273L4.15057 8.38068H4.24858L6.67756 1.27273H8.10085L4.96023 10H3.43892L0.298295 1.27273H1.72159ZM10.9392 10.1449C10.5244 10.1449 10.1494 10.0682 9.81418 9.91477C9.47895 9.75852 9.21332 9.53267 9.0173 9.23722C8.82412 8.94176 8.72753 8.57955 8.72753 8.15057C8.72753 7.78125 8.79855 7.47727 8.9406 7.23864C9.08264 7 9.2744 6.81108 9.51588 6.67188C9.75736 6.53267 10.0272 6.42756 10.3255 6.35653C10.6238 6.28551 10.9278 6.23153 11.2375 6.1946C11.6295 6.14915 11.9477 6.11222 12.192 6.08381C12.4363 6.05256 12.6139 6.00284 12.7247 5.93466C12.8355 5.86648 12.8909 5.75568 12.8909 5.60227V5.57244C12.8909 5.20028 12.7858 4.91193 12.5755 4.70739C12.3682 4.50284 12.0585 4.40057 11.6466 4.40057C11.2176 4.40057 10.8795 4.49574 10.6324 4.68608C10.388 4.87358 10.219 5.08239 10.1253 5.3125L8.92781 5.03977C9.06986 4.64205 9.27724 4.32102 9.54997 4.0767C9.82554 3.82955 10.1423 3.65057 10.5003 3.53977C10.8582 3.42614 11.2346 3.36932 11.6295 3.36932C11.8909 3.36932 12.1679 3.40057 12.4605 3.46307C12.7559 3.52273 13.0315 3.63352 13.2872 3.79545C13.5457 3.95739 13.7574 4.18892 13.9221 4.49006C14.0869 4.78835 14.1693 5.17614 14.1693 5.65341V10H12.925V9.10511H12.8738C12.7914 9.26989 12.6679 9.43182 12.5031 9.59091C12.3383 9.75 12.1267 9.8821 11.8682 9.98722C11.6096 10.0923 11.3 10.1449 10.9392 10.1449ZM11.2162 9.12216C11.5684 9.12216 11.8696 9.05256 12.1196 8.91335C12.3724 8.77415 12.5642 8.59233 12.6949 8.3679C12.8284 8.14062 12.8951 7.89773 12.8951 7.6392V6.79545C12.8497 6.84091 12.7616 6.88352 12.6309 6.9233C12.5031 6.96023 12.3568 6.9929 12.192 7.02131C12.0272 7.04687 11.8667 7.07102 11.7105 7.09375C11.5542 7.11364 11.4236 7.13068 11.3184 7.14489C11.0713 7.17614 10.8454 7.22869 10.6409 7.30256C10.4392 7.37642 10.2772 7.48295 10.1551 7.62216C10.0358 7.75852 9.97611 7.94034 9.97611 8.16761C9.97611 8.48295 10.0926 8.72159 10.3255 8.88352C10.5585 9.04261 10.8554 9.12216 11.2162 9.12216ZM19.0435 10.1321C18.41 10.1321 17.8645 9.98864 17.4071 9.7017C16.9526 9.41193 16.6031 9.01278 16.3588 8.50426C16.1145 7.99574 15.9923 7.41335 15.9923 6.7571C15.9923 6.09233 16.1173 5.50568 16.3673 4.99716C16.6173 4.4858 16.9696 4.08665 17.4242 3.79972C17.8787 3.51278 18.4142 3.36932 19.0307 3.36932C19.5279 3.36932 19.971 3.46165 20.3602 3.64631C20.7494 3.82812 21.0634 4.08381 21.302 4.41335C21.5435 4.7429 21.6869 5.12784 21.7324 5.56818H20.4923C20.4242 5.26136 20.2679 4.99716 20.0236 4.77557C19.7821 4.55398 19.4583 4.44318 19.052 4.44318C18.6969 4.44318 18.3858 4.53693 18.1188 4.72443C17.8546 4.90909 17.6486 5.1733 17.5009 5.51705C17.3531 5.85795 17.2793 6.26136 17.2793 6.72727C17.2793 7.20455 17.3517 7.61648 17.4966 7.96307C17.6415 8.30966 17.846 8.57812 18.1102 8.76847C18.3773 8.95881 18.6912 9.05398 19.052 9.05398C19.2935 9.05398 19.5122 9.00994 19.7083 8.92188C19.9071 8.83097 20.0733 8.7017 20.2068 8.53409C20.3432 8.36648 20.4384 8.16477 20.4923 7.92898H21.7324C21.6869 8.35227 21.5492 8.73011 21.319 9.0625C21.0889 9.39489 20.7807 9.65625 20.3943 9.84659C20.0108 10.0369 19.5605 10.1321 19.0435 10.1321ZM25.4198 10.1449C25.005 10.1449 24.63 10.0682 24.2948 9.91477C23.9596 9.75852 23.6939 9.53267 23.4979 9.23722C23.3047 8.94176 23.2082 8.57955 23.2082 8.15057C23.2082 7.78125 23.2792 7.47727 23.4212 7.23864C23.5633 7 23.755 6.81108 23.9965 6.67188C24.238 6.53267 24.5079 6.42756 24.8062 6.35653C25.1045 6.28551 25.4084 6.23153 25.7181 6.1946C26.1101 6.14915 26.4283 6.11222 26.6726 6.08381C26.917 6.05256 27.0945 6.00284 27.2053 5.93466C27.3161 5.86648 27.3715 5.75568 27.3715 5.60227V5.57244C27.3715 5.20028 27.2664 4.91193 27.0562 4.70739C26.8488 4.50284 26.5391 4.40057 26.1272 4.40057C25.6982 4.40057 25.3601 4.49574 25.113 4.68608C24.8687 4.87358 24.6996 5.08239 24.6059 5.3125L23.4084 5.03977C23.5505 4.64205 23.7579 4.32102 24.0306 4.0767C24.3062 3.82955 24.6229 3.65057 24.9809 3.53977C25.3388 3.42614 25.7153 3.36932 26.1101 3.36932C26.3715 3.36932 26.6485 3.40057 26.9411 3.46307C27.2366 3.52273 27.5121 3.63352 27.7678 3.79545C28.0263 3.95739 28.238 4.18892 28.4028 4.49006C28.5675 4.78835 28.6499 5.17614 28.6499 5.65341V10H27.4056V9.10511H27.3545C27.2721 9.26989 27.1485 9.43182 26.9837 9.59091C26.8189 9.75 26.6073 9.8821 26.3488 9.98722C26.0903 10.0923 25.7806 10.1449 25.4198 10.1449ZM25.6968 9.12216C26.0491 9.12216 26.3502 9.05256 26.6002 8.91335C26.853 8.77415 27.0448 8.59233 27.1755 8.3679C27.309 8.14062 27.3758 7.89773 27.3758 7.6392V6.79545C27.3303 6.84091 27.2422 6.88352 27.1116 6.9233C26.9837 6.96023 26.8374 6.9929 26.6726 7.02131C26.5079 7.04687 26.3474 7.07102 26.1911 7.09375C26.0349 7.11364 25.9042 7.13068 25.7991 7.14489C25.5519 7.17614 25.3261 7.22869 25.1215 7.30256C24.9198 7.37642 24.7579 7.48295 24.6357 7.62216C24.5164 7.75852 24.4567 7.94034 24.4567 8.16761C24.4567 8.48295 24.5732 8.72159 24.8062 8.88352C25.0391 9.04261 25.336 9.12216 25.6968 9.12216ZM33.5241 10.1321C32.8906 10.1321 32.3451 9.98864 31.8877 9.7017C31.4332 9.41193 31.0838 9.01278 30.8394 8.50426C30.5951 7.99574 30.473 7.41335 30.473 6.7571C30.473 6.09233 30.598 5.50568 30.848 4.99716C31.098 4.4858 31.4502 4.08665 31.9048 3.79972C32.3593 3.51278 32.8948 3.36932 33.5113 3.36932C34.0085 3.36932 34.4517 3.46165 34.8409 3.64631C35.2301 3.82812 35.544 4.08381 35.7826 4.41335C36.0241 4.7429 36.1676 5.12784 36.213 5.56818H34.973C34.9048 5.26136 34.7485 4.99716 34.5042 4.77557C34.2627 4.55398 33.9389 4.44318 33.5326 4.44318C33.1775 4.44318 32.8664 4.53693 32.5994 4.72443C32.3352 4.90909 32.1292 5.1733 31.9815 5.51705C31.8338 5.85795 31.7599 6.26136 31.7599 6.72727C31.7599 7.20455 31.8323 7.61648 31.9772 7.96307C32.1221 8.30966 32.3267 8.57812 32.5909 8.76847C32.8579 8.95881 33.1718 9.05398 33.5326 9.05398C33.7741 9.05398 33.9929 9.00994 34.1889 8.92188C34.3877 8.83097 34.5539 8.7017 34.6875 8.53409C34.8238 8.36648 34.919 8.16477 34.973 7.92898H36.213C36.1676 8.35227 36.0298 8.73011 35.7997 9.0625C35.5696 9.39489 35.2613 9.65625 34.875 9.84659C34.4914 10.0369 34.0412 10.1321 33.5241 10.1321ZM37.9956 10V3.45455H39.2697V10H37.9956ZM38.6391 2.4446C38.4175 2.4446 38.2271 2.37074 38.068 2.22301C37.9118 2.07244 37.8337 1.89347 37.8337 1.68608C37.8337 1.47585 37.9118 1.29687 38.068 1.14915C38.2271 0.998579 38.4175 0.923295 38.6391 0.923295C38.8607 0.923295 39.0496 0.998579 39.2058 1.14915C39.3649 1.29687 39.4445 1.47585 39.4445 1.68608C39.4445 1.89347 39.3649 2.07244 39.2058 2.22301C39.0496 2.37074 38.8607 2.4446 38.6391 2.4446ZM44.161 10.1321C43.5473 10.1321 43.0118 9.99148 42.5544 9.71023C42.0971 9.42898 41.7419 9.03551 41.4891 8.52983C41.2363 8.02415 41.1098 7.43324 41.1098 6.7571C41.1098 6.07812 41.2363 5.48437 41.4891 4.97585C41.7419 4.46733 42.0971 4.07244 42.5544 3.79119C43.0118 3.50994 43.5473 3.36932 44.161 3.36932C44.7746 3.36932 45.3101 3.50994 45.7675 3.79119C46.2249 4.07244 46.58 4.46733 46.8329 4.97585C47.0857 5.48437 47.2121 6.07812 47.2121 6.7571C47.2121 7.43324 47.0857 8.02415 46.8329 8.52983C46.58 9.03551 46.2249 9.42898 45.7675 9.71023C45.3101 9.99148 44.7746 10.1321 44.161 10.1321ZM44.1652 9.0625C44.563 9.0625 44.8925 8.95739 45.1539 8.74716C45.4152 8.53693 45.6084 8.2571 45.7334 7.90767C45.8613 7.55824 45.9252 7.1733 45.9252 6.75284C45.9252 6.33523 45.8613 5.9517 45.7334 5.60227C45.6084 5.25 45.4152 4.96733 45.1539 4.75426C44.8925 4.54119 44.563 4.43466 44.1652 4.43466C43.7647 4.43466 43.4323 4.54119 43.1681 4.75426C42.9067 4.96733 42.7121 5.25 42.5843 5.60227C42.4593 5.9517 42.3968 6.33523 42.3968 6.75284C42.3968 7.1733 42.4593 7.55824 42.5843 7.90767C42.7121 8.2571 42.9067 8.53693 43.1681 8.74716C43.4323 8.95739 43.7647 9.0625 44.1652 9.0625ZM50.3285 6.11364V10H49.0543V3.45455H50.2774V4.51989H50.3583C50.5089 4.1733 50.7447 3.89489 51.0657 3.68466C51.3896 3.47443 51.7972 3.36932 52.2887 3.36932C52.7347 3.36932 53.1254 3.46307 53.4606 3.65057C53.7958 3.83523 54.0558 4.1108 54.2404 4.47727C54.4251 4.84375 54.5174 5.29687 54.5174 5.83665V10H53.2433V5.99006C53.2433 5.51562 53.1197 5.14489 52.8725 4.87784C52.6254 4.60795 52.2859 4.47301 51.8541 4.47301C51.5586 4.47301 51.2958 4.53693 51.0657 4.66477C50.8384 4.79261 50.658 4.98011 50.5245 5.22727C50.3938 5.47159 50.3285 5.76705 50.3285 6.11364ZM59.4672 10.1321C58.8224 10.1321 58.267 9.99432 57.8011 9.71875C57.338 9.44034 56.98 9.04972 56.7272 8.54688C56.4772 8.04119 56.3522 7.44886 56.3522 6.76989C56.3522 6.09943 56.4772 5.50852 56.7272 4.99716C56.98 4.4858 57.3323 4.08665 57.784 3.79972C58.2386 3.51278 58.7698 3.36932 59.3778 3.36932C59.7471 3.36932 60.105 3.4304 60.4516 3.55256C60.7982 3.67472 61.1093 3.86648 61.3849 4.12784C61.6604 4.3892 61.8778 4.72869 62.0368 5.14631C62.1959 5.56108 62.2755 6.06534 62.2755 6.65909V7.1108H57.0724V6.15625H61.0269C61.0269 5.82102 60.9587 5.52415 60.8224 5.26562C60.686 5.00426 60.4942 4.7983 60.2471 4.64773C60.0028 4.49716 59.7158 4.42188 59.3863 4.42188C59.0283 4.42188 58.7158 4.50994 58.4488 4.68608C58.1846 4.85937 57.98 5.08665 57.8351 5.3679C57.6931 5.64631 57.6221 5.94886 57.6221 6.27557V7.02131C57.6221 7.45881 57.6988 7.83097 57.8522 8.13778C58.0084 8.4446 58.2258 8.67898 58.5042 8.84091C58.7826 9 59.1079 9.07955 59.48 9.07955C59.7215 9.07955 59.9417 9.04545 60.1405 8.97727C60.3394 8.90625 60.5113 8.80114 60.6562 8.66193C60.8011 8.52273 60.9118 8.35085 60.9886 8.14631L62.1945 8.36364C62.0979 8.71875 61.9246 9.02983 61.6746 9.29688C61.4275 9.56108 61.1164 9.76705 60.7414 9.91477C60.3692 10.0597 59.9445 10.1321 59.4672 10.1321ZM69.014 5.05256L67.8592 5.2571C67.8109 5.10937 67.7342 4.96875 67.6291 4.83523C67.5268 4.7017 67.3876 4.59233 67.2115 4.5071C67.0353 4.42187 66.8152 4.37926 66.551 4.37926C66.1902 4.37926 65.889 4.46023 65.6475 4.62216C65.4061 4.78125 65.2853 4.98722 65.2853 5.24006C65.2853 5.45881 65.3663 5.63494 65.5282 5.76847C65.6902 5.90199 65.9515 6.01136 66.3123 6.09659L67.3521 6.33523C67.9544 6.47443 68.4032 6.68892 68.6987 6.97869C68.9941 7.26847 69.1419 7.64489 69.1419 8.10795C69.1419 8.5 69.0282 8.84943 68.801 9.15625C68.5765 9.46023 68.2626 9.69886 67.8592 9.87216C67.4586 10.0455 66.9941 10.1321 66.4657 10.1321C65.7328 10.1321 65.1348 9.97585 64.6717 9.66335C64.2086 9.34801 63.9245 8.90057 63.8194 8.32102L65.051 8.13352C65.1277 8.45455 65.2853 8.69744 65.524 8.86222C65.7626 9.02415 66.0737 9.10511 66.4572 9.10511C66.8748 9.10511 67.2086 9.01847 67.4586 8.84517C67.7086 8.66903 67.8336 8.45455 67.8336 8.2017C67.8336 7.99716 67.7569 7.82528 67.6035 7.68608C67.4529 7.54687 67.2214 7.44176 66.9089 7.37074L65.801 7.12784C65.1902 6.98864 64.7385 6.76705 64.4458 6.46307C64.1561 6.15909 64.0112 5.77415 64.0112 5.30824C64.0112 4.92187 64.1191 4.58381 64.335 4.29403C64.551 4.00426 64.8492 3.77841 65.2299 3.61648C65.6106 3.4517 66.0467 3.36932 66.5382 3.36932C67.2456 3.36932 67.8024 3.52273 68.2086 3.82955C68.6149 4.13352 68.8833 4.54119 69.014 5.05256ZM77.4861 10H74.6608V1.27273H77.5756C78.4307 1.27273 79.1651 1.44744 79.7787 1.79688C80.3924 2.14347 80.8625 2.64205 81.1893 3.29261C81.5188 3.94034 81.6836 4.71733 81.6836 5.62358C81.6836 6.53267 81.5174 7.31392 81.185 7.96733C80.8554 8.62074 80.3782 9.12358 79.7532 9.47585C79.1282 9.82528 78.3725 10 77.4861 10ZM75.9776 8.84943H77.4137C78.0785 8.84943 78.631 8.72443 79.0714 8.47443C79.5117 8.22159 79.8412 7.85653 80.06 7.37926C80.2787 6.89915 80.3881 6.31392 80.3881 5.62358C80.3881 4.93892 80.2787 4.35795 80.06 3.88068C79.8441 3.40341 79.5216 3.04119 79.0927 2.79403C78.6637 2.54687 78.131 2.4233 77.4946 2.4233H75.9776V8.84943ZM83.6387 10V3.45455H84.9129V10H83.6387ZM83.758 2.58097L84.7552 0.616477H86.0975L84.7765 2.58097H83.758ZM88.9518 10.1449C88.5371 10.1449 88.1621 10.0682 87.8268 9.91477C87.4916 9.75852 87.226 9.53267 87.03 9.23722C86.8368 8.94176 86.7402 8.57955 86.7402 8.15057C86.7402 7.78125 86.8112 7.47727 86.9533 7.23864C87.0953 7 87.2871 6.81108 87.5285 6.67188C87.77 6.53267 88.0399 6.42756 88.3382 6.35653C88.6365 6.28551 88.9405 6.23153 89.2501 6.1946C89.6422 6.14915 89.9604 6.11222 90.2047 6.08381C90.449 6.05256 90.6265 6.00284 90.7373 5.93466C90.8481 5.86648 90.9035 5.75568 90.9035 5.60227V5.57244C90.9035 5.20028 90.7984 4.91193 90.5882 4.70739C90.3808 4.50284 90.0711 4.40057 89.6592 4.40057C89.2302 4.40057 88.8922 4.49574 88.645 4.68608C88.4007 4.87358 88.2317 5.08239 88.1379 5.3125L86.9405 5.03977C87.0825 4.64205 87.2899 4.32102 87.5626 4.0767C87.8382 3.82955 88.155 3.65057 88.5129 3.53977C88.8709 3.42614 89.2473 3.36932 89.6422 3.36932C89.9035 3.36932 90.1805 3.40057 90.4731 3.46307C90.7686 3.52273 91.0442 3.63352 91.2998 3.79545C91.5584 3.95739 91.77 4.18892 91.9348 4.49006C92.0996 4.78835 92.1819 5.17614 92.1819 5.65341V10H90.9376V9.10511H90.8865C90.8041 9.26989 90.6805 9.43182 90.5158 9.59091C90.351 9.75 90.1393 9.8821 89.8808 9.98722C89.6223 10.0923 89.3126 10.1449 88.9518 10.1449ZM89.2288 9.12216C89.5811 9.12216 89.8822 9.05256 90.1322 8.91335C90.3851 8.77415 90.5768 8.59233 90.7075 8.3679C90.841 8.14062 90.9078 7.89773 90.9078 7.6392V6.79545C90.8623 6.84091 90.7743 6.88352 90.6436 6.9233C90.5158 6.96023 90.3694 6.9929 90.2047 7.02131C90.0399 7.04687 89.8794 7.07102 89.7231 7.09375C89.5669 7.11364 89.4362 7.13068 89.3311 7.14489C89.0839 7.17614 88.8581 7.22869 88.6535 7.30256C88.4518 7.37642 88.2899 7.48295 88.1677 7.62216C88.0484 7.75852 87.9888 7.94034 87.9888 8.16761C87.9888 8.48295 88.1052 8.72159 88.3382 8.88352C88.5711 9.04261 88.868 9.12216 89.2288 9.12216ZM99.2039 5.05256L98.049 5.2571C98.0007 5.10937 97.924 4.96875 97.8189 4.83523C97.7166 4.7017 97.5774 4.59233 97.4013 4.5071C97.2252 4.42187 97.005 4.37926 96.7408 4.37926C96.38 4.37926 96.0789 4.46023 95.8374 4.62216C95.5959 4.78125 95.4752 4.98722 95.4752 5.24006C95.4752 5.45881 95.5561 5.63494 95.7181 5.76847C95.88 5.90199 96.1414 6.01136 96.5022 6.09659L97.5419 6.33523C98.1442 6.47443 98.5931 6.68892 98.8885 6.97869C99.184 7.26847 99.3317 7.64489 99.3317 8.10795C99.3317 8.5 99.2181 8.84943 98.9908 9.15625C98.7664 9.46023 98.4524 9.69886 98.049 9.87216C97.6485 10.0455 97.184 10.1321 96.6556 10.1321C95.9226 10.1321 95.3246 9.97585 94.8615 9.66335C94.3985 9.34801 94.1144 8.90057 94.0093 8.32102L95.2408 8.13352C95.3175 8.45455 95.4752 8.69744 95.7138 8.86222C95.9524 9.02415 96.2635 9.10511 96.647 9.10511C97.0647 9.10511 97.3985 9.01847 97.6485 8.84517C97.8985 8.66903 98.0235 8.45455 98.0235 8.2017C98.0235 7.99716 97.9468 7.82528 97.7933 7.68608C97.6428 7.54687 97.4112 7.44176 97.0987 7.37074L95.9908 7.12784C95.38 6.98864 94.9283 6.76705 94.6357 6.46307C94.3459 6.15909 94.201 5.77415 94.201 5.30824C94.201 4.92187 94.309 4.58381 94.5249 4.29403C94.7408 4.00426 95.0391 3.77841 95.4198 3.61648C95.8005 3.4517 96.2365 3.36932 96.728 3.36932C97.4354 3.36932 97.9922 3.52273 98.3985 3.82955C98.8047 4.13352 99.0732 4.54119 99.2039 5.05256ZM104.851 10V1.27273H110.263V2.40625H106.167V5.06534H109.875V6.1946H106.167V10H104.851ZM114.54 10.1321C113.895 10.1321 113.34 9.99432 112.874 9.71875C112.411 9.44034 112.053 9.04972 111.8 8.54688C111.55 8.04119 111.425 7.44886 111.425 6.76989C111.425 6.09943 111.55 5.50852 111.8 4.99716C112.053 4.4858 112.405 4.08665 112.857 3.79972C113.312 3.51278 113.843 3.36932 114.451 3.36932C114.82 3.36932 115.178 3.4304 115.525 3.55256C115.871 3.67472 116.182 3.86648 116.458 4.12784C116.733 4.3892 116.951 4.72869 117.11 5.14631C117.269 5.56108 117.348 6.06534 117.348 6.65909V7.1108H112.145V6.15625H116.1C116.1 5.82102 116.032 5.52415 115.895 5.26562C115.759 5.00426 115.567 4.7983 115.32 4.64773C115.076 4.49716 114.789 4.42188 114.459 4.42188C114.101 4.42188 113.789 4.50994 113.522 4.68608C113.258 4.85937 113.053 5.08665 112.908 5.3679C112.766 5.64631 112.695 5.94886 112.695 6.27557V7.02131C112.695 7.45881 112.772 7.83097 112.925 8.13778C113.081 8.4446 113.299 8.67898 113.577 8.84091C113.856 9 114.181 9.07955 114.553 9.07955C114.794 9.07955 115.015 9.04545 115.214 8.97727C115.412 8.90625 115.584 8.80114 115.729 8.66193C115.874 8.52273 115.985 8.35085 116.062 8.14631L117.267 8.36364C117.171 8.71875 116.998 9.02983 116.748 9.29688C116.5 9.56108 116.189 9.76705 115.814 9.91477C115.442 10.0597 115.017 10.1321 114.54 10.1321ZM124.087 5.05256L122.932 5.2571C122.884 5.10937 122.807 4.96875 122.702 4.83523C122.6 4.7017 122.461 4.59233 122.284 4.5071C122.108 4.42187 121.888 4.37926 121.624 4.37926C121.263 4.37926 120.962 4.46023 120.721 4.62216C120.479 4.78125 120.358 4.98722 120.358 5.24006C120.358 5.45881 120.439 5.63494 120.601 5.76847C120.763 5.90199 121.024 6.01136 121.385 6.09659L122.425 6.33523C123.027 6.47443 123.476 6.68892 123.772 6.97869C124.067 7.26847 124.215 7.64489 124.215 8.10795C124.215 8.5 124.101 8.84943 123.874 9.15625C123.649 9.46023 123.336 9.69886 122.932 9.87216C122.532 10.0455 122.067 10.1321 121.539 10.1321C120.806 10.1321 120.208 9.97585 119.745 9.66335C119.282 9.34801 118.997 8.90057 118.892 8.32102L120.124 8.13352C120.201 8.45455 120.358 8.69744 120.597 8.86222C120.836 9.02415 121.147 9.10511 121.53 9.10511C121.948 9.10511 122.282 9.01847 122.532 8.84517C122.782 8.66903 122.907 8.45455 122.907 8.2017C122.907 7.99716 122.83 7.82528 122.676 7.68608C122.526 7.54687 122.294 7.44176 121.982 7.37074L120.874 7.12784C120.263 6.98864 119.811 6.76705 119.519 6.46307C119.229 6.15909 119.084 5.77415 119.084 5.30824C119.084 4.92187 119.192 4.58381 119.408 4.29403C119.624 4.00426 119.922 3.77841 120.303 3.61648C120.684 3.4517 121.12 3.36932 121.611 3.36932C122.319 3.36932 122.875 3.52273 123.282 3.82955C123.688 4.13352 123.956 4.54119 124.087 5.05256ZM129.091 3.45455V4.47727H125.516V3.45455H129.091ZM126.475 1.88636H127.749V8.07812C127.749 8.32528 127.786 8.51136 127.86 8.63636C127.933 8.75852 128.029 8.84233 128.145 8.88778C128.264 8.9304 128.394 8.9517 128.533 8.9517C128.635 8.9517 128.725 8.9446 128.801 8.9304C128.878 8.91619 128.938 8.90483 128.98 8.89631L129.21 9.94886C129.137 9.97727 129.031 10.0057 128.895 10.0341C128.759 10.0653 128.588 10.0824 128.384 10.0852C128.049 10.0909 127.736 10.0312 127.446 9.90625C127.156 9.78125 126.922 9.58807 126.743 9.3267C126.564 9.06534 126.475 8.73722 126.475 8.34233V1.88636ZM130.921 10V3.45455H132.195V10H130.921ZM131.564 2.4446C131.342 2.4446 131.152 2.37074 130.993 2.22301C130.837 2.07244 130.759 1.89347 130.759 1.68608C130.759 1.47585 130.837 1.29687 130.993 1.14915C131.152 0.998579 131.342 0.923295 131.564 0.923295C131.786 0.923295 131.975 0.998579 132.131 1.14915C132.29 1.29687 132.369 1.47585 132.369 1.68608C132.369 1.89347 132.29 2.07244 132.131 2.22301C131.975 2.37074 131.786 2.4446 131.564 2.4446ZM139.928 3.45455L137.555 10H136.191L133.813 3.45455H135.181L136.839 8.49148H136.907L138.56 3.45455H139.928ZM144.08 10.1321C143.467 10.1321 142.931 9.99148 142.474 9.71023C142.016 9.42898 141.661 9.03551 141.408 8.52983C141.155 8.02415 141.029 7.43324 141.029 6.7571C141.029 6.07812 141.155 5.48437 141.408 4.97585C141.661 4.46733 142.016 4.07244 142.474 3.79119C142.931 3.50994 143.467 3.36932 144.08 3.36932C144.694 3.36932 145.229 3.50994 145.687 3.79119C146.144 4.07244 146.499 4.46733 146.752 4.97585C147.005 5.48437 147.131 6.07812 147.131 6.7571C147.131 7.43324 147.005 8.02415 146.752 8.52983C146.499 9.03551 146.144 9.42898 145.687 9.71023C145.229 9.99148 144.694 10.1321 144.08 10.1321ZM144.084 9.0625C144.482 9.0625 144.812 8.95739 145.073 8.74716C145.334 8.53693 145.528 8.2571 145.653 7.90767C145.78 7.55824 145.844 7.1733 145.844 6.75284C145.844 6.33523 145.78 5.9517 145.653 5.60227C145.528 5.25 145.334 4.96733 145.073 4.75426C144.812 4.54119 144.482 4.43466 144.084 4.43466C143.684 4.43466 143.352 4.54119 143.087 4.75426C142.826 4.96733 142.631 5.25 142.503 5.60227C142.378 5.9517 142.316 6.33523 142.316 6.75284C142.316 7.1733 142.378 7.55824 142.503 7.90767C142.631 8.2571 142.826 8.53693 143.087 8.74716C143.352 8.95739 143.684 9.0625 144.084 9.0625ZM153.878 5.05256L152.724 5.2571C152.675 5.10937 152.599 4.96875 152.493 4.83523C152.391 4.7017 152.252 4.59233 152.076 4.5071C151.9 4.42187 151.68 4.37926 151.415 4.37926C151.055 4.37926 150.753 4.46023 150.512 4.62216C150.27 4.78125 150.15 4.98722 150.15 5.24006C150.15 5.45881 150.231 5.63494 150.393 5.76847C150.555 5.90199 150.816 6.01136 151.177 6.09659L152.216 6.33523C152.819 6.47443 153.268 6.68892 153.563 6.97869C153.859 7.26847 154.006 7.64489 154.006 8.10795C154.006 8.5 153.893 8.84943 153.665 9.15625C153.441 9.46023 153.127 9.69886 152.724 9.87216C152.323 10.0455 151.859 10.1321 151.33 10.1321C150.597 10.1321 149.999 9.97585 149.536 9.66335C149.073 9.34801 148.789 8.90057 148.684 8.32102L149.915 8.13352C149.992 8.45455 150.15 8.69744 150.388 8.86222C150.627 9.02415 150.938 9.10511 151.322 9.10511C151.739 9.10511 152.073 9.01847 152.323 8.84517C152.573 8.66903 152.698 8.45455 152.698 8.2017C152.698 7.99716 152.621 7.82528 152.468 7.68608C152.317 7.54687 152.086 7.44176 151.773 7.37074L150.665 7.12784C150.055 6.98864 149.603 6.76705 149.31 6.46307C149.02 6.15909 148.876 5.77415 148.876 5.30824C148.876 4.92187 148.984 4.58381 149.199 4.29403C149.415 4.00426 149.714 3.77841 150.094 3.61648C150.475 3.4517 150.911 3.36932 151.403 3.36932C152.11 3.36932 152.667 3.52273 153.073 3.82955C153.479 4.13352 153.748 4.54119 153.878 5.05256Z" fill="#818284"/>
</svg>
