<svg width="40" height="40" viewBox="0 0 40 40" fill="none" xmlns="http://www.w3.org/2000/svg">
<rect x="0.5" y="0.5" width="39" height="39" rx="2.54143" fill="#425C77" fill-opacity="0.5" stroke="black"/>
<path d="M20.1508 17.5V18.4032H19.5V17.5H20.1508Z" fill="black" stroke="black"/>
<path d="M20.1508 22.8555V23.7587H19.5V22.8555H20.1508Z" fill="black" stroke="black"/>
<path d="M12.8501 27.483H13.3501V26.983V15.0443V14.5443H12.8501H6.17939H5.67939V15.0443V26.983V27.483H6.17939H12.8501ZM4.5 27.0511V14.9489C4.5 14.5684 4.63935 14.245 4.96447 13.9334C5.27282 13.6378 5.64451 13.5 6.10576 13.5H12.9237C13.3568 13.5 13.7216 13.6429 14.0419 13.9394C14.357 14.231 14.5 14.5634 14.5 14.9489V27.0511C14.5 27.4366 14.357 27.769 14.0419 28.0606C13.7255 28.3534 13.3475 28.5 12.8942 28.5H6.10576C5.63594 28.5 5.25846 28.3523 4.94337 28.0606C4.63403 27.7744 4.5 27.4579 4.5 27.0511Z" fill="black" stroke="black"/>
</svg>
